<svg width="100" height="37" viewBox="0 0 100 37" fill="none" xmlns="http://www.w3.org/2000/svg">
<g clip-path="url(#clip0_21_15557)">
<path d="M91.6011 14.7646C92.7294 15.4243 93.8286 16.0663 94.9273 16.7092C95.7379 17.1835 96.5521 17.6517 97.3576 18.135C98.8278 19.0172 99.6807 20.3309 99.9632 22.0315C99.9941 22.2175 99.9951 22.4101 99.9953 22.5996C99.9976 24.5011 100.004 26.4026 99.9942 28.3041C99.9877 29.5939 99.5077 30.7043 98.6899 31.6756C98.2515 32.1962 97.7098 32.5804 97.128 32.918C95.7018 33.7452 94.2787 34.5782 92.8586 35.4162C91.9242 35.9676 90.9184 36.22 89.8433 36.1618C89.0555 36.1191 88.302 35.913 87.6149 35.5143C85.7827 34.4512 83.955 33.3799 82.1326 32.2996C81.8654 32.1411 81.6669 32.1094 81.376 32.2832C79.5933 33.3486 77.7934 34.3844 76.0022 35.4349C75.0756 35.9783 74.077 36.2186 73.0136 36.1622C72.0926 36.1132 71.2506 35.8011 70.4571 35.3297C69.0125 34.4715 67.5482 33.6468 66.1146 32.7702C64.4204 31.7342 63.5073 30.2025 63.4827 28.1791C63.4605 26.3623 63.4784 24.5452 63.4779 22.7282C63.4775 21.4285 63.92 20.2958 64.733 19.3036C65.1572 18.786 65.6783 18.3913 66.2523 18.0572C68.0468 17.0123 69.8341 15.9545 71.631 14.9137C71.825 14.8014 71.878 14.6762 71.8774 14.4649C71.871 12.3099 71.845 10.1543 71.882 7.99993C71.9154 6.05906 72.7512 4.51769 74.3819 3.48842C75.6878 2.66404 77.0409 1.91663 78.3744 1.13764C78.7258 0.932493 79.0773 0.726461 79.4379 0.539068C80.0083 0.24251 80.6179 0.0908699 81.2575 0.0263346C82.4415 -0.0933537 83.5197 0.204475 84.5357 0.802155C85.9569 1.6382 87.3756 2.47868 88.8063 3.2976C89.979 3.96895 90.8039 4.93178 91.2819 6.20423C91.491 6.76096 91.5968 7.34165 91.5986 7.93514C91.6056 10.0902 91.6014 12.2452 91.6014 14.4002C91.6011 14.5153 91.6011 14.6307 91.6011 14.7646ZM81.7209 28.6938C81.7629 28.682 81.7739 28.6813 81.7825 28.6762C83.5835 27.6234 85.3974 26.5923 87.18 25.5083C88.1634 24.9102 88.6839 23.9891 88.6846 22.8011C88.6859 20.7843 88.682 18.7673 88.6894 16.7505C88.6901 16.5459 88.6309 16.4324 88.4514 16.3283C86.7279 15.3292 85.0183 14.305 83.2883 13.3177C82.2471 12.7236 81.1754 12.7478 80.1373 13.3465C78.4388 14.3262 76.7517 15.3265 75.0543 16.3084C74.8583 16.4217 74.7827 16.5438 74.7838 16.7762C74.7935 18.7614 74.791 20.7466 74.7888 22.7317C74.7875 24.0089 75.3626 24.9465 76.4249 25.5941C76.8969 25.8819 77.3787 26.1533 77.8559 26.4324C79.1432 27.1856 80.4303 27.9388 81.7209 28.6938ZM71.8734 18.169C71.7342 18.2439 71.6514 18.2853 71.5715 18.3321C70.2751 19.092 68.9843 19.8621 67.6811 20.6099C66.8131 21.108 66.366 21.8546 66.357 22.8517C66.3411 24.5946 66.3434 26.3379 66.3563 28.0808C66.3634 29.0438 66.7936 29.7803 67.6171 30.2654C69.1277 31.1553 70.6369 32.0479 72.1572 32.9207C72.9066 33.3508 73.6984 33.3688 74.4504 32.9429C75.8483 32.1512 77.227 31.3242 78.6128 30.5106C78.6689 30.4776 78.7173 30.4307 78.7818 30.3806C78.6974 30.3227 78.6398 30.2774 78.5772 30.2409C77.3966 29.5516 76.2176 28.8596 75.0338 28.176C74.0824 27.6268 73.3128 26.8896 72.7468 25.9383C72.1522 24.9389 71.8741 23.8501 71.8734 22.686C71.8725 21.3126 71.8731 19.9394 71.8731 18.566C71.8734 18.4511 71.8734 18.3364 71.8734 18.169ZM84.6745 30.3815C84.7842 30.4559 84.8651 30.5177 84.9521 30.5687C86.2758 31.3426 87.5998 32.1157 88.9248 32.8875C89.7313 33.3574 90.5523 33.3637 91.3545 32.9016C92.8818 32.0218 94.4002 31.1258 95.916 30.2257C96.7075 29.7557 97.1101 29.0316 97.1179 28.1087C97.1326 26.3455 97.1352 24.5818 97.1169 22.8187C97.1069 21.8618 96.6831 21.1272 95.8498 20.6438C94.6768 19.9634 93.5105 19.2713 92.3406 18.5858C92.1102 18.4507 91.8759 18.3227 91.6014 18.1677C91.6014 18.3333 91.6014 18.4468 91.6014 18.5604C91.6014 19.9754 91.6048 21.3902 91.5986 22.8051C91.5974 23.0884 91.5817 23.3751 91.5363 23.654C91.2234 25.574 90.2639 27.0603 88.6123 28.0666C87.8907 28.5062 87.1561 28.924 86.4276 29.3517C85.8528 29.689 85.2784 30.0266 84.6745 30.3815ZM74.7895 13.0556C74.9142 12.9921 74.9967 12.955 75.0746 12.9096C76.2825 12.2066 77.4822 11.4888 78.699 10.8022C80.7138 9.66543 82.7514 9.67722 84.7665 10.7881C85.9988 11.4675 87.1986 12.2074 88.4137 12.9188C88.4899 12.9634 88.5726 12.9969 88.6695 13.044C88.6765 12.9543 88.6841 12.9022 88.6841 12.85C88.6848 11.1818 88.6856 9.51366 88.6828 7.84538C88.6825 7.73089 88.6633 7.6145 88.6384 7.50229C88.4778 6.78061 88.0613 6.25253 87.4356 5.88688C85.9498 5.01876 84.4652 4.14835 82.9763 3.28569C82.1485 2.80604 81.3135 2.8167 80.4856 3.29291C80.0426 3.54763 79.6029 3.80805 79.162 4.06645C78.0912 4.69392 77.013 5.3091 75.9522 5.95344C75.1927 6.4147 74.7907 7.10886 74.7898 8.0206C74.7885 9.57262 74.7895 11.1246 74.7895 12.6768C74.7895 12.7887 74.7895 12.9008 74.7895 13.0556Z" fill="#221AFB"/>
<path d="M17.5039 16.5108C17.4958 16.0853 17.4965 15.6752 17.4764 15.266C17.4672 15.0794 17.4403 14.8868 17.381 14.7108C17.1337 13.9763 16.3393 13.7172 15.7096 14.1555C15.6419 14.2027 15.578 14.2555 15.4899 14.3229C15.2047 14.0832 14.9192 13.8436 14.6163 13.5893C14.9533 13.208 15.3654 13.0105 15.8312 12.9203C16.3746 12.8151 16.9091 12.8586 17.4134 13.0964C18.163 13.4498 18.5765 14.0661 18.6816 14.886C18.7282 15.2501 18.7217 15.6217 18.7282 15.99C18.7362 16.4453 18.7997 16.5172 19.2487 16.5358C19.2896 16.5375 19.3302 16.5456 19.4074 16.5552C19.4107 16.7204 19.4153 16.8855 19.4169 17.0506C19.4186 17.2186 19.4173 17.3866 19.4173 17.5485C19.1872 17.6258 7.79202 17.6546 7.2403 17.5809C7.2403 16.3865 7.2403 15.1872 7.2403 13.9975C6.30622 13.7167 5.56363 14.2543 5.54576 15.2068C5.53289 15.8933 5.54364 16.5802 5.54239 17.2669C5.54214 17.3701 5.53376 17.4734 5.52826 17.5969C5.40914 17.6026 5.3079 17.6116 5.20665 17.6116C4.2172 17.6126 3.22775 17.6126 2.2383 17.6121C0.989238 17.6115 0.0355356 16.635 0.000912278 15.335C-0.0148369 14.7448 0.129406 14.2086 0.487263 13.7376C0.512512 13.7044 0.540385 13.6728 0.570009 13.6435C0.584258 13.6294 0.605382 13.6227 0.65713 13.5937C0.930616 13.8223 1.21498 14.0601 1.49921 14.2977C1.41847 14.5101 1.31247 14.707 1.2701 14.917C1.16623 15.4311 1.24773 15.9157 1.65295 16.2779C1.7927 16.4028 1.99719 16.5143 2.1763 16.5215C2.87189 16.5494 3.56923 16.5329 4.3012 16.5329C4.30595 16.4061 4.31082 16.2945 4.3142 16.183C4.3282 15.7092 4.29707 15.2288 4.36432 14.7631C4.51294 13.7339 5.31027 12.9824 6.32572 12.907C6.98819 12.8578 7.65528 12.8728 8.32037 12.861C8.35937 12.8603 8.39874 12.8771 8.47049 12.8929C8.47049 14.0953 8.47049 15.2939 8.47049 16.5134C9.87379 16.5134 11.2421 16.5134 12.634 16.5134C12.6093 15.9949 12.605 15.4812 12.5548 14.972C12.5063 14.4801 12.1783 14.0421 11.5976 13.954C11.3141 13.911 11.0629 13.9855 10.83 14.1407C10.7609 14.1867 10.7006 14.2463 10.6036 14.3268C10.3169 14.0863 10.0262 13.8422 9.72455 13.5891C10.0504 13.2194 10.4378 13.0196 10.8725 12.9308C11.5918 12.784 12.2813 12.8685 12.8928 13.3151C13.491 13.7522 13.776 14.3655 13.811 15.101C13.8266 15.4277 13.8082 15.7559 13.8156 16.0833C13.8222 16.3725 13.9615 16.5305 14.2262 16.5318C15.2885 16.5368 16.351 16.5335 17.4133 16.5316C17.4525 16.5318 17.4919 16.5138 17.5039 16.5108Z" fill="#221AFB"/>
<path d="M50.4188 16.4564C50.6566 16.5484 51.6941 16.5686 52.0898 16.4958C52.0525 16.4066 52.0141 16.3222 51.9815 16.2358C51.6584 15.3792 51.7195 14.5633 52.2367 13.7975C52.4737 13.4467 52.799 13.2044 53.1838 13.0507C53.7854 12.8106 54.4025 12.7932 55.0097 13.0138C55.7693 13.2897 56.2612 13.8308 56.4355 14.6384C56.6039 15.4184 56.5004 16.1508 55.9927 16.7887C55.577 17.3109 55.0245 17.5944 54.3699 17.606C53.1729 17.627 51.9753 17.6109 50.7779 17.6128C50.4768 17.6133 50.239 17.4836 50.0382 17.2677C49.996 17.2223 49.9554 17.1753 49.8885 17.1005C49.3975 17.626 48.7674 17.6226 48.1227 17.6169C46.5298 17.6025 44.9367 17.611 43.3437 17.6135C43.1158 17.6138 42.8896 17.6244 42.6992 17.4495C42.458 18.9 41.776 19.5367 40.3348 19.6579C40.3348 19.3242 40.3348 18.9913 40.3348 18.6361C40.3856 18.6163 40.4491 18.5829 40.5166 18.5666C41.0834 18.4304 41.4193 18.0185 41.4355 17.415C41.4455 17.0457 41.4377 16.6757 41.4377 16.3061C41.4377 15.4295 41.4377 14.5529 41.4377 13.6764C41.4377 13.5631 41.4377 13.4497 41.4377 13.3198C41.8645 13.3198 42.2545 13.3198 42.6872 13.3198C42.6872 13.4422 42.6872 13.5543 42.6872 13.6665C42.6872 14.4692 42.6871 15.2718 42.6875 16.0745C42.6875 16.1484 42.6827 16.2233 42.6928 16.2959C42.7125 16.4352 42.7807 16.5327 42.935 16.5331C43.3597 16.5338 43.7845 16.5333 44.2395 16.5333C44.2395 15.4996 44.2395 14.4907 44.2395 13.4439C44.6249 13.4168 44.9811 13.4263 45.3692 13.4374C45.3692 13.7936 45.3692 14.1256 45.3692 14.5055C45.557 14.4171 45.6493 14.2898 45.7497 14.181C46.0898 13.8123 46.4907 13.5309 46.9478 13.3421C47.7441 13.0132 48.5588 12.9305 49.3629 13.2985C50.1024 13.6369 50.4975 14.2476 50.6282 15.0559C50.6964 15.4781 50.6324 15.8709 50.4798 16.259C50.457 16.3168 50.4427 16.3778 50.4188 16.4564ZM45.6182 16.4916C45.6453 16.508 45.6618 16.5269 45.6784 16.5269C46.6144 16.5299 47.5507 16.5442 48.4864 16.5278C48.9495 16.5196 49.276 16.2102 49.3825 15.747C49.4771 15.3357 49.4023 14.9495 49.1745 14.6011C48.9473 14.2534 48.5967 14.1129 48.2061 14.1362C47.7643 14.1624 47.3585 14.3305 46.9973 14.5963C46.3734 15.0551 45.9663 15.685 45.6378 16.3759C45.6211 16.411 45.6238 16.4557 45.6182 16.4916ZM53.0406 15.233C53.0405 15.5757 53.0981 15.7931 53.2176 16.0224C53.5723 16.7023 54.6405 16.6961 55.0104 16.1171C55.338 15.6042 55.377 15.0748 55.1064 14.5344C54.7695 13.8619 53.8932 13.7406 53.3711 14.2801C53.1133 14.5466 53.0258 14.8709 53.0406 15.233Z" fill="#221AFB"/>
<path d="M32.4686 13.5709C32.7844 13.8344 33.0632 14.0672 33.3488 14.3054C33.2841 14.45 33.2135 14.5776 33.168 14.7139C32.9766 15.2875 33.0377 15.8233 33.4752 16.259C33.6071 16.3903 33.8126 16.5076 33.9907 16.5179C34.5582 16.5506 35.1286 16.5301 35.7281 16.5301C35.6837 16.4203 35.6505 16.3457 35.623 16.2689C35.2776 15.3054 35.3484 14.4042 36.0306 13.6053C36.3249 13.2606 36.705 13.0488 37.1439 12.9512C37.9692 12.7675 38.7333 12.8805 39.3922 13.4553C39.7414 13.76 39.9678 14.1495 40.0679 14.6026C40.2415 15.3893 40.1491 16.1316 39.6373 16.7797C39.2239 17.3031 38.6752 17.5961 38.019 17.6059C36.6657 17.6259 35.3117 17.6268 33.9584 17.6073C32.8639 17.5914 31.9204 16.6385 31.856 15.5292C31.8224 14.949 31.8815 14.3894 32.2195 13.8949C32.2894 13.7924 32.3705 13.6977 32.4686 13.5709ZM36.6663 15.2494C36.6445 15.5118 36.7228 15.7826 36.8667 16.0329C37.1999 16.6125 38.0316 16.7281 38.5106 16.2657C38.9726 15.8198 39.056 14.9754 38.6916 14.4345C38.4265 14.0411 37.9806 13.8674 37.5236 13.9795C36.9927 14.1098 36.6699 14.5759 36.6663 15.2494Z" fill="#221AFB"/>
<path d="M34.3851 28.5107C34.3615 28.5925 34.3421 28.6592 34.3214 28.7309C33.9217 28.7309 33.5307 28.7309 33.1221 28.7309C33.1221 26.3313 33.1221 23.9495 33.1221 21.5447C33.5244 21.5447 33.9223 21.5447 34.3535 21.5447C34.3535 22.4181 34.3535 23.2776 34.3535 24.1782C34.4398 24.1333 34.4859 24.1152 34.5257 24.0877C35.2788 23.5675 36.3667 23.7138 37.0432 24.2344C37.7408 24.7712 38.1148 25.4834 38.1027 26.382C38.0848 27.7104 37.1241 28.6635 36.1187 28.8539C35.5857 28.955 35.0612 28.9334 34.585 28.6185C34.5254 28.5792 34.4589 28.5501 34.3851 28.5107ZM36.8633 26.1965C36.8244 26.0668 36.7825 25.8021 36.6696 25.5734C36.2708 24.7657 35.1902 24.7003 34.7049 25.2904C34.2858 25.7998 34.2298 26.3682 34.4464 26.9732C34.7842 27.9172 35.9221 27.939 36.4262 27.4431C36.7346 27.1397 36.8453 26.7531 36.8633 26.1965Z" fill="#221AFB"/>
<path d="M25.0902 16.5342C25.4928 16.5342 25.888 16.5337 26.2834 16.5343C26.5235 16.5347 26.6844 16.4144 26.7449 16.1858C26.7874 16.0254 26.8097 15.8546 26.8104 15.6884C26.8154 14.2939 26.8132 12.8995 26.8132 11.5052C26.8132 11.3914 26.8132 11.2775 26.8132 11.145C27.2147 11.145 27.5843 11.145 27.976 11.145C27.984 11.2248 27.999 11.305 27.9992 11.3854C28.0005 12.8854 28.0009 14.3855 27.9997 15.8855C27.9994 16.1932 27.9669 16.4977 27.8386 16.7809C27.5978 17.3124 27.174 17.5816 26.6086 17.6082C26.2034 17.6273 25.7962 17.6209 25.3906 17.607C25.2511 17.6024 25.1134 17.5411 24.9543 17.5005C24.8635 18.1436 24.6353 18.7258 24.1114 19.1542C23.6704 19.515 23.1603 19.648 22.5857 19.6666C22.5857 19.3264 22.5857 18.9932 22.5857 18.6359C22.6582 18.614 22.7433 18.5824 22.8311 18.5625C23.234 18.4707 23.4971 18.2153 23.6135 17.8251C23.6816 17.5969 23.7226 17.3516 23.7249 17.1135C23.7361 15.9727 23.7299 14.8318 23.7299 13.6909C23.7299 13.5761 23.7299 13.4612 23.7299 13.3239C24.1325 13.3239 24.5117 13.3239 24.9223 13.3239C24.9276 13.4371 24.9371 13.5493 24.9372 13.6615C24.9385 14.4538 24.9387 15.2461 24.9373 16.0383C24.937 16.2093 24.9366 16.378 25.0902 16.5342Z" fill="#221AFB"/>
<path d="M42.4469 24.1801C42.4688 24.0938 42.4858 24.0267 42.5065 23.9453C42.897 23.9453 43.2884 23.9453 43.6764 23.9453C43.7422 24.1901 43.7685 28.0014 43.7089 28.7331C43.5121 28.7381 43.3099 28.7452 43.1075 28.7479C42.9107 28.7504 42.7137 28.7484 42.5123 28.7484C42.4913 28.6636 42.4744 28.5953 42.4559 28.5207C42.4212 28.5263 42.3853 28.5215 42.3637 28.5371C40.9205 29.5733 38.729 28.3663 38.7249 26.3844C38.7227 25.3619 39.1297 24.5838 40.0022 24.0906C40.7684 23.6574 41.5591 23.6108 42.3301 24.1151C42.3622 24.1366 42.3977 24.1531 42.4469 24.1801ZM39.9481 26.3327C39.9588 26.3349 39.9695 26.337 39.9802 26.3393C39.9802 26.4131 39.9757 26.4873 39.9809 26.5607C40.0217 27.1273 40.3988 27.5936 40.9218 27.7268C41.4644 27.8648 42.0081 27.6514 42.2908 27.1589C42.539 26.7265 42.5574 26.2587 42.4143 25.7841C42.2604 25.2737 41.7975 24.916 41.2805 24.9028C40.7176 24.8885 40.2577 25.1916 40.0767 25.7213C40.0099 25.9167 39.9895 26.1285 39.9481 26.3327Z" fill="#221AFB"/>
<path d="M5.09767 24.1936C5.11791 24.1004 5.13266 24.0326 5.15091 23.9482C5.53814 23.9482 5.92862 23.9482 6.33723 23.9482C6.33723 25.5443 6.33723 27.123 6.33723 28.7254C5.94937 28.7254 5.56914 28.7254 5.16529 28.7254C5.14529 28.6655 5.12041 28.5909 5.08442 28.4831C4.42945 28.9806 3.71136 29.0205 2.97965 28.7521C2.24081 28.4811 1.73621 27.9332 1.49885 27.1839C1.17361 26.1573 1.36973 25.2178 2.14081 24.451C2.53554 24.0584 3.02839 23.8488 3.58862 23.7809C4.14671 23.7131 4.63081 23.8729 5.09767 24.1936ZM5.16566 26.3473C5.11129 26.1143 5.08254 25.8711 4.99717 25.6504C4.8218 25.1966 4.4602 24.9567 3.99472 24.9092C3.54337 24.863 3.15089 25.0149 2.8834 25.4054C2.55592 25.8834 2.52679 26.4045 2.71516 26.9424C2.88003 27.4127 3.21701 27.6889 3.70099 27.749C4.23196 27.8149 4.66419 27.6312 4.9398 27.1451C5.07717 26.9027 5.14166 26.6383 5.16566 26.3473Z" fill="#221AFB"/>
<path d="M16.8533 24.1368C16.866 24.0875 16.8811 24.0287 16.9013 23.9503C17.2869 23.9503 17.678 23.9503 18.0703 23.9503C18.1379 24.1593 18.1626 28.2449 18.0954 28.7276C17.7084 28.7276 17.3178 28.7276 16.9088 28.7276C16.8903 28.665 16.8702 28.5975 16.848 28.5223C16.8207 28.5275 16.7866 28.5242 16.7657 28.5396C15.535 29.4429 13.5133 28.6589 13.1774 26.8426C13.0069 25.9208 13.2309 25.097 13.9175 24.4507C14.5232 23.8805 15.2519 23.644 16.0731 23.8237C16.3312 23.8801 16.5714 24.021 16.8533 24.1368ZM15.6474 27.7554C16.2069 27.7553 16.619 27.4545 16.8076 26.9233C16.9471 26.5302 16.9475 26.1429 16.8095 25.7502C16.6397 25.267 16.3031 24.9716 15.8091 24.913C15.3115 24.8541 14.8867 25.0211 14.6051 25.4741C14.4083 25.7907 14.3427 26.1419 14.3808 26.5039C14.4745 27.3944 15.0562 27.7764 15.6474 27.7554Z" fill="#221AFB"/>
<path d="M21.9365 21.5347C22.3314 21.5347 22.7032 21.5347 23.1198 21.5347C23.1217 21.9655 23.1243 22.3934 23.1253 22.8214C23.1263 23.2433 23.1256 23.665 23.1256 24.122C23.2103 24.0813 23.2751 24.0597 23.3296 24.0226C24.2178 23.4195 25.8051 23.9047 26.1007 25.1729C26.1672 25.458 26.2178 25.7536 26.2237 26.0454C26.2401 26.8688 26.2297 27.6928 26.2288 28.5165C26.2287 28.5784 26.2199 28.6401 26.2134 28.725C25.8145 28.725 25.4247 28.725 24.9972 28.725C24.9916 28.6209 24.9809 28.5102 24.9806 28.3995C24.9791 27.6285 24.9837 26.8576 24.977 26.0868C24.9754 25.8987 24.9529 25.708 24.9149 25.5238C24.8435 25.1779 24.6225 24.9766 24.2803 24.9132C23.7473 24.8143 23.2936 25.1166 23.1926 25.6533C23.152 25.8692 23.1308 26.0918 23.1283 26.3118C23.1203 27.0088 23.1253 27.7058 23.1253 28.4028C23.1253 28.5057 23.1253 28.6086 23.1253 28.7302C22.7136 28.7302 22.3345 28.7302 21.9364 28.7302C21.9365 26.3335 21.9365 23.9516 21.9365 21.5347Z" fill="#221AFB"/>
<path d="M50.4978 21.5344C50.8929 21.5344 51.2649 21.5344 51.6807 21.5344C51.6826 21.9769 51.6852 22.4157 51.6862 22.8544C51.6872 23.3086 51.6865 23.7629 51.6865 24.217C51.6865 24.6593 51.6865 25.1016 51.6865 25.6029C51.7836 25.5299 51.8491 25.4919 51.9009 25.4399C52.3151 25.0235 52.7321 24.6097 53.1367 24.1839C53.3064 24.0053 53.4842 23.9125 53.738 23.9254C54.1406 23.9461 54.5451 23.9309 54.9795 23.9873C54.3232 24.6363 53.667 25.2852 52.9907 25.9541C53.702 26.8712 54.4059 27.7788 55.1582 28.7488C54.8445 28.7488 54.6005 28.7517 54.3565 28.7479C54.1181 28.7443 53.8488 28.8011 53.6508 28.7066C53.4648 28.6178 53.3525 28.3677 53.2112 28.1859C52.8581 27.7311 52.5068 27.2748 52.1373 26.7963C51.9986 26.9341 51.8619 27.0488 51.7539 27.1867C51.7029 27.2517 51.6914 27.3609 51.6894 27.4508C51.682 27.7675 51.6865 28.0844 51.6865 28.4014C51.6865 28.5045 51.6865 28.6076 51.6865 28.7295C51.2755 28.7295 50.8964 28.7295 50.4978 28.7295C50.4978 26.3336 50.4978 23.9515 50.4978 21.5344Z" fill="#221AFB"/>
<path d="M44.9602 23.9322C45.3271 23.9322 45.679 23.9247 46.0302 23.9388C46.0955 23.9414 46.1576 24.0303 46.2083 24.0694C46.4444 23.9839 46.689 23.8675 46.9462 23.8072C47.7804 23.6117 49.0043 24.1451 49.1821 25.3953C49.2029 25.5409 49.2314 25.6872 49.2325 25.8334C49.2395 26.7726 49.2401 27.712 49.2416 28.6514C49.2416 28.6704 49.2275 28.6895 49.212 28.7286C48.8295 28.7286 48.4392 28.7286 48.0146 28.7286C48.0096 28.6144 48.0006 28.5025 48.0003 28.3908C47.9991 27.6094 48.0044 26.828 47.9963 26.0468C47.9942 25.8487 47.9684 25.6468 47.9224 25.4543C47.8559 25.1761 47.6714 25.0084 47.3911 24.9378C46.8136 24.7923 46.3494 25.0719 46.2293 25.6627C46.1898 25.8571 46.1706 26.0589 46.1686 26.2576C46.1615 26.965 46.1659 27.6726 46.1659 28.3801C46.1659 28.4848 46.1659 28.5895 46.1659 28.7215C45.7597 28.7215 45.3717 28.7215 44.9602 28.7215C44.9602 27.143 44.9602 25.5651 44.9602 23.9322Z" fill="#221AFB"/>
<path d="M18.3059 31.2727C18.3059 30.9071 18.3059 30.5729 18.3059 30.2849C18.5535 30.1623 18.7969 30.0858 18.9869 29.9384C19.3441 29.6613 19.4397 29.2511 19.4392 28.8106C19.4375 27.3128 19.4386 25.8148 19.4386 24.3169C19.4386 24.2028 19.4386 24.0887 19.4386 23.9532C19.8542 23.9532 20.2422 23.9532 20.6497 23.9532C20.6559 24.0551 20.6664 24.1471 20.6665 24.2392C20.6675 25.832 20.6758 27.425 20.6644 29.0177C20.6563 30.155 19.7727 31.1556 18.5546 31.2825C18.4839 31.2899 18.4114 31.2774 18.3059 31.2727Z" fill="#221AFB"/>
<path d="M7.58398 21.5219C7.88372 21.5219 8.16283 21.5219 8.44182 21.5219C8.55394 21.5219 8.66606 21.5219 8.7953 21.5219C8.7953 23.9334 8.7953 26.3142 8.7953 28.7218C8.39832 28.7218 8.00121 28.7218 7.58398 28.7218C7.58398 26.335 7.58398 23.9552 7.58398 21.5219Z" fill="#221AFB"/>
<path d="M29.0853 11.1371C29.4913 11.1371 29.875 11.1371 30.2583 11.1371C30.3256 11.3552 30.3453 17.1598 30.2751 17.6123C30.0872 17.6123 29.8923 17.6123 29.6974 17.6123C29.5008 17.6123 29.3041 17.6123 29.0853 17.6123C29.0853 15.45 29.0853 13.3119 29.0853 11.1371Z" fill="#221AFB"/>
<path d="M22.1043 17.5983C21.7144 17.5983 21.3426 17.5983 20.9709 17.5983C20.905 17.3828 20.8829 11.6217 20.9488 11.145C21.3249 11.145 21.704 11.145 22.1045 11.145C22.1043 13.2875 22.1043 15.4246 22.1043 17.5983Z" fill="#221AFB"/>
<path d="M11.1885 28.7528C10.7646 28.7528 10.3747 28.7528 9.95986 28.7528C9.95223 28.6491 9.93998 28.5577 9.93986 28.4662C9.93836 27.6223 9.92861 26.7781 9.94461 25.9346C9.95011 25.6436 9.99011 25.3448 10.0694 25.0657C10.2411 24.4605 10.6488 24.0784 11.2548 23.932C11.7319 23.8167 12.2139 23.7686 12.7142 23.8916C12.7142 24.2294 12.7142 24.5631 12.7142 24.9341C12.565 24.9379 12.4235 24.9404 12.2821 24.9454C12.1472 24.9502 12.0115 24.9494 11.8778 24.9654C11.4068 25.0218 11.1923 25.27 11.1897 25.7711C11.1855 26.5834 11.1885 27.3957 11.1885 28.2079C11.1885 28.3843 11.1885 28.5607 11.1885 28.7528Z" fill="#221AFB"/>
<path d="M27.4715 23.9493C27.8706 23.9493 28.2518 23.9493 28.6497 23.9493C28.6497 25.5469 28.6497 27.1258 28.6497 28.7267C28.2568 28.7267 27.8762 28.7267 27.4935 28.7267C27.4249 28.5188 27.4016 24.4372 27.4715 23.9493Z" fill="#221AFB"/>
<path d="M28.0547 23.0641C27.5948 23.0638 27.2884 22.7564 27.2925 22.2994C27.2964 21.8746 27.6253 21.5527 28.0472 21.5408C28.4353 21.5299 28.8247 21.8701 28.8254 22.3071C28.8261 22.6979 28.47 23.1287 28.0547 23.0641Z" fill="#221AFB"/>
<path d="M20.0612 23.0641C19.6223 23.1303 19.2665 22.6651 19.2878 22.3082C19.3131 21.8807 19.6193 21.549 20.0385 21.5431C20.49 21.5366 20.8108 21.85 20.8129 22.2995C20.8152 22.7763 20.5337 23.0628 20.0612 23.0641Z" fill="#221AFB"/>
<path d="M2.3333 20.0844C1.91744 20.0838 1.62521 19.789 1.62708 19.372C1.62896 18.9568 1.92482 18.6662 2.34267 18.6692C2.7254 18.672 3.03676 18.9815 3.04276 19.3653C3.04889 19.7585 2.72665 20.0851 2.3333 20.0844Z" fill="#221AFB"/>
<path d="M5.04289 19.3649C5.04801 19.7741 4.7479 20.082 4.34155 20.0845C3.94444 20.0871 3.62508 19.7691 3.62721 19.3732C3.62921 18.9905 3.93794 18.6758 4.3178 18.6694C4.7284 18.6626 5.03789 18.9594 5.04289 19.3649Z" fill="#221AFB"/>
<path d="M35.8122 12.0114C35.8034 12.4266 35.516 12.6813 35.0718 12.6674C34.6833 12.6553 34.4024 12.3444 34.4172 11.943C34.4316 11.5542 34.7434 11.2547 35.125 11.2511C35.5138 11.2476 35.8575 11.5819 35.8122 12.0114Z" fill="#221AFB"/>
<path d="M17.3133 19.3729C17.3683 19.7516 16.9786 20.1157 16.6213 20.0902C16.2239 20.0619 15.9146 19.7662 15.9184 19.3641C15.922 18.9765 16.2256 18.6929 16.6135 18.6641C17.0057 18.6351 17.3694 19.0304 17.3133 19.3729Z" fill="#221AFB"/>
</g>
<defs>
<clipPath id="clip0_21_15557">
<rect width="100" height="36.1702" fill="white"/>
</clipPath>
</defs>
</svg>
