<svg width="64" height="64" viewBox="0 0 64 64" fill="none" xmlns="http://www.w3.org/2000/svg">
<path opacity="0.5" d="M26.6667 53.3334H37.3333C47.39 53.3334 52.4183 53.3334 55.5425 50.2092C58.6667 47.085 58.6667 42.0567 58.6667 32.0001C58.6667 30.8216 58.6623 27.7122 58.6572 26.6667H5.33396C5.32894 27.7122 5.33332 30.8216 5.33332 32.0001C5.33332 42.0567 5.33332 47.085 8.45752 50.2092C11.5817 53.3334 16.61 53.3334 26.6666 53.3334H26.6667Z" fill="#5E5ED8"/>
<path d="M14 36.0001C14 34.8955 14.8954 34.0001 16 34.0001H21.3333C22.4379 34.0001 23.3333 34.8955 23.3333 36.0001C23.3333 37.1047 22.4379 38.0001 21.3333 38.0001H16C14.8954 38.0001 14 37.1047 14 36.0001Z" fill="#5E5ED8"/>
<path d="M14 44.0001C14 42.8955 14.8954 42.0001 16 42.0001H26.6667C27.7712 42.0001 28.6667 42.8955 28.6667 44.0001C28.6667 45.1047 27.7712 46.0001 26.6667 46.0001H16C14.8954 46.0001 14 45.1047 14 44.0001Z" fill="#5E5ED8"/>
<path fill-rule="evenodd" clip-rule="evenodd" d="M45.8592 32.7822C44.9984 32.6665 43.9402 32.6666 42.786 32.6668H42.5473C41.3932 32.6666 40.3349 32.6665 39.4741 32.7822C38.5262 32.9097 37.5242 33.2095 36.7002 34.0336C35.8761 34.8577 35.5762 35.8596 35.4488 36.8075C35.3331 37.6684 35.3332 38.7266 35.3333 39.8808L35.3333 40.0001L35.3333 40.1194C35.3332 41.2736 35.3331 42.3318 35.4488 43.1927C35.5762 44.1406 35.8761 45.1425 36.7002 45.9666C37.5242 46.7907 38.5262 47.0905 39.4741 47.218C40.3349 47.3337 41.3932 47.3336 42.5473 47.3334L42.6667 47.3334L42.786 47.3334C43.9402 47.3336 44.9984 47.3337 45.8592 47.218C46.8072 47.0905 47.8091 46.7907 48.6332 45.9666C49.4572 45.1425 49.7571 44.1406 49.8845 43.1927C50.0003 42.3318 50.0001 41.2736 50 40.1194V39.8808C50.0001 38.7266 50.0003 37.6684 49.8845 36.8075C49.7571 35.8596 49.4572 34.8577 48.6332 34.0336C47.8091 33.2095 46.8072 32.9097 45.8592 32.7822ZM39.5351 36.8584L39.5287 36.8619L39.525 36.8686C39.5223 36.8737 39.518 36.8826 39.5124 36.896C39.4885 36.9541 39.4477 37.083 39.4131 37.3405C39.3376 37.9025 39.3333 38.6865 39.3333 40.0001C39.3333 41.3137 39.3376 42.0977 39.4131 42.6597C39.4477 42.9172 39.4885 43.0461 39.5124 43.1042C39.5158 43.1123 39.5187 43.1188 39.521 43.1238C39.5226 43.127 39.5239 43.1296 39.525 43.1316L39.5286 43.1381L39.5351 43.1418C39.5403 43.1445 39.5491 43.1488 39.5626 43.1543C39.6206 43.1782 39.7496 43.219 40.0071 43.2536C40.569 43.3292 41.353 43.3334 42.6667 43.3334C43.9803 43.3334 44.7643 43.3292 45.3262 43.2536C45.5837 43.219 45.7127 43.1782 45.7708 43.1543C45.7842 43.1488 45.7931 43.1445 45.7982 43.1418L45.8047 43.1381L45.8084 43.1316C45.8111 43.1265 45.8154 43.1176 45.8209 43.1042C45.8448 43.0461 45.8856 42.9172 45.9202 42.6597C45.9958 42.0977 46 41.3137 46 40.0001C46 38.6865 45.9958 37.9025 45.9202 37.3405C45.8856 37.083 45.8448 36.9541 45.8209 36.896C45.8154 36.8826 45.8111 36.8737 45.8084 36.8686L45.8047 36.8621L45.7982 36.8584C45.7931 36.8557 45.7842 36.8514 45.7708 36.8459C45.7127 36.822 45.5837 36.7812 45.3262 36.7466C44.7643 36.671 43.9803 36.6668 42.6667 36.6668C41.353 36.6668 40.569 36.671 40.0071 36.7466C39.7496 36.7812 39.6206 36.822 39.5626 36.8459C39.5491 36.8514 39.5403 36.8557 39.5351 36.8584Z" fill="#5E5ED8"/>
<path d="M26.6529 10.6667H37.3471C47.4296 10.6667 52.4709 10.6667 55.6031 13.6422C57.8584 15.7845 58.4898 18.8669 58.6666 24.0001V26.6667H5.33331V24.0001C5.51012 18.8669 6.14157 15.7845 8.39681 13.6422C11.5291 10.6667 16.5703 10.6667 26.6529 10.6667Z" fill="#5E5ED8"/>
</svg>
