<svg width="46" height="27" viewBox="0 0 46 27" fill="none" xmlns="http://www.w3.org/2000/svg">
<g clip-path="url(#clip0_0_180)">
<path d="M39.578 9.91522C38.1386 13.0164 35.3105 15.8442 31.3781 18.1144C27.4456 20.3846 22.5473 22.0173 17.1754 22.8482M32.1851 8.49259C31.0624 10.9115 28.8565 13.1172 25.7892 14.888C22.7219 16.6587 18.9012 17.9322 14.7111 18.5803M25.2179 7.08289C24.3857 8.84375 22.7675 10.452 20.526 11.746C18.2845 13.0401 15.4986 13.9743 12.4484 14.4547M18.0715 5.77665C17.6611 6.93632 16.6877 7.9875 15.262 8.81059C13.8362 9.63368 12.0153 10.1956 10.0066 10.4325" stroke="white" stroke-width="3.05435" stroke-linecap="round"/>
</g>
<defs>
<clipPath id="clip0_0_180">
<rect width="23.756" height="28.5072" fill="white" transform="matrix(0.88016 0.508116 -0.88016 0.508116 25.0909 0)"/>
</clipPath>
</defs>
</svg>
