<svg width="140" height="100" viewBox="0 0 140 100" fill="none" xmlns="http://www.w3.org/2000/svg">
<path fill-rule="evenodd" clip-rule="evenodd" d="M37.8484 8.86076C37.8484 3.9671 41.8155 0 46.7092 0H82.6766L107.469 24.7921L107.468 41.7722H107.468H114.323L107.469 35.3623V31.7598L118.228 41.7722H118.228V92.4051C118.228 96.5996 114.828 100 110.633 100H110.633H34.684C30.4894 100 27.089 96.5996 27.089 92.4051V41.7723V41.7722H27.0892L37.8479 31.7605L37.8484 8.86076ZM37.8479 35.3631L30.9944 41.7722H37.8475H37.8477L37.8479 35.3631ZM40.3792 44.3038H40.3791V51.482L61.1294 72.2323L67.1589 65.9014C70.1519 62.7586 75.1654 62.7586 78.1584 65.9014L84.1878 72.2323L104.937 51.4836V44.3038H104.936H99.7038C99.8115 44.49 99.8731 44.7061 99.8731 44.9367C99.8731 45.6358 99.3064 46.2025 98.6073 46.2025H46.7085C46.0094 46.2025 45.4427 45.6358 45.4427 44.9367C45.4427 44.7061 45.5043 44.49 45.612 44.3038H40.3792ZM104.936 44.3037V41.7722L104.936 41.7722L104.937 26.5823H89.7472C84.8535 26.5823 80.8864 22.6152 80.8864 17.7215V2.53165H46.7092C43.2137 2.53165 40.3801 5.36529 40.3801 8.86076L40.3793 41.7722L40.3802 41.7722V44.3037H45.6121C45.8309 43.9254 46.24 43.6709 46.7085 43.6709H98.6073C99.0758 43.6709 99.4849 43.9254 99.7037 44.3037H104.936ZM107.468 44.3038V48.952L112.116 44.3038H107.468ZM37.8475 48.9503V44.3038H33.201L37.8475 48.9503ZM83.4181 4.32179L103.147 24.0506H89.7472C86.2517 24.0506 83.4181 21.217 83.4181 17.7215V4.32179ZM122.658 13.9241C122.658 15.3223 121.525 16.4557 120.127 16.4557C118.729 16.4557 117.595 15.3223 117.595 13.9241C117.595 12.5259 118.729 11.3924 120.127 11.3924C121.525 11.3924 122.658 12.5259 122.658 13.9241ZM125.19 13.9241C125.19 16.7204 122.923 18.9874 120.127 18.9874C117.33 18.9874 115.063 16.7204 115.063 13.9241C115.063 11.1277 117.33 8.86078 120.127 8.86078C122.923 8.86078 125.19 11.1277 125.19 13.9241ZM8.22754 15.1898H12.025V20.2531L17.0881 20.2531V24.0506H12.025V29.1139H8.22754V24.0506H3.16406V20.2531H8.22754V15.1898ZM130.254 63.2911H134.051V68.3544H139.114V72.1519H134.051V77.2152H130.254V72.1519H125.19V68.3544H130.254V63.2911ZM5.06329 70.8861C6.46148 70.8861 7.59494 69.7526 7.59494 68.3544C7.59494 66.9562 6.46148 65.8228 5.06329 65.8228C3.6651 65.8228 2.53165 66.9562 2.53165 68.3544C2.53165 69.7526 3.6651 70.8861 5.06329 70.8861ZM5.06329 73.4177C7.85967 73.4177 10.1266 71.1508 10.1266 68.3544C10.1266 65.5581 7.85967 63.2911 5.06329 63.2911C2.26691 63.2911 0 65.5581 0 68.3544C0 71.1508 2.26691 73.4177 5.06329 73.4177ZM29.6207 92.4051V44.3038L59.383 74.0661L37.0951 97.4684H34.684C31.8876 97.4684 29.6207 95.2014 29.6207 92.4051ZM104.726 97.4684H40.5911L68.9921 67.6473C70.9875 65.5522 74.3298 65.5522 76.3252 67.6474L104.726 97.4684ZM110.633 97.4684H108.222L85.9343 74.0661L115.697 44.3038V92.4051C115.697 95.2014 113.43 97.4684 110.633 97.4684ZM63.7976 92.4051C63.0985 92.4051 62.5317 92.9718 62.5317 93.6709C62.5317 94.37 63.0985 94.9367 63.7976 94.9367H66.3292C67.0283 94.9367 67.595 94.37 67.595 93.6709C67.595 92.9718 67.0283 92.4051 66.3292 92.4051H63.7976ZM70.127 93.6709C70.127 92.9718 70.6937 92.4051 71.3928 92.4051H73.9244C74.6235 92.4051 75.1902 92.9718 75.1902 93.6709C75.1902 94.37 74.6235 94.9367 73.9244 94.9367H71.3928C70.6937 94.9367 70.127 94.37 70.127 93.6709ZM46.7085 13.9241C46.0094 13.9241 45.4427 14.4908 45.4427 15.1899C45.4427 15.889 46.0094 16.4557 46.7085 16.4557H69.4933C70.1924 16.4557 70.7592 15.889 70.7592 15.1899C70.7592 14.4908 70.1924 13.9241 69.4933 13.9241H46.7085ZM46.7085 51.2659C46.0094 51.2659 45.4427 51.8326 45.4427 52.5317C45.4427 53.2308 46.0094 53.7975 46.7085 53.7975H69.4933C70.1924 53.7975 70.7592 53.2308 70.7592 52.5317C70.7592 51.8326 70.1924 51.2659 69.4933 51.2659H46.7085ZM73.291 52.5317C73.291 51.8326 73.8577 51.2659 74.5568 51.2659H98.6075C99.3066 51.2659 99.8733 51.8326 99.8733 52.5317C99.8733 53.2308 99.3066 53.7975 98.6075 53.7975H74.5568C73.8577 53.7975 73.291 53.2308 73.291 52.5317ZM46.7085 21.519C46.0094 21.519 45.4427 22.0857 45.4427 22.7848C45.4427 23.4839 46.0094 24.0506 46.7085 24.0506H59.3668C60.0659 24.0506 60.6326 23.4839 60.6326 22.7848C60.6326 22.0857 60.0659 21.519 59.3668 21.519H46.7085ZM45.4427 37.3418C45.4427 36.6427 46.0094 36.0759 46.7085 36.0759H54.3035C55.0026 36.0759 55.5693 36.6427 55.5693 37.3418C55.5693 38.0409 55.0026 38.6076 54.3035 38.6076H46.7085C46.0094 38.6076 45.4427 38.0409 45.4427 37.3418ZM59.3672 36.0759C58.6681 36.0759 58.1014 36.6427 58.1014 37.3418C58.1014 38.0409 58.6681 38.6076 59.3672 38.6076H98.6077C99.3068 38.6076 99.8736 38.0409 99.8736 37.3418C99.8736 36.6427 99.3068 36.0759 98.6077 36.0759H59.3672ZM77.7214 93.6709C77.7214 92.9718 78.2881 92.4051 78.9872 92.4051H81.5188C82.2179 92.4051 82.7847 92.9718 82.7847 93.6709C82.7847 94.37 82.2179 94.9367 81.5188 94.9367H78.9872C78.2881 94.9367 77.7214 94.37 77.7214 93.6709Z" fill="#F5E9F0"/>
</svg>
