<svg width="120" height="44" viewBox="0 0 120 44" fill="none" xmlns="http://www.w3.org/2000/svg">
<path d="M105.455 36.8225H102.148V35.1419H102.654C103.487 35.1419 104.308 34.9019 105.118 34.4217C105.95 33.9215 106.535 33.1813 106.873 32.2009L110.888 18.7864C111.113 18.0862 111.53 17.526 112.137 17.1058C112.767 16.6857 113.487 16.4756 114.297 16.4756H120L116.119 29.35C115.422 31.4707 114.049 33.2513 112.002 34.6918C109.955 36.1123 107.773 36.8225 105.455 36.8225ZM103.464 43.4848C104.297 43.4848 105.084 43.2247 105.827 42.7045C106.569 42.1843 107.064 41.5441 107.311 40.7838C107.379 40.5438 107.413 40.3137 107.413 40.0936C107.413 39.6335 107.266 39.2233 106.974 38.8632C106.546 38.343 105.917 38.0829 105.084 38.0829C104.252 38.0829 103.464 38.343 102.722 38.8632C101.979 39.3834 101.484 40.0236 101.237 40.7838C101.17 41.0239 101.136 41.254 101.136 41.4741C101.136 41.9342 101.282 42.3444 101.574 42.7045C101.979 43.2247 102.609 43.4848 103.464 43.4848Z" fill="white"/>
<path d="M102.577 6.21231C103.41 6.21231 104.039 6.4724 104.467 6.99258C104.894 7.51275 105.007 8.16297 104.804 8.94324C104.557 9.70349 104.062 10.3437 103.32 10.8639C102.577 11.3841 101.79 11.6442 100.957 11.6442C100.125 11.6442 99.495 11.3841 99.0675 10.8639C98.64 10.3437 98.5276 9.70349 98.73 8.94324C98.9775 8.16297 99.4725 7.51275 100.215 6.99258C100.957 6.4724 101.745 6.21231 102.577 6.21231ZM96.5365 35.5022C96.424 35.3822 96.334 35.2521 96.2666 35.1121C94.4217 36.2525 92.4645 36.8227 90.3947 36.8227H87.0875V35.1421H87.5937C88.4261 35.1421 89.2473 34.902 90.0572 34.4219C90.8896 33.9217 91.4746 33.1814 91.812 32.2011L96.5703 16.3557C96.7952 15.6555 97.2115 15.0953 97.8189 14.6752C98.4488 14.255 99.1687 14.045 99.9787 14.045H105.682L103.117 22.5678L100.215 32.2011C99.9449 33.1814 100.069 33.9217 100.586 34.4219C101.126 34.902 101.812 35.1421 102.645 35.1421L102.138 36.8227H99.7087C98.3138 36.8227 97.2564 36.3825 96.5365 35.5022Z" fill="white"/>
<path d="M72.5454 35.1422C73.4678 35.1422 74.334 34.8621 75.1439 34.3019C75.9538 33.7217 76.4938 33.0115 76.7637 32.1712L80.8471 18.6366C80.9146 18.3565 80.9483 18.0964 80.9483 17.8563C80.9483 17.3562 80.7908 16.916 80.4758 16.5359C80.0034 15.9557 79.3172 15.6656 78.4173 15.6656C77.4949 15.6656 76.6288 15.9557 75.8188 16.5359C75.0089 17.0961 74.469 17.7963 74.199 18.6366L70.1157 32.1712C70.0482 32.4513 70.0145 32.7114 70.0145 32.9514C70.0145 33.4516 70.1607 33.8918 70.4532 34.2719C70.9256 34.8521 71.623 35.1422 72.5454 35.1422ZM84.6604 36.8228C84.3454 36.8228 84.053 36.8028 83.783 36.7627C83.0181 38.5433 81.7357 40.0639 79.9359 41.3243C77.8886 42.7648 75.7064 43.485 73.3891 43.485H69.407L69.7782 42.3446C69.9132 41.9645 70.1719 41.7744 70.5544 41.7744C71.3868 41.7744 72.208 41.5344 73.0179 41.0542C73.8503 40.574 74.4352 39.8438 74.7727 38.8634L75.3464 36.8228H68.6984C66.3811 36.8228 64.6263 36.1125 63.4339 34.692C62.264 33.2515 61.9603 31.4709 62.5228 29.3502C62.7702 28.59 63.0065 27.8297 63.2314 27.0695C64.3113 23.4682 65.3912 19.877 66.4711 16.2958C66.6961 15.5956 67.1123 15.0354 67.7197 14.6152C68.3496 14.1951 69.0696 13.985 69.8795 13.985H82.2307C84.5479 13.985 86.2915 14.7053 87.4614 16.1458C88.6537 17.5662 88.9687 19.3368 88.4062 21.4576C87.5513 24.2785 86.7077 27.0995 85.8753 29.9204C85.6053 30.8207 85.3353 31.711 85.0654 32.5913C84.9304 33.3716 85.0991 33.9718 85.5716 34.3919C86.089 34.8921 86.7639 35.1422 87.5963 35.1422L87.0901 36.8228H84.6604Z" fill="white"/>
<path d="M48.5345 36.8225H39.8954V35.1419H45.7335C46.6559 35.1419 47.5221 34.8618 48.332 34.3016C49.1419 33.7214 49.6818 33.0112 49.9518 32.1709L54.4738 17.1358C54.5413 16.8557 54.5751 16.5756 54.5751 16.2955C54.5751 15.7753 54.4401 15.2852 54.1701 14.825C53.7652 14.1248 53.1352 13.6546 52.2803 13.4145C51.9878 13.3545 51.7066 13.3245 51.4367 13.3245C50.8742 13.3245 50.3343 13.4546 49.8168 13.7146C49.0744 14.1348 48.5682 14.755 48.2982 15.5753C48.1408 15.9354 47.8708 16.1155 47.4883 16.1155H46.1385L47.0834 13.0244C47.7583 10.8237 49.1194 8.80298 51.1667 6.96235C53.2365 5.10172 55.5087 3.8513 57.9835 3.21109L71.4483 0L69.8622 5.25177C69.3447 6.85232 68.2424 7.89267 66.555 8.37283L52.6515 11.6739L53.7652 11.9741L61.1894 13.8647C62.4492 14.2448 63.0792 14.9751 63.0792 16.0554C63.0792 16.2955 63.0454 16.5556 62.9779 16.8357C61.2456 22.5376 59.997 26.709 59.2321 29.3499C58.5346 31.4706 57.151 33.2512 55.0813 34.6917C53.034 36.1122 50.8517 36.8225 48.5345 36.8225Z" fill="white"/>
<path d="M39.8882 36.8225H30.8442C30.0343 36.8225 29.4831 36.6524 29.1906 36.3123C28.8982 35.9722 28.7519 35.6021 28.7519 35.2019C28.7519 34.8818 29.6518 31.7608 31.4516 25.8388L34.0839 17.1358C34.1513 16.8557 34.1851 16.5756 34.1851 16.2955C34.1851 15.7754 34.0501 15.2852 33.7801 14.825C33.3752 14.1248 32.734 13.6546 31.8566 13.4146C31.5641 13.3545 31.2829 13.3245 31.0129 13.3245C30.4505 13.3245 29.9218 13.4546 29.4269 13.7147C28.6844 14.1348 28.167 14.755 27.8745 15.5753C27.5371 16.8557 26.1647 21.4473 23.7575 29.35C23.06 31.4707 21.6877 33.2513 19.6404 34.6918C17.5931 36.1122 15.4109 36.8225 13.0936 36.8225H6.44556C4.12831 36.8225 2.47474 36.2223 1.48484 35.0219C0.494947 33.8015 0 32.561 0 31.3006C0 30.6804 0.0899904 30.0302 0.269971 29.35L2.96968 20.4369C3.19466 19.7967 3.56587 19.4766 4.08331 19.4766C4.62326 19.4766 5.17445 19.7067 5.73689 20.1668L10.3601 23.8581L7.86291 32.1709C7.77292 32.451 7.72792 32.7211 7.72792 32.9812C7.72792 33.4814 7.88541 33.9115 8.20037 34.2716C8.67282 34.8518 9.37025 35.1419 10.2926 35.1419C11.1476 35.1219 11.98 34.8618 12.7899 34.3616C13.5998 33.8615 14.1735 33.1212 14.5109 32.1409L19.2354 16.3856C19.9104 14.3049 21.0353 12.8344 22.6101 11.9741C24.2074 11.0938 25.7147 10.6536 27.1321 10.6536C27.8295 10.6536 28.5494 10.7437 29.2919 10.9237L40.7656 13.8647C42.048 14.2648 42.6892 14.9951 42.6892 16.0555C42.6892 16.2955 42.6554 16.5556 42.5879 16.8357L40.5969 23.3779L37.9647 32.1709C37.8972 32.451 37.8635 32.7111 37.8635 32.9512C37.8635 33.4513 38.0209 33.8915 38.3359 34.2716C38.7859 34.8518 39.472 35.1419 40.3944 35.1419L39.8882 36.8225ZM4.31954 43.4847C5.15195 43.4847 5.93936 43.2246 6.68178 42.7045C7.42421 42.1843 7.91915 41.5441 8.16663 40.7838C8.23412 40.5237 8.26787 40.2736 8.26787 40.0336C8.26787 39.5934 8.13288 39.2033 7.86291 38.8632C7.43546 38.343 6.79427 38.0829 5.93936 38.0829C5.10695 38.0829 4.31954 38.343 3.57712 38.8632C2.8347 39.3833 2.33975 40.0236 2.09228 40.7838C2.02478 41.0239 1.99104 41.254 1.99104 41.4741C1.99104 41.9342 2.13727 42.3443 2.42974 42.7045C2.85719 43.2246 3.48713 43.4847 4.31954 43.4847ZM11.1363 43.4847C11.9687 43.4847 12.7561 43.2246 13.4986 42.7045C14.241 42.1843 14.7359 41.5441 14.9834 40.7838C15.0509 40.5437 15.0846 40.3137 15.0846 40.0936C15.0846 39.6334 14.9384 39.2233 14.6459 38.8632C14.2185 38.343 13.5885 38.0829 12.7561 38.0829C11.9237 38.0829 11.1363 38.343 10.3939 38.8632C9.65147 39.3833 9.15652 40.0236 8.90905 40.7838C8.84155 41.0439 8.80781 41.284 8.80781 41.5041C8.80781 41.9642 8.94279 42.3644 9.21276 42.7045C9.64022 43.2246 10.2814 43.4847 11.1363 43.4847Z" fill="white"/>
</svg>
