<svg width="64" height="64" viewBox="0 0 64 64" fill="none" xmlns="http://www.w3.org/2000/svg">
<path d="M13.0443 25.6382C13.0443 24.5652 13.9073 23.6953 14.972 23.6953H25.2531C26.3178 23.6953 27.1808 24.5652 27.1808 25.6382C27.1808 26.7112 26.3178 27.581 25.2531 27.581H14.972C13.9073 27.581 13.0443 26.7112 13.0443 25.6382Z" fill="#FF64C1"/>
<path fill-rule="evenodd" clip-rule="evenodd" d="M56.5025 26.6768C56.3364 26.6666 56.1557 26.6667 55.9683 26.6668L55.9215 26.6668H48.5731C42.5161 26.6668 37.3333 31.2963 37.3333 37.3334C37.3333 43.3706 42.5161 48.0001 48.5731 48.0001H55.9215L55.9683 48.0001C56.1557 48.0001 56.3364 48.0002 56.5025 47.99C58.9628 47.8392 61.1386 45.9697 61.3215 43.3585C61.3335 43.1873 61.3334 43.0027 61.3333 42.8317L61.3333 42.7853V31.8816L61.3333 31.8351C61.3334 31.6641 61.3335 31.4795 61.3215 31.3083C61.1386 28.6971 58.9628 26.8276 56.5025 26.6768ZM47.9216 40.1778C49.481 40.1778 50.7451 38.9043 50.7451 37.3334C50.7451 35.7625 49.481 34.489 47.9216 34.489C46.3622 34.489 45.098 35.7625 45.098 37.3334C45.098 38.9043 46.3622 40.1778 47.9216 40.1778Z" fill="#FF64C1"/>
<path opacity="0.5" d="M56.3717 26.6707C56.3717 23.5223 56.2573 20.1452 54.2447 17.7241C54.0505 17.4904 53.8436 17.2635 53.6234 17.0432C51.6277 15.0476 49.0972 14.162 45.9707 13.7416C42.9328 13.3332 39.0512 13.3332 34.1505 13.3333H28.5162C23.6156 13.3332 19.7338 13.3332 16.696 13.7416C13.5695 14.162 11.039 15.0476 9.04333 17.0432C7.04769 19.0389 6.16205 21.5694 5.74171 24.6959C5.33327 27.7338 5.3333 31.6154 5.33334 36.5161V36.817C5.3333 41.7177 5.33327 45.5994 5.74171 48.6373C6.16205 51.7638 7.04769 54.2943 9.04333 56.2899C11.039 58.2856 13.5695 59.1712 16.696 59.5916C19.7338 60 23.6155 60 28.5161 59.9999H34.1504C39.0511 60 42.9329 60 45.9707 59.5916C49.0972 59.1712 51.6277 58.2856 53.6234 56.2899C54.1687 55.7446 54.6319 55.1583 55.0256 54.5294C56.2269 52.6109 56.3718 50.2594 56.3718 47.9959C56.2432 48 56.1077 48 55.9684 47.9999L48.5732 47.9999C42.5161 47.9999 37.3333 43.3704 37.3333 37.3333C37.3333 31.2961 42.5161 26.6666 48.5732 26.6666L55.9683 26.6666C56.1076 26.6665 56.2432 26.6665 56.3717 26.6707Z" fill="#FF64C1"/>
<path d="M26.9372 6.85889L21.3333 10.6467L16.7112 13.7396C19.7469 13.3332 23.6238 13.3332 28.5162 13.3333H34.1505C39.0512 13.3332 42.9328 13.3332 45.9707 13.7416C46.5818 13.8238 47.1701 13.9237 47.7361 14.0462L42.6667 10.6666L37.0333 6.85889C34.0238 4.82471 29.9467 4.82471 26.9372 6.85889Z" fill="#FF64C1"/>
</svg>
