<svg width="22" height="22" viewBox="0 0 22 22" fill="none" xmlns="http://www.w3.org/2000/svg">
<rect x="1" y="1" width="20" height="20" rx="3" stroke="#493594" stroke-opacity="0.5" stroke-width="2"/>
<path d="M5 12C5 11.4477 5.44772 11 6 11C6.55228 11 7 11.4477 7 12V16C7 16.5523 6.55228 17 6 17C5.44772 17 5 16.5523 5 16V12Z" fill="#493594" fill-opacity="0.5"/>
<path d="M10 6C10 5.44772 10.4477 5 11 5C11.5523 5 12 5.44772 12 6V16C12 16.5523 11.5523 17 11 17C10.4477 17 10 16.5523 10 16V6Z" fill="#493594" fill-opacity="0.5"/>
<path d="M15 10C15 9.44772 15.4477 9 16 9C16.5523 9 17 9.44772 17 10V16C17 16.5523 16.5523 17 16 17C15.4477 17 15 16.5523 15 16V10Z" fill="#493594" fill-opacity="0.5"/>
</svg>
