<svg width="39" height="23" viewBox="0 0 39 23" fill="none" xmlns="http://www.w3.org/2000/svg">
<path fill-rule="evenodd" clip-rule="evenodd" d="M16.2781 20.2258C21.5201 23.252 29.9685 23.2812 35.1481 20.291C40.3277 17.3008 40.2771 12.4236 35.0351 9.39739C32.6858 8.04114 29.6925 7.28685 26.638 7.13656C26.3776 5.37323 25.0711 3.64521 22.7218 2.28897C17.4798 -0.737227 9.03145 -0.766421 3.85185 2.22376C-1.32775 5.21394 -1.27718 10.0912 3.9648 13.1174C6.31411 14.4736 9.30745 15.2279 12.3619 15.3782C12.6223 17.1415 13.9289 18.8696 16.2781 20.2258Z" fill="#ED0006"/>
<path fill-rule="evenodd" clip-rule="evenodd" d="M16.2782 20.2259C21.5202 23.2521 29.9685 23.2813 35.1481 20.2911C40.3277 17.3009 40.2772 12.4237 35.0352 9.39752C32.6859 8.04126 29.6926 7.28698 26.6381 7.13668C26.9587 9.30789 25.6931 11.5326 22.8348 13.1827C19.9766 14.8328 16.1229 15.5634 12.362 15.3783C12.6224 17.1417 13.9289 18.8697 16.2782 20.2259Z" fill="#F9A000"/>
<path fill-rule="evenodd" clip-rule="evenodd" d="M12.3621 15.3782C12.0415 13.207 13.3071 10.9823 16.1653 9.3322C19.0236 7.68213 22.8772 6.95151 26.6382 7.13657C26.9587 9.30777 25.6932 11.5325 22.8349 13.1826C19.9767 14.8326 16.123 15.5633 12.3621 15.3782Z" fill="#FF5E00"/>
</svg>
