<svg width="64" height="64" viewBox="0 0 64 64" fill="none" xmlns="http://www.w3.org/2000/svg">
<path opacity="0.5" d="M8.45754 19.1242C10.7076 16.8741 13.9454 16.2446 19.3381 16.0684L23.3389 16.005C24.3827 16 25.4903 16 26.6667 16H37.3333C38.5097 16 39.6174 16 40.6611 16.005L44.6619 16.0684C50.0546 16.2446 53.2924 16.8741 55.5425 19.1242C58.6667 22.2484 58.6667 27.2767 58.6667 37.3333C58.6667 47.39 58.6667 52.4183 55.5425 55.5425C52.4183 58.6667 47.39 58.6667 37.3334 58.6667H37.3333H26.6666H26.6666C16.61 58.6667 11.5817 58.6667 8.45754 55.5425C5.33334 52.4183 5.33334 47.39 5.33334 37.3333C5.33334 27.2767 5.33334 22.2484 8.45754 19.1242Z" fill="#FFD067"/>
<path d="M34 26.6667C34 25.5622 33.1046 24.6667 32 24.6667C30.8954 24.6667 30 25.5622 30 26.6667V26.694C27.0966 27.4255 24.6667 29.7147 24.6667 32.889C24.6667 36.7741 28.3068 39.3334 32 39.3334C34.1979 39.3334 35.3333 40.7538 35.3333 41.7779C35.3333 42.8019 34.1979 44.2223 32 44.2223C29.8021 44.2223 28.6667 42.8019 28.6667 41.7779C28.6667 40.6733 27.7712 39.7779 26.6667 39.7779C25.5621 39.7779 24.6667 40.6733 24.6667 41.7779C24.6667 44.9521 27.0966 47.2413 30 47.9728V48.0001C30 49.1047 30.8954 50.0001 32 50.0001C33.1046 50.0001 34 49.1047 34 48.0001V47.9728C36.9034 47.2413 39.3333 44.9521 39.3333 41.7779C39.3333 37.8927 35.6932 35.3334 32 35.3334C29.8021 35.3334 28.6667 33.9131 28.6667 32.889C28.6667 31.8649 29.8021 30.4445 32 30.4445C34.1979 30.4445 35.3333 31.8649 35.3333 32.889C35.3333 33.9935 36.2288 34.889 37.3333 34.889C38.4379 34.889 39.3333 33.9935 39.3333 32.889C39.3333 29.7147 36.9034 27.4255 34 26.694V26.6667Z" fill="#FFD067"/>
<path d="M32.1391 3.33325H31.8618C29.4658 3.33318 27.4679 3.33312 25.8818 3.54636C24.2077 3.77144 22.6962 4.26656 21.4816 5.48114C20.2671 6.69573 19.7719 8.2072 19.5469 9.88132C19.394 11.0183 19.3507 13.7372 19.3385 16.0683L23.3393 16.0049C23.3514 13.7472 23.3898 11.3174 23.5112 10.4143C23.6766 9.18374 23.9626 8.65708 24.3101 8.30957C24.6576 7.96206 25.1842 7.67613 26.4148 7.51069C27.7029 7.33751 29.4297 7.33326 32.0004 7.33326C34.5711 7.33326 36.2979 7.33751 37.586 7.51069C38.8166 7.67613 39.3433 7.96206 39.6908 8.30957C40.0383 8.65708 40.3242 9.18374 40.4897 10.4143C40.6111 11.3174 40.6495 13.7472 40.6616 16.0049L44.6623 16.0683C44.6501 13.7372 44.6069 11.0183 44.454 9.88132C44.2289 8.2072 43.7338 6.69573 42.5192 5.48115C41.3046 4.26656 39.7932 3.77144 38.119 3.54636C36.533 3.33312 34.535 3.33318 32.1391 3.33325Z" fill="#FFD067"/>
</svg>
