<svg width="40" height="7" viewBox="0 0 40 7" fill="none" xmlns="http://www.w3.org/2000/svg">
<path d="M6.31641 3.56284C6.31641 4.42127 6.06237 5.10453 5.55325 5.61467C4.9755 6.2211 4.22156 6.52431 3.29552 6.52431C2.40841 6.52431 1.65345 6.217 1.0337 5.60237C0.412925 4.98672 0.102538 4.22459 0.102538 3.31494C0.102538 2.40427 0.412925 1.64213 1.0337 1.0275C1.65345 0.411852 2.40841 0.104539 3.29552 0.104539C3.73601 0.104539 4.15702 0.190587 4.55653 0.361658C4.95706 0.533753 5.27769 0.762189 5.5174 1.04799L4.97755 1.58886C4.57087 1.10228 4.01054 0.859505 3.2945 0.859505C2.64709 0.859505 2.08778 1.08692 1.61554 1.54174C1.1433 1.99656 0.907698 2.58763 0.907698 3.31391C0.907698 4.0402 1.1433 4.63126 1.61554 5.08609C2.08778 5.54091 2.64709 5.76832 3.2945 5.76832C3.98083 5.76832 4.55346 5.53989 5.01136 5.08199C5.30843 4.7839 5.48052 4.36902 5.52662 3.83737H3.2945V3.0988H6.27236C6.3031 3.25962 6.31641 3.4143 6.31641 3.56284Z" fill="white"/>
<path d="M11.0389 0.995805H8.24029V2.94417H10.7644V3.68275H8.24029V5.63111H11.0389V6.38711H7.4505V0.240839H11.0389V0.995805Z" fill="white"/>
<path d="M14.369 6.38711H13.5792V0.995805H11.8624V0.240839H16.0859V0.995805H14.369V6.38711Z" fill="white"/>
<path d="M19.1416 6.38711V0.240839H19.9314V6.38711H19.1416Z" fill="white"/>
<path d="M23.4339 6.38711H22.6441V0.995805H20.9272V0.240839H25.1507V0.995805H23.4339V6.38711Z" fill="white"/>
<path d="M33.1458 5.5932C32.5414 6.21398 31.7905 6.52436 30.8921 6.52436C29.9937 6.52436 29.2429 6.21398 28.6395 5.5932C28.0351 4.97243 27.734 4.21234 27.734 3.31396C27.734 2.41558 28.0351 1.65549 28.6395 1.03472C29.2429 0.413948 29.9937 0.102538 30.8921 0.102538C31.7854 0.102538 32.5352 0.414973 33.1417 1.03882C33.7481 1.66266 34.0513 2.4207 34.0513 3.31396C34.0513 4.21234 33.7491 4.97243 33.1458 5.5932ZM29.2224 5.07794C29.6772 5.53891 30.2335 5.76837 30.8921 5.76837C31.5508 5.76837 32.1081 5.53789 32.5619 5.07794C33.0167 4.61697 33.2451 4.02898 33.2451 3.31396C33.2451 2.59895 33.0167 2.01095 32.5619 1.54998C32.1081 1.08901 31.5508 0.859553 30.8921 0.859553C30.2335 0.859553 29.6772 1.09004 29.2224 1.54998C28.7686 2.01095 28.5402 2.59895 28.5402 3.31396C28.5402 4.02898 28.7686 4.61697 29.2224 5.07794Z" fill="white"/>
<path d="M35.1597 6.38711V0.240839H36.1206L39.1077 5.02161H39.1415L39.1077 3.83743V0.240839H39.8975V6.38711H39.0728L35.9475 1.3738H35.9137L35.9475 2.55798V6.38711H35.1597Z" fill="white"/>
<path d="M6.31641 3.56284C6.31641 4.42127 6.06237 5.10453 5.55325 5.61467C4.9755 6.2211 4.22156 6.52431 3.29552 6.52431C2.40841 6.52431 1.65345 6.217 1.0337 5.60237C0.412925 4.98672 0.102538 4.22459 0.102538 3.31494C0.102538 2.40427 0.412925 1.64213 1.0337 1.0275C1.65345 0.411852 2.40841 0.104539 3.29552 0.104539C3.73601 0.104539 4.15702 0.190587 4.55653 0.361658C4.95706 0.533753 5.27769 0.762189 5.5174 1.04799L4.97755 1.58886C4.57087 1.10228 4.01054 0.859505 3.2945 0.859505C2.64709 0.859505 2.08778 1.08692 1.61554 1.54174C1.1433 1.99656 0.907698 2.58763 0.907698 3.31391C0.907698 4.0402 1.1433 4.63126 1.61554 5.08609C2.08778 5.54091 2.64709 5.76832 3.2945 5.76832C3.98083 5.76832 4.55346 5.53989 5.01136 5.08199C5.30843 4.7839 5.48052 4.36902 5.52662 3.83737H3.2945V3.0988H6.27236C6.3031 3.25962 6.31641 3.4143 6.31641 3.56284Z" stroke="white" stroke-width="0.2" stroke-miterlimit="10"/>
<path d="M11.0389 0.995805H8.24029V2.94417H10.7644V3.68275H8.24029V5.63111H11.0389V6.38711H7.4505V0.240839H11.0389V0.995805Z" stroke="white" stroke-width="0.2" stroke-miterlimit="10"/>
<path d="M14.369 6.38711H13.5792V0.995805H11.8624V0.240839H16.0859V0.995805H14.369V6.38711Z" stroke="white" stroke-width="0.2" stroke-miterlimit="10"/>
<path d="M19.1416 6.38711V0.240839H19.9314V6.38711H19.1416Z" stroke="white" stroke-width="0.2" stroke-miterlimit="10"/>
<path d="M23.4339 6.38711H22.6441V0.995805H20.9272V0.240839H25.1507V0.995805H23.4339V6.38711Z" stroke="white" stroke-width="0.2" stroke-miterlimit="10"/>
<path d="M33.1458 5.5932C32.5414 6.21398 31.7905 6.52436 30.8921 6.52436C29.9937 6.52436 29.2429 6.21398 28.6395 5.5932C28.0351 4.97243 27.734 4.21234 27.734 3.31396C27.734 2.41558 28.0351 1.65549 28.6395 1.03472C29.2429 0.413948 29.9937 0.102538 30.8921 0.102538C31.7854 0.102538 32.5352 0.414973 33.1417 1.03882C33.7481 1.66266 34.0513 2.4207 34.0513 3.31396C34.0513 4.21234 33.7491 4.97243 33.1458 5.5932ZM29.2224 5.07794C29.6772 5.53891 30.2335 5.76837 30.8921 5.76837C31.5508 5.76837 32.1081 5.53789 32.5619 5.07794C33.0167 4.61697 33.2451 4.02898 33.2451 3.31396C33.2451 2.59895 33.0167 2.01095 32.5619 1.54998C32.1081 1.08901 31.5508 0.859553 30.8921 0.859553C30.2335 0.859553 29.6772 1.09004 29.2224 1.54998C28.7686 2.01095 28.5402 2.59895 28.5402 3.31396C28.5402 4.02898 28.7686 4.61697 29.2224 5.07794Z" stroke="white" stroke-width="0.2" stroke-miterlimit="10"/>
<path d="M35.1597 6.38711V0.240839H36.1206L39.1077 5.02161H39.1415L39.1077 3.83743V0.240839H39.8975V6.38711H39.0728L35.9475 1.3738H35.9137L35.9475 2.55798V6.38711H35.1597Z" stroke="white" stroke-width="0.2" stroke-miterlimit="10"/>
</svg>
