<svg width="24" height="26" viewBox="0 0 24 26" fill="none" xmlns="http://www.w3.org/2000/svg">
<path fill-rule="evenodd" clip-rule="evenodd" d="M0.185356 0.834513C0.0659582 1.10492 0 1.43624 0 1.82164V24.1778C0 24.564 0.0660393 24.8954 0.185576 25.1657L12.3502 12.9993L0.185356 0.834513ZM0.888125 25.8927C1.33902 26.0856 1.92721 26.0245 2.56859 25.6607L16.8794 17.5286L13.065 13.7141L0.888125 25.8927ZM17.7917 17.0113L22.2813 14.4604C23.6935 13.6568 23.6935 12.3437 22.2813 11.5411L17.7897 8.98875L13.7797 12.9993L17.7917 17.0113ZM16.8781 8.47077L2.56859 0.339725C1.92717 -0.0247682 1.33895 -0.0855848 0.888042 0.107629L13.0649 12.2845L16.8781 8.47077Z" fill="white"/>
</svg>
