<svg width="282" height="29" viewBox="0 0 282 29" fill="none" xmlns="http://www.w3.org/2000/svg">
<path opacity="0.35" d="M253.048 15.0402C253.048 14.1403 253.777 13.4108 254.677 13.4108H267.211C268.111 13.4108 268.84 14.1403 268.84 15.0402V19.5522C268.84 20.452 268.111 21.1815 267.211 21.1815H254.677C253.777 21.1815 253.048 20.452 253.048 19.5522V15.0402Z" stroke="black" stroke-width="0.751174"/>
<path opacity="0.4" d="M269.968 15.7921V18.8001C270.573 18.5454 270.967 17.9527 270.967 17.2961C270.967 16.6395 270.573 16.0469 269.968 15.7921Z" fill="black"/>
<path d="M254.176 15.5415C254.176 14.9877 254.625 14.5388 255.179 14.5388H266.709C267.263 14.5388 267.712 14.9877 267.712 15.5415V19.0508C267.712 19.6046 267.263 20.0535 266.709 20.0535H255.179C254.625 20.0535 254.176 19.6046 254.176 19.0508V15.5415Z" fill="black"/>
<path fill-rule="evenodd" clip-rule="evenodd" d="M243.145 14.7453C244.811 14.7454 246.413 15.3857 247.621 16.5338C247.712 16.6225 247.857 16.6213 247.947 16.5313L248.816 15.654C248.862 15.6083 248.887 15.5465 248.887 15.4821C248.886 15.4177 248.86 15.3562 248.814 15.3111C245.645 12.2733 240.644 12.2733 237.474 15.3111C237.428 15.3562 237.402 15.4177 237.402 15.482C237.401 15.5464 237.427 15.6083 237.472 15.654L238.341 16.5313C238.431 16.6215 238.576 16.6226 238.667 16.5338C239.875 15.3856 241.478 14.7453 243.145 14.7453ZM243.145 17.5997C244.06 17.5996 244.943 17.9399 245.622 18.5545C245.713 18.6417 245.858 18.6398 245.948 18.5502L246.816 17.6729C246.862 17.6268 246.887 17.5644 246.886 17.4995C246.886 17.4347 246.859 17.3728 246.812 17.3277C244.746 15.4053 241.545 15.4053 239.479 17.3277C239.432 17.3728 239.405 17.4347 239.405 17.4996C239.404 17.5645 239.429 17.6269 239.475 17.6729L240.343 18.5502C240.433 18.6398 240.577 18.6417 240.669 18.5545C241.347 17.9403 242.23 17.6001 243.145 17.5997ZM244.884 19.5201C244.885 19.5852 244.86 19.6479 244.813 19.6935L243.311 21.2093C243.267 21.2538 243.207 21.2789 243.145 21.2789C243.082 21.2789 243.022 21.2538 242.978 21.2093L241.476 19.6935C241.429 19.6479 241.404 19.5851 241.405 19.5201C241.407 19.455 241.435 19.3934 241.483 19.3498C242.442 18.5385 243.847 18.5385 244.806 19.3498C244.855 19.3935 244.883 19.4551 244.884 19.5201Z" fill="black"/>
<path fill-rule="evenodd" clip-rule="evenodd" d="M232.869 13.2854H232.117C231.702 13.2854 231.365 13.622 231.365 14.0374V20.5547C231.365 20.97 231.702 21.3067 232.117 21.3067H232.869C233.285 21.3067 233.621 20.97 233.621 20.5547V14.0374C233.621 13.622 233.285 13.2854 232.869 13.2854ZM228.608 15.04H229.36C229.775 15.04 230.112 15.3767 230.112 15.792V20.5547C230.112 20.97 229.775 21.3067 229.36 21.3067H228.608C228.193 21.3067 227.856 20.97 227.856 20.5547V15.792C227.856 15.3767 228.193 15.04 228.608 15.04ZM225.851 16.7947H225.099C224.683 16.7947 224.347 17.1314 224.347 17.5467V20.5547C224.347 20.97 224.683 21.3067 225.099 21.3067H225.851C226.266 21.3067 226.603 20.97 226.603 20.5547V17.5467C226.603 17.1314 226.266 16.7947 225.851 16.7947ZM222.341 18.2987H221.589C221.174 18.2987 220.837 18.6354 220.837 19.0507V20.5547C220.837 20.97 221.174 21.3067 221.589 21.3067H222.341C222.757 21.3067 223.093 20.97 223.093 20.5547V19.0507C223.093 18.6354 222.757 18.2987 222.341 18.2987Z" fill="black"/>
<path d="M28.0652 21.2488C30.0866 21.2488 31.2873 19.668 31.2873 16.9912C31.2873 15.9833 31.0945 15.1351 30.7255 14.4797C30.1913 13.4607 29.2715 12.9099 28.1093 12.9099C26.3798 12.9099 25.1571 14.0721 25.1571 15.7024C25.1571 17.2336 26.2587 18.3461 27.7733 18.3461C28.7041 18.3461 29.4587 17.911 29.8332 17.1565H29.8498C29.8498 17.1565 29.8718 17.1565 29.8773 17.1565C29.8883 17.1565 29.9269 17.1565 29.9269 17.1565C29.9269 18.974 29.2384 20.0591 28.0763 20.0591C27.3933 20.0591 26.8645 19.6845 26.6828 19.0842H25.2673C25.5041 20.3895 26.6112 21.2488 28.0652 21.2488ZM28.1148 17.217C27.2005 17.217 26.5506 16.5671 26.5506 15.6583C26.5506 14.7716 27.2336 14.0941 28.1203 14.0941C29.0071 14.0941 29.69 14.7826 29.69 15.6804C29.69 16.5671 29.0236 17.217 28.1148 17.217Z" fill="black"/>
<path d="M33.6118 21.1717C34.1351 21.1717 34.4931 20.7971 34.4931 20.3014C34.4931 19.8002 34.1351 19.4312 33.6118 19.4312C33.0941 19.4312 32.7306 19.8002 32.7306 20.3014C32.7306 20.7971 33.0941 21.1717 33.6118 21.1717ZM33.6118 17.0408C34.1351 17.0408 34.4931 16.6718 34.4931 16.1761C34.4931 15.6749 34.1351 15.3058 33.6118 15.3058C33.0941 15.3058 32.7306 15.6749 32.7306 16.1761C32.7306 16.6718 33.0941 17.0408 33.6118 17.0408Z" fill="black"/>
<path d="M39.6486 21.056H41.009V19.5744H42.0831V18.3737H41.009V13.1082H39.0042C37.5997 15.2232 36.4816 16.9912 35.7656 18.3076V19.5744H39.6486V21.056ZM37.082 18.3241C38.0073 16.6938 38.8335 15.3885 39.5935 14.2649H39.6706V18.4067H37.082V18.3241Z" fill="black"/>
<path d="M45.1126 21.056H46.5336V13.1082H45.1181L43.0416 14.5623V15.9282L45.0189 14.5403H45.1126V21.056Z" fill="black"/>
</svg>
