<svg width="64" height="64" viewBox="0 0 64 64" fill="none" xmlns="http://www.w3.org/2000/svg">
<path d="M22.682 28.5717C22.682 26.117 24.6957 24.1272 27.1799 24.1272C29.664 24.1272 31.6778 26.117 31.6778 28.5717C31.6778 31.0263 29.664 33.0161 27.1799 33.0161C24.6957 33.0161 22.682 31.0263 22.682 28.5717Z" fill="#6EF07B"/>
<path fill-rule="evenodd" clip-rule="evenodd" d="M5.33334 28.5715C5.33334 21.3881 5.33334 17.7964 7.59175 15.5648C9.85016 13.3333 13.485 13.3333 20.7548 13.3333H33.6059C40.8757 13.3333 44.5105 13.3333 46.7689 15.5648C49.0274 17.7964 49.0274 21.3881 49.0274 28.5715C49.0274 35.7548 49.0274 39.3465 46.7689 41.5781C44.5105 43.8097 40.8757 43.8097 33.6059 43.8097H20.7548C13.485 43.8097 9.85016 43.8097 7.59175 41.5781C5.33334 39.3465 5.33334 35.7548 5.33334 28.5715ZM18.8266 28.5717C18.8266 24.0131 22.5665 20.3176 27.1799 20.3176C31.7932 20.3176 35.5331 24.0131 35.5331 28.5717C35.5331 33.1302 31.7932 36.8257 27.1799 36.8257C22.5665 36.8257 18.8266 33.1302 18.8266 28.5717ZM11.1159 33.6511C11.1159 34.7031 11.9789 35.5559 13.0436 35.5559C14.1082 35.5559 14.9712 34.7031 14.9712 33.6511V23.4923C14.9712 22.4403 14.1082 21.5875 13.0436 21.5875C11.9789 21.5875 11.1159 22.4403 11.1159 23.4923L11.1159 33.6511ZM41.3162 35.5559C40.2515 35.5559 39.3885 34.7031 39.3885 33.6511V23.4923C39.3885 22.4403 40.2515 21.5875 41.3162 21.5875C42.3808 21.5875 43.2438 22.4403 43.2438 23.4923V33.6511C43.2438 34.7031 42.3808 35.5559 41.3162 35.5559Z" fill="#6EF07B"/>
<path opacity="0.5" d="M10.8408 43.267C10.8755 43.6696 10.9173 44.055 10.9675 44.4237C11.2785 46.7097 11.9439 48.6345 13.491 50.1632C13.7112 50.3808 13.9396 50.5808 14.176 50.7646C15.6837 52.1352 17.5515 52.7432 19.7492 53.0351C21.9775 53.3312 24.8107 53.3311 28.3257 53.3311H41.459C44.974 53.3311 47.8072 53.3312 50.0356 53.0351C52.349 52.7278 54.297 52.0703 55.844 50.5416C57.3911 49.0129 58.0565 47.0881 58.3675 44.8021C58.6671 42.6003 58.6671 39.8007 58.667 36.3274V36.0487C58.6671 32.5754 58.6671 29.7759 58.3675 27.574C58.0565 25.288 57.3911 23.3632 55.844 21.8345C55.6238 21.6169 55.3954 21.4169 55.159 21.2331C53.6513 19.8625 51.7835 19.2546 49.5858 18.9626C49.2371 18.9163 48.8735 18.8772 48.4948 18.8442C49.0273 21.0666 49.0273 24.1336 49.0273 28.5716C49.0273 35.7549 49.0273 39.3466 46.7689 41.5782C44.5105 43.8098 40.8757 43.8098 33.6059 43.8098H20.7547C16.2169 43.8098 13.0953 43.8098 10.8408 43.267Z" fill="#6EF07B"/>
</svg>
