<svg width="64" height="64" viewBox="0 0 64 64" fill="none" xmlns="http://www.w3.org/2000/svg">
<path opacity="0.5" d="M25.5796 8.53407C24.9303 9.08743 24.6056 9.36414 24.2588 9.59656C23.4639 10.1294 22.5711 10.4992 21.6323 10.6845C21.2227 10.7654 20.7974 10.7993 19.9469 10.8672L19.9469 10.8672C17.8098 11.0377 16.7413 11.123 15.8499 11.4379C13.788 12.1661 12.1662 13.7879 11.4379 15.8498C11.1231 16.7413 11.0378 17.8098 10.8673 19.9468L10.8673 19.9468C10.7994 20.7973 10.7655 21.2226 10.6846 21.6322C10.4992 22.571 10.1294 23.4638 9.59664 24.2587C9.36421 24.6055 9.0875 24.9302 8.5341 25.5796L8.53406 25.5797C7.14356 27.2113 6.44828 28.0272 6.04058 28.8802C5.09759 30.8531 5.09759 33.1467 6.04058 35.1196C6.44828 35.9726 7.14354 36.7885 8.53406 38.4202L8.53421 38.4203C9.08748 39.0696 9.36424 39.3943 9.59664 39.7411C10.1294 40.536 10.4992 41.4288 10.6846 42.3676C10.7655 42.7772 10.7994 43.2025 10.8673 44.053L10.8673 44.0531C11.0378 46.1901 11.1231 47.2586 11.4379 48.15C12.1662 50.2119 13.788 51.8337 15.8499 52.562C16.7413 52.8768 17.8098 52.9621 19.9467 53.1326L19.9469 53.1326C20.7974 53.2005 21.2227 53.2345 21.6323 53.3153C22.5711 53.5007 23.4639 53.8705 24.2588 54.4033C24.6056 54.6357 24.9303 54.9124 25.5796 55.4658L25.5797 55.4659C27.2114 56.8564 28.0273 57.5516 28.8803 57.9593C30.8532 58.9023 33.1468 58.9023 35.1197 57.9593C35.9727 57.5516 36.7886 56.8564 38.4203 55.4659L38.4204 55.4658C39.0697 54.9124 39.3944 54.6357 39.7412 54.4033C40.5361 53.8705 41.4289 53.5007 42.3677 53.3153C42.7773 53.2345 43.2026 53.2005 44.0531 53.1326L44.0533 53.1326C46.1902 52.9621 47.2587 52.8768 48.1501 52.562C50.212 51.8337 51.8338 50.2119 52.5621 48.15C52.8769 47.2586 52.9622 46.1901 53.1327 44.0532L53.1327 44.053C53.2006 43.2025 53.2346 42.7772 53.3154 42.3676C53.5008 41.4288 53.8706 40.536 54.4034 39.7411C54.6358 39.3943 54.9125 39.0696 55.4659 38.4202C56.8565 36.7885 57.5517 35.9726 57.9594 35.1196C58.9024 33.1467 58.9024 30.8531 57.9594 28.8802C57.5517 28.0272 56.8565 27.2114 55.4659 25.5797L55.4658 25.5795C54.9125 24.9302 54.6358 24.6055 54.4034 24.2587C53.8706 23.4638 53.5008 22.571 53.3154 21.6322C53.2346 21.2226 53.2006 20.7973 53.1327 19.9468L53.1327 19.9466C52.9622 17.8097 52.8769 16.7412 52.5621 15.8498C51.8338 13.7879 50.212 12.1661 48.1501 11.4379C47.2587 11.123 46.1902 11.0377 44.0532 10.8672L44.0531 10.8672C43.2026 10.7993 42.7773 10.7654 42.3677 10.6845C41.4289 10.4992 40.5361 10.1294 39.7412 9.59656C39.3944 9.36412 39.0697 9.08741 38.4203 8.53398C36.7886 7.14346 35.9727 6.4482 35.1197 6.04049C33.1468 5.0975 30.8532 5.0975 28.8803 6.04049C28.0273 6.4482 27.2114 7.14347 25.5797 8.53398L25.5796 8.53407Z" fill="#74CFFD"/>
<path d="M42.2157 21.7868C43.0633 22.6343 43.0633 24.0085 42.2157 24.856L24.8534 42.2184C24.0058 43.0659 22.6317 43.0659 21.7841 42.2184C20.9365 41.3708 20.9365 39.9967 21.7841 39.1491L39.1465 21.7868C39.994 20.9392 41.3682 20.9392 42.2157 21.7868Z" fill="#74CFFD"/>
<path d="M42.1279 39.2369C42.1279 40.8351 40.8324 42.1306 39.2342 42.1306C37.6361 42.1306 36.3405 40.8351 36.3405 39.2369C36.3405 37.6387 37.6361 36.3432 39.2342 36.3432C40.8324 36.3432 42.1279 37.6387 42.1279 39.2369Z" fill="#74CFFD"/>
<path d="M24.7656 27.662C26.3638 27.662 27.6593 26.3664 27.6593 24.7683C27.6593 23.1701 26.3638 21.8746 24.7656 21.8746C23.1674 21.8746 21.8719 23.1701 21.8719 24.7683C21.8719 26.3664 23.1674 27.662 24.7656 27.662Z" fill="#74CFFD"/>
</svg>
