<svg width="32" height="32" viewBox="0 0 32 32" fill="none" xmlns="http://www.w3.org/2000/svg">
<path fill-rule="evenodd" clip-rule="evenodd" d="M19.68 17.6933L26.3267 24.34C26.8753 24.8886 26.8753 25.7781 26.3267 26.3267C25.7781 26.8753 24.8886 26.8753 24.34 26.3267L17.6933 19.68C16.2667 20.7067 14.5467 21.3333 12.6667 21.3333C7.88 21.3333 4 17.4533 4 12.6667C4 7.88 7.88 4 12.6667 4C17.4533 4 21.3333 7.88 21.3333 12.6667C21.3333 14.5467 20.7067 16.2667 19.68 17.6933ZM12.6667 6.66667C9.34667 6.66667 6.66667 9.34667 6.66667 12.6667C6.66667 15.9867 9.34667 18.6667 12.6667 18.6667C15.9867 18.6667 18.6667 15.9867 18.6667 12.6667C18.6667 9.34667 15.9867 6.66667 12.6667 6.66667Z" fill="#3A3A3C"/>
</svg>
