<svg width="314" height="639" viewBox="0 0 314 639" fill="none" xmlns="http://www.w3.org/2000/svg">
<path d="M311.303 163.722H312.415C313.029 163.722 313.527 164.221 313.527 164.838V237.769C313.527 238.385 313.029 238.885 312.415 238.885H311.303V163.722Z" fill="#303030"/>
<path d="M2.22377 254.513L1.11197 254.513C0.49794 254.513 0.000172663 254.013 0.000172717 253.397L0.00017654 209.489C0.000176594 208.873 0.497945 208.373 1.11197 208.373L2.22377 208.373L2.22377 254.513Z" fill="#303030"/>
<path d="M2.22377 193.489L1.11197 193.489C0.49794 193.489 0.000172663 192.989 0.000172717 192.373L0.00017654 148.466C0.000176594 147.849 0.497945 147.349 1.11197 147.349L2.22377 147.349L2.22377 193.489Z" fill="#333333"/>
<path d="M2.22359 125.024L1.11179 125.024C0.497761 125.024 -7.58608e-06 124.524 -7.5324e-06 123.908L-5.65328e-06 102.326C-5.5996e-06 101.71 0.497762 101.21 1.11179 101.21L2.22359 101.21L2.22359 125.024Z" fill="#333333"/>
<path fill-rule="evenodd" clip-rule="evenodd" d="M4.58152 33.4245C2.22353 40.7109 2.22353 49.7144 2.22353 67.7213V570.794C2.22353 588.801 2.22353 597.804 4.58152 605.09C9.34716 619.817 20.8464 631.362 35.5136 636.147C42.7707 638.515 51.738 638.515 69.6725 638.515H243.854C261.788 638.515 270.756 638.515 278.013 636.147C292.68 631.362 304.179 619.817 308.945 605.09C311.303 597.804 311.303 588.801 311.303 570.794V67.7213C311.303 49.7144 311.303 40.7109 308.945 33.4245C304.179 18.6981 292.68 7.1524 278.013 2.36751C270.756 0 261.788 0 243.854 0H69.6725C51.738 0 42.7707 0 35.5136 2.36751C20.8464 7.1524 9.34716 18.6981 4.58152 33.4245ZM80.7911 18.2327V21.5815L80.844 21.5799L80.7908 21.9536C80.7908 30.7902 87.9255 37.9537 96.7266 37.9537H216.801C225.602 37.9537 232.736 30.7902 232.736 21.9536L232.683 21.5799L232.736 21.5815V18.2327C232.736 15.9721 234.561 14.1396 236.813 14.1396L246.359 14.1396C261.284 14.1396 268.746 14.1396 274.698 16.3976C284.052 19.9466 291.437 27.3608 294.972 36.7531C297.22 42.7286 297.22 50.221 297.22 65.2059V573.309C297.22 588.294 297.22 595.786 294.972 601.762C291.437 611.154 284.052 618.568 274.698 622.117C268.746 624.375 261.284 624.375 246.359 624.375H67.1676C52.243 624.375 44.7807 624.375 38.8292 622.117C29.4747 618.568 22.0903 611.154 18.5555 601.762C16.3066 595.786 16.3066 588.294 16.3066 573.309V65.2059C16.3066 50.221 16.3066 42.7286 18.5555 36.7531C22.0903 27.3608 29.4747 19.9466 38.8292 16.3976C44.7807 14.1396 52.243 14.1396 67.1676 14.1396L76.7145 14.1396C78.9659 14.1396 80.7911 15.9721 80.7911 18.2327Z" fill="#333333"/>
<path fill-rule="evenodd" clip-rule="evenodd" d="M244.151 1.48847H69.3765C51.6602 1.48847 42.9779 1.49765 35.9721 3.78314C21.7563 8.4208 10.6108 19.6112 5.99182 33.8845C3.71553 40.9185 3.70638 49.6359 3.70638 67.4237V571.091C3.70638 588.879 3.71553 597.597 5.99182 604.631C10.6108 618.904 21.7563 630.094 35.9721 634.732C42.9779 637.017 51.6602 637.027 69.3765 637.027H244.151C261.867 637.027 270.55 637.017 277.555 634.732C291.771 630.094 302.917 618.904 307.536 604.631C309.812 597.597 309.821 588.879 309.821 571.091V67.4237C309.821 49.6359 309.812 40.9185 307.536 33.8845C302.917 19.6112 291.771 8.4208 277.555 3.78314C270.55 1.49765 261.867 1.48847 244.151 1.48847ZM5.2869 33.6545C2.96518 40.8289 2.96518 49.6938 2.96518 67.4237V571.091C2.96518 588.821 2.96518 597.686 5.2869 604.861C9.97923 619.36 21.3016 630.728 35.7431 635.44C42.8886 637.771 51.7179 637.771 69.3765 637.771H244.151C261.809 637.771 270.639 637.771 277.784 635.44C292.226 630.728 303.548 619.36 308.24 604.861C310.562 597.686 310.562 588.821 310.562 571.091V67.4237C310.562 49.6938 310.562 40.8289 308.24 33.6545C303.548 19.1547 292.226 7.78665 277.784 3.07537C270.639 0.744283 261.809 0.744283 244.151 0.744283H69.3765C51.7179 0.744283 42.8886 0.744283 35.7431 3.07537C21.3016 7.78665 9.97923 19.1547 5.2869 33.6545Z" fill="#303030"/>
<path fill-rule="evenodd" clip-rule="evenodd" d="M8.10804 34.5743C5.93143 41.3002 5.93143 49.6111 5.93143 66.2329V572.282C5.93143 588.904 5.93143 597.215 8.10804 603.941C12.5071 617.534 23.1218 628.192 36.6607 632.608C43.3596 634.794 51.6371 634.794 68.192 634.794H245.338C261.893 634.794 270.171 634.794 276.87 632.608C290.408 628.192 301.023 617.534 305.422 603.941C307.599 597.215 307.599 588.904 307.599 572.282V66.2329C307.599 49.6111 307.599 41.3002 305.422 34.5743C301.023 20.9807 290.408 10.3231 276.87 5.90632C270.171 3.72093 261.893 3.72093 245.338 3.72093H68.192C51.6371 3.72093 43.3596 3.72093 36.6607 5.90632C23.1218 10.3231 12.5071 20.9807 8.10804 34.5743ZM80.7921 18.2326V21.5815L80.8451 21.5798L80.7919 21.9536C80.7919 30.7902 87.9266 37.9536 96.7276 37.9536H216.802C225.603 37.9536 232.737 30.7902 232.737 21.9536L232.684 21.5798L232.737 21.5815V18.2326C232.737 15.9721 234.562 14.1396 236.814 14.1396L246.361 14.1396C261.285 14.1396 268.747 14.1396 274.699 16.3975C284.054 19.9466 291.438 27.3607 294.973 36.753C297.222 42.7286 297.222 50.221 297.222 65.2059V573.309C297.222 588.294 297.222 595.786 294.973 601.762C291.438 611.154 284.054 618.568 274.699 622.117C268.747 624.375 261.285 624.375 246.361 624.375H67.1687C52.2441 624.375 44.7817 624.375 38.8302 622.117C29.4757 618.568 22.0914 611.154 18.5566 601.762C16.3077 595.786 16.3077 588.294 16.3077 573.309V65.2059C16.3077 50.221 16.3077 42.7286 18.5566 36.753C22.0914 27.3607 29.4757 19.9466 38.8302 16.3975C44.7817 14.1396 52.2441 14.1396 67.1687 14.1396L76.7155 14.1396C78.967 14.1396 80.7921 15.9721 80.7921 18.2326Z" fill="#121515"/>
<rect x="245.337" width="4.44717" height="3.72095" fill="#414141"/>
<rect x="307.598" y="64.0003" width="3.70604" height="4.46514" fill="#414141"/>
<rect x="2.22462" y="64.0003" width="3.70599" height="4.46514" fill="#414141"/>
<rect x="2.22462" y="570.049" width="3.70599" height="4.46512" fill="#414141"/>
<rect x="307.598" y="570.049" width="3.70604" height="4.46512" fill="#414141"/>
<rect x="63.7437" y="634.794" width="4.44719" height="3.72094" fill="#414141"/>
<path fill-rule="evenodd" clip-rule="evenodd" d="M188.265 29.7676C191.54 29.7676 194.194 27.1021 194.194 23.8141C194.194 20.5261 191.54 17.8606 188.265 17.8606C184.99 17.8606 182.335 20.5261 182.335 23.8141C182.335 27.1021 184.99 29.7676 188.265 29.7676Z" fill="#262C2D"/>
<path fill-rule="evenodd" clip-rule="evenodd" d="M188.264 27.5351C190.311 27.5351 191.97 25.8692 191.97 23.8141C191.97 21.7591 190.311 20.0932 188.264 20.0932C186.218 20.0932 184.558 21.7591 184.558 23.8141C184.558 25.8692 186.218 27.5351 188.264 27.5351Z" fill="#121515"/>
<path opacity="0.4" fill-rule="evenodd" clip-rule="evenodd" d="M188.265 23.0706C188.675 23.0706 189.007 22.7372 189.007 22.326C189.007 21.9149 188.675 21.5815 188.265 21.5815C187.856 21.5815 187.524 21.9149 187.524 22.326C187.524 22.7372 187.856 23.0706 188.265 23.0706Z" fill="#636F73"/>
<path fill-rule="evenodd" clip-rule="evenodd" d="M138.605 23.8141C138.605 22.5811 139.605 21.5815 140.838 21.5815H172.691C173.924 21.5815 174.924 22.5811 174.924 23.8141C174.924 25.0471 173.924 26.0467 172.691 26.0467H140.838C139.605 26.0467 138.605 25.0471 138.605 23.8141Z" fill="#262C2D"/>
</svg>
