<svg width="22" height="22" viewBox="0 0 22 22" fill="none" xmlns="http://www.w3.org/2000/svg">
<path fill-rule="evenodd" clip-rule="evenodd" d="M11.1431 3.8691C13.2637 1.69562 16.7596 1.28808 19.1594 3.33319C21.8475 5.62746 21.9855 9.73161 19.5789 12.2151L12.6686 19.3504C11.8292 20.2166 10.4536 20.2168 9.61423 19.3506L2.70346 12.2149C0.301285 9.73147 0.438205 5.62787 3.12617 3.33368C5.52534 1.28913 9.02534 1.69496 11.1431 3.8691ZM17.8616 4.85492C16.3527 3.5696 14.0382 3.75563 12.5647 5.27596L11.1431 6.7409L9.72075 5.27524C8.25139 3.75613 5.93362 3.56924 4.42432 4.85513C2.62704 6.38935 2.52861 9.15696 4.14014 10.8235L11.0505 17.9589C11.0809 17.9902 11.1126 18.0003 11.1413 18.0003C11.17 18.0003 11.2017 17.9902 11.2321 17.9589L18.1425 10.8235C19.7571 9.15718 19.6586 6.38925 17.8616 4.85492Z" fill="#493594"/>
</svg>
