<svg width="45" height="5" viewBox="0 0 45 5" fill="none" xmlns="http://www.w3.org/2000/svg">
<path d="M41.9214 4.81525V3.3451L40.1923 0.089783V0.0672812H41.6683C41.8426 0.472321 41.9804 0.797352 42.0816 1.04238C42.1885 1.2824 42.27 1.47242 42.3262 1.61243C42.3881 1.74745 42.4359 1.85746 42.4696 1.94246C42.5034 2.02747 42.5399 2.11748 42.5793 2.21249H42.613C42.6524 2.11748 42.6889 2.02747 42.7227 1.94246C42.7564 1.85746 42.8014 1.74745 42.8576 1.61243C42.9195 1.47242 43.001 1.2824 43.1022 1.04238C43.209 0.797352 43.3496 0.472321 43.5239 0.0672812H45V0.089783L43.2709 3.3451V4.81525H41.9214Z" fill="#9092B0"/>
<path d="M34.4025 4.81525H33.053V0.0672812H34.4025V2.05498C34.4138 2.05498 34.4222 2.05498 34.4278 2.05498C34.4841 2.05498 34.5487 2.01497 34.6218 1.93496C34.7005 1.85496 34.7708 1.77495 34.8327 1.69494L35.9629 0.0672812H37.4305V0.089783L36.469 1.46992C36.3846 1.59493 36.2891 1.72994 36.1822 1.87496C36.0754 2.01497 35.9685 2.13998 35.8617 2.24999C35.7605 2.355 35.6705 2.42001 35.5918 2.44501V2.46752C35.6705 2.49752 35.7605 2.56252 35.8617 2.66253C35.9685 2.75754 36.0754 2.87006 36.1822 3.00007C36.2947 3.12508 36.4015 3.25009 36.5027 3.3751L37.6245 4.79274V4.81525H36.0726L35.0182 3.3751V3.38261C34.9845 3.3326 34.9311 3.26759 34.858 3.18759C34.7905 3.10258 34.7174 3.02507 34.6387 2.95506C34.5656 2.88506 34.5009 2.85005 34.4447 2.85005C34.4334 2.85005 34.425 2.85005 34.4194 2.85005C34.4138 2.85005 34.4081 2.85005 34.4025 2.85005V4.81525Z" fill="#9092B0"/>
<path d="M24.4396 2.43774C24.4396 1.83268 24.5156 1.35263 24.6674 0.997597C24.8248 0.642563 25.0919 0.387538 25.4687 0.232523C25.851 0.0775076 26.3824 0 27.0628 0C27.5745 0 27.999 0.0425041 28.3364 0.127513C28.6738 0.212521 28.9409 0.350034 29.1377 0.540053C29.3345 0.730071 29.4723 0.982596 29.551 1.29763C29.6353 1.60766 29.6775 1.98769 29.6775 2.43774C29.6775 2.89278 29.6353 3.27782 29.551 3.59285C29.4723 3.90288 29.3345 4.15291 29.1377 4.34292C28.9409 4.53294 28.6738 4.67046 28.3364 4.75547C27.999 4.84047 27.5745 4.88298 27.0628 4.88298C26.5511 4.88298 26.1266 4.84047 25.7892 4.75547C25.4518 4.67046 25.1847 4.53294 24.9879 4.34292C24.7911 4.15291 24.6505 3.90288 24.5662 3.59285C24.4818 3.27782 24.4396 2.89278 24.4396 2.43774ZM27.0628 3.83288C27.4227 3.83288 27.6926 3.79287 27.8725 3.71286C28.0525 3.63286 28.1733 3.49284 28.2352 3.29282C28.2971 3.0878 28.328 2.80277 28.328 2.43774C28.328 2.0777 28.2971 1.79768 28.2352 1.59766C28.1733 1.39764 28.0525 1.25762 27.8725 1.17762C27.6926 1.09261 27.4227 1.0501 27.0628 1.0501C26.7085 1.0501 26.4386 1.09261 26.2531 1.17762C26.0731 1.25762 25.9494 1.39764 25.882 1.59766C25.8201 1.79768 25.7892 2.0777 25.7892 2.43774C25.7892 2.80277 25.8201 3.0878 25.882 3.29282C25.9494 3.49284 26.0731 3.63286 26.2531 3.71286C26.4386 3.79287 26.7085 3.83288 27.0628 3.83288Z" fill="#9092B0"/>
<path d="M19.7128 0.0672812H21.0623V4.81525H19.7212L18.203 2.80505C18.0849 2.64503 17.9865 2.51002 17.9078 2.40001C17.8291 2.29 17.756 2.17999 17.6885 2.06998C17.621 1.95997 17.5451 1.82995 17.4607 1.67994L17.4354 1.70994C17.5142 1.94997 17.562 2.17499 17.5788 2.38501C17.5957 2.59003 17.6041 2.79005 17.6041 2.98507V4.81525H16.2546V0.0672812H17.5957L19.1139 2.07748C19.232 2.23249 19.3304 2.36751 19.4091 2.48252C19.4879 2.59253 19.561 2.70254 19.6284 2.81255C19.6959 2.92256 19.7718 3.05257 19.8562 3.20259L19.8815 3.17258C19.8252 2.96256 19.7831 2.76004 19.755 2.56503C19.7268 2.36501 19.7128 2.16749 19.7128 1.97247V0.0672812Z" fill="#9092B0"/>
<path d="M7.64139 2.43774C7.64139 1.83268 7.7173 1.35263 7.86912 0.997597C8.02657 0.642563 8.29366 0.387538 8.6704 0.232523C9.05277 0.0775076 9.58415 0 10.2645 0C10.7762 0 11.2008 0.0425041 11.5382 0.127513C11.8755 0.212521 12.1426 0.350034 12.3394 0.540053C12.5362 0.730071 12.674 0.982596 12.7527 1.29763C12.8371 1.60766 12.8793 1.98769 12.8793 2.43774C12.8793 2.89278 12.8371 3.27782 12.7527 3.59285C12.674 3.90288 12.5362 4.15291 12.3394 4.34292C12.1426 4.53294 11.8755 4.67046 11.5382 4.75547C11.2008 4.84047 10.7762 4.88298 10.2645 4.88298C9.75284 4.88298 9.3283 4.84047 8.99092 4.75547C8.65353 4.67046 8.38644 4.53294 8.18963 4.34292C7.99283 4.15291 7.85225 3.90288 7.76791 3.59285C7.68356 3.27782 7.64139 2.89278 7.64139 2.43774ZM10.2645 3.83288C10.6244 3.83288 10.8943 3.79287 11.0743 3.71286C11.2542 3.63286 11.3751 3.49284 11.4369 3.29282C11.4988 3.0878 11.5297 2.80277 11.5297 2.43774C11.5297 2.0777 11.4988 1.79768 11.4369 1.59766C11.3751 1.39764 11.2542 1.25762 11.0743 1.17762C10.8943 1.09261 10.6244 1.0501 10.2645 1.0501C9.91029 1.0501 9.64038 1.09261 9.45482 1.17762C9.27488 1.25762 9.15117 1.39764 9.0837 1.59766C9.02184 1.79768 8.99092 2.0777 8.99092 2.43774C8.99092 2.80277 9.02184 3.0878 9.0837 3.29282C9.15117 3.49284 9.27488 3.63286 9.45482 3.71286C9.64038 3.79287 9.91029 3.83288 10.2645 3.83288Z" fill="#9092B0"/>
<path d="M4.52093 3.60031C4.52093 4.00035 4.38035 4.30288 4.0992 4.5079C3.82367 4.71292 3.33447 4.81543 2.63158 4.81543H0V0.0674653H0.328948H2.54724C3.01395 0.0674653 3.37664 0.11247 3.6353 0.202478C3.89958 0.287487 4.08514 0.414999 4.19198 0.585016C4.29882 0.755032 4.35224 0.967553 4.35224 1.22258C4.35224 1.57261 4.25665 1.84514 4.06546 2.04016C3.8799 2.23018 3.52846 2.34519 3.01114 2.38519V2.40769C3.39351 2.4327 3.69434 2.4902 3.91364 2.58021C4.13294 2.66522 4.28757 2.79023 4.37754 2.95525C4.47313 3.12026 4.52093 3.33528 4.52093 3.60031ZM2.17612 1.01256H1.34953V1.94265H2.17612C2.45165 1.94265 2.65127 1.91265 2.77497 1.85264C2.89868 1.78763 2.96053 1.66262 2.96053 1.4776C2.96053 1.29759 2.89868 1.17507 2.77497 1.11007C2.65127 1.04506 2.45165 1.01256 2.17612 1.01256ZM2.34481 2.92524H1.34953V3.87784H2.34481C2.62034 3.87784 2.81996 3.84533 2.94366 3.78033C3.06737 3.71032 3.12923 3.58281 3.12923 3.39779C3.12923 3.20777 3.06737 3.08276 2.94366 3.02275C2.81996 2.95775 2.62034 2.92524 2.34481 2.92524Z" fill="#9092B0"/>
</svg>
