<svg width="79" height="28" viewBox="0 0 79 28" fill="none" xmlns="http://www.w3.org/2000/svg">
<g clip-path="url(#clip0_0_664)">
<path d="M52.9573 20.2531H52.9387C49.616 22.6051 45.696 25.0691 41.4586 27.6638L41.2906 27.7571C41.2723 27.7646 41.256 27.7762 41.2428 27.791C41.2296 27.8058 41.22 27.8233 41.2146 27.8424C41.2092 27.8614 41.2082 27.8814 41.2116 27.9009C41.2151 27.9204 41.223 27.9389 41.2346 27.9549C41.2462 27.9709 41.2614 27.984 41.2788 27.9933C41.2963 28.0026 41.3157 28.0078 41.3354 28.0086C41.3552 28.0093 41.3749 28.0055 41.393 27.9976C41.4111 27.9896 41.4272 27.9776 41.44 27.9625L41.5706 27.8878C45.1733 26.0211 49.2986 23.7998 53.4426 21.5038L53.5173 21.4665C53.2727 21.0914 53.0841 20.6826 52.9573 20.2531ZM74.76 2.59446C69.5333 -3.17353 35.8213 2.0158 21.504 5.1518L21.168 5.22646C21.1351 5.23493 21.1061 5.25433 21.0858 5.28148C21.0654 5.30862 21.0549 5.34189 21.056 5.3758C21.0578 5.39266 21.0634 5.40888 21.0724 5.42325C21.0814 5.43762 21.0936 5.44976 21.108 5.45874C21.1224 5.46773 21.1386 5.47334 21.1555 5.47514C21.1723 5.47693 21.1894 5.47488 21.2053 5.46913L21.5413 5.41313C33.4133 3.3038 58.1093 0.373132 63.4107 5.63713C65.0346 7.24246 64.6613 9.31446 62.776 11.7598C63.8167 12.4397 64.5529 13.4971 64.8293 14.7091C72.1653 9.83713 77.0933 5.17046 74.76 2.59446Z" fill="#CC2427"/>
<path d="M55.0854 18.7415C55.1414 20.7762 56.4294 22.4375 58.1094 22.4375C61.3574 22.4375 62.7387 18.4428 62.6454 15.7735C62.5707 13.7388 61.264 12.0775 59.584 12.0775C56.784 12.0775 54.9734 16.0535 55.0854 18.7415ZM53.368 18.6295C53.2374 15.1575 55.9627 11.6108 59.9014 11.6108C62.552 11.6108 64.2694 13.3842 64.3627 16.0722C64.4934 19.7308 61.9547 23.0908 57.8294 23.0908C55.1787 23.0908 53.4614 21.3362 53.368 18.6295Z" fill="#013D5B"/>
<path d="M15.9599 17.7146C15.7858 17.7851 15.6042 17.8352 15.4186 17.8639L14.1866 18.0879C13.8843 18.1094 13.5909 18.1987 13.3279 18.3492C13.2523 18.3955 13.1879 18.4581 13.1395 18.5323C13.0911 18.6066 13.0598 18.6907 13.0479 18.7786C13.0287 18.8607 13.0365 18.9468 13.0701 19.0241C13.1037 19.1015 13.1614 19.1659 13.2346 19.2079C13.4731 19.3412 13.7463 19.3998 14.0186 19.3759C14.2971 19.3704 14.5735 19.3264 14.8399 19.2452C15.0855 19.1734 15.314 19.0527 15.5119 18.8906C15.6427 18.7757 15.7396 18.6272 15.7919 18.4612C15.8825 18.2214 15.9391 17.9701 15.9599 17.7146ZM19.3946 15.5866C19.3759 15.9039 19.3199 16.1839 19.2452 16.6692L18.6666 19.9172C18.6358 20.0486 18.6504 20.1866 18.708 20.3086C18.7656 20.4306 18.8629 20.5295 18.9839 20.5892V20.7199H15.6426V19.8986C15.1353 20.1841 14.5966 20.4096 14.0372 20.5706C13.52 20.7103 12.9863 20.7794 12.4506 20.7759C11.3679 20.7759 10.7519 20.6639 10.3412 20.2906C9.93057 19.9172 9.6879 19.6559 9.70657 19.1146C9.74666 18.7637 9.88953 18.4325 10.1172 18.1626C10.3602 17.8899 10.6596 17.6734 10.9946 17.5279C11.4245 17.3458 11.8763 17.2203 12.3386 17.1546C12.9172 17.0612 13.7386 16.9679 14.8399 16.8746C15.213 16.8633 15.5804 16.781 15.9226 16.6319C16.1652 16.5386 16.2399 16.4452 16.2772 16.2586C16.3146 16.0719 16.2399 15.7359 15.7919 15.6426C14.5972 15.4186 12.3572 15.7919 11.1999 16.0906L11.8159 14.3919C13.2918 14.1579 14.783 14.0331 16.2772 14.0186C18.6479 14.0186 19.4132 14.7092 19.3946 15.5866Z" fill="#013D5B"/>
<path d="M29.0266 20.7199L30.1839 14.2052H33.3759L32.2186 20.7199H29.0266ZM30.3706 12.7119C30.4639 12.1705 31.3039 11.7412 32.2559 11.7412C33.2079 11.7412 33.8799 12.1705 33.7866 12.7119C33.6933 13.2532 32.8533 13.6825 31.9013 13.6825C30.9493 13.6825 30.2773 13.2345 30.3706 12.7119Z" fill="#013D5B"/>
<path d="M44.6693 17.7332L44.128 17.8826L42.8773 18.1066C42.5815 18.1308 42.2946 18.22 42.0373 18.3679C41.9622 18.4102 41.8978 18.4692 41.8492 18.5405C41.8007 18.6117 41.7692 18.6932 41.7573 18.7786C41.735 18.8614 41.7392 18.9492 41.7693 19.0295C41.7994 19.1099 41.854 19.1788 41.9253 19.2266C42.0933 19.3386 42.3546 19.3759 42.728 19.3759C43.0056 19.3767 43.282 19.339 43.5493 19.2639C43.7948 19.192 44.0234 19.0714 44.2213 18.9092C44.3521 18.7944 44.449 18.6459 44.5013 18.4799C44.58 18.2367 44.6362 17.9867 44.6693 17.7332ZM48.104 15.5866C48.0853 15.9039 48.0293 16.2026 47.9546 16.6692L47.376 19.9359C47.3452 20.0673 47.3598 20.2052 47.4174 20.3272C47.475 20.4493 47.5723 20.5482 47.6933 20.6079V20.7199H44.352V19.8799C43.8492 20.179 43.3095 20.4112 42.7466 20.5706C42.2224 20.7048 41.6824 20.7676 41.1413 20.7572C40.0773 20.7572 39.4613 20.6452 39.032 20.2719C38.6026 19.8986 38.3973 19.6372 38.416 19.1146C38.4513 18.7569 38.5945 18.4183 38.8266 18.1439C39.0707 17.8771 39.3701 17.6669 39.704 17.5279C40.1252 17.3396 40.5717 17.2138 41.0293 17.1546C41.6266 17.0612 42.448 16.9679 43.5493 16.8746C43.9188 16.8388 44.2825 16.7573 44.632 16.6319C44.856 16.5386 44.9493 16.4452 44.9866 16.2586C45.024 16.0719 44.9493 15.7359 44.5013 15.6426C43.3066 15.3999 41.0666 15.7919 39.9093 16.0719L40.5253 14.3919C42.0011 14.1572 43.4923 14.0324 44.9866 14.0186C47.3573 14.0372 48.1226 14.7279 48.104 15.5866Z" fill="#013D5B"/>
<path d="M9.25878 18.3865C8.38887 18.5811 7.49948 18.675 6.60811 18.6665C5.09611 18.6665 3.88278 17.9198 3.95744 16.5198C3.99478 15.6051 5.09611 13.6638 7.85878 13.6638C8.73384 13.6436 9.59606 13.877 10.3414 14.3358L10.7334 12.0771C9.73728 11.6815 8.66807 11.5033 7.59744 11.5545C3.95744 11.5918 0.466776 13.2345 0.0374431 16.5945C-0.39189 19.9545 3.77078 20.8691 5.61878 20.8691C6.68278 20.8691 7.80278 20.8131 8.82944 20.7198L9.25878 18.3865Z" fill="#013D5B"/>
<path d="M35.1308 14.168L35.3548 12.8426L38.6775 12.1333L38.3228 14.168H39.9655L39.6481 15.4933H38.0615L37.1095 20.72H33.8801L34.8508 15.4933H33.6375L33.8801 14.1866H35.1308V14.168Z" fill="#013D5B"/>
<path d="M51.3334 20.7199H48.0854L49.7281 11.6479L52.8828 11.7226L51.3334 20.7199Z" fill="#013D5B"/>
<path d="M24.8266 15.7361C24.4171 15.7373 24.0186 15.868 23.6879 16.1094C23.3491 16.392 23.1291 16.7919 23.0719 17.2294C22.9599 17.8081 23.0159 18.2001 23.2399 18.4614C23.3704 18.5882 23.5255 18.6868 23.6957 18.751C23.8659 18.8153 24.0475 18.8438 24.2292 18.8347C24.5121 18.8405 24.7927 18.7831 25.0506 18.6667C25.2995 18.5516 25.5124 18.3709 25.6666 18.1441C25.8412 17.8845 25.9618 17.5925 26.0212 17.2854C26.1146 16.7627 26.0399 16.3894 25.7972 16.1281C25.6734 15.9965 25.5225 15.8933 25.3549 15.8256C25.1873 15.758 25.0071 15.7274 24.8266 15.7361ZM19.0212 22.9787L20.5706 14.2427H23.3706L23.1466 15.3627C23.4532 14.9792 23.8603 14.6884 24.3226 14.5227C24.8979 14.2877 25.5118 14.1612 26.1332 14.1494C26.8612 14.1494 27.3092 14.1867 27.8506 14.4667C28.3638 14.7243 28.763 15.1634 28.9706 15.6987C29.1905 16.263 29.2424 16.879 29.1199 17.4721C29.0422 17.9813 28.8635 18.4699 28.5942 18.9091C28.3249 19.3483 27.9705 19.7292 27.5519 20.0294C26.6932 20.6454 25.9279 20.8134 24.8266 20.8134C24.4933 20.8195 24.1607 20.7819 23.8372 20.7014C23.6147 20.653 23.4007 20.5712 23.2026 20.4587C23.009 20.3191 22.8334 20.1561 22.6799 19.9734L22.1572 22.9787H19.0212Z" fill="#013D5B"/>
<path d="M76.8132 16.5388C76.7946 16.0161 76.5332 15.6614 75.9919 15.6614C74.6852 15.6614 73.3039 18.2188 73.0612 19.2454C75.1892 19.2454 76.8692 17.9761 76.8132 16.5388ZM77.0932 20.5521L77.3359 20.7201C76.7012 22.0081 75.4132 23.0534 73.8826 23.0534C72.6319 23.0534 71.6239 22.2321 71.5679 20.6828C71.4559 17.8828 74.0879 15.2881 76.2159 15.2881C77.1306 15.2881 77.9892 15.6988 78.0266 16.6881C78.1012 18.9094 74.9839 19.5814 72.9306 19.6188C72.8633 19.887 72.8381 20.1641 72.8559 20.4401C72.8932 21.3734 73.4532 22.1388 74.5919 22.1388C75.7306 22.1388 76.5892 21.3361 77.0932 20.5521Z" fill="#013D5B"/>
<path d="M64.3255 16.4641L65.0535 16.3894C65.2961 16.3894 65.5015 16.4454 65.5201 16.6694C65.5388 16.8934 65.2774 17.7894 65.2214 18.0321L64.7175 20.2161C64.5308 21.1121 64.3068 22.0454 64.1201 22.7921H65.3894L66.0988 19.3201C68.3015 17.0428 69.1415 16.2961 69.6455 16.2961C69.7008 16.2902 69.7568 16.2968 69.8093 16.3153C69.8618 16.3339 69.9095 16.364 69.9489 16.4033C69.9882 16.4427 70.0183 16.4904 70.0369 16.5429C70.0554 16.5954 70.062 16.6514 70.0561 16.7068C70.0748 17.0988 69.8135 18.0134 69.7388 18.2748L68.9921 20.7948C68.8428 21.3734 68.7121 21.8774 68.7308 22.2508C68.7495 22.6241 69.0855 23.0534 69.5708 23.0534C70.5041 23.0534 71.1948 22.0828 71.7735 21.1308L71.6055 20.8134C71.3628 21.1868 70.8215 22.0268 70.3735 22.0268C70.2428 22.0268 70.1121 21.9334 70.1121 21.7094C70.1272 21.3603 70.19 21.0148 70.2988 20.6828L71.1201 17.7148C71.3255 16.8934 71.4375 16.3708 71.4375 16.0908C71.4375 15.8108 71.0828 15.2881 70.5975 15.2881C69.7575 15.2881 68.6375 15.9041 66.2855 18.6108H66.2481L66.5468 17.2854C66.7148 16.5574 66.8641 15.8108 67.0135 15.2881C66.129 15.6024 65.2248 15.858 64.3068 16.0534L64.3255 16.4641Z" fill="#013D5B"/>
</g>
<defs>
<clipPath id="clip0_0_664">
<rect width="78.0267" height="28" fill="white"/>
</clipPath>
</defs>
</svg>
