<svg width="24" height="25" viewBox="0 0 24 25" fill="none" xmlns="http://www.w3.org/2000/svg">
<g id="Loan proposal/Variant12">
<path id="Star 7 (Stroke)" fill-rule="evenodd" clip-rule="evenodd" d="M14.7108 2.38488L16.4515 6.05746C16.5972 6.36504 16.8895 6.57734 17.227 6.62094L21.2578 7.1415C23.7676 7.46565 24.7732 10.5605 22.9332 12.298L19.9783 15.0883C19.7308 15.322 19.6192 15.6655 19.682 16.0001L20.4325 19.9944C20.8998 22.4815 18.2672 24.3943 16.0461 23.1812L12.4792 21.2332C12.1805 21.07 11.8193 21.07 11.5206 21.2332L7.95368 23.1812C5.73263 24.3943 3.1 22.4815 3.56731 19.9944L4.31778 16.0001C4.38063 15.6655 4.26901 15.322 4.02154 15.0883L1.0666 12.298C-0.773388 10.5605 0.232195 7.46565 2.74205 7.1415L6.77277 6.62094C7.11033 6.57734 7.40255 6.36504 7.54832 6.05746L9.28897 2.38489C10.3728 0.09804 13.627 0.0980371 14.7108 2.38488ZM13.8072 2.81317C13.0846 1.28861 10.9152 1.28861 10.1926 2.81317L8.45197 6.48575C8.16041 7.1009 7.57599 7.52551 6.90085 7.6127L2.87013 8.13327C1.1969 8.34936 0.52651 10.4126 1.75317 11.5709L4.70811 14.3613C5.20305 14.8286 5.42628 15.5157 5.30058 16.1847L4.55011 20.179C4.23857 21.8371 5.99366 23.1123 7.47436 22.3036L11.0413 20.3556C11.6387 20.0293 12.3611 20.0293 12.9585 20.3556L16.5254 22.3036C18.0061 23.1123 19.7612 21.8371 19.4497 20.179L18.6992 16.1847C18.5735 15.5157 18.7967 14.8286 19.2917 14.3613L22.2466 11.5709C23.4733 10.4126 22.8029 8.34936 21.1297 8.13327L17.0989 7.6127C16.4238 7.52551 15.8394 7.1009 15.5478 6.48575L13.8072 2.81317Z" fill="#FFC681"/>
<path id="Subtract" fill-rule="evenodd" clip-rule="evenodd" d="M13.8072 2.81334C13.0847 1.28878 10.9152 1.28878 10.1927 2.81335L8.45202 6.48592C8.16047 7.10107 7.57604 7.52568 6.90091 7.61287L2.87019 8.13344C1.19695 8.34954 0.526564 10.4128 1.75322 11.5711L4.70816 14.3614C5.20311 14.8288 5.42634 15.5158 5.30064 16.1849L4.55016 20.1792C4.23863 21.8373 5.99371 23.1125 7.47441 22.3038L11.0413 20.3557C11.6388 20.0294 12.3611 20.0294 12.9586 20.3557L16.5255 22.3038C18.0062 23.1125 19.7613 21.8373 19.4497 20.1792L18.6993 16.1849C18.5736 15.5158 18.7968 14.8288 19.2917 14.3614L22.2467 11.5711C23.4733 10.4128 22.803 8.34954 21.1297 8.13344L17.099 7.61287C16.4239 7.52568 15.8394 7.10107 15.5479 6.48592L13.8072 2.81334ZM12.9036 7.90667C12.5423 7.14439 11.4576 7.14439 11.0963 7.90667L10.226 9.74296C10.0802 10.0505 9.78802 10.2628 9.45045 10.3064L7.43509 10.5667C6.59847 10.6748 6.26328 11.7064 6.87661 12.2855L8.35408 13.6807C8.60155 13.9144 8.71317 14.2579 8.65032 14.5924L8.27508 16.5896C8.11931 17.4187 8.99686 18.0562 9.7372 17.6519L11.5207 16.6779C11.8194 16.5147 12.1806 16.5147 12.4793 16.6779L14.2627 17.6519C15.0031 18.0562 15.8806 17.4187 15.7249 16.5896L15.3496 14.5924C15.2868 14.2579 15.3984 13.9144 15.6459 13.6807L17.1233 12.2855C17.7367 11.7064 17.4015 10.6748 16.5649 10.5667L14.5495 10.3064C14.2119 10.2628 13.9197 10.0505 13.7739 9.74296L12.9036 7.90667Z" fill="#FFB02E"/>
</g>
</svg>
