<svg width="24" height="24" viewBox="0 0 24 24" fill="none" xmlns="http://www.w3.org/2000/svg">
<g id="Icon/activity">
<path id="Union" fill-rule="evenodd" clip-rule="evenodd" d="M4 3C2.3412 3 1.01 4.35425 1.01 6V11H2.01C2.5512 11 3 11.4457 3 12C3 12.551 2.55446 13 2 13H1V18C1 19.6523 2.34772 21 4 21H20C21.6523 21 23 19.6523 23 18V13H22C21.4523 13 21 12.5477 21 12C21 11.4523 21.4523 11 22 11H23V6C23 4.34772 21.6523 3 20 3H4ZM3.01 6C3.01 5.44575 3.4588 5 4 5H20C20.5477 5 21 5.45228 21 6V9.17183C19.8368 9.58522 19 10.6981 19 12C19 13.3019 19.8368 14.4148 21 14.8282V18C21 18.5477 20.5477 19 20 19H4C3.45228 19 3 18.5477 3 18V14.8297C4.16897 14.417 5 13.3013 5 12C5 10.7027 4.1728 9.5865 3.01 9.17202V6ZM12.0043 14.9091L15.0985 17L14.1564 13.2636L17 10.8182L13.3354 10.5909L12.0043 7L10.6646 10.5818L7 10.8091L9.84356 13.2545L8.91011 17L12.0043 14.9091Z" fill="#FB542B"/>
</g>
</svg>
