<svg width="120" height="120" viewBox="0 0 120 120" fill="none" xmlns="http://www.w3.org/2000/svg">
<g id="Big Icon">
<rect width="120" height="120" fill="white"/>
<path id="Union" fill-rule="evenodd" clip-rule="evenodd" d="M67.8471 13.8472L63.2737 9.32731C60.9387 7.0196 57.1817 7.0196 54.8467 9.32731L50.2733 13.8472C47.8239 16.2678 44.5248 17.6344 41.0812 17.6546L34.6513 17.6925C31.3684 17.7118 28.7118 20.3684 28.6925 23.6513L28.6546 30.0812C28.6344 33.5248 27.2678 36.8239 24.8472 39.2733L20.3273 43.8467C18.0196 46.1817 18.0196 49.9387 20.3273 52.2737L24.8472 56.8471C27.2678 59.2965 28.6344 62.5956 28.6546 66.0392L28.6925 72.4691C28.7118 75.752 31.3684 78.4086 34.6513 78.4279L41.0812 78.4658C44.5248 78.486 47.8239 79.8526 50.2733 82.2733L54.8467 86.7931C57.1817 89.1008 60.9387 89.1008 63.2737 86.7931L67.8471 82.2733C70.2965 79.8526 73.5956 78.486 77.0392 78.4658L83.4691 78.4279C86.752 78.4086 89.4086 75.752 89.4279 72.4691L89.4658 66.0392C89.486 62.5956 90.8526 59.2965 93.2733 56.8471L97.7931 52.2737C100.101 49.9387 100.101 46.1817 97.7931 43.8467L93.2733 39.2733C90.8526 36.824 89.486 33.5248 89.4658 30.0812L89.4279 23.6513C89.4086 20.3684 86.752 17.7118 83.4691 17.6925L77.0392 17.6546C73.5956 17.6344 70.2965 16.2678 67.8471 13.8472ZM65.8018 6.76925C62.0658 3.07692 56.0546 3.07691 52.3186 6.76925L47.7452 11.2891C45.9638 13.0496 43.5645 14.0434 41.06 14.0582L34.6301 14.096C29.3775 14.127 25.127 18.3775 25.096 23.6301L25.0582 30.06C25.0434 32.5645 24.0496 34.9638 22.2891 36.7452L17.7693 41.3186C14.0769 45.0546 14.0769 51.0658 17.7692 54.8018L22.2891 59.3752C24.0496 61.1566 25.0434 63.5559 25.0582 66.0604L25.096 72.4903C25.127 77.7429 29.3775 81.9935 34.6301 82.0244L41.06 82.0622C41.3056 82.0637 41.5503 82.0745 41.7934 82.0946V111.54C41.7934 115.212 46.1984 117.09 48.8476 114.546L58.1146 105.65C58.3387 105.435 58.6904 105.428 58.9225 105.635L69.3902 114.939C72.0781 117.328 76.327 115.42 76.327 111.824V82.0946C76.5702 82.0745 76.8148 82.0637 77.0604 82.0622L83.4903 82.0244C88.7429 81.9935 92.9934 77.7429 93.0244 72.4903L93.0622 66.0604C93.077 63.5559 94.0708 61.1566 95.8313 59.3752L100.351 54.8018C104.043 51.0658 104.043 45.0547 100.351 41.3186L95.8313 36.7452C94.0708 34.9638 93.077 32.5645 93.0622 30.06L93.0244 23.6301C92.9934 18.3775 88.743 14.127 83.4903 14.096L77.0604 14.0582C74.5559 14.0434 72.1566 13.0496 70.3752 11.2891L65.8018 6.76925ZM45.3658 111.54V83.1115C46.2348 83.5553 47.0386 84.133 47.7452 84.8313L52.3186 89.3512C56.0546 93.0435 62.0658 93.0435 65.8018 89.3512L70.3752 84.8313C71.0818 84.133 71.8856 83.5553 72.7546 83.1115V111.824C72.7546 112.338 72.1476 112.61 71.7636 112.269L61.2959 102.964C59.6711 101.52 57.2089 101.567 55.6406 103.073L46.3736 111.969C45.9951 112.333 45.3658 112.064 45.3658 111.54ZM84.0673 48.0602C84.0673 61.8713 72.8713 73.0674 59.0602 73.0674C45.2491 73.0674 34.053 61.8713 34.053 48.0602C34.053 34.2492 45.2491 23.0531 59.0602 23.0531C72.8713 23.0531 84.0673 34.2492 84.0673 48.0602ZM87.6398 48.0602C87.6398 63.8443 74.8443 76.6398 59.0602 76.6398C43.2761 76.6398 30.4806 63.8443 30.4806 48.0602C30.4806 32.2761 43.2761 19.4806 59.0602 19.4806C74.8443 19.4806 87.6398 32.2761 87.6398 48.0602ZM59.0602 37.5408L57.0062 41.8846C56.1934 43.6034 54.6224 44.7947 52.805 45.0703L48.212 45.7669L51.5355 49.1481C52.8506 50.486 53.4507 52.4136 53.1402 54.3027L52.3557 59.0771L56.4637 56.8229C58.0892 55.931 60.0312 55.931 61.6567 56.8229L65.7647 59.0771L64.9802 54.3027C64.6697 52.4136 65.2698 50.486 66.5849 49.1481L69.9084 45.7669L65.3154 45.0703C63.4981 44.7947 61.927 43.6034 61.1142 41.8846L59.0602 37.5408ZM61.0616 33.8781C60.2429 32.1468 57.8775 32.1468 57.0588 33.8781L54.0041 40.3382C53.679 41.0257 53.0505 41.5023 52.3236 41.6125L45.493 42.6484C43.6623 42.9261 42.9314 45.2741 44.256 46.6217L49.1987 51.6502C49.7247 52.1854 49.9648 52.9564 49.8406 53.7121L48.6738 60.8124C48.3611 62.7154 50.2748 64.1665 51.9121 63.2681L58.0216 59.9157C58.6718 59.559 59.4486 59.559 60.0988 59.9157L66.2083 63.2681C67.8456 64.1665 69.7593 62.7154 69.4466 60.8124L68.2798 53.7121C68.1556 52.9564 68.3957 52.1854 68.9217 51.6502L73.8644 46.6217C75.189 45.2741 74.4581 42.9261 72.6274 42.6484L65.7968 41.6125C65.0699 41.5023 64.4415 41.0257 64.1164 40.3382L61.0616 33.8781ZM103 25.5C104.381 25.5 105.5 24.3807 105.5 23C105.5 21.6193 104.381 20.5 103 20.5C101.619 20.5 100.5 21.6193 100.5 23C100.5 24.3807 101.619 25.5 103 25.5ZM103 28C105.761 28 108 25.7614 108 23C108 20.2386 105.761 18 103 18C100.239 18 98 20.2386 98 23C98 25.7614 100.239 28 103 28ZM19.6365 84H16.3638V88.3637H12V91.6364H16.3638V96H19.6365V91.6364H24V88.3637H19.6365V84Z" fill="#6733E1"/>
</g>
</svg>
