<svg width="184" height="143" viewBox="0 0 184 143" fill="none" xmlns="http://www.w3.org/2000/svg">
<path d="M85.8961 0.502305C129.873 -3.35027 129.962 21.1416 149.78 43.9768C169.598 66.812 173.843 77.1614 166.37 103.485C158.898 129.809 133.721 150.441 102.572 138.75C71.4228 127.059 53.5803 138.284 33.9326 127.893C14.2848 117.501 6.97902 97.4505 21.3743 73.8132C35.7697 50.1759 31.6557 5.27249 85.8961 0.502305Z" fill="#4F30AB" fill-opacity="0.05"/>
<path fill-rule="evenodd" clip-rule="evenodd" d="M166.388 99.6741H162.591V104.737L157.527 104.737V108.535H162.591V113.598H166.388V108.535H171.451V104.737L166.388 104.737V99.6741Z" fill="#4F30AB"/>
<path fill-rule="evenodd" clip-rule="evenodd" d="M12.5906 45.269C13.9888 45.269 15.1223 44.1356 15.1223 42.7374C15.1223 41.3392 13.9888 40.2057 12.5906 40.2057C11.1924 40.2057 10.059 41.3392 10.059 42.7374C10.059 44.1356 11.1924 45.269 12.5906 45.269ZM12.5906 47.8007C15.387 47.8007 17.6539 45.5337 17.6539 42.7374C17.6539 39.941 15.387 37.6741 12.5906 37.6741C9.79426 37.6741 7.52734 39.941 7.52734 42.7374C7.52734 45.5337 9.79426 47.8007 12.5906 47.8007Z" fill="#4F30AB"/>
<rect x="0.828125" y="86.4927" width="131" height="39" rx="19.5" transform="rotate(-10 0.828125 86.4927)" fill="#4F30AB"/>
<path d="M44.7802 108.482C43.3306 108.738 42.0585 108.71 40.9639 108.4C39.8666 108.073 38.8939 107.579 38.0459 106.916L39.9885 104.112C41.3296 105.175 42.8194 105.563 44.4581 105.274C45.3405 105.118 45.9625 104.821 46.324 104.384C46.6856 103.947 46.8135 103.429 46.708 102.83C46.6274 102.373 46.4346 102.017 46.1297 101.762C45.8221 101.491 45.2725 101.369 44.4809 101.395L42.8126 101.47C41.0247 101.557 39.6474 101.256 38.6808 100.565C37.7299 99.8718 37.1322 98.8318 36.8878 97.4452C36.7572 96.7046 36.7795 96.0021 36.9548 95.3376C37.13 94.673 37.4388 94.0743 37.881 93.5414C38.3389 93.0058 38.9252 92.5531 39.6399 92.1834C40.3675 91.7951 41.2198 91.5149 42.1967 91.3426C43.4415 91.1231 44.5713 91.127 45.5862 91.3542C46.6011 91.5814 47.514 92.0135 48.3249 92.6503L46.3628 95.4821C45.8883 95.0946 45.3424 94.809 44.7252 94.6254C44.1209 94.4233 43.3933 94.3972 42.5424 94.5473C41.7388 94.689 41.1651 94.9363 40.8212 95.2894C40.4772 95.6425 40.3497 96.0712 40.4387 96.5754C40.5387 97.1426 40.7606 97.5259 41.1044 97.7252C41.464 97.9218 42.0002 98.0141 42.713 98.0021L44.3896 97.9746C46.1386 97.9424 47.4923 98.248 48.4505 98.8913C49.406 99.5189 50.0102 100.55 50.263 101.984C50.4019 102.771 50.3879 103.521 50.221 104.233C50.0541 104.945 49.7365 105.586 49.2684 106.156C48.816 106.723 48.2116 107.211 47.4553 107.621C46.6961 108.015 45.8044 108.302 44.7802 108.482ZM60.8056 105.657C59.7184 105.848 58.6937 105.842 57.7317 105.638C56.7696 105.434 55.911 105.033 55.1556 104.435C54.3976 103.822 53.7521 103.017 53.2193 102.023C52.6837 101.012 52.2923 99.8061 52.045 98.4037C51.7978 97.0014 51.7544 95.7418 51.9149 94.6249C52.0726 93.4923 52.4041 92.5159 52.9093 91.6957C53.4118 90.8598 54.0802 90.1814 54.9144 89.6607C55.7486 89.1399 56.7094 88.7836 57.7966 88.5919C58.8838 88.4002 59.9085 88.4064 60.8705 88.6104C61.8326 88.8145 62.6926 89.2233 63.4507 89.837C64.206 90.4349 64.8515 91.2391 65.387 92.2494C65.9198 93.244 66.3099 94.4425 66.5572 95.8449C66.8044 97.2472 66.8492 98.5147 66.6915 99.6473C66.531 100.764 66.1995 101.741 65.697 102.576C65.1918 103.397 64.522 104.067 63.6878 104.588C62.8535 105.109 61.8928 105.465 60.8056 105.657ZM60.243 102.466C61.3302 102.274 62.1107 101.771 62.5844 100.956C63.0739 100.139 63.202 99.0685 62.9686 97.7449L62.5352 95.2868C62.3018 93.9632 61.8153 93.0011 61.0758 92.4004C60.352 91.7969 59.4465 91.591 58.3592 91.7827C57.272 91.9744 56.4836 92.479 55.9941 93.2964C55.5204 94.111 55.4002 95.1801 55.6336 96.5037L56.067 98.9618C56.3004 100.285 56.779 101.249 57.5028 101.852C58.2424 102.453 59.1557 102.658 60.243 102.466ZM77.6781 102.682C76.5909 102.873 75.5662 102.867 74.6042 102.663C73.6422 102.459 72.7835 102.058 72.0282 101.46C71.2701 100.846 70.6246 100.042 70.0918 99.0477C69.5563 98.0374 69.1648 96.831 68.9176 95.4287C68.6703 94.0263 68.6269 92.7667 68.7874 91.6499C68.9451 90.5173 69.2766 89.5409 69.7819 88.7207C70.2843 87.8847 70.9527 87.2063 71.7869 86.6856C72.6212 86.1648 73.5819 85.8086 74.6691 85.6168C75.7564 85.4251 76.781 85.4313 77.743 85.6353C78.7051 85.8394 79.5652 86.2483 80.3232 86.8619C81.0785 87.4599 81.724 88.264 82.2596 89.2743C82.7924 90.2689 83.1824 91.4674 83.4297 92.8698C83.677 94.2721 83.7217 95.5396 83.564 96.6722C83.4035 97.7891 83.072 98.7655 82.5696 99.6014C82.0643 100.422 81.3946 101.092 80.5603 101.613C79.7261 102.134 78.7653 102.49 77.6781 102.682ZM77.1155 99.4908C78.2027 99.2991 78.9832 98.7959 79.4569 97.9813C79.9464 97.1639 80.0745 96.0934 79.8411 94.7698L79.4077 92.3117C79.1743 90.9881 78.6878 90.026 77.9483 89.4253C77.2245 88.8218 76.319 88.6159 75.2318 88.8076C74.1445 88.9993 73.3562 89.5039 72.8667 90.3213C72.3929 91.136 72.2728 92.2051 72.5061 93.5286L72.9396 95.9867C73.173 97.3103 73.6515 98.2738 74.3753 98.8773C75.1149 99.478 76.0283 99.6825 77.1155 99.4908ZM91.5418 91.9024L89.3747 88.8727L89.3038 88.8852L91.2626 99.9938L87.8827 100.59L84.9738 84.0923L88.8972 83.4005L94.7869 90.4042L96.9539 93.4339L97.0248 93.4214L95.0661 82.3128L98.4459 81.7168L101.355 98.2143L97.4314 98.9061L91.5418 91.9024Z" fill="white"/>
<rect x="32.6211" y="43.4521" width="146" height="39" rx="19.5" transform="rotate(-10 32.6211 43.4521)" fill="#A3278F"/>
<path d="M70.2679 66.5535C69.1492 66.7508 68.1102 66.7553 67.1509 66.567C66.1889 66.363 65.3316 65.9699 64.5791 65.3877C63.8238 64.7898 63.1811 64.0014 62.6511 63.0225C62.1183 62.028 61.7282 60.8295 61.4809 59.4271C61.2365 58.0405 61.1931 56.7809 61.3508 55.6483C61.5057 54.5 61.8344 53.5078 62.3369 52.6718C62.8366 51.8201 63.5022 51.126 64.3336 50.5895C65.1651 50.053 66.1402 49.6861 67.259 49.4888C68.7874 49.2193 70.1035 49.3122 71.2073 49.7674C72.3084 50.2069 73.2763 51.0435 74.1113 52.2773L71.2984 54.4304C70.9556 53.776 70.5117 53.2856 69.9667 52.9593C69.4348 52.6144 68.7197 52.5212 67.8216 52.6796C66.7659 52.8657 65.9761 53.3624 65.4523 54.1696C64.9415 54.9583 64.8014 56.0066 65.032 57.3144L65.4988 59.9615C65.7294 61.2694 66.221 62.2144 66.9735 62.7965C67.739 63.3602 68.6496 63.5489 69.7053 63.3628C70.5877 63.2072 71.2472 62.8472 71.6838 62.2828C72.1334 61.6999 72.4246 61.0474 72.5572 60.3254L75.7881 61.5104C75.3958 62.8793 74.7566 63.9993 73.8704 64.8704C72.9972 65.723 71.7964 66.284 70.2679 66.5535ZM85.3159 63.9002C84.2287 64.0919 83.2041 64.0857 82.242 63.8817C81.28 63.6776 80.4213 63.2766 79.666 62.6787C78.9079 62.065 78.2625 61.2609 77.7297 60.2663C77.1941 59.256 76.8026 58.0496 76.5554 56.6472C76.3081 55.2449 76.2647 53.9853 76.4252 52.8684C76.5829 51.7358 76.9144 50.7594 77.4197 49.9392C77.9221 49.1033 78.5905 48.4249 79.4247 47.9041C80.259 47.3834 81.2197 47.0271 82.3069 46.8354C83.3942 46.6437 84.4188 46.6499 85.3809 46.8539C86.3429 47.058 87.203 47.4668 87.961 48.0805C88.7164 48.6784 89.3618 49.4826 89.8974 50.4929C90.4302 51.4875 90.8202 52.686 91.0675 54.0884C91.3148 55.4907 91.3595 56.7582 91.2018 57.8908C91.0413 59.0076 90.7098 59.984 90.2074 60.82C89.7021 61.6402 89.0324 62.3107 88.1981 62.8314C87.3639 63.3522 86.4031 63.7085 85.3159 63.9002ZM84.7533 60.7094C85.8405 60.5177 86.621 60.0145 87.0947 59.1999C87.5842 58.3825 87.7123 57.312 87.4789 55.9884L87.0455 53.5303C86.8121 52.2067 86.3256 51.2446 85.5861 50.6439C84.8623 50.0404 83.9568 49.8345 82.8696 50.0262C81.7823 50.2179 80.994 50.7225 80.5045 51.5399C80.0307 52.3545 79.9106 53.4236 80.144 54.7472L80.5774 57.2053C80.8108 58.5289 81.2893 59.4924 82.0131 60.0959C82.7527 60.6966 83.6661 60.9011 84.7533 60.7094ZM105.949 48.8079L105.879 48.8204L105.098 51.4438L102.913 57.8485L98.7445 52.5885L97.0334 50.2095L96.9625 50.222L98.9004 61.2124L95.5205 61.8084L92.6116 45.3109L96.4169 44.6399L101.821 51.656L101.869 51.6477L104.5 43.2146L108.329 42.5395L111.238 59.037L107.858 59.6329L105.949 48.8079ZM114.248 58.5063L113.743 55.6464L115.871 55.2713L113.97 44.4936L111.843 44.8687L111.339 42.0088L119.186 40.6251L119.69 43.485L117.563 43.8601L119.463 54.6378L121.59 54.2628L122.095 57.1226L114.248 58.5063ZM128.747 47.9075L126.58 44.8778L126.509 44.8903L128.468 55.9989L125.088 56.5949L122.179 40.0974L126.102 39.4056L131.992 46.4092L134.159 49.439L134.23 49.4265L132.271 38.3178L135.651 37.7219L138.56 54.2194L134.637 54.9112L128.747 47.9075ZM152.199 49.1093L152.081 49.1302C152.102 49.9875 151.799 50.7558 151.171 51.4351C150.544 52.1144 149.608 52.5638 148.363 52.7833C147.417 52.95 146.503 52.9244 145.62 52.7065C144.736 52.4885 143.925 52.0792 143.186 51.4785C142.446 50.8778 141.81 50.0802 141.277 49.0856C140.744 48.091 140.356 46.9004 140.111 45.5138C139.867 44.1272 139.831 42.8662 140.005 41.7308C140.178 40.5954 140.524 39.6084 141.042 38.7696C141.576 37.9281 142.267 37.2377 143.114 36.6984C143.961 36.1591 144.944 35.7908 146.063 35.5935C147.544 35.3324 148.877 35.4303 150.063 35.8874C151.245 36.3288 152.256 37.1334 153.096 38.3014L150.461 40.4963C150.095 39.8947 149.605 39.4206 148.992 39.0738C148.375 38.7113 147.587 38.6148 146.625 38.7843C145.507 38.9816 144.673 39.4616 144.126 40.2243C143.578 40.987 143.426 42.0617 143.67 43.4483L144.137 46.0955C144.379 47.4663 144.889 48.4243 145.668 48.9694C146.443 49.4987 147.39 49.6648 148.509 49.4675C148.95 49.3897 149.36 49.2688 149.737 49.1048C150.111 48.9251 150.43 48.7064 150.693 48.4487C150.954 48.1753 151.137 47.8751 151.241 47.5479C151.362 47.218 151.386 46.8482 151.314 46.4385L151.168 45.6112L148.095 46.153L147.566 43.1513L154.066 42.0052L155.687 51.1994L152.662 51.7329L152.199 49.1093Z" fill="white"/>
</svg>
