<svg width="985" height="294" viewBox="0 0 985 294" fill="none" xmlns="http://www.w3.org/2000/svg">
<path fill-rule="evenodd" clip-rule="evenodd" d="M8.86095 35H5.06348V40.0633L0 40.0633V43.8608H5.06348V48.9241H8.86095V43.8608H13.9241V40.0633L8.86095 40.0633V35Z" fill="white"/>
<path fill-rule="evenodd" clip-rule="evenodd" d="M249.861 0H246.063V5.06331L241 5.06331V8.86078H246.063V13.9241H249.861V8.86078H254.924V5.06331L249.861 5.06331V0Z" fill="white"/>
<path fill-rule="evenodd" clip-rule="evenodd" d="M932.861 280H929.063V285.063L924 285.063V288.861H929.063V293.924H932.861V288.861H937.924V285.063L932.861 285.063V280Z" fill="white"/>
<path fill-rule="evenodd" clip-rule="evenodd" d="M979.063 9.59494C980.461 9.59494 981.595 8.46148 981.595 7.06329C981.595 5.6651 980.461 4.53165 979.063 4.53165C977.665 4.53165 976.532 5.6651 976.532 7.06329C976.532 8.46148 977.665 9.59494 979.063 9.59494ZM979.063 12.1266C981.86 12.1266 984.127 9.85967 984.127 7.06329C984.127 4.26691 981.86 2 979.063 2C976.267 2 974 4.26691 974 7.06329C974 9.85967 976.267 12.1266 979.063 12.1266Z" fill="white"/>
<path d="M143.172 49.52H168.432" stroke="white" stroke-linecap="round" stroke-linejoin="round"/>
<path d="M114.18 49.52H139.84" stroke="white" stroke-linecap="round" stroke-linejoin="round"/>
<path d="M100.512 49.52H108.402" stroke="white" stroke-linecap="round" stroke-linejoin="round"/>
<path d="M121.262 63.24H168.332" stroke="white" stroke-linecap="round" stroke-linejoin="round"/>
<path d="M108.398 63.24H114.178" stroke="white" stroke-linecap="round" stroke-linejoin="round"/>
<path d="M142.328 76.96H168.228" stroke="white" stroke-linecap="round" stroke-linejoin="round"/>
<path d="M116.289 76.96H138.489" stroke="white" stroke-linecap="round" stroke-linejoin="round"/>
<path d="M138.781 90.6801H168.131" stroke="white" stroke-linecap="round" stroke-linejoin="round"/>
<path d="M124.172 90.6801H134.612" stroke="white" stroke-linecap="round" stroke-linejoin="round"/>
<path d="M246.73 89.3543C246.639 90.3874 245.774 91.18 244.737 91.18H175.183C174.009 91.18 173.088 90.1746 173.19 89.0057L176.53 50.8257C176.621 49.7926 177.486 49 178.523 49H248.077C249.251 49 250.172 50.0054 250.07 51.1743L246.73 89.3543Z" stroke="white" stroke-width="2" stroke-linecap="round" stroke-linejoin="round"/>
<path d="M245.152 89.5286C245.708 90.177 245.248 91.1801 244.393 91.1801H175.505C174.602 91.1801 174.162 90.077 174.817 89.4549L197.497 67.9198C197.868 67.5675 198.446 67.5521 198.835 67.8842L210.324 77.6832C210.679 77.9857 211.195 78.003 211.569 77.725L225.132 67.6459C225.553 67.3328 226.145 67.3988 226.487 67.797L245.152 89.5286Z" stroke="white" stroke-width="2" stroke-linecap="round" stroke-linejoin="round"/>
<path d="M247.245 49C248.208 49 248.614 50.2291 247.84 50.8032L225.881 67.09L211.571 77.7249C211.197 78.0029 210.68 77.9856 210.325 77.6831L198.151 67.3L178.756 50.7609C178.049 50.1577 178.476 49 179.405 49H247.245Z" stroke="white" stroke-width="2" stroke-linecap="round" stroke-linejoin="round"/>
<path d="M93.47 49.52H75" stroke="#FEFEFE" stroke-linecap="round" stroke-linejoin="round"/>
</svg>
