<svg width="22" height="22" viewBox="0 0 22 22" fill="none" xmlns="http://www.w3.org/2000/svg">
<g id="Icon/Favorite">
<path id="Vector (Stroke)" fill-rule="evenodd" clip-rule="evenodd" d="M11.1429 3.86886C13.2635 1.69538 16.7594 1.28784 19.1592 3.33294C21.8472 5.62721 21.9852 9.73137 19.5787 12.2148L12.6683 19.3502C11.829 20.2164 10.4533 20.2166 9.61399 19.3504L2.70321 12.2146C0.301041 9.73123 0.437961 5.62762 3.12593 3.33343C5.5251 1.28888 9.02509 1.69472 11.1429 3.86886ZM17.8614 4.85468C16.3525 3.56935 14.0379 3.75539 12.5645 5.27571L11.1428 6.74066L9.7205 5.275C8.25115 3.75589 5.93337 3.569 4.42408 4.85488C2.6268 6.38911 2.52837 9.15672 4.1399 10.8232L11.0503 17.9586C11.0806 17.9899 11.1123 18 11.1411 18C11.1698 18 11.2015 17.9899 11.2318 17.9586L18.1422 10.8232C19.7569 9.15693 19.6584 6.38901 17.8614 4.85468Z" fill="#343546" fill-opacity="0.25"/>
</g>
</svg>
