<svg width="22" height="22" viewBox="0 0 22 22" fill="none" xmlns="http://www.w3.org/2000/svg">
<path fill-rule="evenodd" clip-rule="evenodd" d="M11.1433 3.86892C13.264 1.69544 16.7598 1.2879 19.1597 3.333C21.8477 5.62727 21.9857 9.73143 19.5792 12.2149L12.6688 19.3503C11.8295 20.2164 10.4538 20.2166 9.61448 19.3504L2.7037 12.2147C0.301529 9.73129 0.43845 5.62768 3.12642 3.3335C5.52559 1.28895 9.02558 1.69478 11.1433 3.86892ZM17.8619 4.85474C16.353 3.56941 14.0384 3.75545 12.565 5.27577L11.1433 6.74072L9.72099 5.27506C8.25164 3.75595 5.93386 3.56906 4.42456 4.85495C2.62728 6.38917 2.52886 9.15678 4.14039 10.8233L11.0508 17.9587C11.0811 17.99 11.1128 18.0001 11.1415 18.0001C11.1703 18.0001 11.202 17.99 11.2323 17.9587L18.1427 10.8233C19.7574 9.15699 19.6589 6.38907 17.8619 4.85474Z" fill="#47AFC8"/>
</svg>
