<svg width="392" height="380" viewBox="0 0 392 380" fill="none" xmlns="http://www.w3.org/2000/svg">
<g clip-path="url(#clip0_6_16406)">
<g opacity="0.15" filter="url(#filter0_f_6_16406)">
<path d="M78.4513 279.923L201.568 225.133C204.714 223.736 208.28 223 211.911 223C215.541 223 219.108 223.736 222.253 225.133L345.549 279.837C345.992 280.031 346.36 280.313 346.615 280.653C346.87 280.993 347.003 281.38 347 281.773V313.848C347.004 314.242 346.871 314.63 346.616 314.972C346.361 315.314 345.993 315.597 345.549 315.792L221.226 371.116C218.45 372.35 215.3 373 212.095 373C208.889 373 205.74 372.35 202.964 371.116L78.4513 315.879C78.0072 315.683 77.6387 315.4 77.3836 315.058C77.1286 314.716 76.9961 314.328 77.0001 313.934V281.859C76.997 281.466 77.1298 281.079 77.3849 280.739C77.64 280.399 78.0081 280.117 78.4513 279.923Z" fill="#101828"/>
</g>
<path d="M195.581 179.737C198.728 177.923 202.297 176.968 205.93 176.968C209.563 176.968 213.132 177.923 216.279 179.737L339.655 250.803C340.098 251.059 340.466 251.427 340.721 251.87C340.977 252.313 341.112 252.816 341.112 253.327C341.112 253.839 340.977 254.342 340.721 254.785C340.466 255.228 340.098 255.596 339.655 255.852L215.251 327.677C212.473 329.279 209.322 330.123 206.114 330.123C202.907 330.123 199.755 329.279 196.977 327.677L72.3836 255.941C71.9433 255.683 71.5783 255.314 71.3246 254.871C71.071 254.428 70.9375 253.927 70.9375 253.417C70.9375 252.906 71.071 252.405 71.3246 251.962C71.5783 251.519 71.9433 251.15 72.3836 250.892L195.581 179.737Z" fill="#4F30AB" fill-opacity="0.1"/>
<path d="M72.3821 232.238L196.975 303.996C199.754 305.598 202.905 306.442 206.113 306.442C209.32 306.442 212.472 305.598 215.25 303.996L339.653 232.238C340.125 231.98 340.513 231.592 340.77 231.121C341.144 231.794 341.236 232.587 341.027 233.328C340.818 234.069 340.324 234.697 339.653 235.075L215.25 306.9C212.472 308.503 209.32 309.346 206.113 309.346C202.905 309.346 199.754 308.503 196.975 306.9L72.3821 235.153C72.0479 234.968 71.7536 234.719 71.5164 234.419C71.2791 234.12 71.1034 233.776 70.9996 233.409C70.8957 233.041 70.8657 232.656 70.9113 232.277C70.9568 231.898 71.0771 231.531 71.265 231.199C71.5328 231.643 71.9199 232.003 72.3821 232.238Z" fill="#4F30AB" fill-opacity="0.25"/>
<path d="M72.382 230.115L195.579 158.983C198.726 157.169 202.295 156.213 205.928 156.213C209.561 156.213 213.13 157.169 216.277 158.983L339.653 230.004C340.097 230.256 340.465 230.622 340.72 231.063C340.976 231.505 341.108 232.007 341.105 232.517V274.16C341.109 274.672 340.977 275.175 340.722 275.619C340.466 276.063 340.098 276.43 339.653 276.684L215.25 348.509C212.471 350.112 209.32 350.956 206.113 350.956C202.905 350.956 199.754 350.112 196.975 348.509L72.382 276.796C71.9375 276.542 71.5688 276.174 71.3135 275.731C71.0583 275.287 70.9258 274.783 70.9298 274.272V232.629C70.9267 232.119 71.0596 231.617 71.3148 231.175C71.5701 230.733 71.9384 230.367 72.382 230.115Z" fill="#4F30AB" fill-opacity="0.25"/>
<g opacity="0.5">
<path d="M332.785 75.0156C335.779 75.7864 338.728 76.6018 341.61 77.4396V98.7748C338.728 97.937 335.779 97.1216 332.785 96.3509V75.0156Z" fill="#A3278F"/>
<path opacity="0.5" d="M312.344 75.9097C315.538 76.524 318.7 77.1719 321.805 77.8645V93.7263C318.7 93.0337 315.538 92.3858 312.344 91.7715V75.9097Z" fill="#A3278F"/>
<path d="M290.605 58.5396C293.994 58.9789 297.345 59.4592 300.659 59.9805V89.727C297.352 89.2131 294.001 88.7328 290.605 88.286V58.5396Z" fill="#A3278F"/>
<path opacity="0.5" d="M267.75 39.7959C271.291 40.0416 274.798 40.3432 278.261 40.6784V86.8786C274.798 86.5435 271.291 86.2419 267.75 85.9962V39.7959Z" fill="#A3278F"/>
<path opacity="0.5" d="M243.914 49.7041C247.6 49.76 251.253 49.8717 254.872 50.0169V85.2703C251.253 85.1139 247.6 85.0096 243.914 84.9575V49.7041Z" fill="#A3278F"/>
<path d="M219.863 12.8084C223.46 12.6669 227.079 12.5664 230.721 12.5068V84.9573C227.079 85.002 223.46 85.0988 219.863 85.2477V12.8084Z" fill="#A3278F"/>
<path d="M196.598 27.7321C200.06 27.397 203.546 27.0954 207.064 26.8496V85.9627C203.549 86.2234 200.06 86.5175 196.598 86.8452V27.7321Z" fill="#A3278F"/>
<path d="M174.312 8.42979C177.611 7.91596 180.963 7.43936 184.366 7V88.2415C180.992 88.6734 177.641 89.1463 174.312 89.6601V8.42979Z" fill="#A3278F"/>
</g>
<path opacity="0.2" d="M206.012 276.695C249.375 276.695 284.528 256.401 284.528 231.366C284.528 206.332 249.375 186.037 206.012 186.037C162.649 186.037 127.496 206.332 127.496 231.366C127.496 256.401 162.649 276.695 206.012 276.695Z" fill="#4F30AB"/>
<path d="M206.012 257.08C230.615 257.08 250.559 245.568 250.559 231.366C250.559 217.165 230.615 205.652 206.012 205.652C181.409 205.652 161.465 217.165 161.465 231.366C161.465 245.568 181.409 257.08 206.012 257.08Z" fill="#4F30AB"/>
<path d="M263.498 160.33L257.938 162.581L277.144 210.023L282.704 207.772L263.498 160.33Z" fill="#4F30AB"/>
<path d="M158.186 156.925C168.475 156.776 176.695 148.314 176.546 138.025C176.397 127.736 167.935 119.516 157.646 119.665C147.357 119.814 139.136 128.276 139.286 138.565C139.435 148.854 147.896 157.074 158.186 156.925Z" fill="url(#paint0_radial_6_16406)"/>
<path d="M254.124 165.886C254.124 202.055 232.587 231.366 206.024 231.366C179.462 231.366 157.914 202.055 157.914 165.886C157.914 129.717 179.45 118.893 206.024 118.893C232.599 118.893 254.124 129.728 254.124 165.886Z" fill="url(#paint1_radial_6_16406)"/>
<path d="M254.124 165.886C254.124 202.055 232.587 231.366 206.024 231.366C179.462 231.366 157.914 202.055 157.914 165.886C157.914 129.717 179.45 118.893 206.024 118.893C232.599 118.893 254.124 129.728 254.124 165.886Z" fill="url(#paint2_linear_6_16406)"/>
<path d="M206.013 157.285C224.144 157.285 238.843 148.798 238.843 138.329C238.843 127.86 224.144 119.373 206.013 119.373C187.882 119.373 173.184 127.86 173.184 138.329C173.184 148.798 187.882 157.285 206.013 157.285Z" fill="#343546"/>
<path d="M182.802 129.985C195.625 122.579 216.413 122.579 229.236 129.985C234.531 133.034 237.625 136.877 238.553 140.853C239.859 135.201 236.754 129.281 229.236 124.936C216.413 117.53 195.625 117.53 182.802 124.936C175.284 129.27 172.179 135.201 173.486 140.853C174.413 136.877 177.507 133.034 182.802 129.985Z" fill="#453C9E"/>
<path d="M168.123 93.2904L174.065 83.0584C177.64 79.3009 180.28 74.7549 181.773 69.7881L187.782 59.4221L179.137 54.4625C178.859 54.2735 178.568 54.1055 178.265 53.9598C175.808 52.8428 172.546 53.1109 168.949 55.1774C161.309 59.6455 155.109 70.3243 155.109 79.1599C155.109 83.5722 156.662 86.6775 159.164 88.0962L168.123 93.2904Z" fill="#4F30AB"/>
<path d="M187.617 81.9302C193.024 72.5645 193.024 62.4416 187.617 59.32C182.211 56.1984 173.444 61.2602 168.037 70.6259C162.63 79.9916 162.629 90.1145 168.036 93.2361C173.443 96.3578 182.209 91.2959 187.617 81.9302Z" fill="#BCBEFF"/>
<path d="M207.923 142.149C235.018 142.149 256.983 120.184 256.983 93.0892C256.983 65.9942 235.018 44.0293 207.923 44.0293C180.828 44.0293 158.863 65.9942 158.863 93.0892C158.863 120.184 180.828 142.149 207.923 142.149Z" fill="url(#paint3_radial_6_16406)"/>
<g opacity="0.5">
<path d="M207.923 142.149C235.018 142.149 256.983 120.184 256.983 93.0892C256.983 65.9942 235.018 44.0293 207.923 44.0293C180.828 44.0293 158.863 65.9942 158.863 93.0892C158.863 120.184 180.828 142.149 207.923 142.149Z" fill="url(#paint4_linear_6_16406)"/>
</g>
<path d="M235.38 126.276L241.323 116.044C244.893 112.28 247.529 107.731 249.019 102.763L255.04 92.4078L246.383 87.4371C246.111 87.2459 245.823 87.0777 245.523 86.9344C243.066 85.8174 239.793 86.0855 236.207 88.152C228.567 92.6201 222.367 103.31 222.367 112.135C222.367 116.603 223.909 119.652 226.411 121.071L235.38 126.276Z" fill="url(#paint5_radial_6_16406)"/>
<path style="mix-blend-mode:lighten" d="M235.38 126.276L241.323 116.044C244.893 112.28 247.529 107.731 249.019 102.763L255.04 92.4078L246.383 87.4371C246.111 87.2459 245.823 87.0777 245.523 86.9344C243.066 85.8174 239.793 86.0855 236.207 88.152C228.567 92.6201 222.367 103.31 222.367 112.135C222.367 116.603 223.909 119.652 226.411 121.071L235.38 126.276Z" fill="url(#paint6_linear_6_16406)"/>
<path d="M255.206 110.112C260.614 100.703 260.594 90.5456 255.162 87.424C249.731 84.3024 240.944 89.3991 235.537 98.8078C230.13 108.216 230.149 118.374 235.581 121.496C241.012 124.618 249.799 119.521 255.206 110.112Z" fill="#BCBEFF"/>
<path d="M231.897 117.385C231.897 108.56 238.096 97.8146 245.748 93.4024C247.891 92.0182 250.431 91.3783 252.975 91.5816C250.247 91.1659 247.462 91.7747 245.156 93.2907C237.504 97.7588 231.305 108.438 231.305 117.273C231.305 123.037 233.952 126.567 237.929 127.092C234.265 126.288 231.897 122.836 231.897 117.385Z" fill="white"/>
<path d="M254.997 103.567C254.997 109.878 250.529 117.552 245.1 120.702C239.671 123.853 235.203 121.306 235.203 114.994C235.203 108.683 239.671 101.009 245.1 97.8481C250.529 94.6869 254.997 97.2561 254.997 103.567Z" fill="#343546"/>
<path d="M250.795 96.6416C251.949 98.1699 252.522 100.058 252.415 101.97C252.415 108.281 247.946 115.955 242.518 119.116C240.844 120.224 238.812 120.656 236.832 120.323C238.597 122.411 241.646 122.702 245.109 120.702C250.572 117.552 255.006 109.878 255.006 103.567C254.995 99.6911 253.342 97.2448 250.795 96.6416Z" fill="#343546" fill-opacity="0.75"/>
<path d="M186.921 125.555C193.271 122.912 194.708 111.853 190.13 100.855C185.552 89.8575 176.693 83.0849 170.342 85.7283C163.992 88.3717 162.555 99.4302 167.133 110.428C171.711 121.426 180.57 128.199 186.921 125.555Z" fill="#4F30AB"/>
<path d="M186.242 107.979C185.784 111.487 183.137 112.581 180.333 110.437C178.866 109.188 177.714 107.611 176.973 105.832C176.231 104.054 175.921 102.126 176.066 100.205C176.524 96.6972 179.172 95.5913 181.975 97.736C183.44 98.989 184.59 100.569 185.331 102.348C186.072 104.128 186.384 106.057 186.242 107.979Z" fill="#FFC681"/>
<path d="M180.075 121.652C172.345 115.743 167.095 103.132 168.346 93.4804C168.86 89.5485 170.368 86.7112 172.502 85.1362C168.469 85.516 165.408 88.9453 164.682 94.8879C163.398 104.584 168.625 117.184 176.355 123.104C180.935 126.6 185.358 126.958 188.464 124.668C185.939 124.914 183.035 123.964 180.075 121.652Z" fill="#343546" fill-opacity="0.75"/>
<path d="M177.027 122.769C169.297 116.86 164.047 104.249 165.298 94.6086C165.879 90.1405 167.755 87.091 170.369 85.6724C167.409 86.8899 165.264 90.0623 164.639 94.899C163.399 104.584 168.627 117.184 176.357 123.104C180.512 126.276 184.522 126.857 187.527 125.238C184.623 126.444 180.881 125.729 177.027 122.769Z" fill="#FFC681"/>
<path d="M279.023 165.216C278.307 168.831 276.536 172.153 273.932 174.761C271.329 177.37 268.011 179.147 264.397 179.87C260.783 180.592 257.036 180.226 253.63 178.819C250.224 177.411 247.312 175.026 245.262 171.963C243.212 168.901 242.116 165.299 242.113 161.614C242.11 157.928 243.2 154.325 245.245 151.259C247.29 148.194 250.199 145.803 253.603 144.39C257.006 142.978 260.752 142.606 264.367 143.322C269.214 144.283 273.48 147.129 276.229 151.234C278.977 155.34 279.982 160.369 279.023 165.216Z" fill="url(#paint7_radial_6_16406)"/>
<g style="mix-blend-mode:lighten">
<path d="M279.023 165.216C278.307 168.831 276.536 172.153 273.932 174.761C271.329 177.37 268.011 179.147 264.397 179.87C260.783 180.592 257.036 180.226 253.63 178.819C250.224 177.411 247.312 175.026 245.262 171.963C243.212 168.901 242.116 165.299 242.113 161.614C242.11 157.928 243.2 154.325 245.245 151.259C247.29 148.194 250.199 145.803 253.603 144.39C257.006 142.978 260.752 142.606 264.367 143.322C269.214 144.283 273.48 147.129 276.229 151.234C278.977 155.34 279.982 160.369 279.023 165.216Z" fill="url(#paint8_linear_6_16406)"/>
</g>
<path d="M290.463 223.301C289.413 232.159 281.594 248.926 274.512 248.077C267.43 247.228 263.788 229.087 264.838 220.252C265.888 211.416 272.49 204.904 279.561 205.73C286.631 206.557 291.524 214.432 290.463 223.301Z" fill="url(#paint9_radial_6_16406)"/>
<g style="mix-blend-mode:lighten">
<path d="M290.463 223.301C289.413 232.159 281.594 248.926 274.512 248.077C267.43 247.228 263.788 229.087 264.838 220.252C265.888 211.416 272.49 204.904 279.561 205.73C286.631 206.557 291.524 214.432 290.463 223.301Z" fill="#4F30AB"/>
</g>
<path d="M108.665 166.333C107.995 166.329 107.345 166.102 106.819 165.687C106.293 165.272 105.921 164.693 105.762 164.042C105.603 163.391 105.666 162.706 105.941 162.094C106.216 161.483 106.687 160.982 107.28 160.67L145.74 140.563C146.439 140.245 147.234 140.206 147.961 140.456C148.687 140.705 149.291 141.224 149.647 141.905C150.003 142.586 150.085 143.377 149.876 144.117C149.666 144.856 149.181 145.487 148.521 145.88L110.05 165.987C109.624 166.215 109.149 166.334 108.665 166.333Z" fill="#4F30AB"/>
<path d="M109.3 177.503C101.481 181.793 83.2959 185.166 79.8666 178.922C76.4373 172.678 89.071 159.162 96.8902 154.872C104.709 150.583 113.824 152.18 117.254 158.424C120.683 164.669 117.12 173.214 109.3 177.503Z" fill="url(#paint10_radial_6_16406)"/>
<g style="mix-blend-mode:lighten">
<path d="M109.3 177.503C101.481 181.793 83.2959 185.166 79.8666 178.922C76.4373 172.678 89.071 159.162 96.8902 154.872C104.709 150.583 113.824 152.18 117.254 158.424C120.683 164.669 117.12 173.214 109.3 177.503Z" fill="#4F30AB"/>
</g>
<g opacity="0.8">
<path opacity="0.5" d="M106.923 26.7043C134.771 18.3154 151.347 49.8715 135.072 80.3217C121.255 106.147 87.5874 124.791 78.7853 97.6691C73.6022 81.6509 77.8916 42.5549 104.198 27.8213C97.1045 31.4964 91.9104 36.6905 86.772 45.1911C96.4902 57.1433 97.2833 58.1263 105.672 67.7663C115.658 44.2752 116.485 42.3427 123.813 26.4809C118.343 24.4986 112.338 24.578 106.923 26.7043Z" fill="#FFC681"/>
<path d="M59.8281 56.5852C61.4515 54.8724 63.1941 53.1931 65.0558 51.5474V132.822C63.1866 134.476 61.4441 136.155 59.8281 137.86V56.5852Z" fill="#FFC681"/>
<path d="M51.4727 95.7367C52.6536 93.8854 53.9287 92.0958 55.2929 90.375V143.032C53.9239 144.772 52.6487 146.584 51.4727 148.46V95.7367Z" fill="#FFC681"/>
<path opacity="0.5" d="M44 156.961L44.0894 157.151L44.1899 151.812L44 151.532V156.961ZM44 172.678V91.4922C44 90.9784 44 90.4534 44 89.9284C44.1511 86.2148 44.7934 82.5376 45.9101 78.9927V160.223C44.7942 163.772 44.1519 167.453 44 171.17C44 171.695 44 172.209 44 172.734V172.678Z" fill="#FFC681"/>
<path d="M44 156.961L44.0894 157.151L44.1899 151.811L44 151.532V156.961Z" fill="#FFC681"/>
<path d="M104.329 27.7547L104.195 27.8217H104.285L104.329 27.7547ZM106.251 26.8723H106.429H106.295H106.251Z" fill="#FFC681"/>
<path d="M105.717 27.129C111.429 24.5448 117.929 24.3121 123.812 26.4811C113.424 49.369 112.34 51.7595 105.717 67.7441C95.4845 55.8478 93.9095 54.0159 86.8164 45.169C88.8271 41.8179 94.926 31.6865 105.717 27.129Z" fill="#FFC681"/>
<path opacity="0.5" d="M170.168 226.954C161.813 229.434 156.451 224.363 154.53 222.855C139.182 209.864 125.744 194.024 110.352 181.089C105.805 177.269 103.024 178.855 101.415 179.268C72.7188 190.651 72.7188 190.651 68.1167 183.737C59.6831 168.813 59.3927 167.607 55.4719 158.268C54.5783 156.146 51.5511 152.918 50.1995 153.085C43.7542 154.906 44.6144 156.224 44.0112 156.995V151.566C51.607 148.64 52.3889 148.293 55.4719 155.353C69.6582 185.446 72.1491 184.775 75.4556 183.993C105.615 171.918 105.291 172.823 112.988 180.799C126.303 194.661 153.201 221.66 161.456 223.816C164.45 224.067 167.465 223.848 170.392 223.168C199.546 213.405 211.119 207.261 239.648 194.974L242.206 199.118C231.638 203.72 199.758 216.276 170.336 225.536L170.168 226.954ZM261.318 259.717V178.475C252.382 178.978 243.188 179.213 233.895 179.134C128.324 178.297 44 139.178 44 91.4365V172.678C44 220.42 128.324 259.538 233.895 260.365C243.188 260.443 252.348 260.219 261.318 259.717Z" fill="#FFC681"/>
<path d="M170.168 226.954C162.651 228.887 155.546 230.696 111.334 183.122C105.749 177.537 105.749 177.537 77.0194 188.953C73.7576 189.746 68.8315 190.941 55.2485 158.547C51.0596 148.986 44.0782 156.872 44 156.961V151.533C45.8767 150.363 47.9453 149.535 50.1102 149.086C50.7581 148.89 51.4565 148.945 52.065 149.243C53.0256 149.745 53.9862 150.862 55.6618 154.437C63.481 171.103 63.481 171.103 69.122 180.218C72.473 185.133 72.4731 185.133 99.3935 174.443C101.237 173.94 105.068 172.912 110.843 177.526C127.073 190.472 140.288 206.669 156.317 219.839C162.327 224.117 165.957 226.697 239.703 194.94L242.261 199.084C231.694 203.687 199.557 217.705 170.168 227.01V226.954Z" fill="#FFC681"/>
</g>
</g>
<defs>
<filter id="filter0_f_6_16406" x="55.7" y="201.7" width="312.6" height="192.6" filterUnits="userSpaceOnUse" color-interpolation-filters="sRGB">
<feFlood flood-opacity="0" result="BackgroundImageFix"/>
<feBlend mode="normal" in="SourceGraphic" in2="BackgroundImageFix" result="shape"/>
<feGaussianBlur stdDeviation="10.65" result="effect1_foregroundBlur_6_16406"/>
</filter>
<radialGradient id="paint0_radial_6_16406" cx="0" cy="0" r="1" gradientUnits="userSpaceOnUse" gradientTransform="translate(230.499 106.5) rotate(3.91825) scale(73.171 73.1709)">
<stop stop-color="#B9B8F9"/>
<stop offset="1" stop-color="#393091"/>
</radialGradient>
<radialGradient id="paint1_radial_6_16406" cx="0" cy="0" r="1" gradientUnits="userSpaceOnUse" gradientTransform="translate(238.368 156.267) scale(82.8676 112.615)">
<stop stop-color="#C0BFF6"/>
<stop offset="1" stop-color="#393091"/>
</radialGradient>
<linearGradient id="paint2_linear_6_16406" x1="165.5" y1="194.5" x2="269.5" y2="160.5" gradientUnits="userSpaceOnUse">
<stop stop-color="#FFC681"/>
<stop offset="0.504" stop-color="#4F30AB"/>
</linearGradient>
<radialGradient id="paint3_radial_6_16406" cx="0" cy="0" r="1" gradientUnits="userSpaceOnUse" gradientTransform="translate(238.541 85.8285) scale(82.917 82.917)">
<stop stop-color="#C0BFF6"/>
<stop offset="1" stop-color="#393091"/>
</radialGradient>
<linearGradient id="paint4_linear_6_16406" x1="174.499" y1="126.5" x2="246.999" y2="63.4998" gradientUnits="userSpaceOnUse">
<stop stop-color="#FFC681"/>
<stop offset="0.589" stop-color="#4F30AB"/>
</linearGradient>
<radialGradient id="paint5_radial_6_16406" cx="0" cy="0" r="1" gradientUnits="userSpaceOnUse" gradientTransform="translate(237.883 84.9461) scale(39.3752 39.3752)">
<stop stop-color="#C0BFF6"/>
<stop offset="1" stop-color="#393091"/>
</radialGradient>
<linearGradient id="paint6_linear_6_16406" x1="229.952" y1="124.299" x2="243.792" y2="86.2754" gradientUnits="userSpaceOnUse">
<stop stop-color="#FFC681"/>
<stop offset="0.544" stop-color="#4F30AB"/>
</linearGradient>
<radialGradient id="paint7_radial_6_16406" cx="0" cy="0" r="1" gradientUnits="userSpaceOnUse" gradientTransform="translate(271.769 149.447) rotate(11.2) scale(38.8614 38.8614)">
<stop stop-color="#C0BFF6"/>
<stop offset="1" stop-color="#393091"/>
</radialGradient>
<linearGradient id="paint8_linear_6_16406" x1="245.661" y1="172.551" x2="275.8" y2="150.655" gradientUnits="userSpaceOnUse">
<stop stop-color="#FFC681"/>
<stop offset="1" stop-color="#393091"/>
</linearGradient>
<radialGradient id="paint9_radial_6_16406" cx="0" cy="0" r="1" gradientUnits="userSpaceOnUse" gradientTransform="translate(295.753 212.065) rotate(6.89244) scale(33.0001 54.3901)">
<stop stop-color="#C0BFF6"/>
<stop offset="1" stop-color="#393091"/>
</radialGradient>
<radialGradient id="paint10_radial_6_16406" cx="0" cy="0" r="1" gradientUnits="userSpaceOnUse" gradientTransform="translate(145.97 155.203) rotate(61.1892) scale(32.8703 54.6208)">
<stop stop-color="#C0BFF6"/>
<stop offset="1" stop-color="#393091"/>
</radialGradient>
<clipPath id="clip0_6_16406">
<rect width="392" height="380" fill="white"/>
</clipPath>
</defs>
</svg>
