<svg width="114" height="112" viewBox="0 0 114 112" fill="none" xmlns="http://www.w3.org/2000/svg">
<g id="Union">
<path id="Union_2" fill-rule="evenodd" clip-rule="evenodd" d="M70.9794 0C66.3975 0 62.6831 3.71438 62.6831 8.2963V31.8752C62.6831 36.4572 66.3975 40.1715 70.9794 40.1715H82.7689V46.7932C82.7689 48.9745 85.6152 49.8073 86.791 47.9701L91.7821 40.1715H104.165C108.747 40.1715 112.461 36.4572 112.461 31.8752V8.2963C112.461 3.71438 108.747 0 104.165 0H70.9794ZM91.0882 37.5517H104.165C107.3 37.5517 109.841 35.0102 109.841 31.8752V8.2963C109.841 5.1613 107.3 2.61988 104.165 2.61988H70.9794C67.8444 2.61988 65.303 5.1613 65.303 8.2963V31.8752C65.303 35.0102 67.8444 37.5517 70.9794 37.5517H84.0717L84.0788 37.5516C84.8023 37.5516 85.3888 38.1381 85.3888 38.8616V45.3009L89.9619 38.1555C90.2161 37.7582 90.6489 37.5444 91.0882 37.5517ZM87.7144 32.2634C87.1621 32.2634 86.7144 31.8157 86.7144 31.2634V29.9022C85.414 29.7824 84.3189 29.483 83.4292 29.0039C82.8446 28.6891 82.3118 28.3226 81.8306 27.9045C81.4148 27.5431 81.4487 26.9072 81.856 26.5362L82.7115 25.7567C83.1113 25.3924 83.7238 25.4187 84.1462 25.7565C84.4397 25.9913 84.7483 26.2012 85.0718 26.386C85.6706 26.7111 86.3294 26.925 87.048 27.0277V22.4079C85.1146 22.0144 83.7286 21.3984 82.8902 20.56C82.0518 19.7216 81.6327 18.6779 81.6327 17.4289C81.6327 16.0771 82.0604 14.9735 82.9159 14.118C83.7885 13.2625 85.0547 12.7407 86.7144 12.5525V11.1399C86.7144 10.5876 87.1621 10.1399 87.7144 10.1399H88.6402C89.1925 10.1399 89.6402 10.5876 89.6402 11.1399V12.5525C90.6668 12.6722 91.5651 12.9289 92.3351 13.3224C92.8087 13.554 93.2436 13.8374 93.6395 14.1726C94.0556 14.5248 94.0125 15.1547 93.6076 15.5196L92.7448 16.2971C92.3343 16.6669 91.7041 16.6265 91.262 16.2951C91.1459 16.208 91.0245 16.124 90.8978 16.0429C90.4701 15.7692 89.9482 15.5638 89.3322 15.427V19.6874C91.1459 20.098 92.4805 20.6883 93.336 21.4583C94.2086 22.2283 94.6449 23.272 94.6449 24.5895C94.6449 25.8556 94.2343 26.9678 93.413 27.9259C92.6088 28.8841 91.3512 29.5086 89.6402 29.7995V31.2634C89.6402 31.8157 89.1925 32.2634 88.6402 32.2634H87.7144ZM85.1745 17.3262C85.1745 17.8224 85.3199 18.2074 85.6108 18.4811C85.9187 18.7549 86.3978 18.9859 87.048 19.1741V15.3756C86.3978 15.5125 85.9187 15.7521 85.6108 16.0943C85.3199 16.4194 85.1745 16.83 85.1745 17.3262ZM91.1031 24.8718C91.1031 24.4954 90.9919 24.136 90.7695 23.7938C90.5471 23.4345 90.068 23.1437 89.3322 22.9212V26.9763C89.9311 26.8052 90.3759 26.54 90.6668 26.1807C90.9577 25.8043 91.1031 25.368 91.1031 24.8718ZM15.2689 33.217C9.30808 33.6583 4.60905 38.6343 4.60905 44.7078C4.60905 48.4776 6.41938 51.8246 9.21811 53.9268V47.9342C9.21811 43.8613 12.5198 40.5597 16.5926 40.5597H18.1723C16.6748 38.4887 15.6564 36.0267 15.2772 33.2779L15.2689 33.217ZM20.7174 43.3251H16.5926C14.0471 43.3251 11.9835 45.3887 11.9835 47.9342V64.5268C11.9835 70.636 16.936 75.5885 23.0453 75.5885H37.7942C43.9035 75.5885 48.856 70.636 48.856 64.5268V46.5532C47.757 47.1404 46.5018 47.4733 45.1687 47.4733H32.2634V44.7078H45.1687C46.516 44.7078 47.7405 44.1823 48.6485 43.3251C49.6276 42.4007 50.2387 41.0907 50.2387 39.6379C50.2387 36.8378 47.9688 34.5679 45.1687 34.5679H44.7078C43.1805 34.5679 41.9424 33.3298 41.9424 31.8025H45.1687C49.4961 31.8025 53.0041 35.3105 53.0041 39.6379C53.0041 41.2889 52.4934 42.8207 51.6214 44.0839V52.5816C54.4685 49.7442 56.2305 45.8186 56.2305 41.4815C56.2305 32.8267 49.2144 25.8107 40.5597 25.8107H24.8889C21.0706 25.8107 17.9753 28.906 17.9753 32.7243C18.5272 37.7177 21.5289 41.4398 25.6753 43.3251C27.6573 44.2263 29.9008 44.7078 32.2634 44.7078V47.4732C27.8342 47.4732 23.7742 45.9531 20.7174 43.3251ZM53.6878 54.4254C56.675 54.7647 58.9959 57.3006 58.9959 60.3786C58.9959 63.6878 56.3133 66.3704 53.0041 66.3704C52.5164 66.3704 52.0422 66.3121 51.5883 66.2021C51.6102 65.8701 51.6214 65.5351 51.6214 65.1975V64.5268C51.6214 71.6614 46.2178 77.5339 39.2798 78.275C47.6097 81.7472 53.465 89.9676 53.465 99.5556V109.235H57.1523V93.1029C57.1523 91.0665 58.8031 89.4156 60.8395 89.4156H67.2922C69.3286 89.4156 70.9794 91.0665 70.9794 93.1029V109.235H75.5885V85.7284C75.5885 83.692 77.2393 82.0412 79.2757 82.0412H85.7284C87.7648 82.0412 89.4156 83.692 89.4156 85.7284V109.235H93.1029V78.3539C93.1029 76.3175 94.7537 74.6667 96.7901 74.6667H103.243C105.279 74.6667 106.93 76.3175 106.93 78.3539V109.235H112C112.764 109.235 113.383 109.854 113.383 110.617C113.383 111.381 112.764 112 112 112H1.38272C0.619063 112 0 111.381 0 110.617C0 109.854 0.619063 109.235 1.38272 109.235H7.37449V99.5556C7.37449 89.9676 13.2298 81.7472 21.5597 78.275C14.6218 77.5339 9.21811 71.6614 9.21811 64.5268V65.1975C9.21811 65.5351 9.22926 65.8701 9.25121 66.2021C8.79727 66.3121 8.32314 66.3704 7.83539 66.3704C4.52623 66.3704 1.84362 63.6878 1.84362 60.3786C1.84362 57.7398 3.5495 55.4993 5.91866 54.7C3.39765 52.1236 1.84362 48.5972 1.84362 44.7078C1.84362 37.0343 7.89266 30.7737 15.4824 30.4342C16.5111 26.194 20.3323 23.0453 24.8889 23.0453H40.5597C50.7417 23.0453 58.9959 31.2994 58.9959 41.4815C58.9959 46.5256 56.9701 51.0967 53.6878 54.4254ZM51.6214 63.2945V57.4627C52.0405 57.2637 52.5093 57.1523 53.0041 57.1523C54.786 57.1523 56.2305 58.5967 56.2305 60.3786C56.2305 62.1605 54.786 63.6049 53.0041 63.6049C52.5093 63.6049 52.0405 63.4935 51.6214 63.2945ZM7.83539 57.1523C8.33022 57.1523 8.79903 57.2637 9.21811 57.4627V63.2945C8.79903 63.4935 8.33022 63.6049 7.83539 63.6049C6.05353 63.6049 4.60905 62.1605 4.60905 60.3786C4.60905 58.5967 6.05353 57.1523 7.83539 57.1523ZM87.1112 55.7696C87.1112 55.0059 87.7302 54.3868 88.4939 54.3868H104.747C106.521 54.3868 107.79 56.4447 106.517 58.0166C104.354 60.6883 99.1651 66.0871 87.8711 73.5173C73.7133 82.8317 61.9996 85.856 57.7193 86.1852C56.9579 86.2438 56.2932 85.674 56.2346 84.9126C56.176 84.1512 56.7458 83.4865 57.5072 83.4279C61.2159 83.1427 72.486 80.3288 86.3512 71.207C96.2618 64.6869 101.278 59.8322 103.629 57.1523H88.4939C87.7302 57.1523 87.1112 56.5332 87.1112 55.7696ZM96.7901 77.4321H103.243C103.752 77.4321 104.165 77.8448 104.165 78.3539V108.774H95.8683V78.3539C95.8683 77.8448 96.281 77.4321 96.7901 77.4321ZM85.7284 84.8066H79.2757C78.7666 84.8066 78.3539 85.2193 78.3539 85.7284V108.774H86.6502V85.7284C86.6502 85.2193 86.2375 84.8066 85.7284 84.8066ZM67.2922 92.1811H60.8395C60.3304 92.1811 59.9177 92.5938 59.9177 93.1029V108.774H68.214V93.1029C68.214 92.5938 67.8013 92.1811 67.2922 92.1811ZM50.6996 99.5556V108.774H10.1399V99.5556C10.1399 92.9847 13.265 87.1437 18.1099 83.4378L19.0408 90.8847C19.2712 92.7282 21.5211 93.5001 22.8348 92.1865L27.6866 87.3347L24.3504 97.343C24.2397 97.6752 24.3334 98.0415 24.59 98.2798L29.8121 103.129C30.1548 103.447 30.6848 103.447 31.0274 103.129L36.2357 98.2927C36.4994 98.0479 36.5903 97.6687 36.4665 97.3309L32.5975 86.7793L38.0047 92.1865C39.3184 93.5001 41.5683 92.7282 41.7987 90.8847L42.7296 83.4378C47.5745 87.1437 50.6996 92.9847 50.6996 99.5556ZM30.3774 84.4932L26.367 79.6807C27.6766 79.4151 29.0319 79.2757 30.4198 79.2757C31.8076 79.2757 33.163 79.4151 34.4725 79.6807L30.4621 84.4932H30.3774ZM23.0453 52.9119C21.5929 52.9119 20.3584 53.845 19.9086 55.1443C19.7087 55.7216 19.2315 56.2305 18.6206 56.2305C18.0097 56.2305 17.5029 55.7302 17.6236 55.1313C18.1333 52.6033 20.367 50.6996 23.0453 50.6996C25.7235 50.6996 27.9572 52.6033 28.4669 55.1313C28.5877 55.7302 28.0809 56.2305 27.47 56.2305C26.859 56.2305 26.3818 55.7216 26.182 55.1443C25.7321 53.845 24.4976 52.9119 23.0453 52.9119ZM37.7942 52.9119C36.3419 52.9119 35.1074 53.845 34.6575 55.1443C34.4577 55.7216 33.9805 56.2305 33.3695 56.2305C32.7586 56.2305 32.2518 55.7302 32.3726 55.1313C32.8823 52.6033 35.116 50.6996 37.7942 50.6996C40.4725 50.6996 42.7062 52.6033 43.2159 55.1313C43.3366 55.7302 42.8299 56.2305 42.2189 56.2305C41.608 56.2305 41.1308 55.7216 40.9309 55.1443C40.4811 53.845 39.2466 52.9119 37.7942 52.9119ZM22.2315 58.0741C21.3424 58.0741 20.6546 58.8533 20.7648 59.7355C21.3716 64.5895 25.5489 68.214 30.4198 68.214C35.2906 68.214 39.4679 64.5895 40.0747 59.7355C40.185 58.8533 39.4971 58.0741 38.608 58.0741H22.2315ZM30.4198 65.4486C27.4315 65.4486 24.8191 63.5454 23.853 60.8395H36.9865C36.0205 63.5454 33.408 65.4486 30.4198 65.4486ZM20.6993 82.5532L21.586 89.6465L26.8215 84.4109L23.844 80.8379L20.6993 82.5532ZM30.2425 88.1387L27.2557 97.0992L30.4198 100.037L33.5422 97.1378L30.2425 88.1387ZM39.2536 89.6465L40.1402 82.5532L36.9955 80.8379L34.018 84.4109L39.2536 89.6465ZM11.6365 7H8.3638V11.3637H4V14.6364H8.3638V19H11.6365V14.6364H16V11.3637H11.6365V7ZM74.5 61C74.5 62.3807 73.3807 63.5 72 63.5C70.6193 63.5 69.5 62.3807 69.5 61C69.5 59.6193 70.6193 58.5 72 58.5C73.3807 58.5 74.5 59.6193 74.5 61ZM77 61C77 63.7614 74.7614 66 72 66C69.2386 66 67 63.7614 67 61C67 58.2386 69.2386 56 72 56C74.7614 56 77 58.2386 77 61Z" fill="#6733E1"/>
</g>
</svg>
