<svg width="120" height="120" viewBox="0 0 120 120" fill="none" xmlns="http://www.w3.org/2000/svg">
<g id="Big Icon" clip-path="url(#clip0_21_19553)">
<rect width="120" height="120" fill="white"/>
<path id="Union" fill-rule="evenodd" clip-rule="evenodd" d="M21 9.5C22.3807 9.5 23.5 8.38071 23.5 7C23.5 5.61929 22.3807 4.5 21 4.5C19.6193 4.5 18.5 5.61929 18.5 7C18.5 8.38071 19.6193 9.5 21 9.5ZM21 12C23.7614 12 26 9.76142 26 7C26 4.23858 23.7614 2 21 2C18.2386 2 16 4.23858 16 7C16 9.76142 18.2386 12 21 12ZM-10.5 104C-10.5 105.381 -11.6193 106.5 -13 106.5C-14.3807 106.5 -15.5 105.381 -15.5 104C-15.5 102.619 -14.3807 101.5 -13 101.5C-11.6193 101.5 -10.5 102.619 -10.5 104ZM-8 104C-8 106.761 -10.2386 109 -13 109C-15.7614 109 -18 106.761 -18 104C-18 101.239 -15.7614 99 -13 99C-10.2386 99 -8 101.239 -8 104ZM112.364 108H115.637V112.364H120V115.636H115.637V120H112.364V115.636H108V112.364H112.364V108ZM51 13H97V23C97 26.3137 99.6863 29 103 29H112V93C112 96.866 108.866 100 105 100H51C47.134 100 44 96.866 44 93V20C44 16.134 47.134 13 51 13ZM115 29L97 10H51C46.5224 10 42.7321 12.9429 41.4578 17H14C8.47715 17 4 21.4772 4 27V100C4 105.523 8.47715 110 14 110H68C72.4776 110 76.2679 107.057 77.5422 103H105C110.523 103 115 98.5228 115 93V29ZM14 20L41 20V38.5H35.5C34.6716 38.5 34 39.1716 34 40C34 40.8284 34.6716 41.5 35.5 41.5H41V47.5H35.5C34.6716 47.5 34 48.1716 34 49C34 49.8284 34.6716 50.5 35.5 50.5H41V61H35.5C34.6716 61 34 61.6716 34 62.5C34 63.3284 34.6716 64 35.5 64H41V70H35.5C34.6716 70 34 70.6716 34 71.5C34 72.3284 34.6716 73 35.5 73H41V83H35.5C34.6716 83 34 83.6716 34 84.5C34 85.3284 34.6716 86 35.5 86H41V92H35.5C34.6716 92 34 92.6716 34 93.5C34 94.3284 34.6716 95 35.5 95H41.2C41.2 95 41.2 94.9999 41.2 94.9999C42.1265 99.5644 46.162 103 51 103H74.3264C73.2029 105.365 70.7924 107 68 107H14C10.134 107 7 103.866 7 100V27C7 23.134 10.134 20 14 20ZM100 17.5288V23C100 24.6569 101.343 26 103 26H108.025L100 17.5288ZM68.1211 30.4966C68.6715 29.8774 68.6157 28.9293 67.9965 28.3789C67.3774 27.8285 66.4293 27.8843 65.8789 28.5035L63.9131 30.7149C62.3316 29.3355 60.2634 28.5 58 28.5C53.0294 28.5 49 32.5294 49 37.5C49 42.4706 53.0294 46.5 58 46.5C62.9706 46.5 67 42.4706 67 37.5C67 35.8888 66.5766 34.3765 65.8351 33.0683L68.1211 30.4966ZM61.9199 32.9573L58.7206 36.5565L55.795 34.728C55.0925 34.289 54.1671 34.5025 53.728 35.205C53.2889 35.9075 53.5025 36.8329 54.205 37.272L59.2794 40.4435L63.6628 35.5121C63.8812 36.1342 64 36.8032 64 37.5C64 40.8137 61.3137 43.5 58 43.5C54.6863 43.5 52 40.8137 52 37.5C52 34.1863 54.6863 31.5 58 31.5C59.4984 31.5 60.8684 32.0492 61.9199 32.9573ZM71 33C71 32.1716 71.6716 31.5 72.5 31.5H104.5C105.328 31.5 106 32.1716 106 33C106 33.8284 105.328 34.5 104.5 34.5H72.5C71.6716 34.5 71 33.8284 71 33ZM71 42C71 41.1716 71.6716 40.5 72.5 40.5H93.5C94.3284 40.5 95 41.1716 95 42C95 42.8284 94.3284 43.5 93.5 43.5H72.5C71.6716 43.5 71 42.8284 71 42ZM100.5 40.5C99.6716 40.5 99 41.1716 99 42C99 42.8284 99.6716 43.5 100.5 43.5H104.5C105.328 43.5 106 42.8284 106 42C106 41.1716 105.328 40.5 104.5 40.5H100.5ZM71 55.5C71 54.6716 71.6716 54 72.5 54H78.384L85.9698 46.4142C86.7508 45.6332 88.0171 45.6332 88.7982 46.4142L94.455 52.0711C94.9777 52.5937 95.1506 53.3336 94.9738 54H104.5C105.328 54 106 54.6716 106 55.5C106 56.3284 105.328 57 104.5 57H92.3545L86.3545 63H93.5C94.3284 63 95 63.6716 95 64.5C95 65.3284 94.3284 66 93.5 66H83.3545L73.3545 76H104.5C105.328 76 106 76.6716 106 77.5C106 78.3284 105.328 79 104.5 79H72.5C71.9195 79 71.416 78.6703 71.1667 78.1879L67.585 81.7696L67 82.0039C66.9979 86.9727 62.9693 91 58 91C53.0294 91 49 86.9706 49 82C49 77.0294 53.0294 73 58 73C58.4387 73 58.87 73.0314 59.2919 73.092L75.384 57H72.5C71.6716 57 71 56.3284 71 55.5ZM56.445 79.9105L58.0117 76L58 76C54.6863 76 52 78.6863 52 82C52 85.3137 54.6863 88 58 88C60.8819 88 63.2893 85.9681 63.8677 83.2588L60.9588 84.4242C58.1376 85.4944 55.3749 82.7317 56.445 79.9105ZM99 64.5C99 63.6716 99.6716 63 100.5 63H104.5C105.328 63 106 63.6716 106 64.5C106 65.3284 105.328 66 104.5 66H100.5C99.6716 66 99 65.3284 99 64.5ZM71 86.5C71 85.6716 71.6716 85 72.5 85H93.5C94.3284 85 95 85.6716 95 86.5C95 87.3284 94.3284 88 93.5 88H72.5C71.6716 88 71 87.3284 71 86.5ZM100.5 85C99.6716 85 99 85.6716 99 86.5C99 87.3284 99.6716 88 100.5 88H104.5C105.328 88 106 87.3284 106 86.5C106 85.6716 105.328 85 104.5 85H100.5ZM64 60C64 63.3137 61.3137 66 58 66C54.6863 66 52 63.3137 52 60C52 56.6863 54.6863 54 58 54C59.4984 54 60.8684 54.5492 61.9199 55.4573L58.7206 59.0565L55.795 57.228C55.0925 56.789 54.1671 57.0025 53.728 57.705C53.2889 58.4075 53.5025 59.333 54.205 59.772L59.2794 62.9435L63.6628 58.0121C63.8812 58.6342 64 59.3032 64 60ZM67 60C67 58.3888 66.5766 56.8766 65.8351 55.5683L68.1211 52.9966C68.6715 52.3774 68.6157 51.4293 67.9965 50.8789C67.3774 50.3285 66.4293 50.3843 65.8789 51.0035L63.9131 53.2149C62.3316 51.8355 60.2634 51 58 51C53.0294 51 49 55.0294 49 60C49 64.9706 53.0294 69 58 69C62.9706 69 67 64.9706 67 60ZM61.221 75.4056L59.25 80.9744C59.0972 81.3775 59.4918 81.7721 59.8949 81.6193L65.4637 79.6482L61.221 75.4056ZM63.3423 73.2843L87.384 49.2426L91.6266 53.4853L67.585 77.5269L63.3423 73.2843ZM31.1211 59.9966C31.6715 59.3774 31.6157 58.4293 30.9965 57.8789C30.3774 57.3285 29.4293 57.3843 28.8789 58.0035L26.9131 60.2149C25.3316 58.8355 23.2634 58 21 58C16.0294 58 12 62.0294 12 67C12 71.9706 16.0294 76 21 76C25.9706 76 30 71.9706 30 67C30 65.3888 29.5766 63.8766 28.8351 62.5683L31.1211 59.9966ZM24.9199 62.4573L21.7206 66.0565L18.795 64.228C18.0925 63.789 17.1671 64.0025 16.728 64.705C16.2889 65.4075 16.5025 66.3329 17.205 66.772L22.2794 69.9435L26.6628 65.0121C26.8812 65.6342 27 66.3032 27 67C27 70.3137 24.3137 73 21 73C17.6863 73 15 70.3137 15 67C15 63.6863 17.6863 61 21 61C22.4984 61 23.8684 61.5492 24.9199 62.4573ZM31.0607 34.4393C30.4749 33.8536 29.5251 33.8536 28.9393 34.4393L26.2148 37.1639C24.7436 36.1162 22.9437 35.5 21 35.5C19.0563 35.5 17.2564 36.1162 15.7852 37.1639L13.0607 34.4393C12.4749 33.8536 11.5251 33.8536 10.9393 34.4393C10.3536 35.0251 10.3536 35.9749 10.9393 36.5607L13.6639 39.2852C12.6162 40.7564 12 42.5563 12 44.5C12 46.4437 12.6162 48.2436 13.6639 49.7148L10.9393 52.4393C10.3536 53.0251 10.3536 53.9749 10.9393 54.5607C11.5251 55.1464 12.4749 55.1464 13.0607 54.5607L15.7852 51.8361C17.2564 52.8838 19.0563 53.5 21 53.5C22.9437 53.5 24.7436 52.8838 26.2148 51.8361L28.9393 54.5607C29.5251 55.1464 30.4749 55.1464 31.0607 54.5607C31.6464 53.9749 31.6464 53.0251 31.0607 52.4393L28.3361 49.7148C29.3838 48.2436 30 46.4437 30 44.5C30 42.5563 29.3838 40.7564 28.3361 39.2852L31.0607 36.5607C31.6464 35.9749 31.6464 35.0251 31.0607 34.4393ZM21 38.5C22.1127 38.5 23.1547 38.8029 24.048 39.3307L21 42.3787L17.952 39.3307C18.8453 38.8029 19.8873 38.5 21 38.5ZM15 44.5C15 43.3873 15.3029 42.3453 15.8307 41.452L18.8787 44.5L15.8307 47.548C15.3029 46.6547 15 45.6127 15 44.5ZM21 50.5C19.8873 50.5 18.8453 50.1971 17.952 49.6693L21 46.6213L24.048 49.6693C23.1547 50.1971 22.1127 50.5 21 50.5ZM27 44.5C27 45.6127 26.6971 46.6547 26.1693 47.548L23.1213 44.5L26.1693 41.452C26.6971 42.3453 27 43.3873 27 44.5ZM31.1211 81.4966C31.6715 80.8774 31.6157 79.9293 30.9965 79.3789C30.3774 78.8285 29.4293 78.8843 28.8789 79.5035L26.6587 82.0011C25.1128 80.7496 23.1439 80 21 80C16.0294 80 12 84.0294 12 89C12 93.9706 16.0294 98 21 98C25.9706 98 30 93.9706 30 89C30 87.2642 29.5086 85.6431 28.6573 84.2684L31.1211 81.4966ZM24.6624 84.247L21.7206 87.5565L18.795 85.728C18.0925 85.289 17.1671 85.5025 16.728 86.205C16.2889 86.9075 16.5025 87.8329 17.205 88.272L22.2794 91.4435L26.5281 86.6637C26.832 87.3817 27 88.1712 27 89C27 92.3137 24.3137 95 21 95C17.6863 95 15 92.3137 15 89C15 85.6863 17.6863 83 21 83C22.3789 83 23.6491 83.4651 24.6624 84.247Z" fill="#6733E1"/>
</g>
<defs>
<clipPath id="clip0_21_19553">
<rect width="120" height="120" fill="white"/>
</clipPath>
</defs>
</svg>
