<svg width="24" height="24" viewBox="0 0 24 24" fill="none" xmlns="http://www.w3.org/2000/svg">
<g id="Icon/ food">
<path id="Vector" d="M11.1111 9.72222H11.6111V9.22222V3.5H12.3889V9.22222C12.3889 10.8373 11.1241 12.1526 9.52452 12.2521L9.05556 12.2812V12.7511V20.2778H7.83333V12.7511V12.2812L7.36437 12.2521C5.76483 12.1526 4.5 10.8373 4.5 9.22222V3.5H5.27778V9.22222V9.72222H5.77778H7.55556H8.05556V9.22222V3.5H8.83333V9.22222V9.72222H9.33333H11.1111ZM18.2778 13.6667V13.1667H17.7778H16.0556V6.55556C16.0556 5.96966 16.4445 5.20737 17.1842 4.56985C17.7978 4.04105 18.6057 3.64199 19.5 3.53101V20.2778H18.2778V13.6667Z" fill="#FB542B" stroke="#FB542B"/>
</g>
</svg>
