<svg width="24" height="24" viewBox="0 0 24 24" fill="none" xmlns="http://www.w3.org/2000/svg">
<g id="Icon/gas">
<path id="Vector (Stroke)" fill-rule="evenodd" clip-rule="evenodd" d="M16.06 3.5L15 4.56L17.11 6.67C16.9443 6.73346 16.787 6.8137 16.6403 6.90869C16.3934 7.0685 16.1765 7.27005 16 7.50372C15.87 7.67579 15.7619 7.86527 15.6799 8.06831C15.5639 8.3554 15.5 8.66959 15.5 9C15.5 9.38225 15.5859 9.74454 15.7395 10.0686C15.8119 10.2214 15.8994 10.3658 16 10.4997C16.2578 10.8429 16.6019 11.1177 17 11.2917C17.3063 11.4257 17.6445 11.5 18 11.5C18.0395 11.5 18.0786 11.499 18.1174 11.4972C18.2488 11.4908 18.3761 11.4738 18.5 11.4478C18.673 11.4114 18.8392 11.3574 19 11.29V18.5C19 19.05 18.55 19.5 18 19.5C17.45 19.5 17 19.05 17 18.5V14C17 13.8275 16.9779 13.66 16.9363 13.5C16.9243 13.4538 16.9107 13.4082 16.8955 13.3634C16.6806 12.7283 16.154 12.2336 15.5 12.0637C15.34 12.0221 15.1725 12 15 12H14V5C14 4.38204 13.716 3.8272 13.272 3.45958C12.9257 3.17283 12.482 3 12 3H6C4.9 3 4 3.9 4 5V20C4 20.5523 4.44772 21 5 21H13C13.4114 21 13.7647 20.7516 13.9183 20.3966C13.9709 20.275 14 20.1409 14 20V13.5H15.5V18.5C15.5 19.0625 15.6861 19.5818 16 19.9997C16.4562 20.607 17.1825 21 18 21C19.38 21 20.5 19.88 20.5 18.5V9C20.5 8.83331 20.4837 8.67013 20.4525 8.51213C20.3919 8.20464 20.2753 7.91682 20.1141 7.66114C20.0153 7.50438 19.8997 7.35971 19.77 7.23L19.78 7.22L16.06 3.5ZM17.7448 8.03321C17.7106 8.04229 17.6772 8.05314 17.6445 8.06566C17.2687 8.20977 17 8.57504 17 9C17 9.55 17.45 10 18 10C18.1498 10 18.2921 9.96663 18.42 9.90695C18.4474 9.89419 18.474 9.88023 18.5 9.86513C18.7642 9.71144 18.9526 9.44026 18.9922 9.12452C18.9974 9.0837 19 9.04215 19 9C19 8.725 18.8875 8.475 18.7063 8.29375C18.6832 8.27071 18.6591 8.24878 18.6339 8.22804C18.461 8.08571 18.24 8 18 8C17.9176 8 17.8374 8.0101 17.7607 8.02913C17.7554 8.03045 17.7501 8.03181 17.7448 8.03321ZM12 12H6V19H12V12ZM12 10V5H6V10H12Z" fill="#FB542B"/>
</g>
</svg>
