<svg width="44" height="44" viewBox="0 0 44 44" fill="none" xmlns="http://www.w3.org/2000/svg">
<path fill-rule="evenodd" clip-rule="evenodd" d="M7.33333 16.6667C6.59695 16.6667 6 16.0697 6 15.3333C6 14.597 6.59695 14 7.33333 14H36.6667C37.403 14 38 14.597 38 15.3333C38 16.0697 37.403 16.6667 36.6667 16.6667H7.33333ZM6 21.5556C6 22.2919 6.59695 22.8889 7.33333 22.8889H36.6667C37.403 22.8889 38 22.2919 38 21.5556C38 20.8192 37.403 20.2222 36.6667 20.2222H7.33333C6.59695 20.2222 6 20.8192 6 21.5556ZM6 28.6667C6 29.403 6.59695 30 7.33333 30H36.6667C37.403 30 38 29.403 38 28.6667C38 27.9303 37.403 27.3333 36.6667 27.3333H7.33333C6.59695 27.3333 6 27.9303 6 28.6667Z" fill="#2A3139"/>
</svg>
