<svg width="80" height="80" viewBox="0 0 80 80" fill="none" xmlns="http://www.w3.org/2000/svg">
<g id="Can afford ">
<circle id="Ellipse 84" cx="40" cy="40" r="40" fill="#FFB02E"/>
<path id="Vector (Stroke)" fill-rule="evenodd" clip-rule="evenodd" d="M24.8822 51.5089C25.3986 51.0568 26.1837 51.1089 26.6357 51.6253C28.2937 53.5193 30.3374 55.037 32.6297 56.0769C34.922 57.1167 37.4101 57.6547 39.9273 57.6547C42.4444 57.6547 44.9325 57.1167 47.2248 56.0769C49.5172 55.037 51.5608 53.5193 53.2188 51.6253C53.6709 51.1089 54.456 51.0568 54.9724 51.5089C55.4888 51.9609 55.5409 52.746 55.0889 53.2624C53.1976 55.4228 50.8664 57.1541 48.2516 58.3403C45.6367 59.5264 42.7986 60.1401 39.9273 60.1401C37.056 60.1401 34.2178 59.5264 31.603 58.3403C28.9881 57.1541 26.657 55.4228 24.7657 53.2624C24.3136 52.746 24.3658 51.9609 24.8822 51.5089Z" fill="#2A3139"/>
<path id="Vector (Stroke)_2" fill-rule="evenodd" clip-rule="evenodd" d="M26.0064 33.5788C25.5973 33.3708 25.1421 33.27 24.6835 33.286C24.2249 33.3019 23.7778 33.4341 23.3841 33.67C22.9905 33.906 22.6632 34.2381 22.433 34.635C22.0279 35.3335 21.1333 35.5714 20.4348 35.1663C19.7364 34.7612 19.4985 33.8666 19.9036 33.1681C20.3822 32.3429 21.0625 31.6526 21.8808 31.1622C22.699 30.6717 23.6284 30.3969 24.5818 30.3638C25.5353 30.3306 26.4815 30.5401 27.3319 30.9725C28.1822 31.405 28.9089 32.0462 29.4437 32.8363C29.8963 33.5049 29.7212 34.4139 29.0526 34.8665C28.3839 35.3191 27.475 35.144 27.0223 34.4754C26.765 34.0953 26.4155 33.7869 26.0064 33.5788Z" fill="#2A3139"/>
<path id="Vector (Stroke)_3" fill-rule="evenodd" clip-rule="evenodd" d="M52.5224 30.9725C53.3728 30.5401 54.319 30.3306 55.2725 30.3638C56.2259 30.3969 57.1553 30.6717 57.9735 31.1622C58.7918 31.6526 59.4721 32.3429 59.9507 33.1681C60.3558 33.8666 60.1179 34.7612 59.4195 35.1663C58.721 35.5714 57.8264 35.3335 57.4213 34.635C57.1911 34.2381 56.8638 33.906 56.4702 33.67C56.0765 33.4341 55.6294 33.3019 55.1708 33.286C54.7122 33.27 54.257 33.3708 53.8479 33.5788C53.4388 33.7869 53.0892 34.0953 52.832 34.4754C52.3793 35.144 51.4704 35.3191 50.8017 34.8665C50.1331 34.4139 49.958 33.5049 50.4106 32.8363C50.9454 32.0462 51.6721 31.405 52.5224 30.9725Z" fill="#2A3139"/>
<path id="Vector" d="M21.1675 54.7071C19.803 54.7071 18.4692 54.3024 17.3347 53.5444C16.2001 52.7863 15.3159 51.7088 14.7937 50.4482C14.2715 49.1876 14.1349 47.8005 14.4011 46.4622C14.6673 45.1239 15.3244 43.8947 16.2892 42.9298C17.254 41.965 18.4833 41.3079 19.8216 41.0417C21.1598 40.7755 22.547 40.9122 23.8076 41.4343C25.0682 41.9565 26.1457 42.8408 26.9038 43.9753C27.6618 45.1098 28.0664 46.4436 28.0664 47.8081C28.0694 49.6269 27.3498 51.3725 26.0659 52.6608C25.4263 53.3103 24.6638 53.8257 23.8227 54.177C22.9816 54.5284 22.079 54.7086 21.1675 54.7071Z" fill="#FB542B"/>
<path id="Vector_2" d="M58.686 54.7071C56.8573 54.704 55.1043 53.9762 53.8111 52.6831C52.518 51.3899 51.7901 49.6369 51.7871 47.8081C51.7871 46.4436 52.1917 45.1098 52.9498 43.9753C53.7078 42.8408 54.7853 41.9565 56.0459 41.4343C57.3066 40.9122 58.6937 40.7755 60.032 41.0417C61.3702 41.3079 62.5995 41.965 63.5643 42.9298C64.5292 43.8947 65.1862 45.1239 65.4524 46.4622C65.7186 47.8005 65.582 49.1876 65.0598 50.4482C64.5377 51.7088 63.6534 52.7863 62.5189 53.5444C61.3844 54.3024 60.0505 54.7071 58.686 54.7071Z" fill="#FB542B"/>
</g>
</svg>
