<svg width="44" height="45" viewBox="0 0 44 45" fill="none" xmlns="http://www.w3.org/2000/svg">
<path d="M24.2722 31.1213H18.9234C17.8372 31.1213 16.9434 32.0013 16.9572 33.0876V38.4363C16.9572 39.5226 17.8372 40.4026 18.9234 40.4026H19.2646C19.7218 41.215 20.5923 41.7638 21.5909 41.7638C22.5896 41.7638 23.4601 41.215 23.9173 40.4026H24.2722C25.3584 40.4026 26.2384 39.5226 26.2384 38.4363V33.0876C26.2384 32.0013 25.3584 31.1213 24.2722 31.1213Z" fill="#A0A1B2"/>
<path d="M24.9715 32.3037C25.3015 32.3037 25.5628 32.0562 25.5903 31.74C25.6865 30.5575 26.1953 27.6838 28.9728 24.6038C31.5715 22.555 33.2903 19.4475 33.4965 15.9275C33.524 15.5975 33.5378 15.3775 33.5378 15.24V15.2262V15.2125C33.5378 15.1438 33.5378 15.1025 33.5378 15.1025C33.4553 8.53 28.134 3.25 21.5753 3.25C15.0165 3.25 9.69528 8.53 9.62653 15.075C9.62653 15.075 9.61278 15.405 9.66778 15.955C9.88778 19.4475 11.5928 22.5413 14.1915 24.59C16.969 27.6838 17.519 30.5575 17.6153 31.74C17.6428 32.0562 17.904 32.3037 18.234 32.3037H24.9715Z" fill="#FFBC22"/>
<path d="M21.5895 15.2125C23.817 15.2125 25.632 17.0138 25.6595 19.2413V19.3513C25.6595 19.3925 25.6595 19.4475 25.6458 19.53C25.577 20.685 25.0133 21.7713 24.1058 22.4863L24.0095 22.555L23.927 22.6375C22.4145 24.315 22.0983 28.5775 22.0433 30.915H21.1495C21.0808 28.5775 20.7508 24.315 19.2383 22.6375L19.1558 22.555L19.0595 22.4863C18.152 21.7713 17.5883 20.6988 17.5195 19.5025C17.5195 19.4475 17.5058 19.4063 17.5058 19.3788V19.255C17.547 17.0275 19.3758 15.2125 21.5895 15.2125ZM21.5895 13.8375C18.6058 13.8375 16.172 16.2438 16.1445 19.2275C16.1445 19.2275 16.1445 19.3788 16.1583 19.6263C16.2545 21.2213 17.0383 22.6238 18.2208 23.5588C19.8708 25.4013 19.7883 32.3038 19.7883 32.3038H23.4183C23.4183 32.3038 23.3083 25.4013 24.972 23.5725C26.1545 22.6375 26.9383 21.2213 27.0345 19.6125C27.0483 19.4613 27.0483 19.365 27.0483 19.2963C27.0483 19.2688 27.0483 19.2413 27.0483 19.2413C27.007 16.2438 24.587 13.8375 21.5895 13.8375Z" fill="#FB542B"/>
<path d="M26.3549 34.9472C26.7289 34.8817 26.979 34.5255 26.9136 34.1515C26.8481 33.7774 26.4918 33.5273 26.1178 33.5928L16.8503 35.2153C16.4763 35.2808 16.2262 35.6371 16.2917 36.0111C16.3571 36.3851 16.7134 36.6352 17.0874 36.5697L26.3549 34.9472ZM26.2867 37.9034C26.6607 37.8376 26.9105 37.4811 26.8447 37.1072C26.7789 36.7332 26.4224 36.4834 26.0485 36.5492L16.9047 38.1579C16.5308 38.2237 16.2809 38.5802 16.3467 38.9542C16.4125 39.3281 16.769 39.5779 17.143 39.5121L26.2867 37.9034Z" fill="#F0F0F0"/>
<path d="M18.9638 7.98005C17.4375 10.62 18.2075 13.92 20.6825 15.3363C23.1575 16.7525 26.3888 15.7763 27.915 13.1363C29.4413 10.4963 28.6713 7.1963 26.1963 5.78005C23.7213 4.3638 20.49 5.34005 18.9638 7.98005Z" fill="#FFF478"/>
</svg>
