<svg width="600" height="400" viewBox="0 0 600 400" fill="none" xmlns="http://www.w3.org/2000/svg">
<g clip-path="url(#clip0_470_14058)">
<path d="M279.624 1.11579C399.957 -9.5589 400.2 58.303 454.427 121.575C508.655 184.847 520.271 213.523 499.824 286.46C479.377 359.397 410.486 416.565 325.254 384.172C240.021 351.779 191.199 382.881 137.438 354.089C83.676 325.296 63.6852 269.74 103.075 204.245C142.464 138.751 131.207 14.333 279.624 1.11579Z" fill="#6733E1" fill-opacity="0.1"/>
<path d="M306.949 5.57771L287.15 9.74647C284.481 10.3085 282.772 12.9282 283.334 15.5977L287.503 35.3969C288.065 38.0664 290.685 39.7748 293.354 39.2127L313.153 35.044C315.823 34.4819 317.531 31.8623 316.969 29.1928L312.801 9.39351C312.238 6.72404 309.619 5.01566 306.949 5.57771Z" stroke="#344054" stroke-opacity="0.75" stroke-linecap="round" stroke-linejoin="round"/>
<path d="M298.897 16.3806L301.42 28.3945" stroke="#344054" stroke-opacity="0.75" stroke-linecap="round" stroke-linejoin="round"/>
<path d="M306.166 21.1162L294.152 23.649" stroke="#344054" stroke-opacity="0.75" stroke-linecap="round" stroke-linejoin="round"/>
<path d="M506.536 217.269L486.737 221.438C484.067 222 482.359 224.62 482.921 227.289L487.09 247.089C487.652 249.758 490.271 251.467 492.941 250.905L512.74 246.736C515.41 246.174 517.118 243.554 516.556 240.885L512.387 221.085C511.825 218.416 509.206 216.707 506.536 217.269Z" stroke="#344054" stroke-opacity="0.75" stroke-linecap="round" stroke-linejoin="round"/>
<path d="M503.104 228.923L496.398 239.21" stroke="#344054" stroke-opacity="0.75" stroke-linecap="round" stroke-linejoin="round"/>
<path d="M504.89 237.415L494.603 230.709" stroke="#344054" stroke-opacity="0.75" stroke-linecap="round" stroke-linejoin="round"/>
<path d="M239.218 346.154L218.985 344.94C216.257 344.776 213.912 346.855 213.749 349.583L212.535 369.816C212.371 372.544 214.45 374.888 217.178 375.052L237.411 376.266C240.139 376.43 242.483 374.351 242.647 371.623L243.861 351.389C244.025 348.661 241.946 346.317 239.218 346.154Z" stroke="#344054" stroke-opacity="0.75" stroke-width="1.0018" stroke-linecap="round" stroke-linejoin="round"/>
<path d="M235.014 359.873L222.748 359.164" stroke="#344054" stroke-opacity="0.75" stroke-linecap="round" stroke-linejoin="round"/>
<path d="M118.492 205.315L99.2848 198.952C96.6952 198.094 93.9005 199.497 93.0425 202.087L86.6793 221.294C85.8214 223.883 87.2252 226.678 89.8148 227.536L109.022 233.899C111.611 234.757 114.406 233.353 115.264 230.764L121.627 211.557C122.485 208.967 121.081 206.173 118.492 205.315Z" stroke="#344054" stroke-opacity="0.75" stroke-linecap="round" stroke-linejoin="round"/>
<path d="M111.838 212.572L96.4759 220.287" stroke="#344054" stroke-opacity="0.75" stroke-linecap="round" stroke-linejoin="round"/>
<path d="M103.026 209.447C103.211 209.827 103.279 210.252 103.222 210.67C103.166 211.088 102.987 211.481 102.709 211.798C102.43 212.115 102.064 212.343 101.657 212.453C101.25 212.564 100.819 212.551 100.419 212.418C100.018 212.284 99.6662 212.036 99.4065 211.703C99.1467 211.37 98.9909 210.969 98.9585 210.548C98.9261 210.127 99.0185 209.706 99.2242 209.338C99.43 208.969 99.7398 208.67 100.115 208.476C100.369 208.344 100.647 208.264 100.932 208.242C101.218 208.219 101.505 208.254 101.776 208.345C102.048 208.435 102.299 208.579 102.513 208.769C102.728 208.958 102.902 209.189 103.026 209.447Z" stroke="#344054" stroke-opacity="0.75" stroke-linecap="round" stroke-linejoin="round"/>
<path d="M109.121 221.538C109.305 221.918 109.373 222.344 109.316 222.762C109.26 223.18 109.081 223.572 108.803 223.889C108.525 224.207 108.159 224.435 107.751 224.545C107.344 224.655 106.913 224.643 106.513 224.509C106.113 224.376 105.76 224.127 105.501 223.795C105.241 223.462 105.085 223.06 105.053 222.639C105.02 222.219 105.113 221.798 105.319 221.429C105.524 221.061 105.834 220.761 106.209 220.568C106.463 220.436 106.741 220.356 107.027 220.333C107.312 220.311 107.599 220.346 107.871 220.436C108.142 220.527 108.393 220.671 108.608 220.86C108.822 221.05 108.997 221.28 109.121 221.538Z" stroke="#344054" stroke-opacity="0.75" stroke-linecap="round" stroke-linejoin="round"/>
<path d="M307.792 339.967C305.84 342.794 303.093 344.979 299.899 346.246C296.704 347.512 293.207 347.803 289.847 347.082C286.488 346.361 283.417 344.66 281.024 342.194C278.632 339.728 277.024 336.607 276.404 333.228C275.784 329.848 276.18 326.36 277.543 323.206C278.905 320.051 281.171 317.371 284.056 315.505C286.941 313.639 290.315 312.67 293.751 312.72C297.186 312.771 300.53 313.839 303.359 315.79C307.152 318.409 309.749 322.427 310.581 326.961C311.412 331.494 310.409 336.172 307.792 339.967Z" fill="#7D68CA" stroke="#EEEEEE"/>
<mask id="mask0_470_14058" style="mask-type:luminance" maskUnits="userSpaceOnUse" x="275" y="312" width="37" height="36">
<path d="M307.792 339.967C305.84 342.794 303.093 344.979 299.899 346.246C296.704 347.512 293.207 347.803 289.847 347.082C286.488 346.361 283.417 344.66 281.024 342.194C278.632 339.728 277.024 336.607 276.404 333.228C275.784 329.848 276.18 326.36 277.543 323.206C278.905 320.051 281.171 317.371 284.056 315.505C286.941 313.639 290.315 312.67 293.751 312.72C297.186 312.771 300.53 313.839 303.359 315.79C307.152 318.409 309.749 322.427 310.581 326.961C311.412 331.494 310.409 336.172 307.792 339.967Z" fill="white" stroke="white"/>
</mask>
<g mask="url(#mask0_470_14058)">
<path opacity="0.8" d="M305.463 338.355C303.828 340.72 301.527 342.548 298.853 343.606C296.179 344.664 293.252 344.905 290.441 344.3C287.629 343.694 285.061 342.269 283.06 340.203C281.059 338.138 279.715 335.526 279.198 332.697C278.681 329.868 279.015 326.95 280.157 324.31C281.299 321.671 283.197 319.43 285.613 317.869C288.028 316.309 290.852 315.5 293.728 315.544C296.603 315.589 299.401 316.485 301.767 318.119C304.939 320.313 307.111 323.677 307.804 327.472C308.497 331.267 307.655 335.181 305.463 338.355Z" fill="#7D68CA" stroke="#EEEEEE"/>
<path d="M305.463 338.355C303.828 340.72 301.527 342.548 298.853 343.606C296.179 344.664 293.252 344.905 290.441 344.3C287.629 343.694 285.061 342.269 283.06 340.203C281.059 338.138 279.715 335.526 279.198 332.697C278.681 329.868 279.015 326.95 280.157 324.31C281.299 321.671 283.197 319.43 285.613 317.869C288.028 316.309 290.852 315.5 293.728 315.544C296.603 315.589 299.401 316.485 301.767 318.119C304.939 320.313 307.111 323.677 307.804 327.472C308.497 331.267 307.655 335.181 305.463 338.355Z" stroke="#EEEEEE" stroke-linecap="round" stroke-linejoin="round"/>
<path opacity="0.5" d="M297.764 322.856C297.629 323.048 297.381 323.121 297.165 323.032C296.384 322.712 295.664 322.708 295.008 322.968C294.34 323.231 293.69 323.787 293.103 324.671L293.097 324.68L293.097 324.68C292.58 325.421 292.301 326.126 292.234 326.945C292.166 327.778 292.314 328.764 292.718 330.068L297.764 322.856ZM297.764 322.856L298.207 322.224L299.19 322.9M297.764 322.856L299.19 322.9M299.19 322.9L298.748 323.536C298.613 323.731 298.634 323.996 298.798 324.167C299.394 324.788 299.663 325.458 299.66 326.166C299.657 326.887 299.371 327.705 298.748 328.602L298.723 328.638L297.46 327.763L297.577 327.595C297.578 327.594 297.578 327.594 297.579 327.593C297.957 327.06 298.167 326.525 298.115 326.001C298.061 325.458 297.738 325.047 297.309 324.75C296.887 324.456 296.394 324.288 295.864 324.427C295.355 324.56 294.925 324.949 294.546 325.497C294.152 326.066 293.918 326.642 293.891 327.394C293.865 328.118 294.033 328.978 294.371 330.116L294.371 330.117C294.766 331.439 294.913 332.428 294.846 333.26C294.78 334.077 294.505 334.775 293.993 335.511L293.993 335.511L293.991 335.515C293.37 336.428 292.697 336.986 292.015 337.243C291.344 337.495 290.614 337.475 289.825 337.141C289.607 337.049 289.354 337.122 289.219 337.316L288.796 337.925L287.84 337.261L288.265 336.643C288.4 336.447 288.379 336.183 288.213 336.012C287.61 335.387 287.341 334.712 287.346 333.996C287.351 333.267 287.642 332.442 288.265 331.539L288.265 331.539L288.267 331.536L288.643 330.983L289.905 331.857L289.434 332.539C289.046 333.08 288.849 333.623 288.921 334.154C288.994 334.694 289.329 335.102 289.748 335.399C290.168 335.696 290.663 335.875 291.198 335.751C291.719 335.63 292.161 335.248 292.544 334.693C292.939 334.122 293.175 333.532 293.203 332.775C293.23 332.042 293.063 331.182 292.718 330.069L299.19 322.9Z" fill="#7D68CA" stroke="white" stroke-linecap="round" stroke-linejoin="round"/>
<path opacity="0.2" d="M288.014 315.59L288.014 315.592C288.016 319.684 286.953 323.706 284.931 327.264C283.009 330.643 280.283 333.493 276.999 335.562C276.314 333.502 276.021 331.33 276.137 329.159C276.264 326.784 276.877 324.461 277.938 322.334C278.999 320.206 280.486 318.319 282.306 316.789C283.971 315.391 285.881 314.318 287.938 313.626C287.991 314.279 288.016 314.934 288.014 315.59Z" fill="#344054" fill-opacity="0.25" stroke="#EEEEEE"/>
</g>
<path d="M307.792 339.967C305.84 342.794 303.093 344.979 299.899 346.246C296.704 347.512 293.207 347.803 289.847 347.082C286.488 346.361 283.417 344.66 281.024 342.194C278.632 339.728 277.024 336.607 276.404 333.228C275.784 329.848 276.18 326.36 277.543 323.206C278.905 320.051 281.171 317.371 284.056 315.505C286.941 313.639 290.315 312.67 293.751 312.72C297.186 312.771 300.53 313.839 303.359 315.79C307.152 318.409 309.749 322.427 310.581 326.961C311.412 331.494 310.409 336.172 307.792 339.967Z" stroke="#EEEEEE" stroke-linecap="round" stroke-linejoin="round"/>
<path d="M285.355 315.039C285.355 324.64 277.571 332.424 267.97 332.424C258.368 332.424 250.585 324.64 250.585 315.039C250.585 305.437 258.368 297.654 267.97 297.654C277.571 297.654 285.355 305.437 285.355 315.039Z" fill="#7D68CA" stroke="#EEEEEE" stroke-linecap="round" stroke-linejoin="round"/>
<path opacity="0.8" d="M282.511 315.039C282.511 323.07 276.001 329.581 267.97 329.581C259.939 329.581 253.428 323.07 253.428 315.039C253.428 307.008 259.939 300.497 267.97 300.497C276.001 300.497 282.511 307.008 282.511 315.039Z" fill="#7D68CA" stroke="#EEEEEE"/>
<path d="M282.511 315.039C282.511 323.07 276.001 329.581 267.97 329.581C259.939 329.581 253.428 323.07 253.428 315.039C253.428 307.008 259.939 300.497 267.97 300.497C276.001 300.497 282.511 307.008 282.511 315.039Z" stroke="#EEEEEE" stroke-linecap="round" stroke-linejoin="round"/>
<path opacity="0.5" d="M266.981 307.152C267.21 307.102 267.373 306.899 267.373 306.664V305.903H268.566V306.664C268.566 306.902 268.733 307.106 268.966 307.154C269.827 307.33 270.435 307.73 270.838 308.314C271.248 308.908 271.477 309.742 271.477 310.837V310.842H269.935V310.633C269.935 309.971 269.806 309.407 269.467 309.007C269.113 308.589 268.613 308.445 268.096 308.445C267.579 308.445 267.079 308.589 266.724 309.007C266.385 309.407 266.257 309.971 266.257 310.633C266.257 311.325 266.398 311.938 266.803 312.575C267.195 313.19 267.819 313.804 268.734 314.536L268.734 314.536C269.808 315.396 270.481 316.123 270.89 316.844C271.293 317.552 271.458 318.286 271.458 319.192C271.458 320.287 271.228 321.132 270.817 321.736C270.413 322.329 269.805 322.733 268.949 322.904C268.715 322.951 268.547 323.156 268.547 323.394V324.136H267.354V323.394C267.354 323.156 267.185 322.951 266.952 322.904C266.095 322.733 265.487 322.329 265.083 321.736C264.672 321.132 264.442 320.287 264.442 319.192V318.528H265.975V319.367C265.975 320.039 266.12 320.6 266.48 320.993C266.849 321.395 267.355 321.526 267.863 321.526C268.371 321.526 268.878 321.395 269.249 320.995C269.612 320.603 269.76 320.041 269.76 319.367C269.76 318.676 269.62 318.056 269.213 317.415C268.819 316.795 268.191 316.181 267.27 315.461C266.199 314.613 265.526 313.886 265.117 313.164C264.715 312.451 264.549 311.71 264.549 310.798L264.549 310.796C264.545 309.737 264.767 308.915 265.166 308.323C265.559 307.74 266.151 307.336 266.981 307.152Z" fill="#7D68CA" stroke="white" stroke-linecap="round" stroke-linejoin="round"/>
<path d="M362.666 305.775C370.75 310.955 373.104 321.708 367.924 329.792C362.744 337.876 351.991 340.231 343.907 335.051C335.823 329.871 333.469 319.118 338.649 311.034C343.829 302.949 354.582 300.595 362.666 305.775Z" fill="#7D68CA" stroke="#EEEEEE" stroke-linecap="round" stroke-linejoin="round"/>
<path opacity="0.8" d="M363.937 310.527L363.938 310.527C365.895 312.634 367.184 315.275 367.641 318.115C368.098 320.954 367.703 323.866 366.505 326.481C365.307 329.096 363.361 331.297 360.912 332.806C358.463 334.315 355.621 335.063 352.747 334.957C349.873 334.85 347.094 333.894 344.764 332.209C342.433 330.523 340.654 328.184 339.653 325.488C338.651 322.792 338.472 319.859 339.138 317.06C339.803 314.262 341.284 311.724 343.392 309.767L343.392 309.767C344.79 308.466 346.431 307.453 348.221 306.787C350.01 306.121 351.914 305.815 353.822 305.885C355.731 305.956 357.606 306.402 359.342 307.199C361.078 307.995 362.639 309.126 363.937 310.527Z" fill="#7D68CA" stroke="#EEEEEE"/>
<path d="M363.937 310.527L363.938 310.527C365.895 312.634 367.184 315.275 367.641 318.115C368.098 320.954 367.703 323.866 366.505 326.481C365.307 329.096 363.361 331.297 360.912 332.806C358.463 334.315 355.621 335.063 352.747 334.957C349.873 334.85 347.094 333.894 344.764 332.209C342.433 330.523 340.654 328.184 339.653 325.488C338.651 322.792 338.472 319.859 339.138 317.06C339.803 314.262 341.284 311.724 343.392 309.767L343.392 309.767C344.79 308.466 346.431 307.453 348.221 306.787C350.01 306.121 351.914 305.815 353.822 305.885C355.731 305.956 357.606 306.402 359.342 307.199C361.078 307.995 362.639 309.126 363.937 310.527Z" stroke="#EEEEEE" stroke-linecap="round" stroke-linejoin="round"/>
<path opacity="0.5" d="M347.199 315.324C347.33 315.134 347.315 314.879 347.161 314.707L346.622 314.101L347.492 313.289L348.015 313.877C348.173 314.054 348.435 314.096 348.64 313.977C349.381 313.546 350.098 313.427 350.792 313.58C351.497 313.735 352.232 314.182 352.971 314.981L352.971 314.981L352.976 314.985L352.997 315.008L351.876 316.052L351.733 315.901C351.733 315.901 351.733 315.9 351.733 315.9C351.281 315.417 350.803 315.094 350.284 315.032C349.74 314.968 349.277 315.204 348.901 315.557C348.526 315.908 348.258 316.352 348.279 316.897C348.298 317.421 348.583 317.921 349.031 318.406C349.5 318.913 350.024 319.266 350.757 319.457C351.465 319.641 352.343 319.668 353.51 319.584L353.512 319.584C354.886 319.48 355.883 319.546 356.681 319.789C357.465 320.029 358.091 320.449 358.706 321.114L358.706 321.114C359.447 321.914 359.847 322.691 359.954 323.414C360.06 324.126 359.889 324.834 359.394 325.53C359.256 325.723 359.273 325.986 359.434 326.16L359.939 326.706L359.061 327.52L358.557 326.975C358.395 326.8 358.132 326.764 357.929 326.888C357.188 327.342 356.469 327.46 355.772 327.302C355.062 327.14 354.32 326.68 353.579 325.879L353.579 325.879L353.576 325.875L353.116 325.388L354.245 324.341L354.817 324.949C354.817 324.949 354.817 324.949 354.817 324.949C355.275 325.439 355.764 325.751 356.295 325.795C356.839 325.839 357.3 325.593 357.675 325.246C358.052 324.899 358.333 324.456 358.327 323.908C358.322 323.375 358.044 322.864 357.585 322.374C357.114 321.87 356.587 321.511 355.853 321.323C355.142 321.142 354.266 321.129 353.108 321.247C351.744 321.355 350.747 321.286 349.948 321.04C349.161 320.797 348.533 320.372 347.923 319.708C347.184 318.901 346.781 318.131 346.668 317.417C346.556 316.716 346.716 316.02 347.199 315.324Z" fill="#7D68CA" stroke="white" stroke-linecap="round" stroke-linejoin="round"/>
<path opacity="0.2" d="M345.924 242.684C345.924 242.684 345.846 279.793 345.924 281.957C346.002 284.121 348.835 297.154 348.835 297.154L339.82 313.768L347.583 320.017L362.674 305.189C362.674 305.189 375.522 313.117 377.87 324.471C380.219 335.825 394.203 344.093 408.711 375.535C423.218 406.977 439.764 305.189 439.764 305.189L394.998 248.827L345.924 242.684Z" fill="#344054" fill-opacity="0.75"/>
<path d="M482.773 43.3196L469.061 177.122L460.628 259.434L342.78 247.361L319.849 245.013L305.166 243.509L318.179 116.48L327.311 27.3949L482.773 43.3196Z" fill="white"/>
<mask id="mask1_470_14058" style="mask-type:luminance" maskUnits="userSpaceOnUse" x="305" y="27" width="178" height="233">
<path d="M482.773 43.3196L469.061 177.122L460.628 259.434L342.78 247.361L319.849 245.013L305.166 243.509L318.179 116.48L327.311 27.3949L482.773 43.3196Z" fill="white"/>
</mask>
<g mask="url(#mask1_470_14058)">
<path d="M437.62 48.356L370.515 41.4757C370.215 41.4451 369.913 41.4738 369.624 41.5602C369.336 41.6465 369.067 41.7888 368.834 41.979C368.6 42.1691 368.407 42.4034 368.264 42.6683C368.121 42.9333 368.032 43.2238 368.001 43.5233C367.971 43.8228 367.999 44.1254 368.086 44.4138C368.172 44.7022 368.314 44.9707 368.504 45.2041C368.695 45.4375 368.929 45.6311 369.194 45.774C369.459 45.9169 369.749 46.0061 370.049 46.0367L437.154 52.917C437.759 52.9788 438.363 52.7978 438.835 52.4138C439.306 52.0298 439.605 51.4743 439.667 50.8694C439.729 50.2646 439.548 49.66 439.164 49.1887C438.78 48.7173 438.224 48.4178 437.62 48.356Z" fill="#344054" fill-opacity="0.5"/>
<path d="M419.88 55.9739L386.333 52.5289C386.029 52.499 385.726 52.5904 385.49 52.7831C385.253 52.9758 385.103 53.2542 385.071 53.5575C385.056 53.7073 385.071 53.8585 385.115 54.0024C385.159 54.1464 385.23 54.2804 385.326 54.3966C385.421 54.5129 385.539 54.6092 385.672 54.68C385.804 54.7508 385.95 54.7948 386.1 54.8094L419.647 58.2544C419.951 58.2842 420.254 58.1928 420.49 58.0001C420.726 57.8074 420.877 57.529 420.909 57.2257C420.925 57.0757 420.911 56.9241 420.868 56.7795C420.824 56.635 420.753 56.5006 420.657 56.384C420.561 56.2675 420.443 56.1712 420.31 56.1008C420.176 56.0303 420.03 55.9872 419.88 55.9739Z" fill="#344054" fill-opacity="0.5"/>
<path d="M456.805 154.724L347.884 143.565C347.589 143.531 347.293 143.614 347.057 143.795C346.822 143.976 346.666 144.241 346.623 144.535C346.593 144.838 346.684 145.141 346.877 145.378C347.07 145.614 347.348 145.765 347.651 145.796L456.572 157.044C456.722 157.058 456.873 157.044 457.017 157C457.161 156.956 457.295 156.884 457.411 156.789C457.527 156.693 457.624 156.576 457.694 156.443C457.765 156.31 457.809 156.165 457.824 156.015C457.846 155.863 457.836 155.708 457.796 155.559C457.756 155.411 457.686 155.272 457.591 155.151C457.496 155.031 457.377 154.931 457.242 154.857C457.107 154.784 456.958 154.739 456.805 154.724Z" fill="#344054" fill-opacity="0.5"/>
<path d="M455.999 162.925L329.31 149.95C329.161 149.934 329.01 149.948 328.866 149.99C328.722 150.033 328.588 150.104 328.472 150.198C328.355 150.293 328.259 150.41 328.188 150.542C328.117 150.675 328.073 150.82 328.058 150.969C328.025 151.264 328.108 151.561 328.289 151.796C328.47 152.031 328.735 152.187 329.029 152.231L455.679 165.205C455.829 165.22 455.98 165.206 456.124 165.163C456.269 165.12 456.403 165.049 456.52 164.953C456.636 164.858 456.733 164.741 456.805 164.609C456.876 164.476 456.921 164.331 456.936 164.181C456.951 164.032 456.937 163.88 456.894 163.736C456.851 163.592 456.779 163.458 456.684 163.341C456.589 163.224 456.472 163.127 456.34 163.056C456.207 162.985 456.062 162.94 455.912 162.925H455.999Z" fill="#344054" fill-opacity="0.5"/>
<path d="M419.657 167.495L328.437 158.15C328.134 158.118 327.832 158.207 327.595 158.398C327.358 158.589 327.208 158.867 327.175 159.169C327.143 159.471 327.232 159.774 327.424 160.011C327.615 160.247 327.892 160.398 328.194 160.431L419.414 169.776C419.564 169.791 419.715 169.776 419.859 169.732C420.003 169.688 420.137 169.616 420.254 169.521C420.37 169.425 420.466 169.308 420.537 169.175C420.608 169.042 420.652 168.897 420.666 168.747C420.682 168.599 420.669 168.448 420.627 168.305C420.585 168.162 420.515 168.028 420.421 167.912C420.328 167.796 420.212 167.699 420.081 167.627C419.95 167.556 419.806 167.511 419.657 167.495Z" fill="#344054" fill-opacity="0.5"/>
<path d="M327.039 166.993L323.333 203.156L451.014 216.238L454.719 180.075L327.039 166.993Z" fill="#E3EDFF" stroke="#344054" stroke-opacity="0.5" stroke-miterlimit="10"/>
<path d="M385.589 125.147C397.65 115.099 399.281 97.1761 389.232 85.1156C379.184 73.0551 361.261 71.4239 349.2 81.4724C337.14 91.5209 335.509 109.444 345.557 121.504C355.606 133.565 373.529 135.196 385.589 125.147Z" fill="#7D68CA"/>
<mask id="mask2_470_14058" style="mask-type:luminance" maskUnits="userSpaceOnUse" x="338" y="74" width="58" height="58">
<path d="M385.589 125.147C397.65 115.099 399.281 97.1761 389.232 85.1156C379.184 73.0551 361.261 71.4239 349.2 81.4724C337.14 91.5209 335.509 109.444 345.557 121.504C355.606 133.565 373.529 135.196 385.589 125.147Z" fill="white"/>
</mask>
<g mask="url(#mask2_470_14058)">
<path opacity="0.5" d="M385.589 125.147C397.65 115.099 399.281 97.1761 389.232 85.1156C379.184 73.0551 361.261 71.4239 349.2 81.4724C337.14 91.5209 335.509 109.444 345.557 121.504C355.606 133.565 373.529 135.196 385.589 125.147Z" fill="white"/>
</g>
<path d="M385.589 125.147C397.65 115.099 399.281 97.1761 389.232 85.1156C379.184 73.0551 361.261 71.4239 349.2 81.4724C337.14 91.5209 335.509 109.444 345.557 121.504C355.606 133.565 373.529 135.196 385.589 125.147Z" stroke="#344054" stroke-opacity="0.5" stroke-miterlimit="10"/>
<path d="M368.215 103.243L391.854 115.131C394.06 110.551 394.937 105.443 394.384 100.389C393.832 95.3356 391.873 90.5382 388.729 86.5424L368.215 103.243Z" fill="white"/>
<path d="M368.37 101.962L388.167 85.8534C385.211 82.3314 381.407 79.6197 377.113 77.9735L373.513 87.7748L368.37 101.962Z" fill="#7D68CA"/>
<path d="M370.602 76.382L368.215 99.7886L376.269 77.6532C374.431 77.0267 372.531 76.6005 370.602 76.382Z" fill="#344054" fill-opacity="0.5"/>
<path d="M366.982 103.03L369.729 76.2849C365.05 75.8919 360.349 76.7181 356.084 78.683C351.82 80.6478 348.137 83.6841 345.395 87.496C342.654 91.3079 340.947 95.7651 340.441 100.433C339.935 105.101 340.647 109.821 342.508 114.132L366.982 103.03Z" fill="#344054" fill-opacity="0.5"/>
<path d="M364.634 130.338C370.031 130.887 375.469 129.808 380.248 127.239C385.026 124.671 388.927 120.731 391.447 115.927L367.39 103.826L342.867 114.966C344.87 119.182 347.924 122.811 351.737 125.503C355.549 128.196 359.991 129.861 364.634 130.338Z" fill="#E3EDFF"/>
<path d="M413.007 84.8679L409.773 84.5366C409.437 84.5021 409.137 84.7465 409.102 85.0824L408.771 88.3164C408.737 88.6523 408.981 88.9525 409.317 88.9869L412.551 89.3183C412.887 89.3527 413.187 89.1083 413.221 88.7724L413.553 85.5384C413.587 85.2025 413.343 84.9023 413.007 84.8679Z" fill="#7D68CA" stroke="#344054" stroke-opacity="0.5" stroke-miterlimit="10"/>
<path d="M458.066 91.1325L416.28 86.8529C416.182 86.8078 416.1 86.733 416.047 86.639C415.994 86.545 415.971 86.4366 415.983 86.3291C415.995 86.2217 416.04 86.1208 416.113 86.0406C416.185 85.9604 416.281 85.9051 416.387 85.8824L458.173 90.0844C458.299 90.1092 458.411 90.1802 458.488 90.2835C458.564 90.3868 458.599 90.5149 458.586 90.6427C458.572 90.7704 458.512 90.8885 458.415 90.9738C458.319 91.059 458.195 91.1052 458.066 91.1033V91.1325Z" fill="#344054" fill-opacity="0.5"/>
<path d="M453.748 92.9375L416.057 89.0558C415.922 89.0411 415.798 88.9737 415.713 88.8683C415.627 88.7628 415.587 88.6279 415.601 88.4929C415.607 88.4256 415.626 88.3602 415.658 88.3006C415.69 88.2409 415.733 88.1883 415.785 88.1458C415.838 88.1032 415.899 88.0717 415.963 88.053C416.028 88.0342 416.096 88.0287 416.163 88.0368L453.855 91.9185C453.981 91.9433 454.093 92.0143 454.169 92.1176C454.246 92.2209 454.281 92.349 454.267 92.4768C454.254 92.6045 454.193 92.7226 454.097 92.8079C454.001 92.8931 453.876 92.9394 453.748 92.9375Z" fill="#344054" fill-opacity="0.5"/>
<path d="M411.987 94.8336L408.753 94.5023C408.417 94.4678 408.117 94.7122 408.082 95.0481L407.751 98.2821C407.716 98.618 407.961 98.9182 408.297 98.9526L411.531 99.284C411.867 99.3184 412.167 99.074 412.201 98.7381L412.532 95.5041C412.567 95.1682 412.322 94.868 411.987 94.8336Z" fill="#344054" fill-opacity="0.5" stroke="#344054" stroke-opacity="0.5" stroke-linecap="round" stroke-linejoin="round"/>
<path d="M457.047 101.099L415.242 96.8192C415.115 96.7944 415.003 96.7234 414.927 96.6201C414.851 96.5168 414.816 96.3886 414.829 96.2609C414.843 96.1332 414.903 96.0151 414.999 95.9298C415.095 95.8446 415.22 95.7983 415.348 95.8002L457.125 100.08C457.261 100.095 457.385 100.162 457.472 100.267C457.559 100.372 457.602 100.507 457.591 100.643C457.576 100.774 457.512 100.895 457.41 100.979C457.309 101.064 457.179 101.107 457.047 101.099Z" fill="#344054" fill-opacity="0.5"/>
<path d="M452.719 102.913L415.038 99.0317C414.901 99.0188 414.776 98.9523 414.688 98.8467C414.601 98.7412 414.559 98.6052 414.572 98.4688C414.585 98.3324 414.651 98.2067 414.757 98.1193C414.862 98.032 414.998 97.9901 415.135 98.003L452.826 101.885C452.894 101.892 452.959 101.912 453.019 101.944C453.079 101.977 453.131 102.02 453.174 102.073C453.217 102.126 453.249 102.186 453.268 102.252C453.288 102.317 453.294 102.385 453.287 102.452C453.28 102.52 453.26 102.585 453.228 102.645C453.195 102.705 453.151 102.758 453.099 102.8C453.046 102.843 452.985 102.875 452.92 102.895C452.855 102.914 452.787 102.92 452.719 102.913Z" fill="#344054" fill-opacity="0.5"/>
<path d="M410.976 104.799L407.742 104.468C407.406 104.434 407.106 104.678 407.072 105.014L406.74 108.248C406.706 108.584 406.95 108.884 407.286 108.918L410.52 109.25C410.856 109.284 411.156 109.04 411.191 108.704L411.522 105.47C411.556 105.134 411.312 104.834 410.976 104.799Z" fill="#344054" fill-opacity="0.5" stroke="#344054" stroke-opacity="0.5" stroke-linecap="round" stroke-linejoin="round"/>
<path d="M455.999 111.075L414.271 106.785C414.2 106.784 414.129 106.768 414.064 106.739C413.999 106.709 413.941 106.666 413.894 106.613C413.847 106.559 413.811 106.496 413.789 106.428C413.767 106.36 413.76 106.289 413.767 106.218C413.775 106.147 413.797 106.078 413.832 106.016C413.868 105.954 413.916 105.9 413.973 105.857C414.031 105.815 414.096 105.785 414.166 105.769C414.236 105.754 414.308 105.753 414.378 105.766L456.155 110.046C456.222 110.053 456.288 110.073 456.347 110.106C456.407 110.138 456.46 110.182 456.503 110.234C456.546 110.287 456.578 110.348 456.597 110.413C456.616 110.478 456.623 110.546 456.616 110.614C456.609 110.681 456.588 110.747 456.556 110.807C456.524 110.866 456.48 110.919 456.427 110.962C456.375 111.005 456.314 111.037 456.249 111.056C456.184 111.075 456.115 111.082 456.048 111.075H455.999Z" fill="#344054" fill-opacity="0.5"/>
<path d="M451.7 112.88L414.009 108.998C413.874 108.983 413.751 108.916 413.665 108.81C413.58 108.705 413.539 108.57 413.553 108.435C413.568 108.3 413.635 108.175 413.74 108.088C413.845 108.001 413.98 107.958 414.116 107.969L451.807 111.851C451.944 111.865 452.069 111.933 452.155 112.039C452.242 112.146 452.282 112.282 452.268 112.419C452.254 112.555 452.186 112.68 452.08 112.767C451.973 112.853 451.837 112.894 451.7 112.88Z" fill="#344054" fill-opacity="0.5"/>
<path d="M409.945 114.774L406.711 114.443C406.375 114.408 406.075 114.653 406.041 114.988L405.709 118.222C405.675 118.558 405.919 118.859 406.255 118.893L409.489 119.224C409.825 119.259 410.125 119.014 410.16 118.678L410.491 115.444C410.526 115.109 410.281 114.808 409.945 114.774Z" fill="#E3EDFF" stroke="#344054" stroke-opacity="0.5" stroke-miterlimit="10"/>
<path d="M455.029 121.041L413.252 116.761C413.185 116.755 413.119 116.736 413.059 116.704C412.999 116.673 412.945 116.629 412.902 116.577C412.859 116.525 412.826 116.464 412.806 116.399C412.786 116.334 412.78 116.266 412.786 116.199C412.801 116.063 412.868 115.938 412.973 115.851C413.078 115.764 413.213 115.722 413.349 115.733L455.136 120.022C455.207 120.023 455.278 120.039 455.343 120.069C455.407 120.099 455.465 120.142 455.513 120.195C455.56 120.248 455.596 120.311 455.618 120.379C455.64 120.447 455.647 120.519 455.64 120.59C455.632 120.661 455.61 120.73 455.575 120.792C455.539 120.854 455.491 120.908 455.434 120.95C455.376 120.992 455.311 121.022 455.241 121.038C455.171 121.054 455.099 121.055 455.029 121.041Z" fill="#344054" fill-opacity="0.5"/>
<path d="M450.681 122.846L412.99 118.964C412.864 118.94 412.752 118.869 412.676 118.765C412.599 118.662 412.564 118.534 412.578 118.406C412.591 118.278 412.652 118.16 412.748 118.075C412.844 117.99 412.968 117.943 413.097 117.945L450.788 121.827C450.868 121.81 450.95 121.812 451.029 121.833C451.108 121.854 451.18 121.894 451.241 121.948C451.301 122.003 451.348 122.071 451.377 122.147C451.406 122.223 451.416 122.305 451.407 122.386C451.398 122.467 451.37 122.545 451.325 122.613C451.281 122.681 451.22 122.737 451.15 122.777C451.079 122.818 450.999 122.84 450.918 122.844C450.837 122.847 450.755 122.831 450.681 122.797V122.846Z" fill="#344054" fill-opacity="0.5"/>
<path d="M408.925 124.749L405.691 124.418C405.355 124.384 405.055 124.628 405.021 124.964L404.689 128.198C404.655 128.534 404.899 128.834 405.235 128.868L408.469 129.2C408.805 129.234 409.105 128.99 409.14 128.654L409.471 125.42C409.505 125.084 409.261 124.784 408.925 124.749Z" fill="white" stroke="#344054" stroke-opacity="0.5" stroke-linecap="round" stroke-linejoin="round"/>
<path d="M453.981 131.007L412.194 126.728C412.096 126.683 412.015 126.608 411.961 126.514C411.908 126.42 411.886 126.311 411.898 126.204C411.909 126.096 411.955 125.996 412.027 125.915C412.1 125.835 412.195 125.78 412.301 125.757L454.059 129.988C454.138 129.971 454.221 129.973 454.299 129.994C454.378 130.015 454.451 130.055 454.511 130.11C454.571 130.164 454.618 130.232 454.647 130.308C454.676 130.385 454.686 130.466 454.677 130.547C454.669 130.628 454.641 130.706 454.596 130.774C454.551 130.842 454.491 130.898 454.42 130.939C454.349 130.979 454.27 131.002 454.188 131.005C454.107 131.009 454.026 130.993 453.952 130.959L453.981 131.007Z" fill="#344054" fill-opacity="0.5"/>
<path d="M449.663 132.783L411.971 128.901C411.9 128.9 411.829 128.884 411.764 128.855C411.7 128.825 411.641 128.782 411.594 128.729C411.547 128.675 411.511 128.612 411.489 128.544C411.467 128.476 411.46 128.405 411.467 128.334C411.475 128.263 411.497 128.194 411.532 128.132C411.568 128.07 411.616 128.016 411.673 127.973C411.731 127.931 411.796 127.901 411.866 127.885C411.936 127.87 412.008 127.869 412.078 127.882L449.76 131.764C449.831 131.764 449.903 131.779 449.968 131.807C450.034 131.836 450.093 131.879 450.142 131.932C450.19 131.985 450.227 132.047 450.25 132.115C450.273 132.184 450.281 132.256 450.274 132.327C450.267 132.399 450.245 132.468 450.21 132.531C450.175 132.593 450.127 132.648 450.069 132.691C450.012 132.734 449.946 132.764 449.876 132.78C449.806 132.796 449.733 132.797 449.663 132.783Z" fill="#344054" fill-opacity="0.5"/>
<path d="M435.388 204.046L437.773 204.29L439.17 190.649L436.786 190.405L435.388 204.046Z" fill="#344054" fill-opacity="0.5" stroke="#344054" stroke-opacity="0.5" stroke-linecap="round" stroke-linejoin="round"/>
<path d="M435.605 201.983L437.989 202.227L438.647 195.807L436.263 195.563L435.605 201.983Z" fill="#7D68CA" stroke="#344054" stroke-opacity="0.5" stroke-miterlimit="10"/>
<path d="M441.12 201.147L443.505 201.391L444.902 187.751L442.518 187.506L441.12 201.147Z" fill="#344054" fill-opacity="0.5" stroke="#344054" stroke-opacity="0.5" stroke-linecap="round" stroke-linejoin="round"/>
<path d="M442.137 191.11L441.479 197.53L443.864 197.774L444.522 191.355L442.137 191.11Z" fill="#7D68CA" stroke="#344054" stroke-opacity="0.5" stroke-miterlimit="10"/>
<path d="M446.216 204.302L448.6 204.546L449.998 190.905L447.613 190.661L446.216 204.302Z" fill="#344054" fill-opacity="0.5" stroke="#344054" stroke-opacity="0.5" stroke-linecap="round" stroke-linejoin="round"/>
<path d="M446.741 199.183L449.125 199.427L449.783 193.007L447.399 192.763L446.741 199.183Z" fill="#7D68CA" stroke="#344054" stroke-opacity="0.5" stroke-miterlimit="10"/>
<path d="M430.295 200.802L432.68 201.046L434.078 187.406L431.693 187.161L430.295 200.802Z" fill="#344054" fill-opacity="0.5" stroke="#344054" stroke-opacity="0.5" stroke-linecap="round" stroke-linejoin="round"/>
<path d="M430.512 198.729L432.897 198.974L433.555 192.554L431.17 192.31L430.512 198.729Z" fill="#7D68CA" stroke="#344054" stroke-opacity="0.5" stroke-miterlimit="10"/>
<path d="M424.516 204.273L426.901 204.517L428.299 190.876L425.914 190.632L424.516 204.273Z" fill="#344054" fill-opacity="0.5" stroke="#344054" stroke-opacity="0.5" stroke-linecap="round" stroke-linejoin="round"/>
<path d="M424.669 202.742L427.053 202.986L427.711 196.567L425.327 196.322L424.669 202.742Z" fill="#7D68CA" stroke="#344054" stroke-opacity="0.5" stroke-miterlimit="10"/>
<path d="M419.514 200.201L421.898 200.445L423.296 186.804L420.912 186.56L419.514 200.201Z" fill="#344054" fill-opacity="0.5" stroke="#344054" stroke-opacity="0.5" stroke-linecap="round" stroke-linejoin="round"/>
<path d="M419.557 199.706L421.942 199.95L422.599 193.53L420.215 193.286L419.557 199.706Z" fill="#7D68CA" stroke="#344054" stroke-opacity="0.5" stroke-miterlimit="10"/>
<path d="M413.4 206.786L415.784 207.031L417.182 193.39L414.797 193.146L413.4 206.786Z" fill="#344054" fill-opacity="0.5" stroke="#344054" stroke-opacity="0.5" stroke-linecap="round" stroke-linejoin="round"/>
<path d="M413.442 206.281L415.826 206.525L416.484 200.105L414.1 199.861L413.442 206.281Z" fill="#7D68CA" stroke="#344054" stroke-opacity="0.5" stroke-miterlimit="10"/>
<path d="M408.912 197.637L411.297 197.881L412.694 184.241L410.31 183.996L408.912 197.637Z" fill="#344054" fill-opacity="0.5" stroke="#344054" stroke-opacity="0.5" stroke-linecap="round" stroke-linejoin="round"/>
<path d="M409.129 195.585L411.513 195.829L412.171 189.409L409.787 189.165L409.129 195.585Z" fill="#7D68CA" stroke="#344054" stroke-opacity="0.5" stroke-miterlimit="10"/>
<path d="M403.614 196.306L405.998 196.55L407.396 182.91L405.011 182.665L403.614 196.306Z" fill="#344054" fill-opacity="0.5" stroke="#344054" stroke-opacity="0.5" stroke-linecap="round" stroke-linejoin="round"/>
<path d="M404.159 191.148L406.543 191.392L407.201 184.973L404.817 184.728L404.159 191.148Z" fill="#7D68CA" stroke="#344054" stroke-opacity="0.5" stroke-miterlimit="10"/>
<path d="M397.381 204.302L399.765 204.546L401.163 190.905L398.778 190.661L397.381 204.302Z" fill="#344054" fill-opacity="0.5" stroke="#344054" stroke-opacity="0.5" stroke-linecap="round" stroke-linejoin="round"/>
<path d="M397.961 198.651L400.346 198.895L401.004 192.476L398.619 192.231L397.961 198.651Z" fill="#7D68CA" stroke="#344054" stroke-opacity="0.5" stroke-miterlimit="10"/>
<path d="M392.623 197.755L395.008 198L396.405 184.359L394.021 184.115L392.623 197.755Z" fill="#344054" fill-opacity="0.5" stroke="#344054" stroke-opacity="0.5" stroke-linecap="round" stroke-linejoin="round"/>
<path d="M392.885 195.19L395.27 195.434L395.927 189.014L393.543 188.77L392.885 195.19Z" fill="#7D68CA" stroke="#344054" stroke-opacity="0.5" stroke-miterlimit="10"/>
<path d="M386.874 200.782L389.258 201.026L390.656 187.385L388.271 187.141L386.874 200.782Z" fill="#344054" fill-opacity="0.5" stroke="#344054" stroke-opacity="0.5" stroke-linecap="round" stroke-linejoin="round"/>
<path d="M387.1 198.71L389.485 198.954L390.142 192.535L387.758 192.29L387.1 198.71Z" fill="#7D68CA" stroke="#344054" stroke-opacity="0.5" stroke-miterlimit="10"/>
<path d="M380.879 206.352L383.264 206.596L384.661 192.955L382.277 192.711L380.879 206.352Z" fill="#344054" fill-opacity="0.5" stroke="#344054" stroke-opacity="0.5" stroke-linecap="round" stroke-linejoin="round"/>
<path d="M380.897 206.341L383.282 206.585L383.939 200.165L381.555 199.921L380.897 206.341Z" fill="#7D68CA" stroke="#344054" stroke-opacity="0.5" stroke-miterlimit="10"/>
<path d="M376.416 197.155L378.8 197.399L380.198 183.758L377.814 183.514L376.416 197.155Z" fill="#344054" fill-opacity="0.5" stroke="#344054" stroke-opacity="0.5" stroke-linecap="round" stroke-linejoin="round"/>
<path d="M376.56 195.604L378.944 195.848L379.602 189.429L377.218 189.184L376.56 195.604Z" fill="#7D68CA" stroke="#344054" stroke-opacity="0.5" stroke-miterlimit="10"/>
<path d="M371.649 190.618L374.033 190.863L375.431 177.222L373.046 176.978L371.649 190.618Z" fill="#344054" fill-opacity="0.5" stroke="#344054" stroke-opacity="0.5" stroke-linecap="round" stroke-linejoin="round"/>
<path d="M371.811 189.068L374.195 189.313L374.853 182.893L372.469 182.649L371.811 189.068Z" fill="#7D68CA" stroke="#344054" stroke-opacity="0.5" stroke-miterlimit="10"/>
<path d="M365.533 197.282L367.917 197.526L369.315 183.886L366.93 183.641L365.533 197.282Z" fill="#344054" fill-opacity="0.5" stroke="#344054" stroke-opacity="0.5" stroke-linecap="round" stroke-linejoin="round"/>
<path d="M366.059 192.144L368.443 192.388L369.101 185.968L366.716 185.724L366.059 192.144Z" fill="#7D68CA" stroke="#344054" stroke-opacity="0.5" stroke-miterlimit="10"/>
<path d="M359.379 204.44L361.764 204.684L363.161 191.043L360.777 190.799L359.379 204.44Z" fill="#344054" fill-opacity="0.5" stroke="#344054" stroke-opacity="0.5" stroke-linecap="round" stroke-linejoin="round"/>
<path d="M360.014 198.266L362.399 198.51L363.057 192.091L360.672 191.846L360.014 198.266Z" fill="#7D68CA" stroke="#344054" stroke-opacity="0.5" stroke-miterlimit="10"/>
<path d="M354.797 196.178L357.181 196.422L358.579 182.782L356.195 182.537L354.797 196.178Z" fill="#344054" fill-opacity="0.5" stroke="#344054" stroke-opacity="0.5" stroke-linecap="round" stroke-linejoin="round"/>
<path d="M355.004 194.135L357.389 194.38L358.046 187.96L355.662 187.716L355.004 194.135Z" fill="#7D68CA" stroke="#344054" stroke-opacity="0.5" stroke-miterlimit="10"/>
<path d="M349.659 193.369L352.044 193.613L353.441 179.972L351.057 179.728L349.659 193.369Z" fill="#344054" fill-opacity="0.5" stroke="#344054" stroke-opacity="0.5" stroke-linecap="round" stroke-linejoin="round"/>
<path d="M350.24 187.707L352.624 187.952L353.282 181.532L350.898 181.288L350.24 187.707Z" fill="#7D68CA" stroke="#344054" stroke-opacity="0.5" stroke-miterlimit="10"/>
<path d="M343.845 197.066L346.229 197.31L347.627 183.669L345.242 183.425L343.845 197.066Z" fill="#344054" fill-opacity="0.5" stroke="#344054" stroke-opacity="0.5" stroke-linecap="round" stroke-linejoin="round"/>
<path d="M343.853 197.053L346.237 197.298L346.895 190.878L344.511 190.634L343.853 197.053Z" fill="#7D68CA" stroke="#344054" stroke-opacity="0.5" stroke-miterlimit="10"/>
<path d="M338.914 192.254L341.298 192.498L342.696 178.858L340.312 178.613L338.914 192.254Z" fill="#344054" fill-opacity="0.5" stroke="#344054" stroke-opacity="0.5" stroke-linecap="round" stroke-linejoin="round"/>
<path d="M339.022 191.237L341.406 191.481L342.064 185.061L339.679 184.817L339.022 191.237Z" fill="#7D68CA" stroke="#344054" stroke-opacity="0.5" stroke-miterlimit="10"/>
<path d="M333.359 193.546L335.744 193.79L337.141 180.149L334.757 179.905L333.359 193.546Z" fill="#344054" fill-opacity="0.5" stroke="#344054" stroke-opacity="0.5" stroke-linecap="round" stroke-linejoin="round"/>
<path d="M333.412 193.031L335.797 193.275L336.454 186.856L334.07 186.611L333.412 193.031Z" fill="#7D68CA" stroke="#344054" stroke-opacity="0.5" stroke-miterlimit="10"/>
<path d="M328.168 191.239L330.552 191.483L331.95 177.843L329.565 177.598L328.168 191.239Z" fill="#344054" fill-opacity="0.5" stroke="#344054" stroke-opacity="0.5" stroke-linecap="round" stroke-linejoin="round"/>
<path d="M328.857 184.563L331.241 184.807L331.899 178.387L329.514 178.143L328.857 184.563Z" fill="#7D68CA" stroke="#344054" stroke-opacity="0.5" stroke-miterlimit="10"/>
<path d="M450.031 220.781L341.12 209.612C340.817 209.582 340.514 209.673 340.278 209.866C340.041 210.059 339.891 210.337 339.859 210.64C339.843 210.79 339.856 210.941 339.899 211.085C339.942 211.228 340.012 211.363 340.107 211.479C340.202 211.595 340.319 211.692 340.451 211.763C340.583 211.834 340.728 211.878 340.878 211.892L449.798 223.033C450.102 223.063 450.405 222.971 450.641 222.778C450.878 222.586 451.028 222.307 451.06 222.004C451.082 221.706 450.986 221.412 450.794 221.184C450.602 220.955 450.328 220.811 450.031 220.781Z" fill="#344054" fill-opacity="0.5"/>
<path d="M449.206 228.982L322.546 215.997C322.243 215.967 321.94 216.059 321.704 216.252C321.467 216.444 321.317 216.723 321.285 217.026C321.269 217.176 321.283 217.328 321.326 217.472C321.369 217.617 321.441 217.751 321.537 217.868C321.632 217.984 321.75 218.08 321.884 218.151C322.017 218.221 322.163 218.264 322.313 218.278L448.964 231.262C449.266 231.289 449.566 231.197 449.8 231.004C450.035 230.812 450.184 230.535 450.216 230.233C450.232 230.085 450.219 229.935 450.176 229.791C450.134 229.648 450.065 229.514 449.971 229.398C449.877 229.282 449.761 229.185 449.63 229.114C449.499 229.042 449.355 228.997 449.206 228.982Z" fill="#344054" fill-opacity="0.5"/>
<path d="M395.154 231.767L321.702 224.236C321.399 224.206 321.096 224.298 320.859 224.49C320.623 224.683 320.472 224.961 320.441 225.265C320.426 225.415 320.441 225.566 320.484 225.71C320.528 225.854 320.6 225.988 320.695 226.104C320.791 226.22 320.908 226.316 321.041 226.387C321.174 226.458 321.319 226.502 321.469 226.517L394.921 234.047C395.071 234.062 395.222 234.048 395.366 234.005C395.51 233.962 395.644 233.891 395.761 233.796C395.878 233.7 395.975 233.583 396.046 233.451C396.118 233.318 396.162 233.173 396.177 233.023C396.193 232.874 396.178 232.722 396.135 232.578C396.092 232.434 396.021 232.3 395.926 232.183C395.831 232.066 395.714 231.969 395.581 231.898C395.449 231.827 395.303 231.782 395.154 231.767Z" fill="#344054" fill-opacity="0.5"/>
<path opacity="0.2" d="M462.045 158.49C458.29 158.189 456.989 164.176 456.989 164.176C456.989 164.176 451.05 156.413 451.992 138.091C451.992 138.091 449.08 129.979 441.317 134.879C433.553 139.78 425.489 157.044 427.411 175.87L412.33 125.709C407.109 126.815 396.503 133.831 399.297 167.709L382.8 150.241C382.8 150.241 378.336 148.805 375.813 152.755C373.29 156.704 374.493 184.992 376.58 195.57C378.666 206.147 373.348 227.4 373.348 227.4C373.348 227.4 367.662 203.333 357.375 197.239L318.199 116.48L305.166 243.509L319.849 245.013L343.43 233.533C343.294 238.841 343.168 243.722 342.78 247.361L460.628 259.433L469.061 177.122C466.199 166.865 463.462 158.596 462.045 158.49Z" fill="#344054" fill-opacity="0.5"/>
</g>
<path d="M482.773 43.3196L469.061 177.122L460.628 259.434L342.78 247.361L319.849 245.013L305.166 243.509L318.179 116.48L327.311 27.3949L482.773 43.3196Z" stroke="#344054" stroke-opacity="0.75" stroke-linecap="round" stroke-linejoin="round"/>
<path d="M480.833 387.782L411.932 399.505C411.932 399.505 399.938 335.796 392.786 325.753C385.634 315.709 386.963 311.584 383.47 304.82C381.374 300.735 370.854 293.117 362.615 285.596C361.897 284.946 361.198 284.296 360.529 283.655C360.238 283.393 359.966 283.112 359.694 282.85C358.598 281.763 357.579 280.705 356.676 279.667C356.346 279.298 356.023 278.929 355.706 278.561C354.176 276.857 353.037 274.84 352.368 272.651C352.338 272.553 352.319 272.452 352.309 272.35C352.281 272.232 352.262 272.112 352.251 271.991C352.067 270.487 351.873 268.769 351.679 266.906C351.679 266.537 351.601 266.149 351.552 265.761L351.494 265.295C351.329 263.742 351.145 262.093 350.931 260.394C350.718 258.696 350.485 256.775 350.213 254.921C350.126 254.281 350.039 253.64 349.932 252.98C349.825 252.262 349.709 251.544 349.592 250.816L349.253 248.943C349.253 248.837 349.204 248.739 349.194 248.652L348.787 246.498C348.76 246.419 348.744 246.338 348.738 246.255C348.602 245.624 348.476 245.003 348.331 244.373C348.03 242.965 347.69 241.587 347.36 240.248C346.692 237.728 345.832 235.262 344.789 232.873C339.82 221.781 346.283 225.789 342.392 197.249C342.392 197.249 345.254 190.63 353.416 195.919C354.046 196.331 354.655 196.774 355.24 197.249C356.894 198.586 358.354 200.147 359.578 201.887C361.237 204.256 362.502 206.878 363.324 209.651C364.658 214.148 365.034 218.876 364.43 223.528C364.43 223.528 370.563 244.547 373.795 249.331C377.026 254.116 390.389 226.633 389.525 223.431C389.222 221.994 388.992 220.543 388.836 219.083C388.778 218.608 388.72 218.113 388.652 217.569C388.584 217.026 388.526 216.483 388.467 215.91C388.467 215.638 388.4 215.347 388.361 215.066C388.361 214.949 388.361 214.833 388.361 214.726C388.244 213.629 388.108 212.465 387.982 211.262C387.982 210.922 387.914 210.602 387.876 210.291C387.817 209.719 387.759 209.127 387.701 208.544C387.695 208.447 387.695 208.35 387.701 208.253C387.701 207.923 387.623 207.584 387.594 207.283C387.516 206.604 387.449 205.915 387.381 205.226C387.313 204.537 387.264 204.042 387.206 203.45C387.089 202.334 386.983 201.218 386.876 200.141C386.798 199.335 386.721 198.539 386.653 197.763C386.653 197.588 386.653 197.414 386.604 197.249C386.197 192.979 385.876 189.485 385.76 187.971C385.76 187.971 376.056 173.59 375.085 166.816C374.115 160.043 374.173 152.91 378.239 150.008C387.866 143.157 385.032 154.201 389.36 158.742C393.688 163.284 400.278 170.805 404.023 173.143C407.478 175.336 410.564 183.818 411.001 185.099C410.506 183.236 405.566 164.914 405.46 161.226C405.333 157.345 402.364 136.811 407.401 129.445C412.437 122.079 419.152 127.795 419.773 129.251C420.395 130.707 420.579 150.6 422.355 156.132C424.131 161.663 431.564 184.73 431.564 184.73C431.564 184.73 431.875 162.294 433.505 152.25C435.135 142.206 439.541 134.355 443.811 133.909C448.081 133.463 452.03 138.169 452.03 138.169C452.03 138.169 450.342 154.181 450.827 157.878C451.312 161.576 450.128 174.929 452.157 182.139C452.157 182.139 451.924 163.012 454.893 160.567C457.863 158.121 460.415 156.947 462.084 158.626C463.753 160.305 464.112 171.6 465.81 178.413C467.509 185.225 467.295 194.483 468.411 205.109C469.527 215.735 473.923 230.486 473.05 238.919C472.176 247.352 469.488 268.264 467.324 280.54C465.16 292.816 459.639 309.653 459.639 309.653C459.639 309.653 462.152 318.63 461.667 326.636C461.182 334.642 480.833 387.782 480.833 387.782Z" fill="white"/>
<path opacity="0.4" d="M422.267 156.073C423.587 160.169 428.003 173.871 430.196 180.713C430.196 180.713 420.569 187.787 420.802 194.366C421.035 200.946 419.046 214.231 414.718 213.843C410.389 213.455 410.836 185.846 409.37 181.198C410.254 183.197 410.816 184.817 410.933 185.138C410.613 183.944 405.469 164.933 405.363 161.168C405.363 160.285 405.159 158.519 404.955 156.238C404.955 156.238 414.533 147.068 421.559 152.677C421.718 153.824 421.955 154.959 422.267 156.073Z" fill="#6733E1" fill-opacity="0.25"/>
<path opacity="0.4" d="M450.885 163.953C446.402 168.204 439.638 175.715 438.784 182.964C438.784 182.964 441.278 203.207 440.211 212.077L431.477 184.701C431.477 184.701 431.787 162.265 433.418 152.221C433.418 151.949 433.515 151.668 433.563 151.396C439.015 148.622 445.031 147.138 451.147 147.058C450.772 150.626 450.646 154.215 450.769 157.801C450.915 159.848 450.954 161.902 450.885 163.953Z" fill="#6733E1" fill-opacity="0.25"/>
<path opacity="0.4" d="M454.854 160.46C454.748 160.528 454.486 160.741 454.107 161.061C454.332 160.625 454.585 160.204 454.864 159.8L454.854 160.46Z" fill="#7D68CA"/>
<path opacity="0.4" d="M457.135 216.424C457.135 216.424 451.371 194.803 451.312 177.394C451.264 170.95 452.011 165.079 454.097 161.11C454.322 160.674 454.575 160.252 454.854 159.848V160.469C455.898 159.569 457.052 158.806 458.29 158.199C456.669 160.722 454.806 165.661 456.96 173.725C460.347 186.254 457.397 201.615 457.135 216.424Z" fill="#6733E1" fill-opacity="0.25"/>
<path opacity="0.4" d="M377.628 257.629C377.628 257.629 379.171 278.231 362.615 285.606C361.897 284.956 361.198 284.306 360.529 283.665C360.238 283.403 359.966 283.122 359.694 282.86C358.598 281.773 357.579 280.715 356.676 279.677C356.337 279.298 356.036 278.929 355.706 278.57C354.176 276.867 353.037 274.85 352.368 272.66C352.338 272.562 352.318 272.462 352.309 272.36C352.281 272.242 352.262 272.122 352.251 272.001C352.067 270.496 351.873 268.779 351.679 266.916C351.679 266.547 351.601 266.159 351.552 265.77L351.494 265.305C351.329 263.752 351.145 262.102 350.931 260.404C350.718 258.706 350.485 256.784 350.213 254.931C350.116 254.29 350.029 253.64 349.932 252.99C349.825 252.272 349.709 251.554 349.592 250.826L349.253 248.943C349.253 248.837 349.204 248.739 349.194 248.652L348.787 246.498C348.76 246.419 348.744 246.338 348.738 246.255C348.602 245.624 348.476 245.003 348.331 244.373C348.02 242.975 347.68 241.597 347.36 240.248C353.911 233.95 369.03 237.9 361.713 223.295C361.713 223.295 365.4 210.796 355.24 197.249C362.188 202.848 365.75 212.698 364.43 223.45C364.43 223.45 370.563 244.47 373.795 249.254C377.026 254.038 390.389 226.556 389.525 223.353C389.222 221.917 388.992 220.466 388.836 219.006C388.778 218.53 388.72 218.035 388.652 217.492C388.584 216.948 388.526 216.405 388.467 215.832C388.467 215.561 388.4 215.269 388.361 214.988C388.361 214.872 388.361 214.755 388.361 214.648C388.244 213.542 388.118 212.387 387.982 211.184C387.982 210.844 387.914 210.524 387.875 210.214C387.817 209.641 387.759 209.049 387.701 208.467C387.695 208.37 387.695 208.273 387.701 208.176C387.701 207.846 387.623 207.506 387.594 207.205C387.516 206.526 387.449 205.837 387.381 205.148C387.313 204.459 387.264 203.964 387.206 203.372C387.089 202.256 386.983 201.14 386.876 200.063C386.798 199.257 386.73 198.452 386.653 197.685C386.653 197.511 386.653 197.336 386.604 197.171C386.866 198.442 391.786 221.868 394.601 227.322C397.425 232.912 385.158 262.481 377.628 257.629Z" fill="#6733E1" fill-opacity="0.25"/>
<path opacity="0.4" d="M467.286 280.404C465.121 292.69 459.6 309.517 459.6 309.517C459.6 309.517 462.113 318.494 461.628 326.5C461.492 328.654 462.831 334.098 464.83 340.891C464.248 339.397 458.037 323.365 458.164 317.776C458.29 311.904 456.621 310.284 453.311 303.074C450.002 295.863 445.053 296.659 445.053 296.659C445.053 296.659 443.112 314.641 438.609 302.821C434.107 291.001 433.224 277.251 444.607 229.506C444.607 229.506 446.324 235.493 444.888 253.281C443.452 271.069 447.702 276.455 447.702 276.455C454.091 265.32 459.168 253.483 462.831 241.18C462.831 241.18 461.356 261.937 460.046 271.389C458.736 280.841 464.714 260.433 468.887 247.827C472.768 235.998 472.953 231.495 471.458 223.072C472.565 229.001 473.399 234.717 472.972 238.802C472.138 247.196 469.45 268.129 467.286 280.404Z" fill="#6733E1" fill-opacity="0.25"/>
<path opacity="0.4" d="M389.428 320.425C392.786 325.762 401.005 332.817 405.925 352.332C410.845 371.848 407.74 393.207 407.74 393.207L389.428 320.425Z" fill="#6733E1" fill-opacity="0.25"/>
<path opacity="0.2" d="M363.333 209.612C363.333 209.612 346.147 218.346 344.789 232.902C339.82 221.81 346.283 225.818 342.392 197.278C342.392 197.278 345.254 190.659 353.416 195.948C354.046 196.36 354.655 196.803 355.24 197.278C356.894 198.615 358.354 200.177 359.578 201.916L363.333 209.612Z" fill="#344054" fill-opacity="0.75"/>
<path d="M411.932 399.505C411.932 399.505 399.938 335.796 392.786 325.752C385.634 315.709 386.963 311.584 383.47 304.82C379.976 298.057 353.455 281.598 352.28 271.981C351.106 262.364 349.757 243.965 344.789 232.863C339.82 221.762 346.283 225.779 342.382 197.239C342.382 197.239 345.293 190.621 353.416 195.909C361.538 201.198 365.866 211.776 364.44 223.489C364.44 223.489 370.573 244.489 373.814 249.283C377.055 254.077 390.389 226.585 389.525 223.373C388.662 220.16 386.1 192.843 385.702 187.855C385.702 187.855 375.998 173.463 375.027 166.69C374.057 159.916 374.115 152.784 378.181 149.892C387.808 143.041 384.974 154.084 389.302 158.626C393.63 163.167 400.219 170.678 403.955 173.027C407.692 175.375 410.952 185.186 410.952 185.186C410.952 185.186 405.469 165.06 405.363 161.168C405.256 157.277 402.267 136.752 407.303 129.396C412.34 122.041 419.065 127.737 419.686 129.193C420.307 130.648 420.492 150.542 422.277 156.073L431.467 184.672C431.467 184.672 431.787 162.236 433.466 152.192C435.145 142.148 439.502 134.297 443.772 133.851C448.042 133.404 451.992 138.111 451.992 138.111C451.992 138.111 450.303 154.123 450.779 157.82C451.254 161.518 450.09 174.861 452.118 182.081C452.118 182.081 451.885 162.954 454.854 160.508C457.824 158.063 460.376 156.889 462.045 158.567C463.714 160.246 464.073 171.542 465.772 178.354C467.47 185.167 467.256 194.425 468.372 205.051C469.488 215.677 473.884 230.427 473.011 238.851C472.138 247.274 469.45 268.206 467.276 280.492C465.102 292.777 459.609 309.605 459.609 309.605C459.609 309.605 462.113 318.581 461.628 326.587C461.143 334.593 480.823 387.889 480.823 387.889" stroke="#344054" stroke-opacity="0.75" stroke-linecap="round" stroke-linejoin="round"/>
<path d="M431.467 184.652C433.476 189.369 438.435 209.282 440.201 212.038C441.101 213.566 442.412 214.81 443.986 215.628" stroke="#344054" stroke-opacity="0.75" stroke-linecap="round" stroke-linejoin="round"/>
<path d="M452.118 182.032C452.118 182.032 451.691 186.118 453.894 199.122C456.096 212.125 457.174 217.666 458.406 220.568" stroke="#344054" stroke-opacity="0.75" stroke-linecap="round" stroke-linejoin="round"/>
<path d="M410.952 185.186C413.64 193.115 415.164 205.749 416.697 209.554C418.23 213.358 419.608 214.144 419.608 214.144" stroke="#344054" stroke-opacity="0.75" stroke-linecap="round" stroke-linejoin="round"/>
<path d="M415.309 204.187C416.928 205.417 418.21 207.036 419.036 208.894" stroke="#344054" stroke-opacity="0.75" stroke-linecap="round" stroke-linejoin="round"/>
<path d="M373.814 249.293C373.814 249.293 375.279 259.802 381.869 258.997" stroke="#344054" stroke-opacity="0.75" stroke-linecap="round" stroke-linejoin="round"/>
<path d="M389.525 223.382C389.525 223.382 391.233 235.881 388.438 241.18" stroke="#344054" stroke-opacity="0.75" stroke-linecap="round" stroke-linejoin="round"/>
<path d="M442.161 223.499C442.161 223.499 446.586 226.206 443.626 234.173C440.667 242.141 435.514 274.184 435.514 274.184" stroke="#344054" stroke-opacity="0.75" stroke-linecap="round" stroke-linejoin="round"/>
<path d="M461.424 231.883C463.278 239.064 463.443 239.249 460.454 248.07C457.465 256.891 452.584 278.502 452.584 278.502" stroke="#344054" stroke-opacity="0.75" stroke-linecap="round" stroke-linejoin="round"/>
<path d="M459.609 309.498C459.609 309.498 456.698 303.675 459.105 298.823" stroke="#344054" stroke-opacity="0.75" stroke-linecap="round" stroke-linejoin="round"/>
<path d="M392.786 325.762C392.786 325.762 400.103 336.039 403.286 347.539" stroke="#344054" stroke-opacity="0.75" stroke-linecap="round" stroke-linejoin="round"/>
<path d="M446.625 145.622L448.605 143.662L449.498 143.409L449.439 144.38L447.625 146.699L446.625 145.622Z" fill="#344054" fill-opacity="0.75" stroke="#344054" stroke-opacity="0.75" stroke-linecap="round" stroke-linejoin="round"/>
<path d="M448.236 146.709L445.014 154.006L358.452 269.429L348.816 263.276L361.868 246.857L439.619 149.329L446.48 144.972C446.9 145.08 447.284 145.298 447.592 145.603C447.901 145.908 448.123 146.29 448.236 146.709Z" fill="#7D68CA"/>
<mask id="mask3_470_14058" style="mask-type:luminance" maskUnits="userSpaceOnUse" x="348" y="144" width="101" height="126">
<path d="M448.236 146.709L445.014 154.006L358.452 269.429L348.816 263.276L361.868 246.857L439.619 149.329L446.48 144.972C446.9 145.08 447.284 145.298 447.592 145.603C447.901 145.908 448.123 146.29 448.236 146.709Z" fill="white"/>
</mask>
<g mask="url(#mask3_470_14058)">
<path opacity="0.3" d="M448.236 146.709L445.014 154.006L358.452 269.429L348.816 263.276L361.868 246.857C367.885 246.236 368.894 249.768 368.894 249.768L443.471 152.434C442.734 149.814 439.59 149.309 439.59 149.309L446.45 144.952C446.878 145.058 447.27 145.277 447.584 145.586C447.898 145.895 448.123 146.283 448.236 146.709Z" fill="#344054" fill-opacity="0.75"/>
</g>
<path d="M448.236 146.709L445.014 154.006L358.452 269.429L348.816 263.276L361.868 246.857L439.619 149.329L446.48 144.972C446.9 145.08 447.284 145.298 447.592 145.603C447.901 145.908 448.123 146.29 448.236 146.709Z" stroke="#344054" stroke-opacity="0.75" stroke-linecap="round" stroke-linejoin="round"/>
<path d="M386.682 235.25C386.682 235.25 376.978 254.426 367.72 267.993L361.082 269.71C361.082 269.71 345.846 284.849 336.55 292.409C334.862 291.36 333.332 290.076 332.008 288.595C332.008 288.595 345.206 263.247 359.811 247.206C361.522 247.813 363.134 248.67 364.595 249.749C366.49 251.093 368.177 252.708 369.602 254.543L385.876 234.067L386.682 235.25Z" fill="#7D68CA"/>
<mask id="mask4_470_14058" style="mask-type:luminance" maskUnits="userSpaceOnUse" x="332" y="234" width="55" height="59">
<path d="M386.682 235.25C386.682 235.25 376.978 254.426 367.72 267.993L361.082 269.71C361.082 269.71 345.846 284.849 336.55 292.409C334.862 291.36 333.332 290.076 332.008 288.595C332.008 288.595 345.206 263.247 359.811 247.206C361.522 247.813 363.134 248.67 364.595 249.749C366.49 251.093 368.177 252.708 369.602 254.543L385.876 234.067L386.682 235.25Z" fill="white"/>
</mask>
<g mask="url(#mask4_470_14058)">
<path opacity="0.3" d="M386.682 235.25C386.682 235.25 376.978 254.426 367.72 267.993L361.082 269.71C361.082 269.71 345.846 284.849 336.55 292.409L336.802 288.294C346.885 272.893 359.694 256.095 364.595 249.749C366.49 251.093 368.177 252.708 369.602 254.543L360.558 266.615L365.74 265.644L385.876 234.028L386.682 235.25Z" fill="#344054" fill-opacity="0.75"/>
</g>
<path d="M386.682 235.25C386.682 235.25 376.978 254.426 367.72 267.993L361.082 269.71C361.082 269.71 345.846 284.849 336.55 292.409C334.862 291.36 333.332 290.076 332.008 288.595C332.008 288.595 345.206 263.247 359.811 247.206C361.522 247.813 363.134 248.67 364.595 249.749C366.49 251.093 368.177 252.708 369.602 254.543L385.876 234.067L386.682 235.25Z" stroke="#344054" stroke-opacity="0.75" stroke-linecap="round" stroke-linejoin="round"/>
<path d="M419.589 214.124L392.553 240.326L388.235 244.518C391.194 236.91 389.758 225.11 389.574 223.722C389.574 223.644 389.574 223.596 389.574 223.596C389.574 223.596 389.574 223.44 389.574 223.392C389.27 221.955 389.041 220.504 388.885 219.044C388.827 218.569 388.768 218.074 388.7 217.531C388.632 216.987 388.574 216.444 388.516 215.871C388.516 215.599 388.448 215.308 388.409 215.027C388.409 214.91 388.409 214.794 388.409 214.687C388.293 213.591 388.157 212.426 388.031 211.223C388.031 210.883 387.963 210.563 387.924 210.252C387.866 209.68 387.808 209.088 387.749 208.506C387.744 208.409 387.744 208.311 387.749 208.214C387.749 207.884 387.672 207.545 387.643 207.244C387.565 206.565 387.497 205.876 387.429 205.187C387.361 204.498 387.313 204.003 387.254 203.411C387.138 202.295 387.031 201.179 386.925 200.102C386.847 199.296 386.769 198.5 386.701 197.724C386.701 197.549 386.701 197.375 386.653 197.21C386.245 192.94 385.925 189.446 385.809 187.933C385.809 187.933 376.104 173.551 375.134 166.777C374.163 160.004 374.222 152.871 378.288 149.969C387.914 143.118 385.081 154.162 389.409 158.703C393.737 163.245 400.326 170.766 404.072 173.104C407.818 175.443 410.952 185.186 410.952 185.186C413.64 193.105 415.164 205.74 416.697 209.544C418.23 213.348 419.589 214.124 419.589 214.124Z" fill="white"/>
<path d="M415.309 204.187C416.928 205.417 418.21 207.036 419.036 208.894" stroke="#344054" stroke-opacity="0.75" stroke-linecap="round" stroke-linejoin="round"/>
<path opacity="0.4" d="M389.263 158.664C393.553 163.245 400.142 170.678 403.888 173.046C403.364 172.784 396.464 169.426 392.611 173.163C388.603 177.044 385.702 187.865 385.702 187.865C385.702 187.865 375.997 173.483 375.027 166.709C374.057 159.936 374.115 152.803 378.181 149.902C387.769 143.05 384.955 154.133 389.263 158.664Z" fill="#6733E1" fill-opacity="0.25"/>
<path opacity="0.4" d="M392.553 240.345L388.235 244.538C391.194 236.929 389.758 225.129 389.574 223.741C389.586 223.632 389.586 223.521 389.574 223.411C389.27 221.975 389.041 220.524 388.885 219.064C388.827 218.588 388.768 218.093 388.7 217.55C388.632 217.007 388.574 216.463 388.516 215.891C388.516 215.619 388.448 215.328 388.409 215.046C388.409 214.93 388.409 214.813 388.409 214.707C388.293 213.6 388.167 212.446 388.031 211.242C388.031 210.903 387.963 210.582 387.924 210.272C387.866 209.699 387.808 209.107 387.749 208.525C387.744 208.428 387.744 208.331 387.749 208.234C387.749 207.904 387.672 207.564 387.643 207.263C387.565 206.584 387.497 205.895 387.429 205.206C387.361 204.517 387.313 204.022 387.254 203.43C387.138 202.314 387.031 201.198 386.924 200.121C386.847 199.316 386.779 198.51 386.701 197.744C386.701 197.569 386.701 197.394 386.653 197.229C386.915 198.501 391.835 221.927 394.649 227.38C395.6 229.36 394.61 234.678 392.553 240.345Z" fill="#7D68CA"/>
<path d="M419.599 214.124C419.599 214.124 418.23 213.338 416.687 209.534C415.144 205.73 413.631 193.095 410.943 185.167C410.943 185.167 407.653 175.463 403.907 173.075C400.161 170.688 393.562 163.255 389.254 158.674C384.945 154.094 387.759 143.05 378.132 149.94C374.066 152.852 373.979 159.975 374.979 166.738C375.978 173.502 385.653 187.903 385.653 187.903C386.051 192.891 388.613 220.219 389.477 223.421" stroke="#344054" stroke-opacity="0.75" stroke-linecap="round" stroke-linejoin="round"/>
<path d="M389.525 223.382C389.525 223.382 391.233 235.881 388.438 241.18" stroke="#344054" stroke-opacity="0.75" stroke-linecap="round" stroke-linejoin="round"/>
<path opacity="0.2" d="M223.553 238.666C223.553 238.666 229.696 267.197 216.391 287.945C203.087 308.692 192.839 314.233 188.249 320.425C183.659 326.616 165.619 361.231 165.619 361.231L144.561 298.862L165.619 221.703L223.553 238.666Z" fill="#344054" fill-opacity="0.5"/>
<path d="M347.671 216.861L217.09 271.816L203.63 277.483L178.263 217.21L119.359 77.2457L263.399 16.6232L347.671 216.861Z" fill="white"/>
<mask id="mask5_470_14058" style="mask-type:luminance" maskUnits="userSpaceOnUse" x="119" y="16" width="229" height="262">
<path d="M347.671 216.861L217.09 271.816L203.63 277.483L178.263 217.21L119.359 77.2457L263.399 16.6232L347.671 216.861Z" fill="white"/>
</mask>
<g mask="url(#mask5_470_14058)">
<path d="M226.183 42.6792L164.008 68.8807C163.447 69.1162 163.002 69.5649 162.772 70.1282C162.542 70.6914 162.545 71.3231 162.78 71.8841C163.016 72.4452 163.465 72.8897 164.028 73.12C164.591 73.3502 165.223 73.3472 165.784 73.1117L227.949 46.9005C228.232 46.7876 228.489 46.6195 228.706 46.4061C228.922 46.1927 229.094 45.9382 229.212 45.6576C229.329 45.377 229.389 45.0758 229.389 44.7716C229.389 44.4674 229.328 44.1664 229.21 43.886C229.092 43.6056 228.919 43.3516 228.702 43.1386C228.485 42.9257 228.227 42.7582 227.945 42.6458C227.662 42.5335 227.36 42.4786 227.056 42.4843C226.752 42.49 226.452 42.5563 226.173 42.6792H226.183Z" fill="#344054" fill-opacity="0.5"/>
<path d="M214.295 57.9051L183.242 70.9865C182.961 71.1049 182.739 71.3298 182.625 71.6119C182.51 71.894 182.512 72.2101 182.63 72.4906C182.749 72.7712 182.974 72.9932 183.256 73.1078C183.538 73.2225 183.854 73.2204 184.135 73.102L215.188 60.011C215.334 59.9577 215.467 59.8753 215.58 59.7688C215.693 59.6623 215.784 59.534 215.845 59.3916C215.907 59.2492 215.94 59.0957 215.94 58.9404C215.941 58.7851 215.91 58.6314 215.849 58.4884C215.789 58.3455 215.7 58.2163 215.588 58.1089C215.476 58.0014 215.343 57.9179 215.198 57.8633C215.052 57.8088 214.897 57.7843 214.742 57.7915C214.587 57.7987 214.435 57.8374 214.295 57.9051Z" fill="#344054" fill-opacity="0.5"/>
<path d="M265.447 137.635C265.447 137.635 266.757 147.932 262.923 149.543C259.42 151.018 254.811 145.496 250.783 147.184C246.756 148.873 249.929 163.488 246.048 165.118C242.166 166.748 237.489 160.751 234.131 162.207C230.773 163.662 232.811 171.134 229.356 172.59C226.503 173.784 222.428 167.816 219.167 166.506C218.867 166.359 218.54 166.275 218.206 166.259C217.873 166.242 217.539 166.293 217.226 166.409C213.81 167.845 215.508 183.537 212.558 184.769C211.733 185.124 210.834 185.274 209.938 185.206C208.841 184.999 207.726 184.891 206.61 184.885C206.182 184.929 205.763 185.037 205.367 185.206C202.854 186.263 203.194 194.522 200.894 195.492C198.594 196.463 196.323 195.259 193.868 196.288C191.413 197.317 191.452 201.616 187.783 203.159L189.336 206.836L278.722 169.223" fill="#E3EDFF"/>
<path d="M265.447 137.635C265.447 137.635 266.757 147.932 262.923 149.543C259.42 151.018 254.811 145.496 250.783 147.184C246.756 148.873 249.929 163.488 246.048 165.118C242.166 166.748 237.489 160.751 234.131 162.207C230.773 163.662 232.811 171.134 229.356 172.59C226.503 173.784 222.428 167.816 219.167 166.506C218.867 166.359 218.54 166.275 218.206 166.259C217.873 166.242 217.539 166.293 217.226 166.409C213.81 167.845 215.508 183.537 212.558 184.769C211.733 185.124 210.834 185.274 209.938 185.206C208.841 184.999 207.726 184.891 206.61 184.885C206.182 184.929 205.763 185.037 205.367 185.206C202.854 186.263 203.194 194.522 200.894 195.492C198.594 196.463 196.323 195.259 193.868 196.288C191.413 197.317 191.452 201.616 187.783 203.159L189.336 206.836L278.722 169.223" stroke="#344054" stroke-opacity="0.5" stroke-miterlimit="10"/>
<path d="M171.238 163.759L189.336 206.759L282.924 167.379" stroke="#344054" stroke-opacity="0.5" stroke-linecap="round" stroke-linejoin="round"/>
<path d="M272.637 154.695C272.637 154.695 272.191 154.152 271.531 153.502C270.376 152.386 268.542 150.969 267.145 151.561C265.747 152.153 265.66 154.395 265.689 156.821C265.689 159.732 265.98 162.934 264.496 163.555C263.234 164.089 262.108 163.293 260.944 162.42C259.614 161.45 258.256 160.343 256.616 161.032C253.86 162.197 254.675 165.787 253.704 168.864C253.441 169.749 252.975 170.56 252.343 171.234C251.711 171.908 250.932 172.425 250.065 172.745C247.688 173.716 245.271 172.745 242.991 171.212C239.109 168.592 235.693 164.342 233.461 165.283C229.9 166.787 233.82 176.414 229.997 178.025C227.862 178.927 223.437 172.202 219.138 166.379C215.741 161.789 212.422 157.791 210.404 158.616C205.794 160.557 213.393 183.585 210.045 184.992L209.938 185.041C209.399 185.263 208.814 185.35 208.234 185.294C207.654 185.238 207.096 185.041 206.61 184.72C205.406 184.041 204.416 183.061 203.087 183.624C200.612 184.672 202.058 193.697 199.341 194.842C196.624 195.987 194.984 194.328 191.917 195.618C189.326 196.715 187.783 202.994 187.783 202.994L189.336 206.672L278.722 169.058" fill="#344054" fill-opacity="0.5"/>
<path d="M272.637 154.695C272.637 154.695 272.191 154.152 271.531 153.502C270.376 152.386 268.542 150.969 267.145 151.561C265.747 152.153 265.66 154.395 265.689 156.821C265.689 159.732 265.98 162.934 264.496 163.555C263.234 164.089 262.108 163.293 260.944 162.42C259.614 161.45 258.256 160.343 256.616 161.032C253.86 162.197 254.675 165.787 253.704 168.864C253.441 169.749 252.975 170.56 252.343 171.234C251.711 171.908 250.932 172.425 250.065 172.745C247.688 173.716 245.271 172.745 242.991 171.212C239.109 168.592 235.693 164.342 233.461 165.283C229.9 166.787 233.82 176.414 229.997 178.025C227.862 178.927 223.437 172.202 219.138 166.379C215.741 161.789 212.422 157.791 210.404 158.616C205.794 160.557 213.393 183.585 210.045 184.992L209.938 185.041C209.399 185.263 208.814 185.35 208.234 185.294C207.654 185.238 207.096 185.041 206.61 184.72C205.406 184.041 204.416 183.061 203.087 183.624C200.612 184.672 202.058 193.697 199.341 194.842C196.624 195.987 194.984 194.328 191.917 195.618C189.326 196.715 187.783 202.994 187.783 202.994L189.336 206.672L278.722 169.058" stroke="#344054" stroke-opacity="0.5" stroke-linecap="round" stroke-linejoin="round"/>
<path d="M253.714 185.39L222.66 198.471C222.38 198.59 222.158 198.815 222.043 199.097C221.929 199.379 221.931 199.695 222.049 199.976C222.167 200.256 222.392 200.478 222.675 200.593C222.957 200.707 223.273 200.705 223.553 200.587L254.607 187.506C254.887 187.387 255.109 187.162 255.224 186.88C255.339 186.598 255.337 186.282 255.218 186.001C255.1 185.721 254.875 185.499 254.593 185.384C254.311 185.27 253.995 185.272 253.714 185.39Z" fill="#344054" fill-opacity="0.5"/>
<path d="M278.334 133.891L275.337 135.151C275.026 135.282 274.88 135.641 275.011 135.952L276.272 138.949C276.403 139.26 276.761 139.406 277.072 139.275L280.069 138.014C280.38 137.883 280.526 137.525 280.395 137.213L279.135 134.217C279.004 133.906 278.645 133.76 278.334 133.891Z" fill="#E3EDFF" stroke="#344054" stroke-opacity="0.5" stroke-miterlimit="10"/>
<path d="M294.588 128.805L282.167 134.035C282.039 134.084 281.898 134.082 281.771 134.03C281.645 133.978 281.543 133.879 281.488 133.754C281.436 133.629 281.435 133.488 281.486 133.363C281.537 133.238 281.635 133.138 281.759 133.084L294.191 127.853C294.315 127.802 294.456 127.801 294.581 127.852C294.706 127.903 294.807 128.001 294.86 128.125C294.887 128.188 294.902 128.255 294.903 128.323C294.904 128.391 294.891 128.458 294.866 128.522C294.841 128.585 294.803 128.642 294.756 128.691C294.708 128.739 294.651 128.778 294.588 128.805Z" fill="#344054" fill-opacity="0.5"/>
<path d="M291.667 132.463L283.031 136.092C282.906 136.144 282.765 136.145 282.64 136.094C282.515 136.043 282.415 135.945 282.361 135.821C282.334 135.758 282.319 135.691 282.318 135.623C282.317 135.555 282.33 135.487 282.355 135.424C282.38 135.361 282.418 135.304 282.466 135.255C282.513 135.206 282.57 135.168 282.633 135.141L291.27 131.512C291.394 131.46 291.535 131.46 291.66 131.51C291.785 131.561 291.886 131.659 291.939 131.784C291.991 131.91 291.992 132.052 291.941 132.179C291.891 132.305 291.792 132.408 291.667 132.463Z" fill="#344054" fill-opacity="0.5"/>
<path d="M282.224 143.129L279.227 144.39C278.916 144.521 278.77 144.879 278.901 145.19L280.162 148.187C280.293 148.498 280.651 148.644 280.962 148.513L283.959 147.252C284.27 147.121 284.416 146.763 284.285 146.452L283.024 143.455C282.893 143.144 282.535 142.998 282.224 143.129Z" fill="#344054" fill-opacity="0.5" stroke="#344054" stroke-opacity="0.5" stroke-linecap="round" stroke-linejoin="round"/>
<path d="M298.47 138.043L286.049 143.264C285.985 143.29 285.917 143.303 285.848 143.303C285.779 143.303 285.711 143.289 285.647 143.262C285.584 143.236 285.526 143.197 285.478 143.148C285.429 143.099 285.391 143.041 285.365 142.978C285.338 142.914 285.325 142.846 285.325 142.777C285.326 142.708 285.339 142.64 285.366 142.576C285.393 142.513 285.431 142.455 285.48 142.407C285.529 142.358 285.587 142.32 285.651 142.293L298.072 137.063C298.136 137.037 298.204 137.023 298.273 137.024C298.342 137.024 298.41 137.038 298.474 137.064C298.537 137.091 298.595 137.13 298.643 137.179C298.692 137.227 298.73 137.285 298.756 137.349C298.783 137.413 298.796 137.481 298.796 137.55C298.795 137.619 298.782 137.687 298.755 137.751C298.728 137.814 298.69 137.872 298.641 137.92C298.592 137.969 298.534 138.007 298.47 138.033V138.043Z" fill="#344054" fill-opacity="0.5"/>
<path d="M295.549 141.692L286.922 145.331C286.793 145.385 286.648 145.386 286.519 145.333C286.39 145.28 286.287 145.178 286.233 145.049C286.179 144.921 286.178 144.776 286.231 144.647C286.284 144.517 286.386 144.415 286.514 144.36L295.151 140.731C295.215 140.705 295.283 140.692 295.352 140.692C295.421 140.692 295.489 140.706 295.553 140.733C295.616 140.759 295.674 140.798 295.722 140.847C295.771 140.896 295.809 140.954 295.835 141.017C295.862 141.081 295.875 141.149 295.875 141.218C295.874 141.287 295.861 141.355 295.834 141.419C295.807 141.482 295.769 141.54 295.72 141.588C295.671 141.637 295.613 141.675 295.549 141.702V141.692Z" fill="#344054" fill-opacity="0.5"/>
<path d="M314.812 176.122L213.888 218.588C213.607 218.707 213.385 218.932 213.271 219.214C213.156 219.496 213.158 219.812 213.276 220.092C213.395 220.373 213.62 220.595 213.902 220.71C214.184 220.824 214.5 220.822 214.781 220.704L315.705 178.228C315.851 178.175 315.984 178.093 316.097 177.986C316.21 177.88 316.3 177.751 316.362 177.609C316.424 177.466 316.456 177.313 316.457 177.158C316.458 177.002 316.427 176.849 316.366 176.706C316.306 176.563 316.217 176.434 316.105 176.326C315.992 176.219 315.86 176.135 315.714 176.081C315.569 176.026 315.414 176.002 315.259 176.009C315.104 176.016 314.952 176.055 314.812 176.122Z" fill="#344054" fill-opacity="0.5"/>
<path d="M318.015 183.721L200.661 233.106C200.515 233.159 200.382 233.242 200.269 233.348C200.156 233.455 200.065 233.583 200.004 233.725C199.942 233.868 199.909 234.021 199.909 234.176C199.908 234.332 199.939 234.486 200 234.628C200.06 234.771 200.149 234.901 200.261 235.008C200.373 235.115 200.506 235.199 200.651 235.254C200.797 235.308 200.952 235.333 201.107 235.325C201.262 235.318 201.414 235.279 201.554 235.212L318.898 185.827C319.047 185.777 319.185 185.697 319.302 185.591C319.42 185.486 319.514 185.357 319.579 185.214C319.645 185.07 319.68 184.915 319.682 184.757C319.684 184.599 319.654 184.443 319.593 184.297C319.532 184.152 319.441 184.02 319.327 183.911C319.213 183.803 319.078 183.718 318.93 183.664C318.781 183.61 318.624 183.587 318.466 183.597C318.309 183.607 318.155 183.649 318.015 183.721Z" fill="#344054" fill-opacity="0.5"/>
<path d="M321.207 191.319L203.863 240.704C203.717 240.758 203.584 240.84 203.471 240.946C203.358 241.053 203.268 241.181 203.206 241.324C203.144 241.466 203.112 241.62 203.111 241.775C203.11 241.93 203.141 242.084 203.202 242.227C203.263 242.37 203.352 242.499 203.464 242.606C203.576 242.714 203.708 242.797 203.854 242.852C203.999 242.907 204.154 242.931 204.309 242.924C204.464 242.917 204.616 242.878 204.756 242.81L322.081 193.425C322.226 193.372 322.36 193.289 322.473 193.183C322.586 193.077 322.676 192.948 322.738 192.806C322.8 192.663 322.832 192.51 322.833 192.355C322.833 192.199 322.802 192.046 322.742 191.903C322.681 191.76 322.592 191.631 322.48 191.523C322.368 191.416 322.235 191.332 322.09 191.277C321.945 191.223 321.79 191.199 321.635 191.206C321.479 191.213 321.327 191.252 321.188 191.319H321.207Z" fill="#344054" fill-opacity="0.5"/>
<path d="M324.41 198.918L207.066 248.264C206.916 248.314 206.778 248.394 206.661 248.499C206.544 248.605 206.449 248.733 206.384 248.877C206.319 249.021 206.284 249.176 206.281 249.334C206.279 249.492 206.309 249.648 206.37 249.794C206.431 249.939 206.522 250.07 206.636 250.179C206.75 250.288 206.886 250.372 207.034 250.426C207.182 250.481 207.34 250.503 207.497 250.494C207.655 250.484 207.808 250.442 207.949 250.37L325.293 200.985C325.442 200.935 325.58 200.855 325.698 200.75C325.815 200.644 325.909 200.515 325.974 200.372C326.04 200.228 326.075 200.073 326.077 199.915C326.079 199.757 326.049 199.601 325.988 199.455C325.927 199.31 325.837 199.178 325.722 199.069C325.608 198.961 325.473 198.876 325.325 198.822C325.176 198.768 325.019 198.745 324.861 198.755C324.704 198.765 324.55 198.807 324.41 198.879V198.918Z" fill="#344054" fill-opacity="0.5"/>
<path d="M278.314 227.254L210.258 255.901C210.113 255.954 209.979 256.037 209.866 256.143C209.753 256.25 209.663 256.378 209.601 256.521C209.539 256.663 209.507 256.816 209.506 256.972C209.506 257.127 209.536 257.281 209.597 257.424C209.658 257.567 209.747 257.696 209.859 257.803C209.971 257.911 210.104 257.994 210.249 258.049C210.394 258.103 210.549 258.128 210.704 258.121C210.859 258.113 211.011 258.075 211.151 258.007L279.207 229.37C279.346 229.311 279.472 229.226 279.578 229.118C279.684 229.011 279.768 228.884 279.824 228.744C279.881 228.605 279.91 228.455 279.909 228.304C279.908 228.154 279.877 228.004 279.819 227.866C279.76 227.727 279.675 227.601 279.567 227.495C279.46 227.389 279.333 227.305 279.193 227.248C279.053 227.192 278.904 227.163 278.753 227.164C278.602 227.165 278.453 227.196 278.314 227.254Z" fill="#344054" fill-opacity="0.5"/>
<path d="M240.837 79.1187C240.837 79.1187 242.147 89.4246 238.313 91.0355C234.81 92.5105 230.191 86.9888 226.173 88.6774C222.156 90.3659 225.319 104.971 221.438 106.611C217.556 108.251 212.869 102.244 209.521 103.651C206.173 105.058 208.201 112.579 204.746 114.025C201.893 115.228 197.818 109.26 194.557 107.95C194.257 107.804 193.93 107.72 193.596 107.703C193.263 107.686 192.929 107.737 192.616 107.853C189.2 109.289 190.898 124.971 187.948 126.213C187.124 126.571 186.223 126.718 185.328 126.64C184.229 126.442 183.116 126.338 182 126.33C181.572 126.372 181.153 126.48 180.757 126.65C178.244 127.708 178.584 135.966 176.284 136.927C173.984 137.888 171.713 136.704 169.258 137.732C166.803 138.761 166.842 143.06 163.173 144.603L164.726 148.281L254.151 110.667" fill="#E3EDFF"/>
<path d="M240.837 79.1187C240.837 79.1187 242.147 89.4246 238.313 91.0355C234.81 92.5105 230.191 86.9888 226.173 88.6774C222.156 90.3659 225.319 104.971 221.438 106.611C217.556 108.251 212.869 102.244 209.521 103.651C206.173 105.058 208.201 112.579 204.746 114.025C201.893 115.228 197.818 109.26 194.557 107.95C194.257 107.804 193.93 107.72 193.596 107.703C193.263 107.686 192.929 107.737 192.616 107.853C189.2 109.289 190.898 124.971 187.948 126.213C187.124 126.571 186.223 126.718 185.328 126.64C184.229 126.442 183.116 126.338 182 126.33C181.572 126.372 181.153 126.48 180.757 126.65C178.244 127.708 178.584 135.966 176.284 136.927C173.984 137.888 171.713 136.704 169.258 137.732C166.803 138.761 166.842 143.06 163.173 144.603L164.726 148.281L254.151 110.667" stroke="#344054" stroke-opacity="0.5" stroke-miterlimit="10"/>
<path d="M246.611 92.8502C246.611 92.8502 247.426 97.8382 245.456 98.6728C243.816 99.3618 242.806 98.401 241.079 98.3428C240.236 98.3172 239.397 98.4796 238.624 98.8183C237.042 99.4782 236.683 101.613 236.382 103.903C236.033 106.727 235.858 109.794 233.791 110.696C232.345 111.308 230.783 110.949 229.172 110.386C226.6 109.493 223.903 108.076 221.292 109.173C220.031 109.707 219.147 111.114 218.458 112.773C216.838 116.781 216.333 122.584 214.577 123.322C212.083 124.379 207.512 120.09 205.3 121.022C203.087 121.953 203.989 125.796 202.194 126.553C200.399 127.31 199.37 125.078 196.207 126.408C193.043 127.737 194.586 132.414 190.122 134.297C185.658 136.18 183.698 132.715 179.389 134.53C175.08 136.345 175.857 139.625 172.81 140.906C169.762 142.187 168.482 139.935 166.308 140.906C164.134 141.876 163.61 145.263 163.581 145.476L164.775 148.31L254.151 110.667" fill="#7D68CA"/>
<path d="M246.611 92.8502C246.611 92.8502 247.426 97.8382 245.456 98.6728C243.816 99.3618 242.806 98.401 241.079 98.3428C240.236 98.3172 239.397 98.4796 238.624 98.8183C237.042 99.4782 236.683 101.613 236.382 103.903C236.033 106.727 235.858 109.794 233.791 110.696C232.345 111.308 230.783 110.949 229.172 110.386C226.6 109.493 223.903 108.076 221.292 109.173C220.031 109.707 219.147 111.114 218.458 112.773C216.838 116.781 216.333 122.584 214.577 123.322C212.083 124.379 207.512 120.09 205.3 121.022C203.087 121.953 203.989 125.796 202.194 126.553C200.399 127.31 199.37 125.078 196.207 126.408C193.043 127.737 194.586 132.414 190.122 134.297C185.658 136.18 183.698 132.715 179.389 134.53C175.08 136.345 175.857 139.625 172.81 140.906C169.762 142.187 168.482 139.935 166.308 140.906C164.134 141.876 163.61 145.263 163.581 145.476L164.775 148.31L254.151 110.667" stroke="#344054" stroke-opacity="0.5" stroke-miterlimit="10"/>
<path d="M146.628 105.281L164.726 148.281L258.314 108.891" stroke="#344054" stroke-opacity="0.5" stroke-linecap="round" stroke-linejoin="round"/>
<path d="M228.823 126.243L197.769 139.324C197.488 139.441 197.266 139.665 197.15 139.946C197.035 140.227 197.036 140.543 197.153 140.823C197.27 141.104 197.494 141.326 197.775 141.442C198.056 141.557 198.372 141.557 198.652 141.439L229.706 128.358C229.845 128.299 229.971 128.214 230.077 128.107C230.182 127.999 230.266 127.872 230.323 127.733C230.38 127.593 230.408 127.443 230.407 127.293C230.406 127.142 230.376 126.993 230.317 126.854C230.258 126.715 230.173 126.589 230.066 126.483C229.958 126.377 229.831 126.293 229.692 126.237C229.552 126.18 229.402 126.151 229.252 126.152C229.101 126.153 228.952 126.184 228.813 126.243H228.823Z" fill="#344054" fill-opacity="0.5"/>
<path d="M252.159 71.6785L249.163 72.9393C248.851 73.0702 248.705 73.4287 248.836 73.7399L250.097 76.7364C250.228 77.0476 250.586 77.1937 250.898 77.0628L253.894 75.8019C254.205 75.671 254.352 75.3125 254.221 75.0013L252.96 72.0048C252.829 71.6936 252.47 71.5475 252.159 71.6785Z" fill="#E3EDFF" stroke="#344054" stroke-opacity="0.5" stroke-miterlimit="10"/>
<path d="M268.406 66.5904L255.985 71.821C255.857 71.8702 255.715 71.8683 255.589 71.816C255.463 71.7636 255.361 71.6647 255.306 71.5396C255.254 71.4135 255.255 71.2722 255.308 71.1467C255.361 71.0211 255.461 70.9217 255.587 70.87L268.008 65.6394C268.135 65.5882 268.276 65.589 268.401 65.6417C268.527 65.6945 268.626 65.7949 268.678 65.9208C268.705 65.9825 268.719 66.049 268.72 66.1164C268.721 66.1837 268.709 66.2505 268.683 66.3129C268.658 66.3753 268.62 66.432 268.573 66.4797C268.525 66.5274 268.469 66.565 268.406 66.5904Z" fill="#344054" fill-opacity="0.5"/>
<path d="M265.485 70.2489L256.849 73.8783C256.72 73.9311 256.576 73.9305 256.447 73.8769C256.319 73.8232 256.217 73.7207 256.164 73.592C256.112 73.4633 256.112 73.319 256.166 73.1907C256.22 73.0624 256.322 72.9606 256.451 72.9079L265.087 69.2688C265.212 69.2169 265.353 69.2164 265.478 69.2672C265.603 69.3181 265.704 69.4163 265.757 69.5405C265.788 69.6046 265.805 69.6742 265.807 69.7451C265.81 69.816 265.798 69.8867 265.773 69.9529C265.748 70.0191 265.709 70.0795 265.66 70.1304C265.61 70.1813 265.551 70.2216 265.485 70.2489Z" fill="#344054" fill-opacity="0.5"/>
<path d="M256.049 80.9068L253.052 82.1677C252.741 82.2986 252.595 82.6571 252.726 82.9683L253.987 85.9648C254.118 86.276 254.476 86.4221 254.787 86.2912L257.784 85.0303C258.095 84.8994 258.241 84.5409 258.11 84.2297L256.85 81.2333C256.719 80.922 256.36 80.7759 256.049 80.9068Z" fill="#7D68CA" stroke="#344054" stroke-opacity="0.5" stroke-miterlimit="10"/>
<path d="M272.288 75.829L259.867 81.0596C259.74 81.1108 259.599 81.11 259.474 81.0572C259.348 81.0045 259.249 80.9041 259.197 80.7781C259.17 80.7164 259.156 80.65 259.155 80.5826C259.154 80.5153 259.166 80.4485 259.192 80.386C259.217 80.3236 259.255 80.2669 259.302 80.2193C259.35 80.1716 259.406 80.134 259.469 80.1085L271.89 74.8779C271.954 74.8518 272.022 74.8385 272.091 74.8387C272.16 74.839 272.228 74.8528 272.292 74.8794C272.355 74.906 272.413 74.9448 272.461 74.9937C272.51 75.0426 272.548 75.1005 272.574 75.1642C272.6 75.2279 272.614 75.2962 272.614 75.365C272.613 75.4339 272.599 75.502 272.573 75.5656C272.546 75.6291 272.507 75.6868 272.459 75.7353C272.41 75.7838 272.352 75.8222 272.288 75.8484V75.829Z" fill="#344054" fill-opacity="0.5"/>
<path d="M269.367 79.4874L260.74 83.1168C260.611 83.1709 260.466 83.1716 260.337 83.1188C260.208 83.066 260.105 82.9641 260.051 82.8354C259.997 82.7067 259.996 82.5618 260.049 82.4326C260.102 82.3034 260.204 82.2004 260.332 82.1464L268.969 78.517C269.033 78.4909 269.101 78.4775 269.17 78.4778C269.239 78.478 269.307 78.4919 269.371 78.5184C269.434 78.545 269.492 78.5838 269.54 78.6327C269.589 78.6816 269.627 78.7395 269.653 78.8033C269.679 78.867 269.693 78.9352 269.693 79.0041C269.692 79.0729 269.678 79.1411 269.652 79.2046C269.625 79.2681 269.586 79.3258 269.538 79.3743C269.489 79.4229 269.431 79.4613 269.367 79.4874Z" fill="#344054" fill-opacity="0.5"/>
<path opacity="0.2" d="M217.09 271.816L203.63 277.483L178.263 217.21C180.529 214.962 182.016 212.048 182.504 208.894C184.018 200.82 182.951 174.861 203.165 172.183C223.379 169.504 206.328 214.959 207.26 223.615C208.114 231.514 219.633 254.446 217.09 271.816Z" fill="#344054" fill-opacity="0.5"/>
</g>
<path d="M347.671 216.861L217.09 271.816L203.63 277.483L178.263 217.21L119.359 77.2457L263.399 16.6232L347.671 216.861Z" stroke="#344054" stroke-opacity="0.5" stroke-linecap="round" stroke-linejoin="round"/>
<path d="M208.958 226.915C211.229 219.151 220.079 194.289 218.915 183.294C218.82 182.379 218.611 181.479 218.294 180.615C215.188 172.406 202.495 173.201 197.614 180.004C192.267 187.486 187.909 200.956 187.521 209.117C187.178 213.211 185.846 217.161 183.64 220.626C182.877 221.907 182.018 223.126 181.068 224.275L152.13 155.617C149.206 158.052 146.653 160.899 144.551 164.07C143.369 165.838 142.605 167.853 142.319 169.96C141.727 176.734 134.061 204.595 130.907 216.24C130.839 216.492 130.771 216.735 130.713 216.968C127.646 228.244 135.739 270.128 133.42 282.297C131.101 294.466 129.674 294.184 129.335 302.831C129.092 309.139 120.067 328.314 109.926 348.004C104.103 359.29 97.9704 370.722 92.895 380.028L166.958 376.952C168.239 367.956 169.559 358.456 170.762 349.256C171.285 345.43 172.024 341.636 172.975 337.892C174.605 331.294 176.594 325.325 177.827 321.832C179.401 316.701 180.696 311.489 181.708 306.218C190.326 297.096 201.622 282.763 204.892 273.058V272.99C205.693 270.997 205.947 268.826 205.629 266.702C205.269 264.958 205.07 263.184 205.037 261.403C204.659 250.865 207.056 233.368 208.958 226.915Z" fill="white"/>
<path opacity="0.4" d="M183.659 220.694C181.359 225.304 178.593 229.777 176.866 234.94C175.139 240.103 173.208 240.84 168.025 244.887C162.843 248.934 159.059 242.267 159.059 242.267C159.059 242.267 165.92 235.144 163.639 231.175C161.359 227.206 152.819 217.336 153.323 211.892C153.828 206.448 148.151 194.24 148.151 194.24C148.151 194.24 161.087 186.642 158.573 177.743C157.205 172.891 150.432 167.719 144.59 164.041C146.692 160.87 149.245 158.023 152.169 155.588L181.126 224.314C182.061 223.173 182.908 221.963 183.659 220.694Z" fill="#6733E1" fill-opacity="0.25"/>
<path opacity="0.4" d="M136.729 262.82C136.904 263.403 141.116 277.309 137.564 283.102C134.012 288.896 130.363 296.581 132.1 304.452C133.478 310.74 121.833 333.448 109.965 348.024C120.077 328.334 129.102 309.158 129.373 302.85C129.713 294.204 131.14 294.466 133.459 282.316C135.778 270.166 127.636 228.263 130.751 216.987C130.81 216.754 130.878 216.512 130.945 216.259C133.207 229.04 138.466 254.494 139.912 262.675C141.688 273.117 136.884 263.257 136.729 262.82Z" fill="#6733E1" fill-opacity="0.25"/>
<path opacity="0.4" d="M163.358 346.762C171.965 309.702 200.933 281.288 204.853 273.058C201.583 282.763 190.297 297.096 181.67 306.218C180.657 311.489 179.362 316.701 177.788 321.832C176.575 325.326 174.586 331.294 172.936 337.893C164.561 347.82 163.358 346.762 163.358 346.762Z" fill="#6733E1" fill-opacity="0.25"/>
<path opacity="0.4" d="M208.958 226.915C207.017 233.368 204.659 250.865 205.028 261.374C203.504 254.775 200.574 246.391 200.088 234.717C199.263 214.92 210.482 222.062 206.6 212.271C202.718 202.479 191.539 215.017 197.031 194.376C201.039 179.305 212.461 179.441 218.323 180.615C218.64 181.479 218.849 182.379 218.944 183.294C220.079 194.289 211.229 219.151 208.958 226.915Z" fill="#6733E1" fill-opacity="0.25"/>
<path d="M104.162 359.601C113.439 342.628 122.474 325.17 128.966 306.344C129.742 303.636 128.704 300.104 129.49 297.397C138.282 272.952 128.306 247.497 129.946 222.451C131.334 212.581 134.488 202.654 137.7 192.688C139.184 185.497 139.738 177.442 142.115 170.203C144.561 164.749 146.967 158.412 152.178 155.646C162.077 178.325 171.936 201.111 181.136 224.372C185.299 221.965 185.988 216.609 186.667 212.096C188.899 201.295 191.16 191.397 195.246 182.304C199.399 174.997 209.977 171.882 216.469 177.85C218.331 179.715 219.395 182.231 219.439 184.866C218.177 197.404 214.237 210.097 210.268 221.82C208.706 227.235 207.114 231.767 206.445 237.143C206.513 238.928 206.551 239.812 206.629 241.597C204.329 250.612 206.445 258.55 205.921 267.498C203.912 283.636 190.995 294.874 181.66 306.858C179.35 315.874 177.05 324.889 173.897 333.943C170.015 347.529 168.773 360.921 167.443 373.973" stroke="#344054" stroke-opacity="0.5" stroke-linecap="round" stroke-linejoin="round"/>
<path d="M181.097 224.343C179.34 227.732 177.911 231.28 176.827 234.94C175.614 239.695 169.471 239.016 166.298 241.966" stroke="#344054" stroke-opacity="0.5" stroke-linecap="round" stroke-linejoin="round"/>
<path d="M157.923 215.968C157.923 215.968 166.279 218.879 171.15 222.713C176.022 226.546 179.612 227.439 179.612 227.439" stroke="#344054" stroke-opacity="0.5" stroke-linecap="round" stroke-linejoin="round"/>
<path d="M152.596 195.25C152.596 195.25 159.389 197.142 164.338 194.764C164.564 192.343 164.989 189.944 165.609 187.593" stroke="#344054" stroke-opacity="0.5" stroke-linecap="round" stroke-linejoin="round"/>
<path d="M165.949 195.744C165.949 195.744 166.017 196.715 169.452 196.715" stroke="#344054" stroke-opacity="0.5" stroke-linecap="round" stroke-linejoin="round"/>
<path d="M181.67 306.218C176.961 310.971 173.345 316.694 171.073 322.987" stroke="#344054" stroke-opacity="0.5" stroke-linecap="round" stroke-linejoin="round"/>
<path d="M130.286 219.073C129.975 224.896 136.807 245.547 138.874 255.814C140.941 266.081 141.727 273.34 141.727 273.34" stroke="#344054" stroke-opacity="0.5" stroke-linecap="round" stroke-linejoin="round"/>
<path fill-rule="evenodd" clip-rule="evenodd" d="M101.304 272.99H97.507V278.053L92.4435 278.053V281.851H97.507V286.914H101.304V281.851H106.368V278.053L101.304 278.053V272.99Z" fill="#7D68CA"/>
<path fill-rule="evenodd" clip-rule="evenodd" d="M508.304 133.99H504.507V139.053L499.444 139.053V142.851H504.507V147.914H508.304V142.851H513.368V139.053L508.304 139.053V133.99Z" fill="#7D68CA"/>
<path fill-rule="evenodd" clip-rule="evenodd" d="M300.507 72.585C301.905 72.585 303.038 71.4516 303.038 70.0534C303.038 68.6552 301.905 67.5218 300.507 67.5218C299.109 67.5218 297.975 68.6552 297.975 70.0534C297.975 71.4516 299.109 72.585 300.507 72.585ZM300.507 75.1167C303.303 75.1167 305.57 72.8498 305.57 70.0534C305.57 67.257 303.303 64.9901 300.507 64.9901C297.71 64.9901 295.444 67.257 295.444 70.0534C295.444 72.8498 297.71 75.1167 300.507 75.1167Z" fill="#7D68CA"/>
</g>
<defs>
<clipPath id="clip0_470_14058">
<rect width="600" height="399.505" fill="white"/>
</clipPath>
</defs>
</svg>
