<svg width="149" height="60" viewBox="0 0 149 60" fill="none" xmlns="http://www.w3.org/2000/svg">
<g clip-path="url(#clip0_719_21091)">
<path d="M27.8408 46.7912C26.8707 47.8352 25.5694 48.4405 24.4134 49.2223C21.5533 51.1529 18.6003 52.9404 15.8117 54.9639C14.3983 55.9888 13.0136 56.1366 11.4238 55.8315C8.24218 55.214 5.37199 53.5151 3.29991 51.023C1.22783 48.5308 0.0813904 45.3988 0.054966 42.1579C0.0382821 39.5099 0.102633 36.8619 0.0311304 34.2163C0.000146077 33.0961 0.348124 32.393 1.30864 31.7781C4.88376 29.4853 8.45888 27.2973 11.9959 24.9425C12.3605 24.7042 12.9874 24.38 12.8062 23.7865C12.6251 23.1931 11.9935 23.3098 11.5645 23.3098C8.20862 23.2884 4.85277 23.4219 1.49931 23.4767C0.417244 23.4934 -0.00461958 23.205 0.00253065 22.0466C0.047021 15.192 0.047021 8.33805 0.00253065 1.48495C0.00253065 0.383811 0.298074 -0.0118235 1.4445 0.00724379C5.17692 0.0715959 8.91172 0.0787461 12.6465 0.00724379C13.8382 -0.0165903 14.0766 0.433872 14.0575 1.49449C14.0218 8.16804 13.8573 14.8249 13.874 21.4913C13.874 21.968 13.7882 22.6139 14.3888 22.8928C14.8917 23.1311 15.3612 22.7188 15.7354 22.4757C19.4464 20.0398 23.043 17.4919 26.7182 15.0061C27.5282 14.4393 28.4996 14.1493 29.4877 14.179C33.2201 14.2203 36.9541 14.2203 40.6897 14.179C41.6598 14.179 42.0221 14.4436 42.0173 15.4565C41.9816 22.4542 41.9911 29.4495 42.0173 36.4448C42.0398 36.7984 41.9658 37.1514 41.8034 37.4662C41.6409 37.781 41.3961 38.0458 41.0949 38.2324C36.7571 41.0925 31.5613 44.527 27.2306 47.3823C27.1639 47.4252 27.8908 46.8008 27.8003 46.8079C27.867 46.3503 27.9647 45.9284 28.0029 45.4613C28.5796 38.5947 28.0028 31.6804 28.0267 24.79C28.0267 23.8366 27.7335 23.4505 26.7277 23.4624C22.9524 23.5053 19.1779 23.5053 15.4041 23.4624C14.4079 23.4624 14.0837 23.8414 14.0933 24.8043C14.1266 28.5796 14.0408 32.3573 14.1242 36.1326C14.2363 41.1378 17.8686 45.4279 22.7736 46.5386C24.4587 46.9247 26.1676 46.684 27.8527 46.8031" fill="#3559E0"/>
<path fill-rule="evenodd" clip-rule="evenodd" d="M132.108 3.23188C132.108 4.19478 131.645 4.67623 130.72 4.67623C129.778 4.65557 129.307 4.17412 129.307 3.23188C129.307 2.28964 129.778 1.81852 130.72 1.81852C131.645 1.79787 132.108 2.26898 132.108 3.23188ZM73.8308 8.4873H73.6592L79.0934 2.36195C79.1147 2.33729 79.1285 2.3071 79.1332 2.2749C79.138 2.24269 79.1335 2.2098 79.1202 2.18006C79.107 2.15033 79.0855 2.12496 79.0584 2.10695C79.0313 2.08893 78.9996 2.07901 78.9671 2.07832H76.8816C76.8577 2.07839 76.8341 2.08352 76.8123 2.09338C76.7906 2.10323 76.7711 2.1176 76.7553 2.13552L70.5274 9.04741C70.4985 9.07851 70.4823 9.11934 70.4821 9.16181V11.3069C70.4822 11.3338 70.4887 11.3603 70.501 11.3842C70.5134 11.4081 70.5312 11.4287 70.5531 11.4443C70.5751 11.4599 70.6004 11.47 70.627 11.4739C70.6536 11.4778 70.6807 11.4753 70.7062 11.4666C71.6284 11.1575 72.5937 10.9966 73.5663 10.9899C74.7109 10.9571 75.8386 11.272 76.8006 11.8932C77.9128 12.6623 78.469 13.7594 78.469 15.1847V15.4445C78.469 17.3893 77.545 18.361 75.6971 18.3594H65.2339C65.2024 18.3597 65.1716 18.3684 65.1448 18.3848C65.1179 18.4012 65.096 18.4245 65.0813 18.4523L64.0469 20.4496C64.0361 20.4751 64.0317 20.5028 64.0339 20.5304C64.0361 20.558 64.045 20.5846 64.0598 20.608C64.0745 20.6314 64.0947 20.6509 64.1186 20.6649C64.1425 20.6788 64.1694 20.6867 64.1971 20.688H66.5805C66.6074 20.6882 66.6339 20.6947 66.6578 20.7071C66.6818 20.7194 66.7024 20.7372 66.7182 20.759C66.734 20.7808 66.7444 20.806 66.7487 20.8326C66.7529 20.8592 66.7508 20.8864 66.7426 20.912C66.4677 21.8066 65.8321 22.5216 64.8358 23.0571C63.7585 23.6339 62.3921 23.9223 60.7364 23.9223C58.774 23.9223 57.2439 23.4321 56.1459 22.4517C55.048 21.4713 54.4918 20.1207 54.4775 18.3999C54.4816 16.9724 54.8649 15.5716 55.5882 14.341C55.606 14.3126 55.6151 14.2796 55.6141 14.2461C55.6132 14.2126 55.6023 14.1802 55.5829 14.1529C55.5635 14.1256 55.5365 14.1046 55.5052 14.0927C55.4739 14.0808 55.4397 14.0784 55.4071 14.0859L53.4646 14.5054C53.4214 14.5155 53.3833 14.5409 53.3573 14.5769C52.5549 15.7915 52.1455 17.2236 52.1847 18.6788C52.1847 20.603 52.7527 22.2197 53.8888 23.529C55.4285 25.2975 57.7182 26.1825 60.7578 26.1841C63.1412 26.1841 65.1044 25.713 66.6472 24.7708C68.3029 23.7491 69.2269 22.3921 69.4191 20.6999H75.9449C77.375 20.6999 78.5389 20.3027 79.4366 19.5082C80.4567 18.5834 80.9668 17.294 80.9668 15.6399V15.1489C80.9668 13.2629 80.3511 11.7136 79.1196 10.5013C77.769 9.16022 76.0061 8.48889 73.8308 8.4873ZM58.537 28.5157C58.7895 28.442 59.0566 28.4336 59.3133 28.4913C59.9092 28.6414 60.2047 29.0943 60.2047 29.8498C60.2047 30.8127 59.7431 31.2942 58.8199 31.2942C58.0604 31.2926 57.6068 30.9811 57.459 30.3599C57.3994 30.1036 57.4057 29.8365 57.4775 29.5834C57.5493 29.3303 57.6842 29.0996 57.8695 28.9128C58.0548 28.7261 58.2845 28.5895 58.537 28.5157ZM62.2004 28.516C62.4529 28.4423 62.7201 28.4338 62.9768 28.4913C63.5742 28.6422 63.8714 29.0951 63.8682 29.8498C63.8682 30.8127 63.4058 31.2942 62.4811 31.2942C61.7231 31.2942 61.2679 30.9819 61.1201 30.3599C61.061 30.1035 61.0678 29.8363 61.1399 29.5833C61.2121 29.3303 61.3472 29.0997 61.5326 28.913C61.7181 28.7264 61.9478 28.5898 62.2004 28.516ZM146.306 9.49785V15.4731C146.306 17.3988 145.363 18.361 143.476 18.3594H141.391C139.505 18.3594 138.562 17.3973 138.562 15.4731V8.17982L136.078 9.50738V15.4826C136.078 17.4084 135.135 18.3705 133.249 18.3689H95.353C95.3307 18.3689 95.3087 18.3645 95.2882 18.356C95.2677 18.3475 95.249 18.3351 95.2333 18.3193C95.2176 18.3036 95.2051 18.285 95.1966 18.2644C95.1881 18.2439 95.1837 18.2219 95.1837 18.1997V12.8847C95.1837 11.4213 94.7865 10.2375 93.992 9.3334C93.0689 8.3133 91.7508 7.80324 90.038 7.80324C88.4013 7.80324 87.0825 8.32283 86.0815 9.362C84.9692 10.5378 84.4131 12.1736 84.4131 14.2694C84.4131 15.9839 84.8556 17.3798 85.7407 18.4571C86.7989 19.7457 88.3672 20.448 90.4455 20.564C90.8984 20.5998 91.5824 20.6355 92.4929 20.6737C92.5157 20.6739 92.5383 20.6789 92.5592 20.6881C92.5801 20.6973 92.5989 20.7107 92.6145 20.7274C92.6301 20.7441 92.6421 20.7638 92.6499 20.7853C92.6577 20.8068 92.661 20.8296 92.6597 20.8524C92.6229 21.2649 92.5007 21.6652 92.3009 22.0279C92.101 22.3906 91.828 22.7078 91.499 22.9594C90.7541 23.5901 89.8055 23.9289 88.8296 23.9127C87.8618 23.9004 86.9097 23.6672 86.0457 23.2311C86.0203 23.2197 85.9924 23.2147 85.9646 23.2167C85.9368 23.2187 85.91 23.2275 85.8864 23.2423C85.8628 23.2572 85.8432 23.2776 85.8295 23.3019C85.8157 23.3261 85.8081 23.3534 85.8074 23.3812V25.1926C85.8072 25.2248 85.816 25.2564 85.8329 25.2837C85.8497 25.3111 85.8739 25.3332 85.9027 25.3475C86.9216 25.8674 88.0505 26.1347 89.1942 26.1269C90.5977 26.1406 91.9632 25.672 93.0625 24.7993C93.6799 24.334 94.1897 23.7409 94.557 23.0606C94.9244 22.3803 95.1405 21.6287 95.1909 20.8572C95.1939 20.8148 95.2127 20.7751 95.2436 20.746C95.2745 20.7168 95.3153 20.7004 95.3577 20.6999H133.545C135.143 20.6999 136.404 20.1898 137.327 19.1697C138.252 20.1898 139.513 20.6999 141.11 20.6999H143.774C145.238 20.6999 146.422 20.2764 147.326 19.4295C148.295 18.4857 148.78 17.1986 148.78 15.5684V8.17982L146.306 9.49785ZM92.6835 18.1901C92.6833 18.2131 92.6783 18.2358 92.6691 18.2568C92.6599 18.2778 92.6466 18.2968 92.6299 18.3125C92.6133 18.3283 92.5936 18.3406 92.5721 18.3486C92.5506 18.3567 92.5277 18.3603 92.5048 18.3594C91.6515 18.3228 91.0088 18.2775 90.5766 18.2235C88.1122 18.0646 86.8799 16.7267 86.8799 14.2098C86.8799 12.9196 87.1596 11.9138 87.7189 11.1925C87.993 10.8375 88.3486 10.5538 88.7556 10.3655C89.1626 10.1771 89.609 10.0896 90.057 10.1104C91.8049 10.1104 92.6788 11.0924 92.6788 13.0563L92.6835 18.1901ZM144.804 24.9996C144.804 24.0573 145.276 23.5862 146.22 23.5862C147.143 23.5656 147.604 24.0367 147.604 24.9996C147.604 25.9625 147.143 26.4439 146.22 26.4439C145.276 26.4233 144.804 25.9418 144.804 24.9996Z" fill="#2A3139"/>
<path fill-rule="evenodd" clip-rule="evenodd" d="M119.147 39.4884H122.898L116.349 45.18L123.092 53.9247H119.879L114.282 46.293V53.9247H111.546V34.8765L114.282 33.4131V43.8763L119.147 39.4884ZM61.1727 43.2161V43.1851C62.1929 43.0475 63.1264 42.5383 63.7944 41.7551C64.4859 41.001 64.8665 40.0133 64.8598 38.9903C64.8598 37.422 64.3831 36.1604 63.4298 35.2054C62.2397 34.0185 60.3846 33.425 57.8645 33.425C56.0541 33.4276 54.2464 33.5655 52.4565 33.8374V53.9033C54.2447 54.1903 56.0535 54.329 57.8645 54.318C60.0477 54.318 61.8075 53.862 63.1438 52.9499C64.6914 51.9108 65.4652 50.437 65.4652 48.5287C65.4652 47.0685 65.0783 45.8657 64.3045 44.9202C63.5203 43.9685 62.3978 43.3576 61.1727 43.2161ZM55.4167 35.9967C56.2116 35.8335 57.0222 35.7592 57.8335 35.7751C60.5268 35.7751 61.8734 36.9517 61.8734 39.3049C61.8882 39.6918 61.8108 40.0766 61.6475 40.4276C61.4842 40.7786 61.2398 41.0858 60.9343 41.3237C60.3099 41.821 59.4677 42.0705 58.4079 42.0721H55.4167V35.9967ZM58.2482 51.9656C57.2995 51.9818 56.3514 51.9076 55.4167 51.7439V44.4936H58.3436C59.6147 44.4936 60.6007 44.8432 61.3014 45.5423C62.0021 46.2414 62.3517 47.2274 62.3501 48.5001C62.3501 50.8041 60.9828 51.9553 58.2482 51.9537V51.9656ZM73.2257 39.1071C71.2332 39.1071 69.6006 39.7641 68.3278 41.0781C66.9073 42.5209 66.1971 44.4078 66.1971 46.7387C66.1971 48.7535 66.7802 50.46 67.9465 51.8583C69.3018 53.4933 71.0727 54.31 73.2591 54.3084C74.1407 54.3247 75.0166 54.1643 75.8352 53.8369C76.6539 53.5094 77.3987 53.0214 78.0259 52.4017C79.5084 50.9415 80.2504 49.0546 80.252 46.7411C80.252 44.7279 79.711 43.0214 78.6289 41.6216C77.318 39.9468 75.517 39.1086 73.2257 39.1071ZM76.2312 50.6833C75.8807 51.1541 75.4215 51.5332 74.8927 51.788C74.364 52.0428 73.7814 52.1659 73.1947 52.1467C72.6581 52.1588 72.1256 52.0508 71.6361 51.8306C71.1466 51.6104 70.7126 51.2835 70.3656 50.874C69.5171 49.8983 69.0937 48.5199 69.0953 46.7387C69.0953 45.0847 69.4766 43.7491 70.2393 42.7322C70.5747 42.2528 71.0225 41.8631 71.5436 41.5971C72.0647 41.3311 72.6432 41.1971 73.2281 41.2068C73.7949 41.193 74.3567 41.3157 74.8661 41.5646C75.3755 41.8135 75.8175 42.1813 76.1549 42.6369C76.9605 43.6538 77.3633 45.0211 77.3633 46.7387C77.3617 48.3928 76.9844 49.7077 76.2312 50.6833ZM84.5659 40.9208C85.6559 39.7116 87.1654 39.1071 89.0944 39.1071C92.6345 39.1086 94.407 41.1941 94.4118 45.3635V53.9438H91.678V45.5161C91.6859 42.8149 90.4982 41.4643 88.1148 41.4643C87.4203 41.4724 86.7364 41.6353 86.1127 41.9409C85.5242 42.187 85.0094 42.5811 84.6183 43.085V53.9295H81.8822V39.4908H84.1726L84.4277 40.9208H84.5659ZM102.897 39.1071C100.904 39.1071 99.2718 39.7641 97.999 41.0781C96.5785 42.5209 95.8683 44.4078 95.8683 46.7387C95.8683 48.7535 96.4514 50.46 97.6177 51.8583C98.9731 53.4933 100.743 54.31 102.928 54.3084C103.809 54.3245 104.685 54.1641 105.504 53.8367C106.323 53.5092 107.067 53.0213 107.695 52.4017C109.177 50.9415 109.919 49.0546 109.921 46.7411C109.921 44.7279 109.38 43.0214 108.298 41.6216C106.985 39.9468 105.185 39.1086 102.897 39.1071ZM105.902 50.6833C105.551 51.1542 105.092 51.5332 104.563 51.788C104.033 52.0428 103.451 52.1659 102.864 52.1467C102.327 52.1595 101.794 52.0518 101.305 51.8315C100.815 51.6113 100.381 51.284 100.034 50.874C99.186 49.8983 98.7617 48.5199 98.7617 46.7387C98.7617 45.0847 99.1439 43.7491 99.9082 42.7322C100.244 42.2528 100.691 41.8631 101.212 41.5971C101.734 41.3311 102.312 41.1971 102.897 41.2068C103.463 41.1928 104.025 41.3154 104.534 41.5643C105.043 41.8133 105.485 42.1812 105.821 42.6369C106.627 43.6538 107.03 45.0211 107.03 46.7387C107.03 48.3928 106.654 49.7077 105.902 50.6833ZM129.832 52.1777C128.475 52.1777 127.362 51.7693 126.495 50.9526C125.627 50.1359 125.119 49.0284 124.97 47.6301H135.144V46.6768C135.144 44.6413 134.668 42.9555 133.714 41.6192C132.527 39.946 130.821 39.1086 128.595 39.107C127.726 39.095 126.865 39.2706 126.071 39.6219C125.277 39.9732 124.568 40.4919 123.992 41.1425C122.615 42.6488 121.926 44.5253 121.926 46.7721C121.926 48.9775 122.561 50.758 123.833 52.1133C125.21 53.5767 127.065 54.3084 129.398 54.3084C131.312 54.3496 133.179 53.7197 134.677 52.528L133.85 50.9693C132.646 51.7308 131.256 52.1486 129.832 52.1777ZM126.063 42.3509C126.385 41.9717 126.787 41.6691 127.241 41.4654C127.695 41.2617 128.188 41.162 128.685 41.1735C129.179 41.1518 129.672 41.2422 130.126 41.4379C130.58 41.6335 130.984 41.9293 131.307 42.3032C131.955 43.0564 132.3 44.1217 132.341 45.4994H124.872C124.977 44.1837 125.374 43.1342 126.063 42.3509ZM141.692 50.9288L145.92 39.4884H148.78L142.583 56.0889C141.585 58.6963 140.239 60.0001 138.546 60.0001C137.4 60.0017 136.212 59.5456 134.982 58.632L135.809 57.2329C136.532 57.6572 137.156 57.8693 137.687 57.8693C138.66 57.8693 139.434 57.1702 140.009 55.7719L140.741 53.9271H140.166L134.761 39.4884H137.59L141.692 50.9288Z" fill="#2A3139"/>
</g>
<defs>
<clipPath id="clip0_719_21091">
<rect width="148.789" height="60" fill="white"/>
</clipPath>
</defs>
</svg>
