<svg width="154" height="55" viewBox="0 0 154 55" fill="none" xmlns="http://www.w3.org/2000/svg">
<path d="M104.319 39.7727H104.282C97.7585 44.3907 90.062 49.2285 81.7424 54.3229L81.4126 54.5061C81.3766 54.5209 81.3445 54.5436 81.3186 54.5726C81.2927 54.6016 81.2738 54.6361 81.2632 54.6735C81.2526 54.7109 81.2506 54.7502 81.2574 54.7884C81.2642 54.8267 81.2797 54.8629 81.3025 54.8943C81.3254 54.9258 81.3551 54.9516 81.3894 54.9699C81.4237 54.9881 81.4617 54.9984 81.5005 54.9998C81.5393 55.0013 81.578 54.9939 81.6136 54.9782C81.6491 54.9625 81.6806 54.9389 81.7058 54.9093L81.9623 54.7627C89.0358 51.0977 97.1355 46.7363 105.272 42.2283L105.418 42.155C104.938 41.4185 104.568 40.616 104.319 39.7727ZM147.126 5.10165C136.864 -6.22326 70.674 3.9655 42.5633 10.1227L41.9036 10.2693C41.8391 10.286 41.7822 10.324 41.7422 10.3773C41.7023 10.4306 41.6816 10.4959 41.6837 10.5625C41.6873 10.5956 41.6984 10.6275 41.716 10.6557C41.7337 10.6839 41.7576 10.7077 41.7858 10.7254C41.8141 10.743 41.8459 10.754 41.879 10.7576C41.9121 10.7611 41.9456 10.7571 41.9769 10.7458L42.6366 10.6358C65.9462 6.49436 114.434 0.740278 124.843 11.0756C128.032 14.2276 127.299 18.2957 123.597 23.0969C125.64 24.4319 127.086 26.5079 127.628 28.8876C142.032 19.3219 151.708 10.1594 147.126 5.10165Z" fill="#CC2427"/>
<path d="M108.498 36.8038C108.608 40.7987 111.137 44.0606 114.435 44.0606C120.812 44.0606 123.524 36.2174 123.341 30.9765C123.195 26.9816 120.629 23.7197 117.331 23.7197C111.833 23.7197 108.278 31.5262 108.498 36.8038ZM105.126 36.5839C104.869 29.767 110.22 22.8035 117.954 22.8035C123.158 22.8035 126.53 26.2852 126.713 31.5629C126.97 38.7463 121.985 45.3433 113.885 45.3433C108.681 45.3433 105.309 41.8982 105.126 36.5839Z" fill="#013D5B"/>
<path d="M31.6782 34.788C31.3365 34.9265 30.9798 35.0249 30.6154 35.0812L28.1965 35.521C27.6031 35.5632 27.0268 35.7386 26.5105 36.0341C26.3621 36.125 26.2357 36.2478 26.1407 36.3936C26.0456 36.5394 25.9841 36.7046 25.9608 36.8771C25.9231 37.0383 25.9384 37.2074 26.0044 37.3593C26.0704 37.5111 26.1837 37.6376 26.3273 37.72C26.7957 37.9818 27.332 38.0968 27.8666 38.0499C28.4134 38.039 28.9561 37.9527 29.4792 37.7933C29.9613 37.6522 30.4101 37.4154 30.7986 37.097C31.0555 36.8715 31.2456 36.58 31.3484 36.254C31.5263 35.7831 31.6373 35.2897 31.6782 34.788ZM38.4219 30.6099C38.3852 31.2329 38.2753 31.7827 38.1287 32.7356L36.9925 39.1127C36.932 39.3707 36.9607 39.6415 37.0739 39.8811C37.187 40.1207 37.3779 40.3149 37.6156 40.4321V40.6887H31.0552V39.0761C30.0593 39.6366 29.0015 40.0794 27.9033 40.3955C26.8878 40.6698 25.8398 40.8054 24.788 40.7986C22.6623 40.7986 21.4528 40.5787 20.6465 39.8457C19.8402 39.1127 19.3638 38.5996 19.4004 37.5368C19.4791 36.8479 19.7596 36.1976 20.2067 35.6676C20.6838 35.1323 21.2716 34.7071 21.9293 34.4215C22.7735 34.064 23.6605 33.8176 24.5681 33.6885C25.7042 33.5052 27.3169 33.322 29.4792 33.1387C30.2117 33.1167 30.9332 32.955 31.6049 32.6623C32.0814 32.479 32.228 32.2958 32.3013 31.9293C32.3746 31.5628 32.228 30.9031 31.3484 30.7198C29.0028 30.28 24.6047 31.013 22.3324 31.5994L23.5419 28.2643C26.4397 27.8049 29.3674 27.5599 32.3013 27.5312C36.9559 27.5312 38.4585 28.8873 38.4219 30.6099Z" fill="#013D5B"/>
<path d="M57.3359 40.6886L59.6082 27.8976H65.8754L63.6031 40.6886H57.3359ZM59.9748 24.9656C60.158 23.9028 61.8073 23.0598 63.6764 23.0598C65.5456 23.0598 66.865 23.9028 66.6817 24.9656C66.4985 26.0285 64.8492 26.8714 62.9801 26.8714C61.1109 26.8714 59.7915 25.9918 59.9748 24.9656Z" fill="#013D5B"/>
<path d="M88.0496 34.8246L86.9868 35.1178L84.5312 35.5576C83.9504 35.6052 83.3872 35.7804 82.882 36.0707C82.7344 36.1538 82.6081 36.2697 82.5127 36.4096C82.4174 36.5494 82.3556 36.7094 82.3322 36.8771C82.2884 37.0397 82.2966 37.2121 82.3558 37.3699C82.415 37.5276 82.5221 37.6629 82.6621 37.7567C82.9919 37.9766 83.505 38.0499 84.238 38.0499C84.7831 38.0514 85.3258 37.9774 85.8506 37.83C86.3328 37.6888 86.7815 37.452 87.17 37.1336C87.4269 36.9082 87.617 36.6166 87.7198 36.2906C87.8743 35.8131 87.9847 35.3224 88.0496 34.8246ZM94.7933 30.6099C94.7566 31.2329 94.6467 31.8193 94.5001 32.7356L93.3639 39.1494C93.3035 39.4073 93.3321 39.6782 93.4453 39.9178C93.5584 40.1573 93.7493 40.3516 93.987 40.4688V40.6887H87.4266V39.0394C86.4395 39.6267 85.3799 40.0826 84.2747 40.3955C83.2453 40.659 82.1851 40.7823 81.1227 40.762C79.0337 40.762 77.8242 40.5421 76.9813 39.8091C76.1383 39.0761 75.7352 38.563 75.7718 37.5368C75.8412 36.8345 76.1224 36.1698 76.5781 35.6309C77.0574 35.1072 77.6453 34.6944 78.3007 34.4215C79.1278 34.0518 80.0044 33.8049 80.9029 33.6885C82.0757 33.5052 83.6883 33.322 85.8506 33.1387C86.5762 33.0686 87.2902 32.9086 87.9763 32.6623C88.4161 32.479 88.5994 32.2958 88.6727 31.9293C88.746 31.5628 88.5994 30.9031 87.7198 30.7198C85.3742 30.2434 80.9762 31.013 78.7038 31.5628L79.9133 28.2643C82.8109 27.8034 85.7388 27.5584 88.6727 27.5312C93.3273 27.5679 94.8299 28.924 94.7933 30.6099Z" fill="#013D5B"/>
<path d="M18.5212 36.1078C16.8133 36.4899 15.067 36.6744 13.3169 36.6576C10.3482 36.6576 7.96598 35.1916 8.11259 32.4428C8.18589 30.6469 10.3482 26.8353 15.7725 26.8353C17.4906 26.7956 19.1835 27.2538 20.647 28.1547L21.4166 23.7201C19.4607 22.9432 17.3615 22.5934 15.2594 22.6939C8.11259 22.7672 1.259 25.9924 0.416042 32.5894C-0.426912 39.1864 7.74608 40.9823 11.3745 40.9823C13.4635 40.9823 15.6625 40.8724 17.6783 40.6891L18.5212 36.1078Z" fill="#013D5B"/>
<path d="M69.3187 27.8247L69.7585 25.2225L76.2823 23.8298L75.5859 27.8247H78.8111L78.1881 30.4269H75.0728L73.2037 40.6889H66.8632L68.769 30.4269H66.3867L66.8632 27.8614H69.3187V27.8247Z" fill="#013D5B"/>
<path d="M101.131 40.689H94.7539L97.9791 22.877L104.173 23.0236L101.131 40.689Z" fill="#013D5B"/>
<path d="M49.0896 30.9034C48.2857 30.9058 47.5032 31.1624 46.854 31.6364C46.1887 32.1912 45.7568 32.9764 45.6445 33.8354C45.4246 34.9715 45.5345 35.7412 45.9744 36.2543C46.2305 36.5032 46.5351 36.6968 46.8693 36.8229C47.2035 36.949 47.5601 37.005 47.9168 36.9873C48.4722 36.9985 49.0231 36.8858 49.5294 36.6574C50.0182 36.4314 50.4363 36.0767 50.7389 35.6312C51.0817 35.1216 51.3185 34.5483 51.4352 33.9453C51.6185 32.9191 51.4719 32.1861 50.9954 31.673C50.7522 31.4146 50.4559 31.2121 50.1269 31.0792C49.7979 30.9463 49.444 30.8863 49.0896 30.9034ZM37.6914 45.1236L40.7334 27.9713H46.2309L45.7911 30.1703C46.3931 29.4173 47.1925 28.8464 48.1001 28.5211C49.2298 28.0596 50.4351 27.8111 51.6551 27.7881C53.0845 27.7881 53.9641 27.8614 55.027 28.4111C56.0346 28.9168 56.8184 29.7789 57.226 30.8301C57.6579 31.938 57.7597 33.1473 57.5192 34.3118C57.3666 35.3117 57.0157 36.271 56.487 37.1333C55.9583 37.9956 55.2625 38.7435 54.4405 39.3329C52.7546 40.5424 51.252 40.8722 49.0896 40.8722C48.4353 40.8842 47.7822 40.8103 47.1472 40.6523C46.7101 40.5572 46.29 40.3966 45.9011 40.1759C45.521 39.9018 45.1763 39.5817 44.8748 39.2229L43.8486 45.1236H37.6914Z" fill="#013D5B"/>
<path d="M151.161 32.4795C151.124 31.4533 150.611 30.7569 149.548 30.7569C146.983 30.7569 144.271 35.778 143.794 37.7938C147.972 37.7938 151.271 35.3016 151.161 32.4795ZM151.711 40.3593L152.187 40.6891C150.941 43.218 148.412 45.2704 145.407 45.2704C142.951 45.2704 140.972 43.6578 140.862 40.6158C140.642 35.1183 145.81 30.0239 149.988 30.0239C151.784 30.0239 153.47 30.8302 153.543 32.7727C153.69 37.1341 147.569 38.4535 143.538 38.5268C143.406 39.0535 143.356 39.5975 143.391 40.1394C143.464 41.9719 144.564 43.4746 146.8 43.4746C149.035 43.4746 150.721 41.8986 151.711 40.3593Z" fill="#013D5B"/>
<path d="M126.641 32.3329L128.071 32.1863C128.547 32.1863 128.95 32.2962 128.987 32.736C129.024 33.1758 128.511 34.9351 128.401 35.4115L127.411 39.6996C127.045 41.4588 126.605 43.2913 126.238 44.7573H128.73L130.123 37.9404C134.448 33.469 136.097 32.003 137.087 32.003C137.195 31.9915 137.305 32.0044 137.408 32.0409C137.512 32.0773 137.605 32.1363 137.682 32.2136C137.76 32.2909 137.819 32.3846 137.855 32.4876C137.892 32.5907 137.905 32.7006 137.893 32.8093C137.93 33.579 137.417 35.3749 137.27 35.888L135.804 40.8357C135.511 41.9719 135.254 42.9614 135.291 43.6945C135.328 44.4275 135.987 45.2704 136.94 45.2704C138.773 45.2704 140.129 43.3646 141.265 41.4954L140.935 40.8724C140.459 41.6054 139.396 43.2546 138.516 43.2546C138.26 43.2546 138.003 43.0714 138.003 42.6316C138.033 41.9461 138.156 41.2679 138.37 40.6158L139.982 34.7885C140.385 33.1758 140.605 32.1496 140.605 31.5999C140.605 31.0501 139.909 30.0239 138.956 30.0239C137.307 30.0239 135.108 31.2334 130.49 36.5477H130.416L131.003 33.9455C131.333 32.5161 131.626 31.0501 131.919 30.0239C130.183 30.641 128.407 31.1429 126.605 31.5266L126.641 32.3329Z" fill="#013D5B"/>
</svg>
