<svg width="149" height="60" viewBox="0 0 149 60" fill="none" xmlns="http://www.w3.org/2000/svg">
<g clip-path="url(#clip0_724_31700)">
<path d="M27.9836 46.7912C27.0135 47.8352 25.7122 48.4405 24.5563 49.2223C21.6962 51.1529 18.7431 52.9404 15.9545 54.9639C14.5412 55.9888 13.1564 56.1366 11.5667 55.8315C8.385 55.214 5.51481 53.5151 3.44273 51.023C1.37065 48.5308 0.224213 45.3988 0.197788 42.1579C0.181104 39.5099 0.245455 36.8619 0.173953 34.2163C0.142968 33.0961 0.490947 32.393 1.45146 31.7781C5.02658 29.4853 8.6017 27.2973 12.1387 24.9425C12.5033 24.7042 13.1302 24.38 12.949 23.7865C12.7679 23.1931 12.1363 23.3098 11.7073 23.3098C8.35144 23.2884 4.99559 23.4219 1.64214 23.4767C0.560066 23.4934 0.138203 23.205 0.145353 22.0466C0.189843 15.192 0.189843 8.33805 0.145353 1.48495C0.145353 0.383811 0.440897 -0.0118235 1.58732 0.00724379C5.31974 0.0715959 9.05455 0.0787461 12.7894 0.00724379C13.9811 -0.0165903 14.2194 0.433872 14.2003 1.49449C14.1646 8.16804 14.0001 14.8249 14.0168 21.4913C14.0168 21.968 13.931 22.6139 14.5316 22.8928C15.0345 23.1311 15.5041 22.7188 15.8783 22.4757C19.5892 20.0398 23.1858 17.4919 26.861 15.0061C27.671 14.4393 28.6424 14.1493 29.6305 14.179C33.363 14.2203 37.097 14.2203 40.8326 14.179C41.8026 14.179 42.1649 14.4436 42.1601 15.4565C42.1244 22.4542 42.1339 29.4495 42.1601 36.4448C42.1826 36.7984 42.1087 37.1514 41.9462 37.4662C41.7838 37.781 41.5389 38.0458 41.2378 38.2324C36.8999 41.0925 31.7041 44.527 27.3734 47.3823C27.3067 47.4252 28.0337 46.8008 27.9431 46.8079C28.0098 46.3503 28.1075 45.9284 28.1457 45.4613C28.7225 38.5947 28.1457 31.6804 28.1695 24.79C28.1695 23.8366 27.8763 23.4505 26.8705 23.4624C23.0952 23.5053 19.3207 23.5053 15.547 23.4624C14.5507 23.4624 14.2265 23.8414 14.2361 24.8043C14.2694 28.5796 14.1836 32.3573 14.2671 36.1326C14.3791 41.1378 18.0114 45.4279 22.9165 46.5386C24.6015 46.9247 26.3104 46.684 27.9955 46.8031" fill="#3559E0"/>
<path fill-rule="evenodd" clip-rule="evenodd" d="M132.251 3.23188C132.251 4.19478 131.789 4.67623 130.864 4.67623C129.922 4.65557 129.45 4.17412 129.45 3.23188C129.45 2.28964 129.922 1.81852 130.864 1.81852C131.789 1.79787 132.251 2.26898 132.251 3.23188ZM73.9742 8.4873H73.8025L79.2367 2.36195C79.258 2.33729 79.2718 2.3071 79.2765 2.2749C79.2813 2.24269 79.2768 2.2098 79.2635 2.18006C79.2503 2.15033 79.2288 2.12496 79.2017 2.10695C79.1746 2.08893 79.143 2.07901 79.1104 2.07832H77.0249C77.001 2.07839 76.9774 2.08352 76.9556 2.09338C76.9339 2.10323 76.9144 2.1176 76.8986 2.13552L70.6707 9.04741C70.6418 9.07851 70.6257 9.11934 70.6255 9.16181V11.3069C70.6255 11.3338 70.632 11.3603 70.6443 11.3842C70.6567 11.4081 70.6746 11.4287 70.6965 11.4443C70.7184 11.4599 70.7437 11.47 70.7703 11.4739C70.7969 11.4778 70.8241 11.4753 70.8495 11.4666C71.7717 11.1575 72.737 10.9966 73.7096 10.9899C74.8542 10.9571 75.9819 11.272 76.9439 11.8932C78.0561 12.6623 78.6123 13.7594 78.6123 15.1847V15.4445C78.6123 17.3893 77.6883 18.361 75.8404 18.3594H65.3772C65.3457 18.3597 65.3149 18.3684 65.2881 18.3848C65.2612 18.4012 65.2393 18.4245 65.2246 18.4523L64.1902 20.4496C64.1795 20.4751 64.175 20.5028 64.1772 20.5304C64.1795 20.558 64.1883 20.5846 64.2031 20.608C64.2178 20.6314 64.238 20.6509 64.2619 20.6649C64.2858 20.6788 64.3128 20.6867 64.3404 20.688H66.7238C66.7507 20.6882 66.7772 20.6947 66.8011 20.7071C66.8251 20.7194 66.8458 20.7372 66.8615 20.759C66.8773 20.7808 66.8877 20.806 66.892 20.8326C66.8962 20.8592 66.8941 20.8864 66.8859 20.912C66.611 21.8066 65.9754 22.5216 64.9792 23.0571C63.9018 23.6339 62.5354 23.9223 60.8797 23.9223C58.9173 23.9223 57.3872 23.4321 56.2892 22.4517C55.1913 21.4713 54.6351 20.1207 54.6208 18.3999C54.6249 16.9724 55.0082 15.5716 55.7315 14.341C55.7494 14.3126 55.7584 14.2796 55.7574 14.2461C55.7565 14.2126 55.7456 14.1802 55.7262 14.1529C55.7068 14.1256 55.6798 14.1046 55.6485 14.0927C55.6172 14.0808 55.583 14.0784 55.5504 14.0859L53.6079 14.5054C53.5647 14.5155 53.5266 14.5409 53.5006 14.5769C52.6982 15.7915 52.2889 17.2236 52.328 18.6788C52.328 20.603 52.8961 22.2197 54.0321 23.529C55.5718 25.2975 57.8615 26.1825 60.9011 26.1841C63.2845 26.1841 65.2477 25.713 66.7905 24.7708C68.4462 23.7491 69.3702 22.3921 69.5625 20.6999H76.0882C77.5183 20.6999 78.6822 20.3027 79.5799 19.5082C80.6 18.5834 81.1101 17.294 81.1101 15.6399V15.1489C81.1101 13.2629 80.4944 11.7136 79.2629 10.5013C77.9123 9.16022 76.1494 8.48889 73.9742 8.4873ZM58.6803 28.5157C58.9328 28.442 59.2 28.4336 59.4566 28.4913C60.0525 28.6414 60.348 29.0943 60.348 29.8498C60.348 30.8127 59.8864 31.2942 58.9633 31.2942C58.2037 31.2926 57.7501 30.9811 57.6023 30.3599C57.5427 30.1036 57.549 29.8365 57.6208 29.5834C57.6926 29.3303 57.8275 29.0996 58.0128 28.9128C58.1981 28.7261 58.4278 28.5895 58.6803 28.5157ZM62.3437 28.516C62.5962 28.4423 62.8634 28.4338 63.1201 28.4913C63.7176 28.6422 64.0147 29.0951 64.0115 29.8498C64.0115 30.8127 63.5491 31.2942 62.6244 31.2942C61.8664 31.2942 61.4112 30.9819 61.2634 30.3599C61.2043 30.1035 61.2111 29.8363 61.2832 29.5833C61.3554 29.3303 61.4905 29.0997 61.6759 28.913C61.8614 28.7264 62.0911 28.5898 62.3437 28.516ZM146.449 9.49785V15.4731C146.449 17.3988 145.506 18.361 143.62 18.3594H141.534C139.648 18.3594 138.705 17.3973 138.705 15.4731V8.17982L136.222 9.50738V15.4826C136.222 17.4084 135.279 18.3705 133.393 18.3689H95.4963C95.4741 18.3689 95.452 18.3645 95.4315 18.356C95.411 18.3475 95.3923 18.3351 95.3766 18.3193C95.3609 18.3036 95.3484 18.285 95.3399 18.2644C95.3314 18.2439 95.3271 18.2219 95.3271 18.1997V12.8847C95.3271 11.4213 94.9298 10.2375 94.1353 9.3334C93.2122 8.3133 91.8941 7.80324 90.1813 7.80324C88.5447 7.80324 87.2258 8.32283 86.2248 9.362C85.1125 10.5378 84.5564 12.1736 84.5564 14.2694C84.5564 15.9839 84.9989 17.3798 85.884 18.4571C86.9422 19.7457 88.5105 20.448 90.5888 20.564C91.0417 20.5998 91.7257 20.6355 92.6362 20.6737C92.659 20.6739 92.6816 20.6789 92.7025 20.6881C92.7234 20.6973 92.7422 20.7107 92.7578 20.7274C92.7734 20.7441 92.7854 20.7638 92.7932 20.7853C92.801 20.8068 92.8043 20.8296 92.803 20.8524C92.7662 21.2649 92.644 21.6652 92.4442 22.0279C92.2444 22.3906 91.9713 22.7078 91.6423 22.9594C90.8974 23.5901 89.9488 23.9289 88.9729 23.9127C88.0051 23.9004 87.053 23.6672 86.189 23.2311C86.1636 23.2197 86.1358 23.2147 86.1079 23.2167C86.0801 23.2187 86.0533 23.2275 86.0297 23.2423C86.0061 23.2572 85.9866 23.2776 85.9728 23.3019C85.959 23.3261 85.9514 23.3534 85.9507 23.3812V25.1926C85.9505 25.2248 85.9593 25.2564 85.9762 25.2837C85.993 25.3111 86.0172 25.3332 86.0461 25.3475C87.0649 25.8674 88.1938 26.1347 89.3375 26.1269C90.741 26.1406 92.1066 25.672 93.2058 24.7993C93.8233 24.334 94.333 23.7409 94.7003 23.0606C95.0677 22.3803 95.2839 21.6287 95.3342 20.8572C95.3372 20.8148 95.356 20.7751 95.3869 20.746C95.4178 20.7168 95.4586 20.7004 95.501 20.6999H133.688C135.287 20.6999 136.547 20.1898 137.471 19.1697C138.395 20.1898 139.656 20.6999 141.253 20.6999H143.918C145.381 20.6999 146.565 20.2764 147.469 19.4295C148.438 18.4857 148.923 17.1986 148.923 15.5684V8.17982L146.449 9.49785ZM92.8269 18.1901C92.8266 18.2131 92.8217 18.2358 92.8124 18.2568C92.8032 18.2778 92.7899 18.2968 92.7732 18.3125C92.7566 18.3283 92.7369 18.3406 92.7154 18.3486C92.6939 18.3567 92.671 18.3603 92.6481 18.3594C91.7948 18.3228 91.1521 18.2775 90.7199 18.2235C88.2555 18.0646 87.0232 16.7267 87.0232 14.2098C87.0232 12.9196 87.3029 11.9138 87.8622 11.1925C88.1363 10.8375 88.4919 10.5538 88.8989 10.3655C89.3059 10.1771 89.7523 10.0896 90.2003 10.1104C91.9482 10.1104 92.8221 11.0924 92.8221 13.0563L92.8269 18.1901ZM144.947 24.9996C144.947 24.0573 145.419 23.5862 146.363 23.5862C147.286 23.5656 147.748 24.0367 147.748 24.9996C147.748 25.9625 147.286 26.4439 146.363 26.4439C145.419 26.4233 144.947 25.9418 144.947 24.9996Z" fill="white"/>
<path fill-rule="evenodd" clip-rule="evenodd" d="M119.29 39.4884H123.041L116.492 45.18L123.234 53.9247H120.022L114.425 46.293V53.9247H111.689V34.8765L114.425 33.4131V43.8763L119.29 39.4884ZM61.3155 43.2161V43.1851C62.3357 43.0475 63.2692 42.5383 63.9373 41.7551C64.6287 41.001 65.0093 40.0133 65.0026 38.9903C65.0026 37.422 64.526 36.1604 63.5726 35.2054C62.3825 34.0185 60.5274 33.425 58.0073 33.425C56.1969 33.4276 54.3892 33.5655 52.5994 33.8374V53.9033C54.3875 54.1903 56.1963 54.329 58.0073 54.318C60.1905 54.318 61.9503 53.862 63.2866 52.9499C64.8342 51.9108 65.608 50.437 65.608 48.5287C65.608 47.0685 65.2211 45.8657 64.4473 44.9202C63.6631 43.9685 62.5406 43.3576 61.3155 43.2161ZM55.5596 35.9967C56.3545 35.8335 57.165 35.7592 57.9763 35.7751C60.6696 35.7751 62.0162 36.9517 62.0162 39.3049C62.031 39.6918 61.9536 40.0766 61.7903 40.4276C61.627 40.7786 61.3826 41.0858 61.0772 41.3237C60.4527 41.821 59.6106 42.0705 58.5507 42.0721H55.5596V35.9967ZM58.3911 51.9656C57.4423 51.9818 56.4942 51.9076 55.5596 51.7439V44.4936H58.4864C59.7575 44.4936 60.7435 44.8432 61.4442 45.5423C62.1449 46.2414 62.4945 47.2274 62.4929 48.5001C62.4929 50.8041 61.1256 51.9553 58.3911 51.9537V51.9656ZM73.3686 39.1071C71.376 39.1071 69.7434 39.7641 68.4706 41.0781C67.0501 42.5209 66.3399 44.4078 66.3399 46.7387C66.3399 48.7535 66.923 50.46 68.0893 51.8583C69.4447 53.4933 71.2155 54.31 73.4019 54.3084C74.2835 54.3247 75.1594 54.1643 75.978 53.8369C76.7967 53.5094 77.5416 53.0214 78.1688 52.4017C79.6512 50.9415 80.3933 49.0546 80.3948 46.7411C80.3948 44.7279 79.8538 43.0214 78.7717 41.6216C77.4609 39.9468 75.6598 39.1086 73.3686 39.1071ZM76.374 50.6833C76.0236 51.1541 75.5643 51.5332 75.0356 51.788C74.5068 52.0428 73.9242 52.1659 73.3376 52.1467C72.801 52.1588 72.2684 52.0508 71.7789 51.8306C71.2895 51.6104 70.8554 51.2835 70.5085 50.874C69.66 49.8983 69.2365 48.5199 69.2381 46.7387C69.2381 45.0847 69.6195 43.7491 70.3821 42.7322C70.7175 42.2528 71.1654 41.8631 71.6865 41.5971C72.2076 41.3311 72.786 41.1971 73.3709 41.2068C73.9377 41.193 74.4995 41.3157 75.0089 41.5646C75.5183 41.8135 75.9604 42.1813 76.2978 42.6369C77.1034 43.6538 77.5062 45.0211 77.5062 46.7387C77.5046 48.3928 77.1272 49.7077 76.374 50.6833ZM84.7087 40.9208C85.7987 39.7116 87.3082 39.1071 89.2372 39.1071C92.7774 39.1086 94.5498 41.1941 94.5546 45.3635V53.9438H91.8208V45.5161C91.8288 42.8149 90.641 41.4643 88.2576 41.4643C87.5631 41.4724 86.8792 41.6353 86.2555 41.9409C85.6671 42.187 85.1522 42.5811 84.7611 43.085V53.9295H82.025V39.4908H84.3154L84.5705 40.9208H84.7087ZM103.04 39.1071C101.047 39.1071 99.4146 39.7641 98.1419 41.0781C96.7214 42.5209 96.0111 44.4078 96.0111 46.7387C96.0111 48.7535 96.5942 50.46 97.7605 51.8583C99.1159 53.4933 100.886 54.31 103.071 54.3084C103.952 54.3245 104.828 54.1641 105.647 53.8367C106.465 53.5092 107.21 53.0213 107.838 52.4017C109.32 50.9415 110.062 49.0546 110.064 46.7411C110.064 44.7279 109.523 43.0214 108.441 41.6216C107.128 39.9468 105.328 39.1086 103.04 39.1071ZM106.045 50.6833C105.694 51.1542 105.235 51.5332 104.705 51.788C104.176 52.0428 103.593 52.1659 103.006 52.1467C102.47 52.1595 101.937 52.0518 101.447 51.8315C100.958 51.6113 100.524 51.284 100.177 50.874C99.3288 49.8983 98.9046 48.5199 98.9046 46.7387C98.9046 45.0847 99.2867 43.7491 100.051 42.7322C100.386 42.2528 100.834 41.8631 101.355 41.5971C101.876 41.3311 102.455 41.1971 103.04 41.2068C103.606 41.1928 104.168 41.3154 104.677 41.5643C105.186 41.8133 105.627 42.1812 105.964 42.6369C106.77 43.6538 107.173 45.0211 107.173 46.7387C107.173 48.3928 106.797 49.7077 106.045 50.6833ZM129.974 52.1777C128.618 52.1777 127.505 51.7693 126.638 50.9526C125.77 50.1359 125.262 49.0284 125.112 47.6301H135.287V46.6768C135.287 44.6413 134.81 42.9555 133.857 41.6192C132.67 39.946 130.964 39.1086 128.737 39.107C127.869 39.095 127.008 39.2706 126.214 39.6219C125.42 39.9732 124.711 40.4919 124.135 41.1425C122.758 42.6488 122.069 44.5253 122.069 46.7721C122.069 48.9775 122.704 50.758 123.975 52.1133C125.353 53.5767 127.208 54.3084 129.541 54.3084C131.454 54.3496 133.322 53.7197 134.82 52.528L133.993 50.9693C132.789 51.7308 131.399 52.1486 129.974 52.1777ZM126.206 42.3509C126.528 41.9717 126.93 41.6691 127.384 41.4654C127.838 41.2617 128.331 41.162 128.828 41.1735C129.322 41.1518 129.814 41.2422 130.268 41.4379C130.722 41.6335 131.126 41.9293 131.45 42.3032C132.098 43.0564 132.443 44.1217 132.484 45.4994H125.015C125.119 44.1837 125.517 43.1342 126.206 42.3509ZM141.834 50.9288L146.063 39.4884H148.923L142.726 56.0889C141.728 58.6963 140.382 60.0001 138.688 60.0001C137.543 60.0017 136.355 59.5456 135.125 58.632L135.952 57.2329C136.674 57.6572 137.299 57.8693 137.83 57.8693C138.803 57.8693 139.577 57.1702 140.152 55.7719L140.883 53.9271H140.309L134.903 39.4884H137.733L141.834 50.9288Z" fill="white"/>
</g>
<defs>
<clipPath id="clip0_724_31700">
<rect width="148.789" height="60" fill="white" transform="translate(0.143066)"/>
</clipPath>
</defs>
</svg>
