<svg width="153" height="55" viewBox="0 0 153 55" fill="none" xmlns="http://www.w3.org/2000/svg">
<g clip-path="url(#clip0_54_69934)">
<path d="M140.231 22.451C141.946 23.4541 143.618 24.4304 145.288 25.4079C146.521 26.1291 147.759 26.8411 148.984 27.576C151.219 28.9175 152.516 30.915 152.946 33.5009C152.993 33.7838 152.994 34.0766 152.995 34.3648C152.998 37.2562 153.008 40.1477 152.993 43.039C152.983 45.0003 152.253 46.6887 151.01 48.1657C150.343 48.9573 149.519 49.5415 148.635 50.0549C146.466 51.3127 144.302 52.5793 142.143 53.8535C140.722 54.692 139.192 55.0758 137.558 54.9873C136.36 54.9224 135.214 54.6091 134.169 54.0027C131.383 52.3862 128.604 50.7573 125.833 49.1145C125.426 48.8735 125.125 48.8253 124.682 49.0896C121.972 50.7096 119.235 52.2846 116.511 53.8821C115.102 54.7084 113.584 55.0737 111.966 54.9879C110.566 54.9135 109.286 54.4388 108.079 53.722C105.883 52.417 103.656 51.1631 101.476 49.8301C98.8998 48.2548 97.5113 45.9257 97.4739 42.8489C97.4403 40.0864 97.4674 37.3233 97.4667 34.5603C97.4661 32.584 98.1389 30.8616 99.3751 29.353C100.02 28.5658 100.813 27.9657 101.685 27.4576C104.414 25.8688 107.132 24.2604 109.864 22.6777C110.159 22.5069 110.24 22.3166 110.239 21.9952C110.229 18.7183 110.19 15.4407 110.246 12.1647C110.297 9.21345 111.568 6.86966 114.047 5.30457C116.033 4.05103 118.09 2.91452 120.118 1.72999C120.652 1.41806 121.187 1.10477 121.735 0.819817C122.603 0.368875 123.53 0.138293 124.502 0.0401611C126.302 -0.141836 127.942 0.311039 129.487 1.21987C131.648 2.49114 133.805 3.76916 135.981 5.01441C137.764 6.03525 139.018 7.49933 139.745 9.4342C140.063 10.2808 140.224 11.1637 140.227 12.0662C140.237 15.3431 140.231 18.62 140.231 21.8969C140.231 22.072 140.231 22.2474 140.231 22.451ZM125.207 43.6316C125.271 43.6137 125.287 43.6125 125.3 43.6048C128.039 42.0039 130.797 40.4361 133.508 38.7877C135.003 37.8783 135.795 36.4777 135.796 34.6712C135.798 31.6044 135.792 28.5375 135.803 25.4707C135.804 25.1596 135.714 24.987 135.441 24.8287C132.82 23.3095 130.221 21.7521 127.59 20.2508C126.007 19.3474 124.377 19.3842 122.799 20.2946C120.216 21.7843 117.651 23.3055 115.07 24.7985C114.772 24.9708 114.657 25.1565 114.658 25.5099C114.673 28.5284 114.669 31.5472 114.666 34.5657C114.664 36.5077 115.538 37.9334 117.154 38.9182C117.871 39.3559 118.604 39.7684 119.33 40.193C121.287 41.3382 123.244 42.4836 125.207 43.6316ZM110.233 27.6277C110.021 27.7416 109.895 27.8045 109.774 27.8756C107.802 29.0312 105.84 30.2022 103.858 31.3393C102.538 32.0966 101.858 33.232 101.845 34.7481C101.82 37.3984 101.824 40.0492 101.843 42.6995C101.854 44.1637 102.509 45.2837 103.761 46.0213C106.058 47.3745 108.353 48.7318 110.664 50.059C111.804 50.7129 113.008 50.7403 114.151 50.0927C116.277 48.8889 118.373 47.6313 120.481 46.3942C120.566 46.344 120.639 46.2727 120.738 46.1965C120.609 46.1084 120.522 46.0396 120.426 45.9841C118.631 44.9359 116.839 43.8836 115.038 42.8443C113.592 42.0091 112.421 40.8882 111.561 39.4417C110.657 37.9219 110.234 36.2664 110.233 34.4961C110.231 32.4078 110.232 30.3197 110.232 28.2313C110.233 28.0567 110.233 27.8822 110.233 27.6277ZM129.698 46.1979C129.865 46.3111 129.988 46.405 130.12 46.4825C132.133 47.6593 134.146 48.8349 136.161 50.0085C137.387 50.7229 138.636 50.7326 139.856 50.0299C142.178 48.6921 144.487 47.3296 146.792 45.961C147.995 45.2463 148.607 44.1452 148.619 42.7419C148.642 40.0607 148.646 37.379 148.618 34.698C148.602 33.243 147.958 32.1259 146.691 31.3908C144.907 30.3563 143.134 29.3038 141.355 28.2614C141.005 28.0561 140.648 27.8614 140.231 27.6258C140.231 27.8776 140.231 28.0501 140.231 28.2228C140.231 30.3744 140.236 32.5258 140.227 34.6774C140.225 35.1081 140.201 35.544 140.132 35.9681C139.656 38.8876 138.197 41.1477 135.686 42.6779C134.588 43.3463 133.471 43.9816 132.364 44.632C131.49 45.1449 130.616 45.6583 129.698 46.1979ZM114.667 19.8523C114.857 19.7558 114.982 19.6993 115.1 19.6302C116.937 18.5614 118.761 17.4698 120.612 16.4258C123.675 14.6973 126.774 14.7152 129.838 16.4044C131.712 17.4374 133.536 18.5626 135.384 19.6443C135.5 19.7122 135.625 19.7631 135.773 19.8346C135.783 19.6983 135.795 19.6191 135.795 19.5396C135.796 17.0031 135.797 14.4665 135.793 11.9297C135.793 11.7556 135.763 11.5786 135.725 11.408C135.481 10.3106 134.848 9.50765 133.896 8.95163C131.637 7.63158 129.38 6.30806 127.116 4.99629C125.857 4.26696 124.587 4.28315 123.328 5.00728C122.655 5.3946 121.986 5.7906 121.316 6.18351C119.687 7.13764 118.048 8.07308 116.435 9.05285C115.28 9.75423 114.669 10.8098 114.667 12.1961C114.665 14.5561 114.667 16.9161 114.667 19.2763C114.667 19.4465 114.667 19.6169 114.667 19.8523Z" fill="#221AFB"/>
<path d="M27.558 25.1061C27.5457 24.4591 27.5468 23.8354 27.5162 23.2133C27.5021 22.9295 27.4613 22.6366 27.3712 22.369C26.9951 21.2522 25.7872 20.8581 24.8297 21.5246C24.7266 21.5963 24.6295 21.6767 24.4955 21.7791C24.0618 21.4147 23.6277 21.0503 23.1672 20.6636C23.6796 20.0839 24.3062 19.7835 25.0146 19.6464C25.8408 19.4864 26.6535 19.5525 27.4204 19.9142C28.5602 20.4515 29.189 21.3887 29.3488 22.6355C29.4197 23.189 29.4098 23.7541 29.4197 24.3141C29.4319 25.0064 29.5284 25.1158 30.2111 25.1441C30.2733 25.1466 30.335 25.1589 30.4525 25.1736C30.4575 25.4248 30.4645 25.6758 30.467 25.9268C30.4694 26.1823 30.4675 26.4377 30.4675 26.6839C30.1176 26.8015 12.7902 26.8453 11.9513 26.7333C11.9513 24.917 11.9513 23.0934 11.9513 21.2844C10.5309 20.8573 9.40177 21.6748 9.3746 23.1232C9.35502 24.167 9.37136 25.2116 9.36946 26.2557C9.36908 26.4127 9.35635 26.5698 9.34799 26.7576C9.16686 26.7663 9.0129 26.7799 8.85895 26.7799C7.35441 26.7815 5.84986 26.7815 4.34531 26.7807C2.446 26.7798 0.995812 25.2949 0.943165 23.3182C0.919217 22.4207 1.13855 21.6054 1.6827 20.8892C1.7211 20.8386 1.76348 20.7906 1.80853 20.7461C1.83019 20.7247 1.86231 20.7145 1.941 20.6703C2.35686 21.0179 2.78926 21.3796 3.22146 21.7409C3.09868 22.0638 2.93751 22.3632 2.87307 22.6825C2.71513 23.4643 2.83905 24.2011 3.45524 24.752C3.66773 24.9419 3.97868 25.1113 4.25104 25.1223C5.30875 25.1647 6.36911 25.1397 7.48213 25.1397C7.48935 24.9469 7.49676 24.7772 7.50189 24.6076C7.52318 23.8871 7.47586 23.1566 7.57811 22.4485C7.8041 20.8836 9.01652 19.7409 10.5606 19.6262C11.5679 19.5514 12.5823 19.5741 13.5936 19.5562C13.6529 19.5552 13.7128 19.5807 13.8219 19.6048C13.8219 21.433 13.8219 23.2557 13.8219 25.11C15.9558 25.11 18.0364 25.11 20.1529 25.11C20.1153 24.3216 20.1088 23.5404 20.0324 22.7662C19.9587 22.0181 19.46 21.3522 18.5769 21.2182C18.1459 21.1529 17.7638 21.2661 17.4097 21.502C17.3046 21.572 17.213 21.6626 17.0655 21.7851C16.6295 21.4193 16.1874 21.0482 15.7288 20.6634C16.2243 20.1012 16.8133 19.7974 17.4744 19.6624C18.5682 19.4392 19.6166 19.5676 20.5464 20.2468C21.456 20.9113 21.8894 21.8439 21.9426 22.9623C21.9663 23.4591 21.9384 23.9582 21.9496 24.456C21.9597 24.8958 22.1714 25.136 22.574 25.1379C24.1893 25.1456 25.8049 25.1406 27.4202 25.1377C27.4799 25.1379 27.5398 25.1106 27.558 25.1061Z" fill="#221AFB"/>
<path d="M77.607 25.0235C77.9685 25.1635 79.5463 25.1941 80.1478 25.0835C80.0912 24.9478 80.0328 24.8196 79.9832 24.6881C79.4919 23.3856 79.5849 22.1449 80.3713 20.9805C80.7317 20.447 81.2262 20.0786 81.8114 19.8449C82.7262 19.4798 83.6646 19.4533 84.5879 19.7888C85.7429 20.2083 86.4908 21.0312 86.756 22.2591C87.012 23.4451 86.8546 24.5589 86.0826 25.5288C85.4504 26.323 84.6103 26.754 83.615 26.7716C81.7949 26.8036 79.9737 26.7791 78.1531 26.782C77.6952 26.7828 77.3335 26.5855 77.0283 26.2572C76.9641 26.1882 76.9023 26.1167 76.8006 26.0029C76.054 26.802 75.0959 26.7968 74.1156 26.7882C71.6934 26.7664 69.271 26.7793 66.8487 26.783C66.5022 26.7835 66.1582 26.7995 65.8687 26.5337C65.5019 28.7392 64.4649 29.7074 62.2734 29.8917C62.2734 29.3843 62.2734 28.878 62.2734 28.338C62.3506 28.308 62.4472 28.2571 62.5498 28.2324C63.4117 28.0251 63.9224 27.3989 63.9471 26.4812C63.9623 25.9196 63.9504 25.3571 63.9504 24.7951C63.9504 23.4621 63.9504 22.1291 63.9504 20.7963C63.9504 20.624 63.9504 20.4516 63.9504 20.254C64.5994 20.254 65.1924 20.254 65.8504 20.254C65.8504 20.4403 65.8504 20.6107 65.8504 20.7813C65.8504 22.0019 65.8503 23.2223 65.8508 24.4428C65.8508 24.5552 65.8436 24.6692 65.859 24.7795C65.8888 24.9913 65.9926 25.1396 66.2271 25.1402C66.873 25.1413 67.519 25.1406 68.2109 25.1406C68.2109 23.5687 68.2109 22.0345 68.2109 20.4428C68.7968 20.4015 69.3385 20.416 69.9286 20.4329C69.9286 20.9745 69.9286 21.4794 69.9286 22.057C70.2141 21.9226 70.3546 21.7291 70.5072 21.5637C71.0244 21.003 71.6339 20.575 72.329 20.288C73.5399 19.7878 74.7787 19.6621 76.0014 20.2216C77.1258 20.7362 77.7266 21.6649 77.9254 22.8939C78.0292 23.5359 77.9319 24.1332 77.6998 24.7233C77.665 24.8113 77.6433 24.904 77.607 25.0235ZM70.3073 25.0771C70.3485 25.102 70.3736 25.1307 70.3989 25.1307C71.8221 25.1353 73.2458 25.1571 74.6687 25.1321C75.3728 25.1197 75.8693 24.6491 76.0312 23.9448C76.1751 23.3194 76.0613 22.7322 75.715 22.2024C75.3694 21.6737 74.8363 21.4601 74.2423 21.4954C73.5707 21.5353 72.9535 21.791 72.4042 22.1951C71.4556 22.8928 70.8366 23.8506 70.3371 24.9011C70.3116 24.9545 70.3158 25.0226 70.3073 25.0771ZM81.5936 23.1633C81.5934 23.6844 81.6811 24.015 81.8628 24.3636C82.4022 25.3975 84.0265 25.3881 84.5889 24.5076C85.087 23.7278 85.1463 22.9227 84.7348 22.101C84.2226 21.0784 82.8901 20.8939 82.0962 21.7142C81.7043 22.1195 81.5712 22.6127 81.5936 23.1633Z" fill="#221AFB"/>
<path d="M50.3152 20.6358C50.7953 21.0364 51.2193 21.3904 51.6536 21.7526C51.5551 21.9724 51.4477 22.1666 51.3786 22.3738C51.0876 23.246 51.1805 24.0608 51.8457 24.7232C52.0463 24.9229 52.3587 25.1013 52.6296 25.1169C53.4925 25.1666 54.3599 25.1354 55.2715 25.1354C55.204 24.9684 55.1534 24.8551 55.1116 24.7382C54.5865 23.2732 54.694 21.9028 55.7314 20.688C56.179 20.1638 56.757 19.8419 57.4243 19.6934C58.6793 19.4141 59.8412 19.5858 60.843 20.46C61.374 20.9233 61.7182 21.5155 61.8705 22.2045C62.1345 23.4008 61.994 24.5294 61.2157 25.515C60.5872 26.3109 59.7528 26.7564 58.7549 26.7712C56.6971 26.8017 54.6383 26.803 52.5805 26.7734C50.9161 26.7493 49.4815 25.3002 49.3837 23.6135C49.3325 22.7313 49.4224 21.8803 49.9364 21.1284C50.0426 20.9726 50.166 20.8286 50.3152 20.6358ZM56.6981 23.188C56.665 23.5871 56.784 23.9989 57.0027 24.3794C57.5095 25.2607 58.7741 25.4365 59.5025 24.7334C60.2049 24.0554 60.3319 22.7714 59.7777 21.9489C59.3746 21.3507 58.6966 21.0865 58.0017 21.257C57.1943 21.4552 56.7036 22.1639 56.6981 23.188Z" fill="#221AFB"/>
<path d="M53.2292 43.3529C53.1933 43.4773 53.1638 43.5787 53.1323 43.6878C52.5244 43.6878 51.9299 43.6878 51.3086 43.6878C51.3086 40.039 51.3086 36.4172 51.3086 32.7605C51.9204 32.7605 52.5254 32.7605 53.1811 32.7605C53.1811 34.0886 53.1811 35.3956 53.1811 36.765C53.3122 36.6968 53.3824 36.6692 53.443 36.6273C54.5881 35.8363 56.2423 36.0588 57.2711 36.8504C58.3318 37.6667 58.9005 38.7496 58.8821 40.1161C58.8549 42.136 57.3941 43.5852 55.8652 43.8748C55.0548 44.0285 54.2572 43.9957 53.5331 43.5168C53.4424 43.457 53.3413 43.4129 53.2292 43.3529ZM56.9974 39.8341C56.9383 39.6368 56.8746 39.2343 56.703 38.8865C56.0965 37.6584 54.4534 37.5589 53.7154 38.4562C53.0781 39.2308 52.9929 40.0951 53.3223 41.0151C53.8361 42.4505 55.5662 42.4836 56.3327 41.7296C56.8018 41.2683 56.97 40.6804 56.9974 39.8341Z" fill="#221AFB"/>
<path d="M39.0935 25.1417C39.7057 25.1417 40.3066 25.1409 40.9078 25.1419C41.2729 25.1425 41.5175 24.9595 41.6095 24.6119C41.6742 24.368 41.7082 24.1083 41.7091 23.8556C41.7167 21.7352 41.7135 19.6149 41.7135 17.4947C41.7135 17.3216 41.7135 17.1485 41.7135 16.947C42.324 16.947 42.886 16.947 43.4817 16.947C43.4938 17.0683 43.5166 17.1903 43.5168 17.3126C43.5189 19.5935 43.5195 21.8744 43.5176 24.1554C43.5172 24.6233 43.4678 25.0862 43.2726 25.5169C42.9065 26.3251 42.262 26.7344 41.4024 26.7748C40.7862 26.804 40.167 26.7941 39.5502 26.7731C39.3381 26.766 39.1288 26.6729 38.8869 26.6112C38.7487 27.589 38.4018 28.4743 37.6051 29.1258C36.9345 29.6743 36.1589 29.8765 35.2852 29.9048C35.2852 29.3876 35.2852 28.8809 35.2852 28.3376C35.3954 28.3043 35.5248 28.2563 35.6583 28.226C36.271 28.0864 36.6711 27.6979 36.8481 27.1047C36.9516 26.7577 37.014 26.3846 37.0174 26.0226C37.0345 24.288 37.025 22.5531 37.025 20.8183C37.025 20.6436 37.025 20.469 37.025 20.2602C37.6372 20.2602 38.2139 20.2602 38.8382 20.2602C38.8462 20.4323 38.8606 20.603 38.8608 20.7736C38.8627 21.9783 38.8631 23.1831 38.861 24.3877C38.8605 24.6478 38.8599 24.9042 39.0935 25.1417Z" fill="#221AFB"/>
<path d="M65.4879 36.7679C65.5211 36.6366 65.547 36.5346 65.5785 36.4108C66.1723 36.4108 66.7674 36.4108 67.3573 36.4108C67.4575 36.7831 67.4974 42.5785 67.4068 43.6911C67.1076 43.6988 66.8001 43.7096 66.4924 43.7136C66.193 43.7175 65.8935 43.7144 65.5873 43.7144C65.5553 43.5854 65.5297 43.4815 65.5016 43.3681C65.4487 43.3766 65.3942 43.3693 65.3613 43.393C63.1668 44.9687 59.8344 43.1333 59.8281 40.1198C59.8249 38.5649 60.4438 37.3817 61.7704 36.6318C62.9355 35.973 64.1378 35.9022 65.3102 36.669C65.359 36.7017 65.413 36.7268 65.4879 36.7679ZM61.6881 40.0411C61.7045 40.0444 61.7208 40.0477 61.737 40.0511C61.737 40.1633 61.7301 40.2761 61.7381 40.3878C61.8001 41.2493 62.3735 41.9584 63.1687 42.1609C63.9938 42.3708 64.8206 42.0464 65.2505 41.2974C65.6279 40.6399 65.6559 39.9285 65.4383 39.2069C65.2043 38.4307 64.5003 37.8868 63.7142 37.8668C62.8583 37.845 62.1589 38.306 61.8837 39.1115C61.7822 39.4086 61.7512 39.7305 61.6881 40.0411Z" fill="#221AFB"/>
<path d="M8.69348 36.7884C8.72427 36.6467 8.7467 36.5435 8.77445 36.4153C9.36327 36.4153 9.95703 36.4153 10.5783 36.4153C10.5783 38.8422 10.5783 41.2429 10.5783 43.6794C9.98858 43.6794 9.4104 43.6794 8.7963 43.6794C8.76589 43.5884 8.72807 43.4748 8.67333 43.311C7.6774 44.0675 6.58548 44.1282 5.47284 43.7201C4.34938 43.3079 3.58209 42.4748 3.22116 41.3354C2.72661 39.7744 3.02482 38.3458 4.19733 37.1798C4.79755 36.5829 5.54697 36.2642 6.39884 36.1608C7.24747 36.0577 7.98359 36.3008 8.69348 36.7884ZM8.79687 40.0634C8.7142 39.709 8.67048 39.3392 8.54067 39.0036C8.27401 38.3136 7.72415 37.9488 7.01636 37.8765C6.33003 37.8063 5.73323 38.0373 5.3265 38.6311C4.82853 39.3579 4.78424 40.1503 5.07067 40.9681C5.32136 41.6834 5.83378 42.1033 6.5697 42.1947C7.3771 42.2949 8.03434 42.0156 8.45343 41.2764C8.66231 40.9078 8.76038 40.5058 8.79687 40.0634Z" fill="#221AFB"/>
<path d="M26.5671 36.7022C26.5863 36.6272 26.6093 36.5377 26.6401 36.4186C27.2265 36.4186 27.8212 36.4186 28.4176 36.4186C28.5204 36.7363 28.5581 42.9489 28.4558 43.6828C27.8674 43.6828 27.2734 43.6828 26.6515 43.6828C26.6234 43.5876 26.5928 43.485 26.559 43.3707C26.5175 43.3786 26.4656 43.3736 26.4339 43.3969C24.5625 44.7706 21.4882 43.5784 20.9775 40.8166C20.7183 39.4148 21.0589 38.1622 22.1029 37.1794C23.024 36.3124 24.132 35.9528 25.3808 36.226C25.7732 36.3118 26.1384 36.526 26.5671 36.7022ZM24.7334 42.2045C25.5841 42.2043 26.2108 41.747 26.4976 40.9392C26.7097 40.3416 26.7103 39.7526 26.5004 39.1555C26.2423 38.4208 25.7305 37.9715 24.9793 37.8825C24.2227 37.7928 23.5767 38.0467 23.1485 38.7356C22.8493 39.217 22.7495 39.751 22.8075 40.3014C22.9498 41.6556 23.8344 42.2365 24.7334 42.2045Z" fill="#221AFB"/>
<path d="M34.2971 32.7454C34.8975 32.7454 35.4629 32.7454 36.0964 32.7454C36.0993 33.4005 36.1032 34.0511 36.1048 34.702C36.1063 35.3434 36.1051 35.9847 36.1051 36.6797C36.234 36.6178 36.3325 36.5848 36.4153 36.5285C37.7659 35.6114 40.1795 36.3492 40.629 38.2776C40.7302 38.7112 40.8071 39.1605 40.8161 39.6044C40.841 40.8564 40.8252 42.1093 40.8239 43.3619C40.8237 43.456 40.8104 43.5499 40.8005 43.6788C40.1938 43.6788 39.6012 43.6788 38.9512 43.6788C38.9426 43.5206 38.9263 43.3523 38.9259 43.1839C38.9236 42.0116 38.9306 40.8394 38.9204 39.6672C38.9179 39.3813 38.8837 39.0913 38.8259 38.8112C38.7174 38.2853 38.3814 37.9791 37.861 37.8827C37.0505 37.7323 36.3606 38.192 36.207 39.0081C36.1452 39.3364 36.1131 39.6749 36.1093 40.0094C36.0972 41.0692 36.1048 42.1292 36.1048 43.189C36.1048 43.3455 36.1048 43.5019 36.1048 43.6867C35.4787 43.6867 34.9022 43.6867 34.2969 43.6867C34.2971 40.0424 34.2971 36.4206 34.2971 32.7454Z" fill="#221AFB"/>
<path d="M77.7266 32.7449C78.3274 32.7449 78.893 32.7449 79.5253 32.7449C79.5282 33.4177 79.5322 34.085 79.5337 34.752C79.5352 35.4426 79.5341 36.1334 79.5341 36.824C79.5341 37.4965 79.5341 38.1691 79.5341 38.9314C79.6817 38.8204 79.7813 38.7625 79.86 38.6835C80.4899 38.0503 81.124 37.4211 81.7392 36.7737C81.9973 36.502 82.2676 36.3609 82.6536 36.3806C83.2658 36.412 83.8808 36.3889 84.5413 36.4746C83.5435 37.4616 82.5456 38.4483 81.5172 39.4654C82.5989 40.8599 83.6691 42.2399 84.8131 43.715C84.336 43.715 83.965 43.7194 83.594 43.7136C83.2316 43.7081 82.822 43.7944 82.5209 43.6508C82.2381 43.5158 82.0674 43.1355 81.8525 42.859C81.3155 42.1674 80.7815 41.4736 80.2196 40.746C80.0087 40.9555 79.8007 41.13 79.6365 41.3396C79.559 41.4385 79.5415 41.6045 79.5384 41.7412C79.5272 42.2228 79.5341 42.7048 79.5341 43.1867C79.5341 43.3435 79.5341 43.5002 79.5341 43.6857C78.9091 43.6857 78.3327 43.6857 77.7266 43.6857C77.7266 40.0425 77.7266 36.4203 77.7266 32.7449Z" fill="#221AFB"/>
<path d="M69.3086 36.3911C69.8664 36.3911 70.4017 36.3797 70.9355 36.4011C71.0349 36.4051 71.1294 36.5403 71.2064 36.5997C71.5654 36.4697 71.9374 36.2927 72.3285 36.201C73.597 35.9037 75.4579 36.7147 75.7284 38.6159C75.7599 38.8372 75.8033 39.0597 75.805 39.282C75.8156 40.7102 75.8166 42.1386 75.8189 43.567C75.8189 43.5959 75.7974 43.625 75.7738 43.6844C75.1922 43.6844 74.5986 43.6844 73.953 43.6844C73.9454 43.5107 73.9317 43.3407 73.9313 43.1708C73.9294 41.9826 73.9376 40.7944 73.9253 39.6065C73.922 39.3053 73.8829 38.9982 73.8129 38.7055C73.7118 38.2825 73.4313 38.0275 73.005 37.9201C72.1269 37.699 71.421 38.1241 71.2383 39.0225C71.1783 39.318 71.1492 39.625 71.1461 39.9271C71.1353 41.0027 71.142 42.0786 71.142 43.1544C71.142 43.3137 71.142 43.4729 71.142 43.6736C70.5242 43.6736 69.9343 43.6736 69.3086 43.6736C69.3086 41.2733 69.3086 38.874 69.3086 36.3911Z" fill="#221AFB"/>
<path d="M28.7773 47.553C28.7773 46.997 28.7773 46.4888 28.7773 46.051C29.1539 45.8646 29.5239 45.7481 29.8128 45.5241C30.356 45.1026 30.5014 44.479 30.5007 43.8092C30.498 41.5315 30.4997 39.2537 30.4997 36.976C30.4997 36.8025 30.4997 36.629 30.4997 36.4231C31.1317 36.4231 31.7216 36.4231 32.3412 36.4231C32.3507 36.5779 32.3667 36.7179 32.3669 36.8578C32.3684 39.2799 32.381 41.7022 32.3637 44.124C32.3513 45.8534 31.0077 47.3749 29.1556 47.5679C29.048 47.5791 28.9378 47.5602 28.7773 47.553Z" fill="#221AFB"/>
<path d="M12.4727 32.7258C12.9284 32.7258 13.3528 32.7258 13.7771 32.7258C13.9476 32.7258 14.118 32.7258 14.3146 32.7258C14.3146 36.3928 14.3146 40.013 14.3146 43.674C13.7109 43.674 13.1071 43.674 12.4727 43.674C12.4727 40.0446 12.4727 36.4259 12.4727 32.7258Z" fill="#221AFB"/>
<path d="M45.168 16.9351C45.7853 16.9351 46.3688 16.9351 46.9515 16.9351C47.054 17.2667 47.0838 26.0931 46.9772 26.7812C46.6913 26.7812 46.395 26.7812 46.0987 26.7812C45.7997 26.7812 45.5006 26.7812 45.168 26.7812C45.168 23.4933 45.168 20.242 45.168 16.9351Z" fill="#221AFB"/>
<path d="M34.5519 26.7598C33.9589 26.7598 33.3936 26.7598 32.8284 26.7598C32.7282 26.4321 32.6946 17.6719 32.7948 16.947C33.3667 16.947 33.9431 16.947 34.5521 16.947C34.5519 20.2048 34.5519 23.4546 34.5519 26.7598Z" fill="#221AFB"/>
<path d="M17.9561 43.7214C17.3114 43.7214 16.7186 43.7214 16.0877 43.7214C16.0762 43.5636 16.0575 43.4246 16.0573 43.2854C16.0551 42.0022 16.0402 40.7186 16.0646 39.4359C16.0729 38.9935 16.1337 38.5391 16.2542 38.1147C16.5154 37.1945 17.1354 36.6135 18.0568 36.3908C18.7823 36.2155 19.5152 36.1425 20.276 36.3295C20.276 36.8431 20.276 37.3505 20.276 37.9146C20.0491 37.9204 19.8339 37.9243 19.6189 37.9318C19.4139 37.9391 19.2075 37.9379 19.0041 37.9622C18.2879 38.048 17.9618 38.4253 17.9578 39.1874C17.9515 40.4225 17.9561 41.6577 17.9561 42.8927C17.9561 43.1609 17.9561 43.4293 17.9561 43.7214Z" fill="#221AFB"/>
<path d="M42.7128 36.417C43.3196 36.417 43.8993 36.417 44.5043 36.417C44.5043 38.8462 44.5043 41.247 44.5043 43.6814C43.9069 43.6814 43.3282 43.6814 42.7462 43.6814C42.6419 43.3653 42.6065 37.1589 42.7128 36.417Z" fill="#221AFB"/>
<path d="M43.6005 35.0709C42.901 35.0704 42.4352 34.603 42.4415 33.908C42.4474 33.2622 42.9474 32.7727 43.5891 32.7545C44.1792 32.738 44.7713 33.2552 44.7724 33.9198C44.7734 34.514 44.2319 35.1691 43.6005 35.0709Z" fill="#221AFB"/>
<path d="M31.447 35.0709C30.7795 35.1715 30.2386 34.4642 30.2709 33.9215C30.3095 33.2714 30.775 32.767 31.4124 32.758C32.0989 32.7481 32.5868 33.2247 32.5901 33.9082C32.5935 34.6333 32.1655 35.0688 31.447 35.0709Z" fill="#221AFB"/>
<path d="M4.48794 30.5402C3.8556 30.5392 3.41123 30.091 3.41408 29.4569C3.41693 28.8255 3.86681 28.3836 4.50219 28.3882C5.08417 28.3925 5.55762 28.8631 5.56674 29.4467C5.57605 30.0445 5.08607 30.5411 4.48794 30.5402Z" fill="#221AFB"/>
<path d="M8.60971 29.4458C8.61751 30.0682 8.16116 30.5363 7.54326 30.5401C6.93943 30.544 6.45382 30.0605 6.45705 29.4586C6.46009 28.8765 6.92955 28.398 7.50715 28.3884C8.13151 28.3779 8.60211 28.8293 8.60971 29.4458Z" fill="#221AFB"/>
<path d="M55.3956 18.2642C55.3821 18.8956 54.9451 19.2829 54.2696 19.2617C53.6789 19.2434 53.2519 18.7707 53.2743 18.1603C53.2961 17.569 53.7703 17.1136 54.3506 17.1082C54.9417 17.1028 55.4644 17.6112 55.3956 18.2642Z" fill="#221AFB"/>
<path d="M27.2696 29.4579C27.3532 30.0338 26.7606 30.5875 26.2174 30.5488C25.613 30.5058 25.1428 30.056 25.1485 29.4446C25.154 28.8553 25.6157 28.424 26.2054 28.3802C26.8019 28.3361 27.3549 28.9372 27.2696 29.4579Z" fill="#221AFB"/>
</g>
<defs>
<clipPath id="clip0_54_69934">
<rect width="152.059" height="55" fill="white" transform="translate(0.941406)"/>
</clipPath>
</defs>
</svg>
