<svg width="184" height="55" viewBox="0 0 184 55" fill="none" xmlns="http://www.w3.org/2000/svg">
<path d="M100.531 34.1974C100.694 34.1974 100.829 34.135 100.938 34.0291C101.071 33.9154 101.105 33.7692 101.105 33.608C101.105 33.4373 101.071 33.2832 100.938 33.1742C100.829 33.047 100.694 32.9924 100.531 32.9924C100.349 32.9924 100.219 33.0588 100.116 33.1742C99.9961 33.2943 99.9492 33.4373 99.9492 33.608C99.9492 33.7692 99.9961 33.9154 100.116 34.0291C100.219 34.1358 100.349 34.1974 100.531 34.1974Z" fill="#000101"/>
<path d="M87.0676 40.4513C86.9194 40.4513 86.8126 40.3865 86.7665 40.2371C86.7327 40.1597 86.7204 39.9977 86.7204 39.7844V37.4542C86.7204 36.965 86.6398 36.5715 86.5123 36.3005C86.2581 35.8193 85.7596 35.5728 85.0277 35.5728C84.4071 35.5728 83.9424 35.726 83.6098 36.0176C83.2888 36.306 83.1244 36.5873 83.1244 36.8576C83.1244 36.9919 83.1767 37.1239 83.242 37.24C83.3579 37.3522 83.4678 37.4028 83.6436 37.4028C83.7588 37.4028 83.8249 37.3775 83.9294 37.3309C84.0576 37.2424 84.1344 37.0883 84.1344 36.8757C84.1344 36.856 84.1191 36.7809 84.1006 36.6711C84.0906 36.5597 84.083 36.4735 84.083 36.4348C84.083 36.2515 84.1667 36.1022 84.3441 35.9987C84.5092 35.9015 84.6936 35.8604 84.8948 35.8604C85.2734 35.8604 85.5392 35.9844 85.6567 36.2436C85.7466 36.3993 85.7949 36.6711 85.7949 37.0614V37.5498C84.7519 37.9488 84.0676 38.2601 83.7251 38.4853C83.1928 38.8733 82.9102 39.3324 82.9102 39.8974C82.9102 40.249 83.0361 40.5492 83.2673 40.7903C83.4977 41.0115 83.7788 41.1221 84.0991 41.1221C84.4071 41.1221 84.722 41.0273 85.0615 40.8234C85.2688 40.6954 85.5192 40.5082 85.8134 40.2553C85.8226 40.4813 85.8771 40.6883 85.9839 40.8495C86.1014 41.0115 86.2811 41.096 86.5353 41.096C86.7581 41.096 86.9547 41.0273 87.1667 40.8795C87.308 40.7903 87.4401 40.6725 87.563 40.5129V40.2332C87.4232 40.3296 87.3226 40.3967 87.2742 40.4181C87.2104 40.4442 87.1467 40.4513 87.0676 40.4513ZM85.7949 39.6769C85.7949 39.8974 85.6567 40.0791 85.4524 40.2253C85.2251 40.3738 84.9877 40.437 84.7327 40.437C84.5653 40.437 84.3894 40.3865 84.2512 40.2806C84.0238 40.0989 83.9117 39.8389 83.9117 39.4896C83.9117 39.0527 84.1867 38.6584 84.7174 38.3233C85.0031 38.1463 85.3472 37.9836 85.7949 37.8334V39.6769Z" fill="#000101"/>
<path d="M165.085 37.5869C164.715 37.2818 164.254 37.059 163.735 36.9373C164.155 36.822 164.479 36.6876 164.692 36.5146C165.065 36.238 165.256 35.8145 165.256 35.2543C165.256 34.5186 165 33.9884 164.454 33.6826C163.913 33.3824 163.175 33.2283 162.271 33.2283H159.062V33.4456C159.514 33.4622 159.809 33.5467 159.953 33.6731C160.075 33.8019 160.155 34.073 160.155 34.5186V39.7424C160.155 40.1881 160.075 40.4678 159.953 40.5911C159.809 40.7112 159.514 40.8013 159.062 40.8202V41.028H162.804C163.43 41.028 163.981 40.9388 164.412 40.7618C165.228 40.4188 165.642 39.7922 165.642 38.8677C165.642 38.3233 165.452 37.8808 165.085 37.5869ZM161.331 34.073C161.331 33.8802 161.346 33.7616 161.408 33.7285C161.443 33.6826 161.599 33.6684 161.842 33.6684C162.471 33.6684 162.951 33.7332 163.261 33.8644C163.803 34.1133 164.099 34.5882 164.099 35.2922C164.099 35.8904 163.848 36.306 163.352 36.532C163.115 36.6647 162.783 36.7145 162.41 36.7279L161.331 36.7509V34.073ZM163.756 40.2489C163.341 40.4812 162.849 40.5998 162.264 40.5998C161.867 40.5998 161.599 40.5666 161.483 40.5113C161.377 40.452 161.331 40.3137 161.331 40.1193V37.1768C161.413 37.1949 161.483 37.1949 161.543 37.1949H161.873C162.586 37.1949 163.174 37.3135 163.646 37.5481C164.122 37.7962 164.354 38.2498 164.354 38.9041C164.354 39.5662 164.15 40.0261 163.756 40.2489Z" fill="#000101"/>
<path d="M176.425 40.068V37.3767C176.425 36.6355 176.228 36.1006 175.825 35.8193C175.619 35.662 175.393 35.5862 175.122 35.5862C174.819 35.5862 174.519 35.6778 174.243 35.8643C174.026 35.9955 173.771 36.2223 173.442 36.5533V35.7205C173.442 35.6778 173.436 35.6549 173.436 35.6344C173.425 35.6225 173.402 35.5996 173.375 35.5996L172.852 35.7837C172.276 35.9568 171.923 36.0729 171.766 36.1227V36.3179C171.824 36.3068 171.854 36.2981 171.895 36.2973C171.941 36.2973 171.977 36.2918 172.01 36.2918C172.227 36.2918 172.371 36.3637 172.429 36.5083C172.485 36.6039 172.498 36.7833 172.498 37.029V39.9953C172.498 40.3391 172.445 40.5627 172.36 40.6717C172.245 40.7681 172.051 40.8242 171.796 40.8598V41.0281H174.213V40.8598C173.971 40.8574 173.771 40.8171 173.667 40.7104C173.545 40.6172 173.49 40.437 173.49 40.1605V36.9208C173.684 36.7138 173.839 36.5707 173.978 36.4814C174.2 36.3329 174.425 36.2507 174.653 36.2507C174.961 36.2507 175.177 36.3511 175.278 36.5818C175.408 36.7904 175.453 37.0693 175.453 37.402V39.876C175.453 40.2679 175.408 40.5232 175.306 40.633C175.206 40.7571 175.013 40.8242 174.733 40.8598V41.0281H177.123V40.8598C176.883 40.8598 176.693 40.8037 176.596 40.6788C176.489 40.5524 176.425 40.3517 176.425 40.068Z" fill="#000101"/>
<path d="M182.174 40.4743C181.902 40.2444 181.514 39.7671 180.975 39.0749L179.987 37.7L180.296 37.4211C180.998 36.7337 181.491 36.318 181.748 36.1655C181.988 36.0186 182.312 35.923 182.725 35.9016V35.7381H180.395V35.9016C180.623 35.9127 180.755 35.9332 180.859 35.9569C180.932 35.9791 180.975 36.0328 180.975 36.1229C180.975 36.1655 180.96 36.2232 180.915 36.2785C180.889 36.341 180.793 36.4247 180.686 36.5203L179.146 37.9339V33.0815C179.146 33.0491 179.144 33.0286 179.137 33.0135C179.129 32.9985 179.124 32.9985 179.112 32.9985C179.089 32.9985 178.99 33.0428 178.813 33.0957C178.538 33.1795 178.206 33.2735 177.822 33.3786L177.316 33.5129V33.6836C177.372 33.6733 177.449 33.6694 177.49 33.6694C177.55 33.6583 177.586 33.6583 177.671 33.6583C177.842 33.6583 177.969 33.6836 178.06 33.7587C178.151 33.8361 178.185 33.9973 178.185 34.266V40.0579C178.185 40.3858 178.141 40.581 178.028 40.6893C177.899 40.7801 177.671 40.8362 177.316 40.8592V41.029H180.02V40.8592C179.743 40.8592 179.56 40.8244 179.434 40.792C179.27 40.6893 179.146 40.5131 179.146 40.2499V38.1094L180.878 40.4459C180.909 40.4886 180.932 40.5415 180.949 40.5684C180.973 40.6071 180.975 40.6537 180.975 40.6908C180.975 40.758 180.96 40.792 180.905 40.8212C180.859 40.8307 180.786 40.8489 180.72 40.8489L180.541 40.8592V41.029H183.021V40.8592C182.72 40.8362 182.449 40.7098 182.174 40.4743Z" fill="#000101"/>
<path d="M98.6904 40.3249C98.4361 40.3249 98.2664 40.2814 98.2126 40.1811C98.1573 40.0791 98.1059 39.9132 98.1059 39.6611L98.1259 34.9746C98.1259 34.7479 98.1259 34.5203 98.1366 34.2959C98.1366 34.062 98.1573 33.8352 98.1573 33.6179L98.1597 33.0126L98.1059 33C97.983 33.0506 97.8686 33.0964 97.8125 33.1043C97.695 33.1596 97.5414 33.2007 97.3701 33.2521C97.1965 33.2987 97.0406 33.3429 96.8617 33.3943L96.397 33.5136V33.7064C96.5398 33.6993 96.5836 33.6827 96.6213 33.6827H96.7495C96.9484 33.6827 97.0637 33.7285 97.1044 33.8147C97.1604 33.9016 97.1934 34.062 97.1934 34.2959V36.103C97.0537 35.9695 96.9085 35.8604 96.7595 35.7703C96.5421 35.6526 96.2864 35.5862 96.0107 35.5862C95.334 35.5862 94.7618 35.8897 94.2864 36.4815C93.821 37.071 93.5859 37.7963 93.5859 38.6268C93.5859 39.2977 93.7803 39.8713 94.1712 40.3739C94.5591 40.8804 95.0844 41.1214 95.7065 41.1214C96.0644 41.1214 96.377 41.0455 96.6443 40.859C96.7971 40.7611 96.9723 40.5912 97.1934 40.3407V41.0882L97.2372 41.1214L98.1059 40.8021C98.6243 40.6062 98.9192 40.5114 98.9369 40.5019V40.3043C98.8962 40.3122 98.8371 40.3122 98.8025 40.3146C98.7856 40.3146 98.7242 40.3249 98.6904 40.3249ZM97.1934 39.7236C97.1934 39.8753 97.0867 40.0554 96.9154 40.2253C96.7411 40.4023 96.516 40.4813 96.218 40.4813C95.6589 40.4813 95.2603 40.249 94.9784 39.7662C94.6904 39.2977 94.5591 38.7437 94.5591 38.1258C94.5591 37.5119 94.6773 36.9761 94.9423 36.5589C95.2142 36.1283 95.5736 35.9173 96.0391 35.9173C96.2971 35.9173 96.5452 36.0256 96.7971 36.2263C97.0613 36.4349 97.1934 36.7825 97.1934 37.2772V39.7236Z" fill="#000101"/>
<path d="M101.116 39.831V35.6913C101.116 35.6597 101.113 35.6344 101.106 35.5989C101.091 35.5989 101.014 35.6289 100.911 35.6637C100.651 35.7877 100.209 35.9387 99.5519 36.1583L99.31 36.2373V36.4056C99.512 36.3401 99.5988 36.3171 99.6518 36.3061C99.6932 36.2966 99.7339 36.2966 99.767 36.2966C99.9536 36.2966 100.074 36.3709 100.114 36.5265C100.153 36.6356 100.173 36.8031 100.173 37.0575V39.8223C100.173 40.2806 100.114 40.5564 100.017 40.656C99.8998 40.7626 99.6594 40.8243 99.2539 40.859V41.0281H101.967V40.859C101.62 40.8306 101.376 40.7674 101.289 40.656C101.167 40.5406 101.116 40.2672 101.116 39.831Z" fill="#000101"/>
<path d="M67.3063 39.8224V37.4788C67.3063 37.0284 67.2564 36.672 67.1327 36.3931C66.9185 35.8637 66.5014 35.5998 65.9039 35.5998C65.5306 35.5998 65.1781 35.7262 64.8463 35.9561C64.6804 36.0834 64.4707 36.292 64.2349 36.5662V33.042L64.2142 32.9985L63.6834 33.166C63.5821 33.2127 63.4185 33.2625 63.175 33.3257C62.9269 33.3944 62.7249 33.4545 62.5544 33.5121V33.7318C62.5997 33.72 62.6612 33.72 62.6919 33.7057C62.7272 33.6994 62.771 33.6994 62.8148 33.6994C63.0176 33.6994 63.1474 33.746 63.2073 33.8559C63.2595 33.9562 63.2956 34.1111 63.2956 34.3181V39.8224C63.2956 40.2491 63.2472 40.5225 63.1389 40.6292C63.0498 40.7383 62.8478 40.8244 62.5391 40.8592V41.0275H65.0175V40.8592C64.698 40.8236 64.4861 40.7383 64.3901 40.6332C64.294 40.5336 64.2418 40.2555 64.2418 39.8224V36.9921C64.2418 36.9241 64.3885 36.785 64.6527 36.5709C64.92 36.3504 65.2003 36.2509 65.4922 36.2509C65.8217 36.2509 66.0467 36.3647 66.1696 36.5946C66.2794 36.8277 66.3501 37.1311 66.3501 37.4978V39.8224C66.3501 40.2491 66.3025 40.5225 66.2126 40.6292C66.1059 40.7383 65.9039 40.8236 65.5736 40.8592V41.0275H68.0145V40.8592C67.7357 40.8244 67.5406 40.7469 67.4492 40.6268C67.3547 40.502 67.3063 40.2341 67.3063 39.8224Z" fill="#000101"/>
<path d="M55.6446 33.2275L55.6016 35.2401H55.8673C55.9794 34.6103 56.163 34.1963 56.3873 34.0082C56.6231 33.8225 57.0493 33.7309 57.7014 33.7309H58.3059V39.6074C58.3059 40.1226 58.2375 40.445 58.1254 40.5674C57.9925 40.6915 57.7014 40.7792 57.2137 40.8203V41.0273H60.5608V40.8203C60.1054 40.7903 59.8166 40.7081 59.6745 40.599C59.5432 40.4876 59.4694 40.2047 59.4694 39.7417V33.7309H60.0946C60.7598 33.7309 61.1914 33.8225 61.3965 34.0082C61.61 34.2002 61.7636 34.6103 61.9065 35.2401H62.1906L62.1292 33.2275H55.6446Z" fill="#000101"/>
<path d="M80.0438 36.7277L79.0285 36.0829C78.6467 35.8514 78.3825 35.6222 78.209 35.4034C78.0123 35.1916 77.9278 34.9293 77.9278 34.6243C77.9278 34.2853 78.0285 34.0253 78.2696 33.8349C78.5023 33.6366 78.7758 33.5465 79.0983 33.5465C79.5062 33.5465 79.9109 33.6887 80.3195 33.9937C80.7335 34.2963 81.043 34.821 81.2289 35.5725H81.5L81.2443 33.0676H81.01C80.9785 33.1917 80.9378 33.2723 80.8641 33.3442C80.818 33.4153 80.7235 33.4453 80.5799 33.4453C80.5238 33.4453 80.3195 33.3829 79.9493 33.262C79.5876 33.1301 79.2773 33.0676 79.0154 33.0676C78.3879 33.0676 77.8749 33.2707 77.4732 33.6689C77.1153 34.0617 76.9163 34.5571 76.9163 35.1553C76.9163 35.5985 77.0868 36.0094 77.4017 36.3824C77.5676 36.5815 77.8057 36.7712 78.0937 36.9679L79.0853 37.5945C79.6452 37.9509 80.0231 38.2282 80.1913 38.4123C80.4655 38.6873 80.6006 39.0263 80.6006 39.419C80.6006 39.837 80.4655 40.176 80.1913 40.4115C79.9263 40.6485 79.6183 40.7702 79.2589 40.7702C78.5646 40.7702 78.0123 40.4873 77.5546 39.9476C77.2942 39.6355 77.0592 39.2136 76.8749 38.6873H76.5938L76.9317 41.2032H77.1974C77.2228 41.0958 77.2435 40.9986 77.3027 40.9172C77.3457 40.8255 77.4394 40.7908 77.5653 40.7908C77.6345 40.7908 77.8411 40.8492 78.2189 40.9828C78.6014 41.121 78.9862 41.2032 79.3388 41.2032C80.0438 41.2032 80.6291 40.9828 81.0653 40.5671C81.5254 40.1602 81.7596 39.6355 81.7596 39.0263C81.7596 38.5672 81.626 38.1634 81.3748 37.8331C81.1152 37.4894 80.6744 37.1331 80.0438 36.7277Z" fill="#000101"/>
<path d="M72.0675 40.0071C71.7887 40.2117 71.4792 40.3152 71.076 40.3152C70.5921 40.3152 70.1789 40.1201 69.8233 39.71C69.4746 39.3109 69.2803 38.6582 69.2411 37.7788H72.7749C72.7749 37.0945 72.5806 36.5722 72.1843 36.2016C71.7841 35.8247 71.3102 35.6445 70.8095 35.6445C70.0998 35.6445 69.5191 35.9171 69.0806 36.4734C68.6282 37.0455 68.4062 37.6998 68.4062 38.4694C68.4062 39.1869 68.6082 39.8079 68.9692 40.3421C69.3717 40.8873 69.8963 41.1552 70.6006 41.1552C71.2196 41.1552 71.7319 40.9537 72.1512 40.5404C72.566 40.1232 72.8494 39.676 73.0022 39.1869L72.7903 39.111C72.5806 39.495 72.3325 39.8024 72.0675 40.0071ZM69.5191 36.6401C69.7396 36.2545 70.0514 36.0641 70.4938 36.0641C70.9124 36.0641 71.2242 36.2379 71.4001 36.5722C71.49 36.7618 71.5744 37.051 71.6075 37.4208H69.2649C69.3179 37.1032 69.4024 36.8551 69.5191 36.6401Z" fill="#000101"/>
<path d="M92.4726 40.3256C92.3896 40.2331 92.3458 40.0554 92.3458 39.8033V35.7102H90.5417V35.9022C90.8819 35.9164 91.1116 35.9781 91.213 36.065C91.3236 36.1646 91.3819 36.3479 91.3819 36.6489V39.7922C91.2514 39.9479 91.1047 40.0878 90.9741 40.1818C90.726 40.3525 90.468 40.437 90.2122 40.437C89.8566 40.437 89.6124 40.2932 89.471 39.9985C89.3927 39.8396 89.3566 39.6358 89.3566 39.3766V35.7102H87.6953V35.8651C87.9541 35.9022 88.1362 35.9394 88.2114 35.9986C88.3466 36.1029 88.4096 36.3178 88.4096 36.6118V39.5892C88.4096 40.1494 88.5409 40.5405 88.8405 40.7807C89.1131 41.0115 89.4265 41.1229 89.7468 41.1229C90.1024 41.1229 90.4395 41.0115 90.7491 40.791C90.9534 40.6345 91.1861 40.407 91.4365 40.0893V41.0462C91.4365 41.0707 91.4365 41.0881 91.4411 41.1C91.4411 41.1213 91.4641 41.1229 91.4864 41.1229C91.809 41.0004 92.0263 40.9293 92.1062 40.8882C92.3458 40.8234 92.4994 40.7705 92.6039 40.7389C92.6899 40.7104 92.8512 40.6812 93.0509 40.6172V40.4512C92.7583 40.4647 92.5655 40.4291 92.4726 40.3256Z" fill="#000101"/>
<path d="M105.297 33.4457C105.747 33.4623 106.05 33.5468 106.171 33.6717C106.311 33.8013 106.383 34.0715 106.383 34.5187V39.741C106.383 40.2048 106.311 40.4869 106.171 40.5991C106.05 40.7081 105.747 40.7903 105.297 40.8203V41.0282H108.642V40.8203C108.192 40.7903 107.881 40.7081 107.765 40.5991C107.625 40.4869 107.556 40.2048 107.556 39.741V34.5187C107.556 34.0715 107.625 33.8013 107.765 33.6717C107.881 33.5468 108.192 33.4623 108.642 33.4457V33.2268H105.297V33.4457Z" fill="#000101"/>
<path d="M145.882 40.0071C145.613 40.2117 145.284 40.3152 144.895 40.3152C144.415 40.3152 143.988 40.1201 143.644 39.71C143.273 39.3109 143.086 38.6582 143.043 37.7788H146.584C146.584 37.0945 146.39 36.5722 145.996 36.2016C145.613 35.8247 145.147 35.6445 144.617 35.6445C143.894 35.6445 143.314 35.9171 142.889 36.4734C142.445 37.0455 142.223 37.6998 142.223 38.4694C142.223 39.1869 142.402 39.8079 142.79 40.3421C143.176 40.8873 143.723 41.1552 144.425 41.1552C145.022 41.1552 145.527 40.9537 145.952 40.5404C146.38 40.1232 146.673 39.676 146.806 39.1869L146.602 39.111C146.39 39.495 146.147 39.8024 145.882 40.0071ZM143.314 36.6401C143.544 36.2545 143.86 36.0641 144.295 36.0641C144.727 36.0641 145.034 36.2379 145.207 36.5722C145.317 36.7618 145.37 37.051 145.425 37.4208H143.068C143.119 37.1032 143.211 36.8551 143.314 36.6401Z" fill="#000101"/>
<path d="M151.936 40.068V37.3767C151.936 36.6355 151.734 36.1006 151.335 35.8193C151.124 35.662 150.897 35.5862 150.653 35.5862C150.328 35.5862 150.027 35.6778 149.732 35.8643C149.544 35.9955 149.268 36.2223 148.941 36.5533V35.7205C148.941 35.6778 148.941 35.6549 148.926 35.6344C148.926 35.6225 148.89 35.5996 148.879 35.5996L148.358 35.7837C147.791 35.9568 147.427 36.0729 147.25 36.1227V36.3179C147.323 36.3068 147.369 36.2981 147.414 36.2973C147.436 36.2973 147.464 36.2918 147.502 36.2918C147.728 36.2918 147.848 36.3637 147.927 36.5083C147.973 36.6039 148.011 36.7833 148.011 37.029V39.9953C148.011 40.3391 147.947 40.5627 147.837 40.6717C147.745 40.7681 147.551 40.8242 147.295 40.8598V41.0281H149.71V40.8598C149.452 40.8574 149.268 40.8171 149.146 40.7104C149.054 40.6172 148.987 40.437 148.987 40.1605V36.9208C149.178 36.7138 149.345 36.5707 149.454 36.4814C149.699 36.3329 149.92 36.2507 150.137 36.2507C150.454 36.2507 150.68 36.3511 150.781 36.5818C150.914 36.7904 150.977 37.0693 150.977 37.402V39.876C150.977 40.2679 150.917 40.5232 150.801 40.633C150.698 40.7571 150.506 40.8242 150.226 40.8598V41.0281H152.633V40.8598C152.374 40.8598 152.212 40.8037 152.079 40.6788C151.989 40.5524 151.936 40.3517 151.936 40.068Z" fill="#000101"/>
<path d="M155.502 40.3963C155.415 40.4516 155.293 40.4817 155.154 40.4817C154.892 40.4817 154.715 40.3521 154.619 40.0905C154.58 39.9475 154.572 39.7112 154.572 39.4418L154.575 36.1412H155.712V35.7391H154.58V34.3167C154.58 34.2646 154.58 34.2433 154.575 34.2433C154.572 34.2314 154.528 34.2219 154.47 34.2219C154.052 34.8027 153.798 35.1646 153.665 35.295C153.563 35.4356 153.364 35.6134 153.119 35.8276C153.029 35.901 152.965 35.954 152.945 35.9785C152.943 35.9966 152.934 36.0243 152.934 36.0662C152.934 36.078 152.943 36.0836 152.945 36.1025C152.945 36.116 152.964 36.1254 152.989 36.1412H153.593V39.6148C153.593 40.0028 153.645 40.3047 153.739 40.5354C153.878 40.9313 154.202 41.1225 154.619 41.1225C154.838 41.1225 155.04 41.0885 155.257 40.9605C155.464 40.8349 155.679 40.6539 155.871 40.386L155.984 40.198L155.853 40.0692C155.719 40.213 155.596 40.3149 155.502 40.3963Z" fill="#000101"/>
<path d="M132.59 40.3963C132.505 40.4516 132.382 40.4817 132.244 40.4817C131.997 40.4817 131.802 40.3521 131.721 40.0905C131.673 39.9475 131.641 39.7112 131.641 39.4418L131.654 36.1412H132.809V35.7391H131.673V34.3167C131.673 34.2646 131.673 34.2433 131.663 34.2433C131.647 34.2314 131.617 34.2219 131.572 34.2219C131.15 34.8027 130.89 35.1646 130.756 35.295C130.655 35.4356 130.476 35.6134 130.203 35.8276C130.121 35.901 130.067 35.954 130.047 35.9785C130.035 35.9966 130.035 36.0243 130.035 36.0662C130.035 36.078 130.035 36.0836 130.037 36.1025C130.047 36.116 130.057 36.1254 130.075 36.1412H130.688V39.6148C130.688 40.0028 130.722 40.3047 130.831 40.5354C130.968 40.9313 131.276 41.1225 131.721 41.1225C131.928 41.1225 132.13 41.0885 132.345 40.9605C132.558 40.8349 132.782 40.6539 132.954 40.386L133.093 40.198L132.925 40.0692C132.824 40.213 132.7 40.3149 132.59 40.3963Z" fill="#000101"/>
<path d="M141.117 40.1233V37.7401C141.117 37.1246 141.071 36.675 140.94 36.3968C140.746 35.8911 140.351 35.6438 139.734 35.6438C139.38 35.6438 139.022 35.7528 138.682 35.9954C138.483 36.1274 138.216 36.3399 137.947 36.6355C137.872 36.3826 137.785 36.1811 137.662 36.0389C137.425 35.7702 137.125 35.6438 136.745 35.6438C136.469 35.6438 136.198 35.711 135.913 35.8319C135.657 35.978 135.34 36.2032 134.973 36.5509V35.7837C134.973 35.726 134.973 35.6865 134.961 35.662C134.952 35.6493 134.946 35.6438 134.922 35.6438C134.905 35.6438 134.743 35.711 134.408 35.8421C134.061 35.978 133.819 36.0737 133.671 36.1258L133.272 36.2538V36.46C133.335 36.4379 133.356 36.4348 133.411 36.4245C133.441 36.4182 133.497 36.4182 133.58 36.4182C133.753 36.4182 133.873 36.4537 133.942 36.543C134.011 36.6355 134.04 36.8196 134.04 37.104V40.0577C134.04 40.3959 133.974 40.6069 133.83 40.7112C133.74 40.8005 133.544 40.836 133.262 40.8589V41.028H135.821V40.8589C135.491 40.8589 135.271 40.8186 135.158 40.7009C135.071 40.5911 135.025 40.4062 135.025 40.1233V36.9555C135.183 36.7398 135.378 36.5715 135.582 36.4379C135.802 36.3178 136.031 36.2514 136.257 36.2514C136.663 36.2514 136.918 36.4379 137.038 36.8125C137.107 37.0448 137.149 37.447 137.149 38.0356V39.6357C137.149 40.1652 137.097 40.4812 137.011 40.6069C136.906 40.727 136.676 40.8234 136.329 40.8589V41.028H138.899V40.8589C138.544 40.8534 138.324 40.7712 138.212 40.6069C138.118 40.4449 138.064 40.2118 138.064 39.9155V36.9658C138.257 36.7508 138.436 36.596 138.556 36.5003C138.802 36.3328 139.035 36.2514 139.287 36.2514C139.678 36.2514 139.949 36.4111 140.098 36.7137C140.17 36.8978 140.197 37.1633 140.197 37.5489V40.0419C140.197 40.3524 140.156 40.5634 140.057 40.6724C139.944 40.7712 139.722 40.8305 139.402 40.8589V41.028H141.944V40.8589C141.633 40.8305 141.424 40.7807 141.306 40.6796C141.17 40.5737 141.117 40.3959 141.117 40.1233Z" fill="#000101"/>
<path d="M113.762 40.068V37.3767C113.762 36.6355 113.544 36.1006 113.146 35.8193C112.928 35.662 112.717 35.5862 112.471 35.5862C112.164 35.5862 111.856 35.6778 111.564 35.8643C111.358 35.9955 111.099 36.2223 110.767 36.5533V35.7205C110.767 35.6778 110.767 35.6549 110.753 35.6344C110.739 35.6225 110.736 35.5996 110.705 35.5996L110.184 35.7837C109.607 35.9568 109.244 36.0729 109.086 36.1227V36.3179C109.131 36.3068 109.193 36.2981 109.226 36.2973C109.262 36.2973 109.306 36.2918 109.333 36.2918C109.554 36.2918 109.694 36.3637 109.763 36.5083C109.814 36.6039 109.824 36.7833 109.824 37.029V39.9953C109.824 40.3391 109.784 40.5627 109.671 40.6717C109.567 40.7681 109.375 40.8242 109.12 40.8598V41.0281H111.556V40.8598C111.293 40.8574 111.099 40.8171 110.976 40.7104C110.854 40.6172 110.803 40.437 110.803 40.1605V36.9208C111.012 36.7138 111.146 36.5707 111.301 36.4814C111.524 36.3329 111.733 36.2507 111.968 36.2507C112.276 36.2507 112.494 36.3511 112.614 36.5818C112.737 36.7904 112.799 37.0693 112.799 37.402V39.876C112.799 40.2679 112.737 40.5232 112.622 40.633C112.528 40.7571 112.33 40.8242 112.04 40.8598V41.0281H114.455V40.8598C114.203 40.8598 114.027 40.8037 113.918 40.6788C113.803 40.5524 113.762 40.3517 113.762 40.068Z" fill="#000101"/>
<path d="M118.474 35.8312C118.632 35.8422 118.742 35.8643 118.815 35.9007C118.964 35.9781 119.028 36.0777 119.028 36.2334C119.028 36.3076 119.016 36.4111 118.972 36.5518C118.928 36.6877 118.875 36.8197 118.832 36.9556L117.835 39.5118L116.657 36.6024C116.605 36.5004 116.585 36.4159 116.573 36.3511C116.562 36.3076 116.557 36.2515 116.557 36.178C116.557 36.0619 116.574 35.9781 116.672 35.9236C116.762 35.8912 116.89 35.8596 117.083 35.8312V35.666H114.848V35.8312C115.019 35.8596 115.144 35.9007 115.244 35.9781C115.397 36.0943 115.546 36.3337 115.67 36.6751L117.39 40.8985C117.421 40.9609 117.457 41.0202 117.48 41.0692C117.5 41.1024 117.515 41.1221 117.549 41.1221C117.597 41.1221 117.622 41.1142 117.654 41.0937C117.679 41.0692 117.699 41.0115 117.735 40.938L119.342 36.7817C119.465 36.393 119.613 36.1409 119.679 36.0311C119.758 35.9125 119.894 35.8596 120.084 35.8312V35.666H118.474V35.8312Z" fill="#000101"/>
<path d="M128.232 38.0365L127.493 37.6359C126.978 37.3522 126.715 37.0433 126.715 36.6869C126.715 36.4585 126.8 36.2713 126.948 36.1022C127.101 35.9386 127.302 35.8588 127.562 35.8588C128.011 35.8588 128.343 36.0421 128.573 36.434C128.713 36.6403 128.797 36.9366 128.89 37.3032H129.041L129.007 35.7094H128.89C128.86 35.7442 128.824 35.7821 128.795 35.7916C128.779 35.8153 128.73 35.8248 128.656 35.8248C128.616 35.8248 128.498 35.7885 128.251 35.7094C128.019 35.6273 127.783 35.5862 127.607 35.5862C127.147 35.5862 126.754 35.7276 126.46 35.9947C126.16 36.2792 126.016 36.6339 126.016 37.0606C126.016 37.4091 126.133 37.7173 126.337 37.9678C126.572 38.2269 126.897 38.475 127.354 38.7398L127.974 39.1001C128.225 39.2376 128.373 39.3766 128.473 39.5418C128.562 39.6856 128.595 39.8381 128.595 40.0072C128.595 40.2672 128.526 40.4663 128.365 40.6306C128.209 40.7902 127.986 40.8582 127.712 40.8582C127.201 40.8582 126.826 40.648 126.579 40.2126C126.421 39.9748 126.305 39.6358 126.216 39.2052H126.028V41.07H126.182C126.212 41.0107 126.248 40.9696 126.271 40.9514C126.305 40.9167 126.337 40.8985 126.394 40.8985C126.44 40.8985 126.61 40.938 126.897 41.0107C127.178 41.0937 127.428 41.1221 127.655 41.1221C128.184 41.1221 128.595 40.9823 128.93 40.6954C129.262 40.4173 129.428 40.042 129.428 39.5813C129.428 38.9973 129.027 38.4837 128.232 38.0365Z" fill="#000101"/>
<path d="M124.23 40.0071C123.972 40.2117 123.643 40.3152 123.249 40.3152C122.768 40.3152 122.353 40.1201 122.002 39.71C121.64 39.3109 121.427 38.6582 121.405 37.7788H124.952C124.952 37.0945 124.759 36.5722 124.362 36.2016C123.962 35.8247 123.511 35.6445 122.978 35.6445C122.267 35.6445 121.685 35.9171 121.239 36.4734C120.796 37.0455 120.59 37.6998 120.59 38.4694C120.59 39.1869 120.765 39.8079 121.151 40.3421C121.531 40.8873 122.074 41.1552 122.776 41.1552C123.373 41.1552 123.898 40.9537 124.323 40.5404C124.736 40.1232 125.026 39.676 125.176 39.1869L124.975 39.111C124.759 39.495 124.505 39.8024 124.23 40.0071ZM121.685 36.6401C121.915 36.2545 122.23 36.0641 122.647 36.0641C123.08 36.0641 123.379 36.2379 123.578 36.5722C123.658 36.7618 123.742 37.051 123.78 37.4208H121.416C121.482 37.1032 121.575 36.8551 121.685 36.6401Z" fill="#000101"/>
<path d="M171.044 40.4513C170.898 40.4513 170.801 40.3865 170.747 40.2371C170.726 40.1597 170.718 39.9977 170.718 39.7844V37.4542C170.718 36.965 170.616 36.5715 170.506 36.3005C170.239 35.8193 169.749 35.5728 169.029 35.5728C168.41 35.5728 167.932 35.726 167.602 36.0176C167.278 36.306 167.107 36.5873 167.107 36.8576C167.107 36.9919 167.158 37.1239 167.259 37.24C167.337 37.3522 167.46 37.4028 167.638 37.4028C167.756 37.4028 167.838 37.3775 167.924 37.3309C168.069 37.2424 168.119 37.0883 168.119 36.8757C168.119 36.856 168.107 36.7809 168.09 36.6711C168.087 36.5597 168.087 36.4735 168.087 36.4348C168.087 36.2515 168.177 36.1022 168.323 35.9987C168.507 35.9015 168.696 35.8604 168.875 35.8604C169.275 35.8604 169.532 35.9844 169.67 36.2436C169.731 36.3993 169.769 36.6711 169.769 37.0614V37.5498C168.752 37.9488 168.069 38.2601 167.715 38.4853C167.168 38.8733 166.895 39.3324 166.895 39.8974C166.895 40.249 167.034 40.5492 167.267 40.7903C167.501 41.0115 167.789 41.1221 168.087 41.1221C168.41 41.1221 168.732 41.0273 169.063 40.8234C169.272 40.6954 169.519 40.5082 169.773 40.2553C169.795 40.4813 169.861 40.6883 169.978 40.8495C170.091 41.0115 170.282 41.096 170.535 41.096C170.747 41.096 170.955 41.0273 171.169 40.8795C171.302 40.7903 171.442 40.6725 171.553 40.5129V40.2332C171.424 40.3296 171.322 40.3967 171.255 40.4181C171.208 40.4442 171.154 40.4513 171.044 40.4513ZM169.769 39.6769C169.769 39.8974 169.67 40.0791 169.428 40.2253C169.214 40.3738 168.975 40.437 168.732 40.437C168.534 40.437 168.39 40.3865 168.244 40.2806C168.001 40.0989 167.902 39.8389 167.902 39.4896C167.902 39.0527 168.177 38.6584 168.716 38.3233C168.996 38.1463 169.348 37.9836 169.769 37.8334V39.6769Z" fill="#000101"/>
<path d="M181.404 15.2013C181.712 15.0251 182.43 14.5968 183.023 13.8406V28.567H181.404V15.2013ZM150.284 15.2013V28.567H151.905V13.8406C151.298 14.5968 150.571 15.0251 150.284 15.2013ZM92.7496 13.8414C92.1437 14.596 91.4309 15.0259 91.1283 15.2021V25.0476H92.7496V13.8414ZM98.265 15.2013V26.8769H96.328V15.2013C96.0346 15.0251 95.3126 14.5968 94.699 13.8406V26.8769H91.0953V28.567H99.8925V13.8406C99.2957 14.5913 98.5568 15.0251 98.265 15.2013ZM177.941 13.8414V26.8777H175.739V20.4654C175.281 20.9759 174.457 21.435 174.107 21.6878V26.8777H171.69V20.4654C171.215 21.0027 170.375 21.4745 170.043 21.7273V26.8777H168.126V13.7964C167.593 14.3787 166.893 14.9469 166.497 15.2313V26.8777H156.443C156.118 26.8777 155.879 26.7402 155.696 26.5869C155.512 27.1795 155.127 28.5678 155.127 28.5678H179.498V15.2242C178.821 14.7351 178.285 14.2389 177.941 13.8414ZM164.553 21.9265H161.717V21.1086C161.717 20.3951 161.816 20.2466 162.668 20.2466C163.466 20.2466 163.709 20.1051 163.842 20.0198V19.4042C163.645 19.5093 163.514 19.5923 163.039 19.5923H161.85C161.254 19.5923 160.752 20.0229 160.752 20.7673V21.9265H158.438C158.328 22.109 158.091 22.5436 157.848 22.9774H164.553V21.9265ZM110.79 22.4172C110.79 22.9774 110.798 25.1646 110.798 25.242H113.962V26.8777H105.263V23.167C104.697 23.8703 103.851 24.3096 103.599 24.474V28.5694H115.613V23.6988H112.342V22.5736C112.342 20.8463 114.223 19.9581 115.631 19.8143V18.1621C111.664 18.8961 110.79 21.2516 110.79 22.4172ZM119.568 23.6301H117.675V24.9465H119.139C120.024 24.9465 120.157 25.4198 120.157 26.1167V26.8761H117.736V28.5773H121.78V25.7501C121.78 24.5704 121.049 23.6301 119.568 23.6301ZM71.6537 18.6638C72.1069 18.6638 72.4648 18.2909 72.4648 17.8381C72.4648 17.3751 72.1069 17.0045 71.6537 17.0045C71.206 17.0045 70.8411 17.3751 70.8411 17.8381C70.8411 18.2909 71.206 18.6638 71.6537 18.6638ZM72.9056 17.8373C72.9056 18.2909 73.272 18.663 73.7221 18.663C74.1775 18.663 74.5331 18.2909 74.5331 17.8373C74.5331 17.3751 74.1775 17.0045 73.7221 17.0045C73.272 17.0045 72.9056 17.3751 72.9056 17.8373ZM77.4141 18.6638C77.8749 18.6638 78.2274 18.2909 78.2274 17.8381C78.2274 17.3751 77.8749 17.0045 77.4141 17.0045C76.9717 17.0045 76.6007 17.3751 76.6007 17.8381C76.6007 18.2909 76.9717 18.6638 77.4141 18.6638ZM79.4909 18.6638C79.9287 18.6638 80.2958 18.2909 80.2958 17.8381C80.2958 17.3751 79.9287 17.0045 79.4909 17.0045C79.0508 17.0045 78.6875 17.3751 78.6875 17.8381C78.6875 18.2909 79.0508 18.6638 79.4909 18.6638ZM108.122 29.3786C107.661 29.3786 107.319 29.7602 107.319 30.2193C107.319 30.6752 107.661 31.0537 108.122 31.0537C108.574 31.0537 108.938 30.6752 108.938 30.2193C108.938 29.7602 108.574 29.3786 108.122 29.3786ZM110.202 29.3786C109.748 29.3786 109.372 29.7602 109.372 30.2193C109.372 30.6752 109.748 31.0537 110.202 31.0537C110.654 31.0537 111.021 30.6752 111.021 30.2193C111.021 29.7602 110.654 29.3786 110.202 29.3786ZM174.815 29.3786C174.358 29.3786 173.991 29.7602 173.991 30.2193C173.991 30.6752 174.358 31.0537 174.815 31.0537C175.265 31.0537 175.621 30.6752 175.621 30.2193C175.621 29.7602 175.265 29.3786 174.815 29.3786ZM171.153 18.2616C171.603 18.2616 171.974 17.8879 171.974 17.4217C171.974 16.9666 171.603 16.5904 171.153 16.5904C170.71 16.5904 170.334 16.9666 170.334 17.4217C170.334 17.8879 170.71 18.2616 171.153 18.2616ZM72.6998 16.9405C73.1553 16.9405 73.5101 16.5565 73.5101 16.1013C73.5101 15.6359 73.1553 15.2637 72.6998 15.2637C72.2313 15.2637 71.8964 15.6359 71.8964 16.1013C71.8964 16.5565 72.2313 16.9405 72.6998 16.9405ZM87.1537 21.8577C87.7981 21.4128 88.3587 20.938 88.805 20.4425V28.571H68.1215C67.7958 29.6401 66.8219 30.4247 65.6783 30.4247C64.5247 30.4247 63.5601 29.6385 63.249 28.5663H60.7006V15.2021C61.0055 15.0259 61.7344 14.596 62.3412 13.8414V26.8848H63.2951C63.6607 25.8939 64.5885 25.182 65.6783 25.182C66.7736 25.182 67.6914 25.8876 68.0593 26.8777H71.9417V21.7013C72.5869 21.3172 73.2474 20.8668 73.5854 20.4599V26.8777H77.4133V21.7013C78.0915 21.322 78.7159 20.8605 79.0431 20.4425V26.8777L80.6575 26.8816V24.4779C80.8926 24.4321 81.123 24.3878 81.3657 24.3325C81.6798 24.2638 81.9694 24.1832 82.2919 24.0907V26.8816H83.9263V23.5526C84.4855 23.329 85.0177 23.0872 85.54 22.8241V26.8816H87.1537V21.8577ZM65.6783 28.9716C66.3074 28.9716 66.8074 28.4446 66.8074 27.8061C66.8074 27.159 66.3074 26.6375 65.6783 26.6375C65.0616 26.6375 64.5593 27.159 64.5593 27.8061C64.5593 28.4446 65.0616 28.9716 65.6783 28.9716ZM146.831 13.8335C147.163 14.2381 147.608 14.7122 148.36 15.2598V28.5876H128.692V28.6848C128.692 30.3987 126.696 31.414 125.128 30.1474C126.862 30.6247 127.041 29.456 127.041 28.5955V28.5781H123.769V26.1728C123.769 24.8904 124.336 23.8537 126.139 23.5218C127.356 23.2927 128.18 23.0509 128.692 22.6171V24.6004V24.5988V26.8903H130.226V25.2942C130.226 24.3823 130.794 23.732 132.016 23.732H133.725V24.9726H132.214C131.937 24.9726 131.858 25.1148 131.858 25.4878V26.8903H137.076V24.4779C137.323 24.4329 137.553 24.3823 137.796 24.3333C138.099 24.2646 138.413 24.18 138.72 24.0907V26.8903H140.342V23.5455C140.904 23.3282 141.458 23.0888 141.977 22.8249V26.8903H143.583V21.8577C144.237 21.4113 144.779 20.938 145.217 20.4417V26.8903H146.831V13.8335ZM127.041 24.8904C127.041 24.8904 126.763 24.9931 126.534 25.0484C125.637 25.2499 125.389 25.5565 125.389 26.2281V26.8682H127.041V26.0709V24.8904ZM57.5194 26.0709V28.5955C57.5194 29.456 57.3358 30.6247 55.6016 30.1474C57.1822 31.414 59.1638 30.3987 59.1638 28.6848V24.5988C58.739 25.8094 57.9794 26.0709 57.5194 26.0709Z" fill="#000101"/>
<path d="M17.0506 34.8269C21.0206 38.912 27.4468 38.9081 31.3915 34.8482C35.3231 30.8041 35.3231 24.1959 31.3531 20.1123C27.4345 16.0801 21.0213 16.0903 17.0897 20.1344C13.145 24.1943 13.1312 30.7954 17.0506 34.8269Z" fill="#FFD400"/>
<path d="M16.5974 18.042C16.1819 18.4694 16.1819 19.1703 16.5974 19.597L14.1949 17.1254C12.3777 15.2558 12.3777 12.1971 14.1949 10.3267L24.2287 0L34.2647 10.3267C36.0819 12.1971 36.0819 15.2558 34.2647 17.1254L31.8623 19.597C32.2778 19.1703 32.2778 18.4694 31.8623 18.042L24.2287 10.1869L16.5974 18.042Z" fill="#000101"/>
<path d="M23.0118 43.5576C23.8275 44.3975 24.2345 45.503 24.2322 46.61L24.2368 46.6053C24.2345 45.499 24.6416 44.392 25.4573 43.5528L41.0594 27.5013L33.4949 19.7189L38.4449 14.6255L46.7122 23.1317C49.0493 25.5346 49.0493 29.4681 46.7122 31.8718L24.2322 55L1.7523 31.8718C-0.584099 29.4681 -0.584099 25.5346 1.7523 23.1317L10.0195 14.6263L14.9704 19.7189L7.40511 27.5013L23.0118 43.5576Z" fill="#000101"/>
</svg>
