<svg width="44" height="44" viewBox="0 0 44 44" fill="none" xmlns="http://www.w3.org/2000/svg">
<path d="M16.5137 17.1048H12.8287V17.0635H10.5049C9.13532 17.0635 8.0229 15.9962 7.95112 14.645C6.83667 14.3847 6.00643 13.3991 5.98168 12.2095C4.90798 11.906 4.125 10.9216 4.125 9.74857L12.8287 9.74857V9.74854H16.5137C18.5487 9.74854 20.1987 11.3985 20.1987 13.4335C20.1987 15.4685 18.5487 17.1048 16.5137 17.1048Z" fill="#F0F0F0"/>
<path d="M13.0523 9.74854H13.0308V11.8334L7.11484 11.8334C5.65188 11.8334 4.44058 10.9377 4.18326 9.74854H4.13281C4.13281 10.9191 4.91247 11.9018 5.98264 12.2075C6.00653 13.398 6.83707 14.3845 7.95212 14.645C8.0239 15.9962 9.13633 17.0635 10.5059 17.0635H15.5797V16.5908H10.5059C9.30638 16.5908 8.3041 15.7721 8.02548 14.661C8.19149 14.6946 8.36343 14.7123 8.53962 14.7123H13.6134V14.2396H8.53962C7.30901 14.2396 6.28603 13.378 6.03899 12.2229C6.24682 12.2772 6.46509 12.306 6.69031 12.306L13.0523 12.306V9.74854Z" fill="#A0A1B2"/>
<path d="M40.2031 19.8L22.6306 37.3725C21.6956 38.3075 20.1694 38.3075 19.2344 37.3725L16.4981 34.6362C15.5631 33.7012 15.5631 32.175 16.4981 31.24L34.0844 13.6812C35.0194 12.7462 36.5456 12.7462 37.4806 13.6812L40.2169 16.4175C41.1381 17.3388 41.1381 18.865 40.2031 19.8Z" fill="#008463"/>
<path d="M37.5391 17.1325L19.9666 34.705C19.0316 35.64 17.5053 35.64 16.5703 34.705L6.27156 24.4062C5.33656 23.4713 5.33656 21.945 6.27156 21.01L23.8578 3.45125C24.7928 2.51625 26.3191 2.51625 27.2541 3.45125L37.5391 13.75C38.4741 14.685 38.4741 16.1975 37.5391 17.1325Z" fill="#00F397"/>
<path d="M24.4865 5.8967C25.113 5.27014 26.1433 5.26552 26.7881 5.89829L26.7895 5.89963L34.954 14.0642C35.5805 14.6907 35.5847 15.7198 34.9403 16.3642L19.2378 32.0667C18.6112 32.6933 17.5809 32.6979 16.9361 32.0651L16.9348 32.0638L8.77023 23.8992C8.14371 23.2727 8.13905 22.2425 8.77173 21.5977L8.77316 21.5962L24.4863 5.89685L24.4865 5.8967ZM27.4948 5.18256C26.462 4.16672 24.7984 4.16248 23.7754 5.18533L23.7753 5.18548L8.05917 20.8878L8.05916 20.8878L8.05609 20.8909C7.0402 21.9238 7.03601 23.5874 8.05902 24.6104L16.2265 32.7779L16.2295 32.7809C17.2623 33.7968 18.926 33.801 19.949 32.7779L35.6515 17.0754C36.6845 16.0424 36.6887 14.3765 35.6652 13.353L27.4977 5.18548L27.4977 5.18547L27.4948 5.18256ZM30.4284 15.2487C30.4284 17.8383 28.3292 19.9375 25.7396 19.9375C23.1501 19.9375 21.0509 17.8383 21.0509 15.2487C21.0509 12.6592 23.1501 10.56 25.7396 10.56C28.3292 10.56 30.4284 12.6592 30.4284 15.2487Z" fill="#008463"/>
<path d="M17.401 9.9008L13.1133 14.1885L29.457 30.5322L33.7447 26.2445L17.401 9.9008Z" fill="#FFC681"/>
<path d="M31.0885 23.5976L26.8008 27.8853L29.4648 30.5493L33.7525 26.2616L31.0885 23.5976Z" fill="#FFB02E"/>
<path d="M13.2696 20.1392C13.0696 19.9339 12.741 19.9297 12.5357 20.1297C12.3304 20.3297 12.3262 20.6583 12.5262 20.8636L13.2372 21.5934C12.6434 22.3764 12.597 23.148 12.7629 23.763C12.8546 24.1028 13.0054 24.3766 13.1306 24.5637C13.1938 24.6582 13.2521 24.7331 13.2963 24.7861C13.3523 24.8533 13.4145 24.9154 13.4822 24.9707C13.5343 25.0133 13.6078 25.0693 13.7006 25.1295C13.8844 25.2488 14.1534 25.3908 14.4883 25.4726C15.1945 25.6452 16.1016 25.5255 17.0049 24.6222C17.334 24.2931 17.6342 24.1449 17.8857 24.0854C18.1391 24.0254 18.3763 24.0475 18.5883 24.109C18.8031 24.1714 18.9863 24.273 19.1178 24.3621C19.2171 24.4292 19.304 24.5126 19.3618 24.6175C19.4256 24.7332 19.4976 24.897 19.5347 25.0915C19.6034 25.4517 19.5685 25.9806 18.9659 26.5832C18.3651 27.184 17.8344 27.217 17.4699 27.1456C17.2733 27.107 17.1074 27.0334 16.9899 26.9682C16.9319 26.936 16.8879 26.907 16.8603 26.8877C16.8465 26.8781 16.8371 26.8709 16.8322 26.8672L16.8287 26.8644C16.6081 26.6843 16.2832 26.7155 16.101 26.935C15.918 27.1555 15.9493 27.4835 16.1699 27.6666C16.1703 27.6669 16.171 27.6675 16.171 27.6675L16.1736 27.6696L16.1804 27.6751L16.2002 27.6906C16.2162 27.7029 16.2377 27.7188 16.2644 27.7376C16.3176 27.7749 16.3924 27.8237 16.4861 27.8757C16.672 27.979 16.9409 28.0996 17.2702 28.1642C17.8546 28.2787 18.5821 28.2055 19.3133 27.6548L20.1187 28.4699C20.3202 28.6738 20.6488 28.6757 20.8527 28.4743C21.0566 28.2728 21.0585 27.9442 20.8571 27.7403L20.0462 26.9196C20.5888 26.1947 20.6647 25.4759 20.5543 24.897C20.4917 24.569 20.3728 24.3014 20.2708 24.1163C20.1285 23.8583 19.9412 23.666 19.6996 23.5025C19.5068 23.3719 19.2251 23.2131 18.8778 23.1123C18.5278 23.0106 18.1059 22.9665 17.6464 23.0753C17.185 23.1846 16.7187 23.4404 16.2709 23.8882C15.6205 24.5387 15.0837 24.5496 14.7347 24.4643C14.5419 24.4172 14.3804 24.3332 14.2656 24.2587C14.1511 24.1844 14.0695 24.1005 13.9933 23.9866C13.9118 23.8647 13.8195 23.6943 13.7651 23.4926C13.6661 23.1259 13.6677 22.5831 14.3099 21.9409C14.9517 21.2991 15.5029 21.2923 15.8799 21.3904C16.0858 21.444 16.2601 21.5357 16.3845 21.6166C16.4459 21.6565 16.4927 21.6921 16.5224 21.7162C16.5372 21.7282 16.5476 21.7371 16.5532 21.742L16.5578 21.7461C16.7656 21.9412 17.0921 21.9322 17.2889 21.7254C17.4865 21.5178 17.4774 21.1884 17.2697 20.9908L17.2687 20.9899L17.2662 20.9875L17.2597 20.9815L17.24 20.9638C17.2241 20.9498 17.2026 20.9313 17.1756 20.9095C17.1218 20.8659 17.0458 20.8084 16.9501 20.7462C16.7605 20.623 16.4836 20.475 16.1412 20.3859C15.5258 20.2258 14.7537 20.273 13.9725 20.8606L13.2696 20.1392Z" fill="white"/>
<path d="M27.6094 32.6425V28.9575C27.6094 26.9225 29.2456 25.2725 31.2806 25.2725C33.3156 25.2725 34.9656 26.9225 34.9656 28.9575V31.5561H34.9656V41.3461C33.7926 41.3461 32.8082 40.5631 32.5047 39.4894C31.3151 39.4647 30.3295 38.6345 30.0692 37.52C28.718 37.4483 27.6506 36.3358 27.6506 34.9662V32.6425H27.6094Z" fill="#F0F0F0"/>
<path d="M28.125 34.9663C28.125 36.1659 28.9438 37.1682 30.0549 37.4468C30.0213 37.2808 30.0036 37.1088 30.0036 36.9327V31.8589H30.4763V36.9327C30.4763 38.1633 31.3379 39.1862 32.493 39.4333C32.4387 39.2254 32.4099 39.0072 32.4099 38.782V32.42H34.9674V32.4415H32.8825V38.3574C32.8825 39.8204 33.7782 41.0317 34.9674 41.289V41.3395C33.7968 41.3395 32.8141 40.5598 32.5084 39.4896C31.3179 39.4657 30.3314 38.6352 30.0709 37.5202C28.7197 37.4484 27.6523 36.336 27.6523 34.9663V29.8926H28.125V34.9663Z" fill="#A0A1B2"/>
</svg>
