<svg width="44" height="45" viewBox="0 0 44 45" fill="none" xmlns="http://www.w3.org/2000/svg">
<g id="Party popper">
<path id="Vector" d="M6.94408 41.6121L8.96758 41.0705L9.51052 39.8944L13.0174 39.9865L16.6645 39.0103L17.486 37.7368L20.8986 37.877L24.4616 36.9233C26.9366 36.2633 27.7753 33.1558 25.9603 31.3408L13.1453 18.5121C11.3303 16.6971 8.22283 17.5221 7.56283 20.0108L6.50047 23.9799L6.6492 27.2037L5.4381 27.949L4.352 32.0067L4.53399 35.0974L3.34673 35.7625L2.87408 37.5283C2.20033 40.0033 4.46908 42.2721 6.94408 41.6121Z" fill="#FFB02E"/>
<g id="Union">
<path d="M10.7258 34.9475C8.69039 33.0467 6.95667 30.7583 5.4258 27.9933L6.49466 24C8.25254 27.847 10.23 30.7226 12.6022 32.9378C14.8883 35.0727 17.5964 36.6459 20.949 37.8639L16.6463 39.0155C14.4437 37.9195 12.4847 36.59 10.7258 34.9475Z" fill="#FFC681"/>
<path d="M5.89444 38.8437C4.9214 37.9337 4.08493 36.9146 3.34375 35.772L4.36793 31.9456C5.33409 33.9945 6.41627 35.5673 7.7723 36.8354C9.1251 38.1005 10.8089 39.117 13.0497 39.9782L8.94013 41.0782C7.80882 40.4283 6.801 39.6915 5.89444 38.8437Z" fill="#FFC681"/>
</g>
<path id="Vector_2" d="M26.2766 35.8235C28.2016 33.8985 25.8091 28.3985 20.9416 23.531C16.0741 18.6635 10.5878 16.271 8.66281 18.196C6.73781 20.121 9.13031 25.621 13.9978 30.4885C18.8653 35.356 24.3653 37.7348 26.2766 35.8235Z" fill="#6D4534"/>
<g id="Union_2">
<path d="M15.964 10.4963C17.669 13.6863 18.0127 17.3438 16.954 20.795C16.0602 23.7375 14.2177 26.2263 11.7152 27.945C11.0002 27.0513 10.3815 26.1575 9.859 25.2913C11.7702 23.985 13.1727 22.0875 13.8602 19.8463C14.6715 17.22 14.4102 14.4425 13.1177 12.0225C12.6915 11.225 12.994 10.2488 13.7777 9.83627C14.5752 9.41002 15.5515 9.71252 15.964 10.4963Z" fill="#A3278F"/>
<path d="M30.4562 23.4798C33.0559 21.4261 36.4277 21.008 39.3303 22.0905C40.0762 22.3687 40.9063 21.9895 41.1845 21.2437C41.4626 20.4978 41.0835 19.6677 40.3377 19.3896C36.5303 17.9696 32.0921 18.5139 28.6693 21.2178C28.0446 21.7112 27.9383 22.6176 28.4317 23.2422C28.9252 23.8669 29.8316 23.9732 30.4562 23.4798Z" fill="#A3278F"/>
<path d="M8.26395 13.8238C9.14484 13.8238 9.85895 13.1096 9.85895 12.2288C9.85895 11.3479 9.14484 10.6338 8.26395 10.6338C7.38305 10.6338 6.66895 11.3479 6.66895 12.2288C6.66895 13.1096 7.38305 13.8238 8.26395 13.8238Z" fill="#A3278F"/>
<path d="M35.929 12.2288C35.929 13.1096 35.2149 13.8238 34.334 13.8238C33.4531 13.8238 32.739 13.1096 32.739 12.2288C32.739 11.3479 33.4531 10.6338 34.334 10.6338C35.2149 10.6338 35.929 11.3479 35.929 12.2288Z" fill="#A3278F"/>
</g>
<g id="Union_3">
<path d="M17.1742 5.945C17.1742 6.67402 16.5832 7.265 15.8542 7.265C15.1252 7.265 14.5342 6.67402 14.5342 5.945C14.5342 5.21598 15.1252 4.625 15.8542 4.625C16.5832 4.625 17.1742 5.21598 17.1742 5.945Z" fill="#FB542B"/>
<path d="M35.0354 34.0638C35.0354 34.8004 34.4383 35.3975 33.7017 35.3975C32.9651 35.3975 32.3679 34.8004 32.3679 34.0638C32.3679 33.3271 32.9651 32.73 33.7017 32.73C34.4383 32.73 35.0354 33.3271 35.0354 34.0638Z" fill="#FB542B"/>
</g>
<g id="Union_4">
<path d="M29.7416 6.02744C29.5216 5.83494 29.2466 5.71119 28.9441 5.69744C28.2016 5.65619 27.5691 6.21994 27.5141 6.96244C27.4179 8.47494 26.3729 11.2112 25.9741 12.1324C25.9741 12.1393 25.9707 12.1462 25.9672 12.1531C25.9638 12.1599 25.9604 12.1668 25.9604 12.1737C25.8867 12.3553 25.808 12.5343 25.724 12.7106C25.5837 12.5349 25.4288 12.3742 25.2591 12.2287C24.8741 11.885 24.4066 11.6237 23.8566 11.445L23.8153 11.4312C21.9591 10.8125 19.9378 11.8162 19.3191 13.6862C19.0166 14.5937 19.0853 15.5562 19.5116 16.4087C19.9378 17.2612 20.6666 17.8937 21.5741 18.1962C21.6716 18.2287 21.7704 18.2492 21.8689 18.2586C22.5637 18.4463 23.236 18.4527 23.8832 18.279C23.844 18.4677 23.7985 18.6556 23.7466 18.8425C23.5541 19.5575 23.9803 20.3 24.6953 20.4925C25.4103 20.685 26.1528 20.2587 26.3453 19.5437C26.6551 18.4237 26.7894 17.283 26.7481 16.1305C27.4635 15.2343 28.0351 14.2469 28.4629 13.1774L28.4831 13.1284C28.738 12.5116 30.0757 9.27529 30.2091 7.11369C30.2229 6.68744 30.0441 6.28869 29.7416 6.02744ZM23.0316 13.9887C23.4103 14.1149 23.7985 14.3273 23.9646 15.1934C23.2874 15.8222 22.8529 15.7533 22.4679 15.6249C22.4216 15.6095 22.375 15.5968 22.3283 15.5867C22.1536 15.5045 22.0131 15.3595 21.9316 15.185C21.8216 14.9787 21.8078 14.745 21.8903 14.525C22.0416 14.0712 22.5366 13.8237 22.9903 13.975L23.0316 13.9887Z" fill="#5092FF"/>
<path d="M25.1216 25.47C29.8104 24.1637 34.7191 24.755 38.9541 27.1475C39.7379 27.6012 40.0129 28.5775 39.5866 29.3475C39.1466 30.1312 38.1566 30.4062 37.3729 29.9662C33.8941 28.0137 29.8516 27.5187 26.0016 28.5912C22.8254 29.4712 20.1029 31.3412 18.1366 33.9262C17.2979 33.3487 16.4316 32.6887 15.5791 31.9462C17.9579 28.825 21.2716 26.5425 25.1216 25.47Z" fill="#5092FF"/>
<path d="M22.8584 23.8548C22.8584 24.7281 22.1505 25.436 21.2772 25.436C20.4039 25.436 19.6959 24.7281 19.6959 23.8548C19.6959 22.9815 20.4039 22.2735 21.2772 22.2735C22.1505 22.2735 22.8584 22.9815 22.8584 23.8548Z" fill="#5092FF"/>
</g>
</g>
</svg>
