<svg width="24" height="24" viewBox="0 0 24 24" fill="none" xmlns="http://www.w3.org/2000/svg">
<g id="Icon/Rent">
<path id="Union" fill-rule="evenodd" clip-rule="evenodd" d="M12.6209 3.21528C12.2575 2.92824 11.7446 2.92824 11.3812 3.21528L4.63045 8.54779L2.38019 10.3253C1.9468 10.6676 1.87299 11.2965 2.21532 11.7299C2.55766 12.1633 3.18651 12.2371 3.6199 11.8947L4.2503 11.3968V19.9918C4.25029 19.9937 4.25028 19.9956 4.25028 19.9975C4.25028 20.0665 4.25729 20.1339 4.27062 20.1991C4.29158 20.3015 4.32819 20.3982 4.37786 20.4866C4.54915 20.7915 4.87567 20.9975 5.2503 20.9975H18.7519C19.3041 20.9975 19.7519 20.5498 19.7519 19.9975V11.3968L20.3823 11.8947C20.8156 12.2371 21.4445 12.1633 21.7868 11.7299C22.1292 11.2965 22.0554 10.6676 21.622 10.3253L19.3717 8.54779L19.3714 8.54757L12.6209 3.21528ZM17.7519 18.9975V9.81695L12.0011 5.27435L6.2503 9.81695V18.9975H17.7519Z" fill="#FB542B"/>
</g>
</svg>
