<svg width="80" height="80" viewBox="0 0 80 80" fill="none" xmlns="http://www.w3.org/2000/svg">
<g id="Can&#39;t afford">
<circle id="Ellipse 84" cx="40" cy="40" r="40" fill="#FFB02E"/>
<path id="Vector" d="M23.9056 50.6477L18.4745 40.4521L13.0364 50.6477C12.1543 52.2729 11.7168 53.148 11.7168 54.6481C11.773 56.402 12.5093 58.0651 13.7698 59.2859C15.0303 60.5066 16.7163 61.1892 18.471 61.1892C20.2257 61.1892 21.9117 60.5066 23.1722 59.2859C24.4327 58.0651 25.169 56.402 25.2252 54.6481C25.2252 53.148 24.8779 52.516 23.9056 50.6477Z" fill="#5092FF"/>
<g id="Group 9">
<path id="Vector_2" d="M18.1885 30.9581C18.1885 30.2449 18.4001 29.5477 18.7964 28.9548C19.1928 28.3618 19.7562 27.8998 20.4152 27.6272C21.0743 27.3546 21.7994 27.2836 22.4988 27.4233C23.1982 27.5629 23.8405 27.9069 24.3443 28.4117C24.8481 28.9165 25.1909 29.5595 25.3292 30.2591C25.4675 30.9588 25.3951 31.6838 25.1212 32.3423C24.8473 33.0008 24.3842 33.5633 23.7906 33.9585C23.1969 34.3538 22.4993 34.564 21.7861 34.5626C20.8313 34.5608 19.9163 34.1802 19.2418 33.5044C18.5673 32.8286 18.1885 31.9129 18.1885 30.9581Z" fill="#2A3139"/>
<path id="Vector_3" d="M54.9492 30.9581C54.9492 30.2452 55.1606 29.5482 55.5567 28.9555C55.9528 28.3627 56.5157 27.9007 57.1744 27.6279C57.833 27.3551 58.5578 27.2837 59.257 27.4228C59.9562 27.5619 60.5985 27.9052 61.1026 28.4093C61.6067 28.9134 61.95 29.5556 62.0891 30.2549C62.2282 30.9541 62.1568 31.6788 61.8839 32.3375C61.6111 32.9961 61.1491 33.5591 60.5564 33.9552C59.9636 34.3512 59.2667 34.5626 58.5538 34.5626C57.5984 34.5608 56.6826 34.1804 56.007 33.5048C55.3314 32.8293 54.9511 31.9135 54.9492 30.9581Z" fill="#2A3139"/>
<path id="Vector (Stroke)" fill-rule="evenodd" clip-rule="evenodd" d="M40.9188 45.3853C36.8689 45.2467 32.872 46.3383 29.4548 48.5162C28.7674 48.9543 27.8551 48.7522 27.417 48.0648C26.9789 47.3775 27.181 46.4651 27.8684 46.0271C31.7886 43.5286 36.3738 42.2764 41.0197 42.4353C45.6657 42.5943 50.1546 44.157 53.8948 46.9176C54.5506 47.4016 54.6899 48.3257 54.2059 48.9815C53.7218 49.6373 52.7978 49.7765 52.142 49.2925C48.8816 46.8861 44.9687 45.5239 40.9188 45.3853Z" fill="#2A3139"/>
</g>
</g>
</svg>
