<svg width="39" height="28" viewBox="0 0 39 28" fill="none" xmlns="http://www.w3.org/2000/svg">
<g clip-path="url(#clip0_122_7145)">
<path d="M0 0H38.5V28H0V0Z" fill="#006C35"/>
<path d="M25.5831 22.4705H24.9816C24.9147 22.5981 24.8103 22.75 24.7518 22.75C24.6808 22.75 24.4886 22.4644 24.4886 22.3611C24.4886 22.2821 24.5805 22.1302 24.6641 22.033V21.796H13.7607C12.3237 21.796 11.6093 21.7778 11.1289 21.079H24.6641V20.842C24.5847 20.7509 24.4886 20.5929 24.4886 20.5139C24.4886 20.4106 24.6808 20.125 24.7518 20.125C24.8228 20.125 25.015 20.4106 25.015 20.5139C25.015 20.5929 24.9189 20.7509 24.8395 20.842V21.079H26.6776C27.1706 21.079 27.3711 21.1398 27.3711 21.796C27.3711 22.4948 27.2416 22.6224 27.0369 22.6224C26.9659 22.6224 26.8489 22.6163 26.7612 22.4705H26.0468C26.0279 22.5151 25.9958 22.5532 25.9545 22.58C25.9132 22.6069 25.8647 22.6212 25.815 22.6212C25.7653 22.6212 25.7167 22.6069 25.6754 22.58C25.6341 22.5532 25.602 22.5151 25.5831 22.4705ZM26.0468 22.2517H26.6776C26.6442 22.1181 26.6442 21.9783 26.6776 21.796H24.8395V22.033C24.8855 22.0816 24.9481 22.1849 24.9816 22.2517H25.5831C25.602 22.2072 25.6341 22.169 25.6754 22.1422C25.7167 22.1154 25.7653 22.101 25.815 22.101C25.8647 22.101 25.9132 22.1154 25.9545 22.1422C25.9958 22.169 26.0279 22.2072 26.0468 22.2517Z" fill="white"/>
<path d="M27.087 14.8264C27.1288 14.8993 27.1539 14.9661 27.0828 15.0877C27.016 15.1727 26.97 15.2214 26.899 15.3064C26.8698 15.3793 26.8489 15.4948 26.945 15.5312C27.1288 15.6042 27.4672 15.2882 27.4672 15.2821C27.5382 15.2092 27.5131 15.0755 27.5089 15.0755C27.4672 15.0148 27.3794 15.0512 27.321 15.0391C27.2917 15.0391 27.275 14.9601 27.3168 14.8446C27.3544 14.7717 27.3711 14.7292 27.3962 14.6441C27.4212 14.559 27.3962 14.4983 27.2959 14.4497C27.1915 14.4253 27.1497 14.4375 27.0369 14.4497C26.9742 14.4679 26.9533 14.5104 26.9408 14.6137C26.945 14.7717 27.016 14.7595 27.087 14.8264ZM26.2933 11.0712C26.2348 11.1866 26.193 11.2778 26.3058 11.3689C26.4228 11.454 26.5983 11.691 26.5231 11.9583C26.4813 12.1649 26.5231 12.329 26.6526 12.0312C26.7862 11.7214 26.6818 11.3507 26.5523 11.1137C26.4395 10.9071 26.3643 10.9497 26.2933 11.0712ZM29.8108 6.82986C29.9695 7.03038 30.0572 6.96962 29.957 6.62934C29.84 6.28906 29.7272 5.93056 29.6228 5.60851C29.51 5.26823 29.4807 5.34722 29.3512 5.59028C29.205 5.82726 29.1925 6.00955 29.2468 6.14931C29.5225 9.32726 29.652 10.9861 29.6813 11.9462C29.7397 13.3438 29.4933 14.1276 28.5116 15.0269C28.1941 15.3247 27.8348 15.6649 28.5993 15.4036C29.3136 15.1545 30.0781 14.4983 30.0781 11.9887C30.0781 10.099 29.7773 8.07552 29.8108 6.82986ZM28.6411 6.18576C28.5533 6.38628 28.57 6.42882 28.6703 6.64757C28.7706 6.89062 28.8583 7.32812 28.8583 7.6684C28.8583 8.00868 28.946 7.96615 28.9878 7.65017C29.0337 7.34635 29.017 6.75087 28.8875 6.3316C28.758 5.88802 28.7121 6.04601 28.6411 6.18576ZM29.4807 12.803C29.4515 12.5234 29.393 12.2439 29.134 11.7092C28.875 11.1866 28.6411 10.7066 28.4113 10.2448C28.3403 9.04774 28.2358 7.76562 28.2358 7.09115C28.3528 7.24913 28.4405 7.09115 28.382 6.82986C28.3236 6.56858 28.2066 5.86979 28.123 5.57205C28.0478 5.28646 27.9643 5.34722 27.8473 5.60851C27.7471 5.86979 27.6761 5.99132 27.7471 6.18576C27.7763 7.34635 27.8891 8.47049 28.0228 9.48524C27.7888 9.04774 27.5716 8.62847 27.3711 8.24566C27.3586 7.80816 27.3293 7.37066 27.3126 6.92708C27.4421 7.06684 27.5006 7.03038 27.4296 6.7691C27.3711 6.48958 27.2123 5.90625 27.1413 5.65104C27.0661 5.38976 27.0244 5.38976 26.9241 5.59028C26.7654 5.93056 26.7194 6.16753 26.8531 6.48958C26.8656 6.7691 26.8949 7.06684 26.9074 7.32812C26.7779 7.09115 26.6651 6.84809 26.5607 6.62934C26.6902 6.72656 26.7946 6.56858 26.6484 6.38628C26.5189 6.21007 26.2432 5.90625 26.1304 5.6875C26.0009 5.46875 25.8839 5.46875 25.8839 5.66927C25.8839 5.86979 25.8964 6.04601 25.8839 6.2283C25.8547 6.38628 25.8547 6.55035 26.0259 6.82986C26.3601 7.38889 26.6776 7.96615 26.9826 8.50694C27.0954 10.5061 27.1706 11.7882 27.1413 12.5842C27.1246 13.0642 27.0118 13.3438 26.8238 13.4227C26.6358 13.526 26.4479 13.3438 26.2724 12.9852C25.9549 12.3472 25.8421 12.4688 25.5956 13.0278C25.3617 13.5443 25.203 13.9878 25.0735 14.3646C24.9607 14.7231 24.756 15.0451 24.568 14.5651C24.3967 14.0851 24.3675 13.5443 24.38 13.1675C24.38 12.7847 24.3382 12.487 24.238 13.0885C23.9789 14.5651 24.1377 14.8872 24.4259 15.2031C24.7852 15.6467 24.9022 15.6832 25.0902 15.3064C25.4661 14.5833 25.5664 13.9453 25.7836 13.5868C25.9549 13.3073 25.9549 13.526 26.0426 13.6658C26.2599 14.0425 26.4479 14.1823 26.7486 14.2431C27.0536 14.322 27.6009 13.9635 27.5591 12.566C27.5298 11.7274 27.4881 10.5851 27.4296 9.36979C27.7178 9.92882 27.9768 10.4271 28.1815 10.8281C28.2818 11.6241 28.3403 12.3472 28.311 12.9245C28.2818 13.5868 28.382 13.5868 28.4823 12.9062C28.5116 12.6267 28.5116 12.0434 28.4698 11.3446C28.8583 12.0677 29.0881 12.5477 29.2468 12.888C29.4223 13.3073 29.5225 13.6658 29.4807 12.803ZM25.5205 11.2292C25.5205 11.0894 25.5664 11.0469 25.7377 10.8464C25.8839 10.6884 26.2891 10.2873 26.4186 10.105C26.5481 9.92882 26.6484 9.76476 26.6776 9.98958C26.6902 10.2083 26.7194 10.2873 26.5607 10.4089C26.4019 10.5061 25.9842 10.8646 25.8547 11.0043C25.7084 11.1684 25.5205 11.3689 25.5205 11.2292ZM25.5664 8.76823C25.5372 8.95052 25.3617 8.95052 25.3784 8.75C25.3909 8.54948 25.3784 8.58594 25.3784 8.42795C25.3617 8.26997 25.5079 8.16667 25.5789 8.30642C25.6667 8.44618 25.8129 8.88976 25.8547 9.04774C25.9131 9.20573 25.9424 9.16927 25.9424 8.95052C25.9257 8.68924 25.8964 8.44618 25.9131 8.26997C25.9257 8.16667 25.9716 8.04514 26.0552 7.94792C26.1596 7.85069 26.2139 7.82639 26.2599 8.00868C26.2891 8.16667 26.3727 8.1849 26.3309 8.33073C26.2724 8.52517 26.1429 8.13021 26.0552 8.40972C26.0134 8.61024 26.0552 9.16927 26.0426 9.36979C26.0426 9.54601 25.9842 9.80729 25.8839 9.50955C25.8129 9.30903 25.7084 8.96875 25.5664 8.76823ZM24.568 7.14583C24.7727 7.28559 24.9899 7.37066 24.8312 7.03038C24.6682 6.70833 24.5387 6.16753 24.4552 5.76649C24.3507 5.37153 24.3257 5.38976 24.1628 5.73003C23.9205 6.24653 24.1377 6.75087 24.192 7.34635C24.3967 9.48524 24.5972 11.6667 24.6557 12.2439C24.7142 12.888 24.7852 13.3073 24.6682 14.0061C24.6265 14.2248 24.6849 14.2856 24.7852 14.0243C25.1904 12.967 24.9147 12.0434 24.8729 11.4479C24.8019 10.5243 24.568 8.08767 24.5262 7.10938M23.5737 7.04861C23.6865 7.18837 23.8202 7.18837 23.745 6.89062C23.674 6.58681 23.6155 6.2283 23.5445 5.88802C23.4735 5.54774 23.4275 5.46875 23.3398 5.62674C23.2395 5.80903 23.1685 5.86979 23.0975 5.99132C23.0223 6.08854 23.0098 6.30729 23.0975 6.50781C23.415 9.52778 23.4275 10.8646 23.4735 11.9887C23.5152 13.1068 23.6322 13.6233 23.1267 14.3828C22.5753 15.2031 22.2453 15.4036 21.9988 15.4826C21.7231 15.592 21.6103 15.75 21.9069 15.75C22.8761 15.75 22.9722 15.3733 23.369 14.7656C23.6907 14.2734 23.8453 13.6476 23.8202 12.1649C23.791 9.56424 23.5278 8.44618 23.5737 7.04861ZM19.9476 14.6866C20.0939 14.5651 20.1649 14.4679 20.2777 14.4071C20.3946 14.322 20.4824 14.3464 20.3946 14.6866C20.3069 15.0816 20.3529 15.2031 20.5409 15.1059C20.7121 15.0269 20.8124 14.9236 20.9586 14.8446C21.0881 14.7656 21.2343 14.7656 21.0296 14.9844C20.8709 15.1667 20.6411 15.4036 20.5116 15.4462C20.2234 15.5434 20.0771 15.3854 20.1356 15.0634C20.1941 14.7656 20.2359 14.6441 20.0646 14.7474C19.8599 14.8628 19.8766 14.7474 19.9476 14.6866ZM22.2745 7.88715C22.3288 8.13021 22.404 8.24566 22.4458 7.94792C22.475 7.68663 22.5335 7.60764 22.5628 7.88715C22.6045 8.16667 22.7215 8.13021 22.7508 7.86892C22.7925 7.60764 22.851 7.46788 22.8803 7.7474C22.9095 8.04514 22.8928 8.14844 22.8636 8.24566C22.851 8.33073 22.734 8.42795 22.6463 8.30642C22.5461 8.1849 22.5168 8.1849 22.4458 8.28819C22.2871 8.48872 22.2286 8.34896 22.1993 8.06944C22.1868 7.82639 22.2453 7.72917 22.2745 7.88715ZM23.2395 12.9245C23.11 12.0252 22.5168 10.5851 21.6354 8.70747C21.6103 8.2092 21.5936 7.7474 21.5936 7.32812C21.7231 7.52865 21.8108 7.40712 21.769 7.14583C21.6813 6.6901 21.5518 6.30729 21.3931 5.7908C21.3346 5.57205 21.1758 5.51128 21.1048 5.82726C21.0004 6.21007 20.9878 6.28906 21.1173 6.55035C21.1048 6.82986 21.1758 7.3099 21.2051 7.7474C21.0463 7.42535 20.8416 7.03038 20.6829 6.6901C20.9294 6.82986 21.0756 6.72656 20.8583 6.41059C20.6411 6.07031 20.3362 5.73003 20.1482 5.48698C19.9602 5.25 19.8766 5.40799 19.9059 5.62674C19.9184 5.85156 19.9351 6.00955 19.9184 6.18576C19.9059 6.36806 19.9476 6.48958 20.1356 6.58681C20.5116 7.26736 20.8876 7.96615 21.2343 8.68924C21.2761 9.28472 21.3638 9.94705 21.4056 10.4878C21.5226 11.7639 21.6938 13.4227 21.5518 14.1458C21.4348 14.6866 21.5518 14.9236 21.7398 14.1033C21.9111 13.283 21.8944 12.5052 21.7816 11.2839C21.7356 10.8099 21.7231 10.2083 21.6813 9.64931C22.2871 10.9436 22.8343 12.1832 23.0808 13.046C23.2103 13.5078 23.3273 13.605 23.2395 12.9245ZM22.1575 5.62674C22.0991 5.7908 22.0573 5.90625 22.1701 6.02778C22.2871 6.14931 22.4625 6.47135 22.3873 6.82986C22.3455 7.10938 22.3873 7.32812 22.5168 6.92708C22.6463 6.50781 22.5461 6.00955 22.4166 5.6875C22.2996 5.40799 22.2286 5.46875 22.1575 5.62674ZM17.884 9.98958C17.8547 10.2691 17.8965 10.4453 17.9675 10.5851C18.0427 10.7248 18.1847 10.7066 18.2307 10.5486C18.2725 10.3663 18.3017 10.3481 18.3894 10.4878C18.4897 10.6276 18.8197 10.5061 18.661 9.80729C18.59 9.52778 18.5607 9.58854 18.5607 9.90451C18.5607 10.4089 18.4437 10.4089 18.3142 9.92882C18.2725 9.74653 18.214 9.74653 18.2014 9.98958C18.2014 10.4453 18.0552 10.5061 17.9675 10.0443C17.9383 9.84983 17.9132 9.68576 17.884 9.98958ZM19.8766 10.7066C20.1774 10.6094 20.0061 10.5668 19.8014 10.3845C19.5884 10.2083 19.5006 10.2083 19.5132 10.4089C19.5299 10.5243 19.5299 10.6458 19.5591 10.8038C19.6594 10.7674 19.7597 10.7491 19.8766 10.7066ZM19.2834 9.7283C19.5132 9.26649 19.8892 9.40625 20.3236 9.82552C20.7581 10.2448 20.5826 10.9071 20.1649 11.2474C20.0646 11.3264 19.9351 11.4054 19.7722 11.4844C19.8181 11.6241 19.7597 11.6667 19.6302 11.5451C19.2542 11.7274 18.7612 11.9887 18.4187 12.2439C18.8364 12.2865 20.5701 12.2439 20.9168 12.1832C21.2636 12.1467 21.2051 12.2257 21.1048 12.645C21.0004 13.046 20.8876 13.0035 20.5993 13.0642C20.1356 13.1858 19.4547 13.4653 18.9659 13.7448C18.473 14.0243 18.6484 14.5226 19.1539 14.7839C19.5424 14.9236 19.5006 14.9844 19.4296 15.3064C19.3711 15.6042 19.3711 15.6832 18.8949 15.5859C17.7252 15.3247 17.3033 14.4253 17.1153 13.7266C16.3968 15.1424 15.6866 15.9262 15.0224 15.6832C14.6923 15.5859 14.5336 15.1667 14.5043 14.6441C14.0406 14.9418 13.5059 15.2031 12.8124 15.4826C12.6537 15.5616 12.5242 15.4644 12.7414 15.3247C13.201 15.0026 13.9237 14.4679 14.5169 13.8845C14.5754 13.526 14.7049 13.0278 14.8344 12.6632C14.9054 12.4444 14.9513 12.5234 14.9513 12.7057C14.9513 12.8455 14.9221 13.204 14.9346 13.4653C15.0391 13.3438 15.1811 13.2283 15.2521 13.125C15.6573 12.6267 16.1043 12.3047 15.8035 11.5087C15.674 11.1441 15.5696 10.8889 15.5278 10.7248C15.2688 10.5851 15.3398 10.3845 15.4568 10.0443C15.5696 9.71007 15.6156 9.625 15.8453 10.0078C16.1795 10.5486 16.2213 10.7856 15.9915 10.7491C16.3508 12.0252 16.2631 12.6875 15.7033 13.447C15.4401 13.8238 15.1686 14.1276 14.8511 14.3646C14.8218 14.7049 14.9221 15.0451 15.3816 14.9418C15.9915 14.8264 16.6683 13.7266 16.9565 12.888C16.827 12.1832 16.5388 10.9253 16.3675 10.2873C16.2798 9.96528 16.3675 9.82552 16.4385 9.56424C16.5263 9.30903 16.568 9.14497 16.6683 9.50955C16.7686 9.84983 17.086 10.7066 17.2323 11.7274C17.391 12.7483 17.3618 13.6233 17.7377 14.1033C17.9132 14.322 18.1262 14.4679 18.3602 14.5469C18.1847 13.8663 18.5482 13.3438 19.0244 13.1068C18.7362 12.724 18.285 12.7847 17.7795 12.7483C17.4077 12.724 17.4495 12.6632 17.5497 12.2075C17.65 11.7457 17.767 11.6849 18.0427 11.5269C18.4187 11.3264 18.7905 11.1259 19.1832 10.9679C18.9367 10.4696 19.0954 10.105 19.2834 9.7283ZM17.462 5.62674C17.3618 5.76649 17.3618 5.7908 17.4495 5.96701C17.5372 6.10677 17.6667 6.55035 17.6208 7.00608C17.6082 7.2066 17.6375 7.40712 17.7085 7.04861C17.767 6.6901 17.7503 6.18576 17.6793 5.88802C17.6082 5.59028 17.5205 5.51128 17.462 5.62674ZM15.4986 6.41059C15.2688 7.3099 15.2814 8.16667 15.7576 8.90799C16.0333 9.32726 16.2338 9.12674 16.3508 8.66493C16.4803 8.22743 16.568 7.78993 16.6558 7.48611C16.7393 7.18837 16.8145 7.24913 16.7978 7.52865C16.756 8.08767 16.7268 8.98698 17.132 9.32726C17.5372 9.66753 18.1555 9.09028 18.3727 8.48872C19.0244 9.68576 19.6009 9.12674 19.6719 7.96615C19.6886 7.60764 19.5717 6.82986 19.5006 6.61111C19.4296 6.36806 19.4714 6.36806 19.5717 6.48958C19.6719 6.62934 19.8474 6.70833 19.7597 6.30729C19.6594 5.93056 19.5424 5.71181 19.3837 5.52951C19.2416 5.34722 19.2124 5.45052 19.1539 5.59028C19.0954 5.73003 19.108 5.76649 19.0244 5.86979C18.9367 5.99132 18.9492 6.04601 19.0244 6.27083C19.2667 7.14583 19.5006 8.42795 19.108 8.54948C18.7487 8.6467 18.5189 7.5651 18.5022 7.09115C18.4897 6.44705 18.4312 5.90625 18.3435 5.57205C18.2808 5.3533 18.2432 5.25 18.2098 5.25C18.1513 5.25 18.0678 5.59635 18.0135 5.73003C17.955 5.86979 18.0135 5.90625 18.0552 6.18576C18.2725 7.58941 18.2432 8.22743 17.7795 8.58594C17.32 8.96875 17.0735 8.61024 17.0735 8.16667C17.061 7.72917 17.061 7.18837 17.1028 6.78733C17.132 6.38628 17.203 6.3316 17.1028 6.13108C17.0025 5.90625 16.9148 5.99132 16.7853 6.24653C16.497 6.80556 16.2088 7.7474 16.1043 8.1849C16.0041 8.6467 15.8035 8.48872 15.6573 8.1059C15.4986 7.65017 15.5153 6.82986 15.5696 6.50781C15.6281 6.18576 15.5988 6.04601 15.4986 6.41059ZM14.9054 6.07031C14.9346 5.94878 14.8636 5.82726 14.8051 6.00955C14.7633 6.14931 14.7466 6.24653 14.8344 6.3316C14.8636 6.24653 14.8928 6.14931 14.9054 6.07031ZM14.5586 5.88802C14.7341 5.26823 15.3106 5.34722 15.1519 6.14931C15.1393 6.27083 15.0934 6.42882 15.0391 6.58681C15.1226 6.75087 15.0808 6.95139 14.9054 6.90885C14.7174 7.32812 14.3581 7.78993 13.7357 8.16667C13.4474 8.34896 13.4057 8.2092 13.6229 8.02691C14.0406 7.65017 14.4291 7.18837 14.6756 6.70833C14.4876 6.48958 14.4876 6.16753 14.5586 5.88802ZM14.4584 8.1059C14.2871 8.40972 14.1576 8.84722 14.3999 9.10851C14.5336 9.26649 14.8051 9.09028 14.9054 8.78646C15.0098 8.47049 14.9639 8.42795 14.7926 8.68924C14.5461 9.06597 14.2996 8.72569 14.5586 8.2092C14.7341 7.85069 14.6338 7.76562 14.4584 8.1059ZM14.0699 12.5052C14.0991 12.645 14.0824 12.967 14.0406 13.1068C13.9822 13.283 14.0406 13.3681 14.1284 13.1432C14.2119 12.9062 14.2704 12.6267 14.2286 12.3472C14.2119 12.1467 14.2119 12.0859 14.0824 12.0069C13.9404 11.928 13.8944 12.0434 13.8526 12.2075C13.7942 12.408 13.8652 12.6267 14.0699 12.5052ZM11.8433 11.1866C11.5843 11.2839 11.5425 11.1441 11.555 10.9253C11.5717 10.7066 11.5843 10.6458 11.7597 10.7491C11.8307 10.7856 11.9185 10.9253 12.0062 11.1076C11.9477 11.1259 11.8892 11.1684 11.8433 11.1866ZM12.0605 10.2873C11.8015 9.92882 11.5843 9.90451 11.367 10.3481C11.1665 10.7674 11.179 10.8646 11.1957 11.2474C11.2083 11.6241 11.154 11.7639 11.367 11.8672C11.5717 11.9644 11.6595 11.928 11.789 11.8672C11.8892 11.8247 12.0312 11.7639 12.1775 11.6849C12.2067 11.8854 12.19 12.1042 12.1064 12.2682C11.5717 13.1432 10.7488 13.7873 10.3853 13.204C10.1848 12.888 10.0971 12.3837 10.1555 11.7882C10.214 11.2839 10.0971 11.5087 10.0553 11.6849C9.92578 12.2682 9.87983 13.1068 10.0553 13.526C10.3018 14.1033 10.6903 14.3646 11.3127 13.9878C11.931 13.605 12.5367 12.9245 12.5117 11.9887C12.5117 11.8064 12.495 11.6484 12.495 11.5269C12.5534 11.4844 12.6537 11.3872 12.7247 11.3446C12.7414 11.6667 12.7122 12.0677 12.7247 12.3837C12.754 13.4045 12.4657 13.7023 12.2067 13.9878C11.8433 14.3828 11.3545 14.6441 10.9367 14.7474C9.93831 14.9418 9.70855 14.0668 9.72108 12.888C9.72108 12.7057 9.77957 12.5842 9.77957 12.3229C9.76704 11.8247 9.72108 11.9036 9.60829 12.408C9.50385 12.888 9.37435 14.0061 9.70855 14.9236C10.0553 15.8472 11.225 15.5859 12.1357 14.9844C13.0297 14.3828 13.1299 13.2465 13.0882 12.1042C13.0882 11.8064 13.0715 11.4844 13.0589 11.1441C13.0882 11.1259 13.1007 11.0894 13.1174 11.0651C13.2469 11.6484 13.8526 11.4844 14.0406 11.1441C14.1409 10.9861 14.1409 10.9679 14.2286 11.1441C14.3581 11.4054 14.8051 11.4844 14.9221 11.1259C15.0224 10.7491 15.0098 10.3845 14.9806 10.105C14.9513 9.82552 14.9054 9.84983 14.7759 9.98958C14.6338 10.1476 14.7466 10.1658 14.7633 10.3663C14.8218 11.1259 14.3456 11.0651 14.2871 10.2873C14.2579 9.80729 14.1994 9.98958 14.1576 10.2083C13.9529 11.1441 13.3597 11.3264 13.4182 10.2448C13.4349 9.92882 13.2887 10.026 13.2177 10.1476C13.1466 10.2266 13.0882 10.3299 13.0171 10.3845C12.9712 9.50955 12.9294 8.50694 12.8542 7.3099C13.0297 7.60764 13.1884 7.26736 13.0715 6.92708C12.9879 6.6658 12.8542 6.08854 12.7707 5.76649C12.6955 5.45052 12.6537 5.54774 12.4657 5.80903C12.2944 6.08854 12.3237 6.14931 12.4072 6.42882C12.378 6.7691 12.4239 7.10938 12.4824 7.80816C12.5242 8.30642 12.6412 9.34549 12.6955 10.6641C12.6119 10.7248 12.4824 10.8464 12.3947 10.9071C12.3237 10.6884 12.2192 10.5061 12.0605 10.2873ZM8.9566 12.8273C8.96913 13.0278 8.96913 13.1675 8.96913 13.2465C8.96913 13.3863 8.91482 13.526 8.88558 13.7023C8.71012 14.5651 8.96913 14.9844 9.11534 14.6623C9.24485 14.3464 9.31586 14.3828 9.30333 14.6441C9.2908 15.5069 8.69759 15.5616 8.65164 14.8446C8.58062 13.7023 8.76861 13.526 8.82709 13.1432C8.86887 12.888 8.92735 12.6875 8.9566 12.8273ZM8.65164 11.5634C9.07357 10.8646 9.60829 10.5061 9.87983 10.3845C10.0553 10.3056 10.143 10.2083 10.143 10.4453C10.1555 10.6641 10.143 10.6884 9.9968 10.7491C9.6626 10.8646 8.96913 11.3446 8.73937 11.5877C8.62657 11.7092 8.48036 11.849 8.65164 11.5634ZM11.0078 5.54774C10.966 5.71181 10.9952 5.90625 11.0662 6.02778C11.1373 6.16753 11.2668 6.16753 11.3545 6.07031C11.4255 5.94878 11.4255 5.93056 11.5007 6.08854C11.5425 6.21007 11.6845 6.16753 11.7305 6.04601C11.7597 5.94878 11.8015 5.85156 11.7597 5.71181C11.7138 5.57205 11.7138 5.60851 11.6845 5.76649C11.6595 6.02778 11.484 5.96701 11.4715 5.65104C11.4715 5.34722 11.4255 5.51128 11.367 5.71181C11.2668 6.00955 11.1247 5.94878 11.1247 5.6875C11.1247 5.46875 11.0788 5.28646 11.0078 5.54774ZM10.3853 9.74653C10.4313 10.4696 10.5733 11.8064 10.5733 12.2682C10.59 12.7483 10.6318 12.6085 10.7195 12.3472C10.8072 12.0859 10.7905 11.8064 10.778 11.4236C10.7488 11.0286 10.732 10.3663 10.6736 9.46701C10.7905 9.34549 10.8908 9.14497 10.9367 9.02951C11.0495 8.72569 11.0788 8.75 11.1247 8.98698C11.2083 9.46701 11.555 9.78906 12.0187 9.32726C12.4532 8.90799 12.2652 8.02691 12.0772 7.06684C12.2359 7.10938 12.2944 6.92708 12.19 6.6901C12.1482 6.55035 12.0605 6.42882 11.9895 6.30729C11.9185 6.18576 11.8433 6.08854 11.7722 6.21007C11.7138 6.3316 11.6427 6.42882 11.601 6.50781C11.555 6.58681 11.555 6.6658 11.6135 6.86632C11.789 7.42535 11.9017 8.02691 11.931 8.36719C11.9769 8.68924 11.8892 8.76823 11.7305 8.76823C11.5717 8.76823 11.3545 8.70747 11.2668 8.22743C11.179 7.7474 11.1373 7.52865 11.154 7.2066C11.1665 6.89062 11.1957 6.6658 11.037 6.34983C10.8615 6.02778 10.849 6.08854 10.8072 6.24653C10.778 6.42882 10.7195 6.6901 10.778 6.98785C10.849 7.42535 10.8908 7.80816 10.9367 8.06944C10.966 8.24566 10.8323 8.62847 10.6485 8.82899C10.6025 8.22743 10.5315 7.42535 10.5023 6.78733C10.7488 6.6658 10.6192 6.21007 10.4146 5.71181C10.2725 5.32899 10.214 5.48698 10.1138 5.73003C10.0093 5.96701 10.0845 6.07031 10.1555 6.27083C10.0971 6.42882 10.1973 6.6658 10.2433 7.10938C10.2558 7.38889 10.3018 8.1849 10.3435 8.88976C10.143 8.88976 10.026 8.70747 9.95502 8.47049C9.79628 7.96615 9.83805 7.51042 9.90907 7.2066C9.98427 6.90885 10.0553 6.44705 9.92578 6.3316C9.80881 6.21007 9.65006 6.34983 9.5498 6.56858C9.37435 6.92708 9.2156 7.44965 9.20307 7.99045C9.18636 8.2092 9.14459 8.62847 9.07357 8.78646C9.01508 8.95052 8.91482 8.96875 8.81038 8.72569C8.63911 8.34896 8.58062 7.38889 8.59733 6.89062C8.59733 6.64757 8.55138 6.61111 8.49289 6.89062C8.44276 7.14583 8.42188 7.40712 8.42188 7.65625C8.42188 8.36111 8.56391 9.00521 8.68088 9.32726C8.83963 9.76476 9.04432 9.66753 9.18636 9.30903C9.40359 8.76823 9.31586 8.28819 9.52056 7.48611C9.63753 6.98785 9.67931 7.37066 9.63753 7.6684C9.53309 8.47049 9.56234 9.76476 10.3853 9.74653ZM9.14459 6.61111C9.2908 6.04601 9.30333 5.54774 9.13205 5.73003C8.98584 5.88802 8.89811 5.73003 9.01508 5.54774C9.15712 5.28646 9.34511 5.20747 9.39106 5.65104C9.40359 5.99132 9.23231 6.41059 9.14459 6.61111Z" fill="white"/>
</g>
<defs>
<clipPath id="clip0_122_7145">
<rect width="38.5" height="28" rx="4" fill="white"/>
</clipPath>
</defs>
</svg>
