<svg width="24" height="24" viewBox="0 0 24 24" fill="none" xmlns="http://www.w3.org/2000/svg">
<g id="Icon/savings">
<path id="Vector (Stroke)" fill-rule="evenodd" clip-rule="evenodd" d="M18.949 10.4475C18.9825 10.6266 19 10.8113 19 11C19 12.6546 17.6546 14 16 14C14.3454 14 13 12.6546 13 11C13 9.34543 14.3454 8 16 8C16.1887 8 16.3734 8.0175 16.5525 8.05097L15.418 6.91643L15.5872 5.9012C15.6331 5.62565 15.693 5.35418 15.7666 5.09021C15.0913 5.25986 14.507 5.65883 14.0984 6.20211L13.4983 7H7.5C5.56457 7 4 8.56457 4 10.5C4 11.7252 4.5493 14.3461 5.19006 16.904C5.48569 18.0842 5.7819 19.18 6.00987 20H8V18H14V20H16.0127L17.5633 14.8407L20 14.0285V10.5H19.0016L18.949 10.4475ZM22 8.5V15.47L19.18 16.41L17.5 22H12V20H10V22H4.5C4.5 22 2 13.54 2 10.5C2 7.46 4.46 5 7.5 5H12.5C13.41 3.79 14.86 3 16.5 3C17.33 3 18 3.67 18 4.5C18 4.71 17.96 4.9 17.88 5.08C17.74 5.42 17.63 5.81 17.56 6.23L19.83 8.5H22ZM17 11C17 10.4454 16.5546 10 16 10C15.4454 10 15 10.4454 15 11C15 11.5546 15.4454 12 16 12C16.5546 12 17 11.5546 17 11Z" fill="#FB542B"/>
</g>
</svg>
