<svg width="44" height="44" viewBox="0 0 44 44" fill="none" xmlns="http://www.w3.org/2000/svg">
<g id="Icon / sort">
<path id=" &#226;&#134;&#179;Color" fill-rule="evenodd" clip-rule="evenodd" d="M19 29.5C19 30.3284 19.6716 31 20.5 31H23.5C24.3284 31 25 30.3284 25 29.5C25 28.6716 24.3284 28 23.5 28H20.5C19.6716 28 19 28.6716 19 29.5ZM11.5 12C10.6716 12 10 12.6716 10 13.5C10 14.3284 10.6716 15 11.5 15H32.5C33.3284 15 34 14.3284 34 13.5C34 12.6716 33.3284 12 32.5 12H11.5ZM14 21.5C14 22.3284 14.6716 23 15.5 23H28.5C29.3284 23 30 22.3284 30 21.5C30 20.6716 29.3284 20 28.5 20H15.5C14.6716 20 14 20.6716 14 21.5Z" fill="#344054" fill-opacity="0.75"/>
</g>
</svg>
