<svg width="40" height="40" viewBox="0 0 40 40" fill="none" xmlns="http://www.w3.org/2000/svg">
<g clip-path="url(#clip0_58_26054)">
<path d="M16.1854 9.70654C15.9164 9.52077 15.7349 9.2368 15.6803 8.92702L15.1902 6.54369C15.0855 6.15924 14.5687 6.04769 14.3254 6.35701L12.8959 8.32603C12.7078 8.58345 12.4275 8.75708 12.1142 8.82781L10.7766 9.09253C10.3807 9.18801 10.2731 9.68629 10.5944 9.93656L11.7038 10.7294C11.9728 10.9152 12.1543 11.1992 12.2089 11.5089L12.6968 13.9024C12.8014 14.2869 13.3182 14.3984 13.5616 14.0891L14.9933 12.1099C15.1813 11.8525 15.4617 11.6789 15.775 11.6081L17.1126 11.3434C17.5085 11.248 17.616 10.7497 17.2947 10.4994L16.1854 9.70654Z" fill="#FFC681"/>
<path d="M29.9461 19.537C29.1535 18.9573 28.6153 18.0886 28.4389 17.1258L27.0256 9.6816C26.7304 8.4782 25.1908 8.14587 24.4255 9.12039L20.0675 15.319C19.4996 16.121 18.651 16.6905 17.7 16.8938L13.6926 17.7599C12.4965 18.0608 12.1594 19.6223 13.125 20.3898L16.4184 22.8317C17.211 23.4114 17.7492 24.2802 17.9256 25.2429L19.3389 32.6871C19.6341 33.8905 21.1737 34.2228 21.939 33.2483L26.297 27.0498C26.8649 26.2477 27.7135 25.6782 28.6645 25.4749L32.6719 24.6088C33.868 24.3079 34.205 22.7464 33.2395 21.9789L29.9461 19.537Z" fill="#FFC681"/>
<path d="M11.0402 22.6045C11.1168 23.0344 11.346 23.4042 11.6791 23.6621L13.0834 24.7299C13.499 25.0676 13.3519 25.7489 12.8341 25.8851L11.1144 26.2786C10.7046 26.3762 10.3411 26.6284 10.0961 26.9785L8.21004 29.7129C7.87916 30.1375 7.22197 29.9956 7.09568 29.4724L6.50536 26.2035C6.42868 25.7736 6.19949 25.4038 5.8664 25.1459L4.46209 24.0781C4.04653 23.7404 4.19358 23.0592 4.71143 22.9229L6.43114 22.5294C6.84096 22.4319 7.20441 22.1796 7.44944 21.8295L9.33548 19.0952C9.66636 18.6706 10.3235 18.8124 10.4498 19.3357L11.0402 22.6045Z" fill="#FFC681"/>
</g>
<defs>
<clipPath id="clip0_58_26054">
<rect width="32.999" height="32.999" fill="white" transform="translate(7.11719 0.309814) rotate(12.1798)"/>
</clipPath>
</defs>
</svg>
