<svg width="39" height="28" viewBox="0 0 39 28" fill="none" xmlns="http://www.w3.org/2000/svg">
<g clip-path="url(#clip0_122_7144)">
<mask id="mask0_122_7144" style="mask-type:luminance" maskUnits="userSpaceOnUse" x="0" y="0" width="39" height="28">
<path d="M0 6.10352e-05V28H38.5V6.10352e-05H0Z" fill="white"/>
</mask>
<g mask="url(#mask0_122_7144)">
<path d="M0 3.05176e-05V28H38.5V3.05176e-05H0Z" fill="#012169"/>
<path d="M0 3.05176e-05L38.5 28L0 3.05176e-05ZM38.5 3.05176e-05L0 28L38.5 3.05176e-05Z" fill="black"/>
<path fill-rule="evenodd" clip-rule="evenodd" d="M14.9456 14L-0.86084 2.50437L0.860933 -2.50443L19.25 10.8695L37.6392 -2.50443L39.3609 2.50437L23.5545 14L39.3609 25.4956L37.6392 30.5044L19.25 17.1305L0.860933 30.5044L-0.86084 25.4956L14.9456 14Z" fill="white"/>
<mask id="mask1_122_7144" style="mask-type:luminance" maskUnits="userSpaceOnUse" x="0" y="0" width="39" height="28">
<path d="M19.25 14H38.5V28L19.25 14ZM19.25 14V28H0L19.25 14ZM19.25 14H0V3.05176e-05L19.25 14ZM19.25 14V3.05176e-05H38.5L19.25 14Z" fill="white"/>
</mask>
<g mask="url(#mask1_122_7144)">
<path d="M0 3.05176e-05L38.5 28L0 3.05176e-05ZM38.5 3.05176e-05L0 28L38.5 3.05176e-05Z" fill="black"/>
<path fill-rule="evenodd" clip-rule="evenodd" d="M16.3801 14.0001L-0.574219 1.66965L0.57363 -1.66954L19.2497 11.9131L37.9258 -1.66954L39.0736 1.66965L22.1193 14.0001L39.0736 26.3305L37.9258 29.6697L19.2497 16.0871L0.57363 29.6697L-0.574219 26.3305L16.3801 14.0001Z" fill="#C8102E"/>
</g>
<path d="M19.25 3.05176e-05V28V3.05176e-05ZM0 14H38.5H0Z" fill="black"/>
<path fill-rule="evenodd" clip-rule="evenodd" d="M16.0417 9.33336V3.05176e-05H22.4583V9.33336H38.5V18.6667H22.4583V28H16.0417V18.6667H0V9.33336H16.0417Z" fill="white"/>
<path d="M19.25 3.05176e-05V28V3.05176e-05ZM0 14H38.5H0Z" fill="black"/>
<path fill-rule="evenodd" clip-rule="evenodd" d="M17.325 11.2V3.05176e-05H21.175V11.2H38.5V16.8H21.175V28H17.325V16.8H0V11.2H17.325Z" fill="#C8102E"/>
</g>
</g>
<defs>
<clipPath id="clip0_122_7144">
<rect width="38.5" height="28" rx="4" fill="white"/>
</clipPath>
</defs>
</svg>
